%TF.GenerationSoftware,Altium Limited,Altium Designer,21.6.4 (81)*%
G04 Layer_Color=16711935*
%FSLAX45Y45*%
%MOMM*%
%TF.SameCoordinates,3C7A34B0-86E9-4D91-B345-B3FD4EC93741*%
%TF.FilePolarity,Negative*%
%TF.FileFunction,Soldermask,Bot*%
%TF.Part,Single*%
%TFFileComment,PewCB.BlankType,3x3Base*%
G01*
G75*
%TA.AperFunction,ViaPad*%
%ADD22C,1.80000*%
%ADD23C,4.40000*%
D22*
X-381000Y2159000D02*
D03*
X-381000Y2413000D02*
D03*
X-2413000Y127000D02*
D03*
X2158999Y1905000D02*
D03*
X2413000Y1905000D02*
D03*
X2413000Y1651000D02*
D03*
X2159000Y1651000D02*
D03*
Y1397000D02*
D03*
X2413000Y1397000D02*
D03*
X2413000Y1143000D02*
D03*
X2159000Y1143000D02*
D03*
X2413000Y889000D02*
D03*
X2159000D02*
D03*
X2413000Y635000D02*
D03*
X2159000Y634999D02*
D03*
Y381000D02*
D03*
X2413000Y127000D02*
D03*
Y-381001D02*
D03*
Y-1142999D02*
D03*
Y-1651000D02*
D03*
Y-1905000D02*
D03*
Y-127000D02*
D03*
Y-635000D02*
D03*
Y-1397000D02*
D03*
Y-889000D02*
D03*
Y381000D02*
D03*
X2159001Y-1143000D02*
D03*
X2159000Y-1905000D02*
D03*
X2159000Y127000D02*
D03*
Y-1651000D02*
D03*
Y-889000D02*
D03*
Y-127000D02*
D03*
Y-635000D02*
D03*
Y-381001D02*
D03*
X2158999Y-1397000D02*
D03*
X-1905000Y2159000D02*
D03*
X1905000Y2413000D02*
D03*
X1651000D02*
D03*
X1905000Y2159000D02*
D03*
X1651000Y2159000D02*
D03*
X1397000D02*
D03*
X1397000Y2413000D02*
D03*
X1143000D02*
D03*
Y2159000D02*
D03*
X889000Y2413000D02*
D03*
Y2159000D02*
D03*
X635000Y2413000D02*
D03*
Y2159000D02*
D03*
X381000D02*
D03*
X381000Y2413000D02*
D03*
X127000Y2159000D02*
D03*
X-1905000Y2413000D02*
D03*
X127000Y2413000D02*
D03*
X-127000D02*
D03*
X-889000D02*
D03*
X-635000D02*
D03*
X-1143000D02*
D03*
X-1651000D02*
D03*
X-1397000Y2413000D02*
D03*
X-1143000Y2159000D02*
D03*
X-127000Y2159000D02*
D03*
X-635000D02*
D03*
X-889000D02*
D03*
X-1397000D02*
D03*
X-1651000D02*
D03*
X-2159000Y-889000D02*
D03*
X-2413000Y-1905000D02*
D03*
Y-1397000D02*
D03*
Y-1651000D02*
D03*
Y-1143000D02*
D03*
Y-889000D02*
D03*
Y-635000D02*
D03*
Y-381000D02*
D03*
X-2159000Y-1397000D02*
D03*
Y-1143000D02*
D03*
Y-1651000D02*
D03*
Y-381000D02*
D03*
Y-1905000D02*
D03*
Y-635000D02*
D03*
X-2413000Y1651000D02*
D03*
X-2159000Y1905000D02*
D03*
Y1651000D02*
D03*
X-2413000Y1905000D02*
D03*
X-2159000Y127000D02*
D03*
X-2413000Y635000D02*
D03*
X-2159000D02*
D03*
X-2413000Y1143000D02*
D03*
X-2159000Y1397000D02*
D03*
X-2413000Y381000D02*
D03*
Y1397000D02*
D03*
X-2159000Y381000D02*
D03*
X-2413000Y889000D02*
D03*
X-2159000D02*
D03*
Y1143000D02*
D03*
X-2413000Y-127000D02*
D03*
X-2159000D02*
D03*
D23*
X-2286000Y2286000D02*
D03*
X2286000D02*
D03*
X-2286000Y-2286000D02*
D03*
X2286000D02*
D03*
%TF.MD5,4bc966a770042e7cbb51660aa1606517*%
M02*
