G04*
G04 #@! TF.GenerationSoftware,Altium Limited,Altium Designer,21.6.4 (81)*
G04*
G04 Layer_Color=32896*
%FSLAX44Y44*%
%MOMM*%
G71*
G04*
G04 #@! TF.SameCoordinates,18438919-A3FB-418B-B37F-EB825DAFB3B7*
G04*
G04*
G04 #@! TF.FilePolarity,Positive*
G04*
G01*
G75*
%ADD10C,0.2000*%
%ADD15C,0.0600*%
%ADD16C,0.1100*%
%ADD17C,0.0700*%
%ADD18C,0.0127*%
%ADD19C,0.0254*%
%ADD20C,0.0762*%
G36*
X213884Y60344D02*
X212686D01*
Y61712D01*
X213884D01*
Y60344D01*
D02*
G37*
G36*
X185789Y61726D02*
X186169Y61655D01*
X186494Y61543D01*
X186776Y61430D01*
X186903Y61359D01*
X187001Y61303D01*
X187100Y61247D01*
X187170Y61190D01*
X187227Y61148D01*
X187269Y61120D01*
X187297Y61106D01*
X187311Y61091D01*
X187579Y60824D01*
X187791Y60528D01*
X187960Y60217D01*
X188101Y59907D01*
X188185Y59640D01*
X188228Y59527D01*
X188256Y59428D01*
X188270Y59343D01*
X188284Y59287D01*
X188298Y59245D01*
Y59231D01*
X187100Y59019D01*
X187043Y59329D01*
X186959Y59597D01*
X186860Y59823D01*
X186761Y60006D01*
X186663Y60147D01*
X186578Y60246D01*
X186522Y60316D01*
X186508Y60330D01*
X186325Y60471D01*
X186127Y60584D01*
X185944Y60655D01*
X185761Y60711D01*
X185592Y60739D01*
X185465Y60767D01*
X185352D01*
X185098Y60753D01*
X184872Y60697D01*
X184675Y60626D01*
X184506Y60556D01*
X184379Y60471D01*
X184280Y60401D01*
X184210Y60344D01*
X184196Y60330D01*
X184041Y60161D01*
X183928Y59978D01*
X183857Y59795D01*
X183801Y59625D01*
X183773Y59470D01*
X183745Y59358D01*
Y59273D01*
Y59259D01*
Y59245D01*
Y59090D01*
X183773Y58949D01*
X183843Y58709D01*
X183942Y58498D01*
X184055Y58314D01*
X184168Y58187D01*
X184266Y58089D01*
X184337Y58032D01*
X184351Y58018D01*
X184365D01*
X184605Y57892D01*
X184830Y57793D01*
X185070Y57722D01*
X185281Y57680D01*
X185465Y57652D01*
X185620Y57624D01*
X185803D01*
X185859Y57638D01*
X185930D01*
X186071Y56580D01*
X185888Y56623D01*
X185718Y56651D01*
X185577Y56679D01*
X185450Y56693D01*
X185352Y56707D01*
X185225D01*
X184929Y56679D01*
X184661Y56623D01*
X184421Y56538D01*
X184224Y56439D01*
X184069Y56341D01*
X183956Y56256D01*
X183886Y56200D01*
X183857Y56172D01*
X183674Y55960D01*
X183533Y55735D01*
X183435Y55509D01*
X183378Y55283D01*
X183336Y55100D01*
X183322Y54945D01*
X183308Y54889D01*
Y54847D01*
Y54818D01*
Y54804D01*
X183336Y54494D01*
X183406Y54212D01*
X183491Y53973D01*
X183604Y53761D01*
X183717Y53592D01*
X183801Y53465D01*
X183872Y53380D01*
X183900Y53352D01*
X184125Y53155D01*
X184365Y53014D01*
X184605Y52915D01*
X184830Y52845D01*
X185028Y52802D01*
X185183Y52788D01*
X185239Y52774D01*
X185324D01*
X185577Y52788D01*
X185817Y52845D01*
X186028Y52915D01*
X186198Y53000D01*
X186339Y53070D01*
X186451Y53141D01*
X186508Y53197D01*
X186536Y53211D01*
X186705Y53409D01*
X186846Y53634D01*
X186973Y53874D01*
X187072Y54128D01*
X187142Y54339D01*
X187170Y54438D01*
X187184Y54522D01*
X187199Y54593D01*
X187213Y54649D01*
X187227Y54677D01*
Y54691D01*
X188425Y54536D01*
X188397Y54311D01*
X188354Y54099D01*
X188228Y53705D01*
X188072Y53366D01*
X187988Y53225D01*
X187903Y53084D01*
X187819Y52958D01*
X187734Y52859D01*
X187664Y52760D01*
X187593Y52690D01*
X187551Y52633D01*
X187509Y52591D01*
X187481Y52563D01*
X187466Y52549D01*
X187297Y52422D01*
X187128Y52295D01*
X186959Y52196D01*
X186776Y52112D01*
X186423Y51971D01*
X186085Y51886D01*
X185930Y51858D01*
X185789Y51830D01*
X185662Y51816D01*
X185549Y51802D01*
X185465Y51788D01*
X185338D01*
X185070Y51802D01*
X184830Y51830D01*
X184591Y51872D01*
X184365Y51928D01*
X184154Y51999D01*
X183970Y52069D01*
X183787Y52154D01*
X183632Y52239D01*
X183477Y52309D01*
X183350Y52394D01*
X183237Y52464D01*
X183153Y52535D01*
X183082Y52591D01*
X183026Y52633D01*
X182998Y52661D01*
X182983Y52676D01*
X182814Y52845D01*
X182673Y53028D01*
X182547Y53211D01*
X182434Y53394D01*
X182349Y53564D01*
X182265Y53747D01*
X182152Y54085D01*
X182124Y54240D01*
X182095Y54381D01*
X182067Y54508D01*
X182053Y54621D01*
X182039Y54706D01*
Y54776D01*
Y54818D01*
Y54832D01*
X182053Y55171D01*
X182110Y55481D01*
X182194Y55749D01*
X182279Y55974D01*
X182363Y56157D01*
X182448Y56298D01*
X182504Y56383D01*
X182518Y56411D01*
X182716Y56623D01*
X182927Y56806D01*
X183153Y56947D01*
X183378Y57060D01*
X183576Y57144D01*
X183731Y57201D01*
X183787Y57215D01*
X183829Y57229D01*
X183857Y57243D01*
X183872D01*
X183632Y57370D01*
X183435Y57497D01*
X183265Y57638D01*
X183125Y57765D01*
X183012Y57877D01*
X182927Y57976D01*
X182885Y58032D01*
X182871Y58061D01*
X182758Y58258D01*
X182673Y58455D01*
X182603Y58653D01*
X182561Y58836D01*
X182532Y58991D01*
X182518Y59104D01*
Y59188D01*
Y59217D01*
X182532Y59456D01*
X182575Y59696D01*
X182631Y59907D01*
X182702Y60091D01*
X182772Y60246D01*
X182829Y60373D01*
X182871Y60443D01*
X182885Y60471D01*
X183026Y60683D01*
X183195Y60866D01*
X183364Y61021D01*
X183533Y61162D01*
X183674Y61261D01*
X183801Y61345D01*
X183886Y61388D01*
X183900Y61402D01*
X183914D01*
X184168Y61514D01*
X184421Y61599D01*
X184675Y61669D01*
X184901Y61712D01*
X185084Y61740D01*
X185239Y61754D01*
X185592D01*
X185789Y61726D01*
D02*
G37*
G36*
X233620Y59174D02*
X233902Y59118D01*
X234170Y59047D01*
X234395Y58977D01*
X234593Y58892D01*
X234734Y58822D01*
X234790Y58794D01*
X234832Y58766D01*
X234846Y58751D01*
X234860D01*
X235114Y58568D01*
X235326Y58371D01*
X235509Y58159D01*
X235664Y57948D01*
X235777Y57765D01*
X235861Y57610D01*
X235890Y57553D01*
X235918Y57511D01*
X235932Y57483D01*
Y57469D01*
X236059Y57144D01*
X236143Y56806D01*
X236214Y56496D01*
X236256Y56200D01*
X236284Y55932D01*
Y55819D01*
X236298Y55735D01*
Y55650D01*
Y55594D01*
Y55565D01*
Y55551D01*
X236284Y55227D01*
X236256Y54931D01*
X236214Y54649D01*
X236157Y54381D01*
X236087Y54142D01*
X236016Y53916D01*
X235932Y53705D01*
X235847Y53521D01*
X235763Y53352D01*
X235678Y53211D01*
X235608Y53084D01*
X235537Y52986D01*
X235481Y52901D01*
X235438Y52845D01*
X235410Y52817D01*
X235396Y52802D01*
X235227Y52633D01*
X235044Y52478D01*
X234860Y52337D01*
X234663Y52224D01*
X234480Y52126D01*
X234311Y52041D01*
X234127Y51985D01*
X233972Y51928D01*
X233817Y51886D01*
X233676Y51858D01*
X233549Y51830D01*
X233437Y51816D01*
X233352Y51802D01*
X233225D01*
X233014Y51816D01*
X232816Y51844D01*
X232647Y51886D01*
X232478Y51928D01*
X232351Y51971D01*
X232253Y52013D01*
X232196Y52041D01*
X232168Y52055D01*
X231985Y52154D01*
X231830Y52267D01*
X231689Y52365D01*
X231576Y52478D01*
X231491Y52563D01*
X231435Y52633D01*
X231393Y52690D01*
X231378Y52704D01*
Y49250D01*
X230180D01*
Y59033D01*
X231252D01*
Y58075D01*
X231393Y58272D01*
X231548Y58441D01*
X231717Y58596D01*
X231886Y58723D01*
X232055Y58822D01*
X232224Y58920D01*
X232393Y58991D01*
X232563Y59047D01*
X232718Y59090D01*
X232859Y59132D01*
X232986Y59160D01*
X233098Y59174D01*
X233183Y59188D01*
X233310D01*
X233620Y59174D01*
D02*
G37*
G36*
X166194D02*
X166434Y59132D01*
X166645Y59090D01*
X166828Y59033D01*
X166983Y58963D01*
X167096Y58920D01*
X167167Y58878D01*
X167195Y58864D01*
X167392Y58737D01*
X167561Y58596D01*
X167717Y58455D01*
X167843Y58314D01*
X167942Y58202D01*
X168027Y58103D01*
X168069Y58046D01*
X168083Y58018D01*
Y59033D01*
X169154D01*
Y51957D01*
X167956D01*
Y55622D01*
X167942Y55960D01*
X167928Y56256D01*
X167900Y56510D01*
X167857Y56721D01*
X167815Y56877D01*
X167787Y56989D01*
X167773Y57060D01*
X167759Y57088D01*
X167674Y57271D01*
X167575Y57426D01*
X167477Y57567D01*
X167378Y57680D01*
X167279Y57765D01*
X167209Y57821D01*
X167153Y57863D01*
X167139Y57877D01*
X166969Y57962D01*
X166814Y58032D01*
X166645Y58075D01*
X166504Y58117D01*
X166391Y58131D01*
X166293Y58145D01*
X166208D01*
X165968Y58131D01*
X165771Y58089D01*
X165602Y58018D01*
X165475Y57948D01*
X165376Y57863D01*
X165306Y57807D01*
X165264Y57751D01*
X165250Y57736D01*
X165151Y57567D01*
X165080Y57384D01*
X165024Y57187D01*
X164996Y56989D01*
X164968Y56820D01*
X164953Y56665D01*
Y56609D01*
Y56580D01*
Y56552D01*
Y56538D01*
Y51957D01*
X163755D01*
Y56059D01*
X163727Y56439D01*
X163671Y56764D01*
X163600Y57031D01*
X163501Y57257D01*
X163417Y57426D01*
X163332Y57539D01*
X163276Y57610D01*
X163262Y57638D01*
X163064Y57807D01*
X162853Y57934D01*
X162642Y58018D01*
X162444Y58089D01*
X162275Y58117D01*
X162134Y58131D01*
X162078Y58145D01*
X162007D01*
X161852Y58131D01*
X161725Y58117D01*
X161598Y58089D01*
X161500Y58046D01*
X161401Y58004D01*
X161345Y57976D01*
X161302Y57962D01*
X161288Y57948D01*
X161175Y57863D01*
X161091Y57779D01*
X161020Y57694D01*
X160964Y57610D01*
X160922Y57539D01*
X160893Y57483D01*
X160865Y57440D01*
Y57426D01*
X160823Y57299D01*
X160795Y57130D01*
X160781Y56961D01*
X160767Y56792D01*
X160753Y56637D01*
Y56510D01*
Y56425D01*
Y56411D01*
Y56397D01*
Y51957D01*
X159554D01*
Y56806D01*
Y57031D01*
X159583Y57229D01*
X159611Y57426D01*
X159639Y57595D01*
X159681Y57765D01*
X159738Y57906D01*
X159780Y58032D01*
X159836Y58159D01*
X159893Y58258D01*
X159935Y58357D01*
X160034Y58484D01*
X160090Y58568D01*
X160118Y58596D01*
X160344Y58794D01*
X160612Y58935D01*
X160879Y59047D01*
X161133Y59118D01*
X161373Y59160D01*
X161472Y59174D01*
X161570D01*
X161641Y59188D01*
X161739D01*
X161993Y59174D01*
X162219Y59132D01*
X162444Y59076D01*
X162656Y58991D01*
X162853Y58892D01*
X163036Y58794D01*
X163191Y58681D01*
X163346Y58568D01*
X163487Y58441D01*
X163600Y58328D01*
X163699Y58230D01*
X163783Y58131D01*
X163854Y58046D01*
X163896Y57990D01*
X163924Y57948D01*
X163939Y57934D01*
X164023Y58145D01*
X164136Y58328D01*
X164263Y58484D01*
X164375Y58610D01*
X164488Y58723D01*
X164573Y58794D01*
X164629Y58836D01*
X164657Y58850D01*
X164855Y58963D01*
X165066Y59047D01*
X165278Y59104D01*
X165489Y59146D01*
X165658Y59174D01*
X165813Y59188D01*
X165940D01*
X166194Y59174D01*
D02*
G37*
G36*
X154832D02*
X155071Y59132D01*
X155283Y59090D01*
X155466Y59033D01*
X155621Y58963D01*
X155734Y58920D01*
X155805Y58878D01*
X155833Y58864D01*
X156030Y58737D01*
X156199Y58596D01*
X156354Y58455D01*
X156481Y58314D01*
X156580Y58202D01*
X156664Y58103D01*
X156707Y58046D01*
X156721Y58018D01*
Y59033D01*
X157792D01*
Y51957D01*
X156594D01*
Y55622D01*
X156580Y55960D01*
X156566Y56256D01*
X156538Y56510D01*
X156495Y56721D01*
X156453Y56877D01*
X156425Y56989D01*
X156411Y57060D01*
X156397Y57088D01*
X156312Y57271D01*
X156213Y57426D01*
X156115Y57567D01*
X156016Y57680D01*
X155917Y57765D01*
X155847Y57821D01*
X155790Y57863D01*
X155776Y57877D01*
X155607Y57962D01*
X155452Y58032D01*
X155283Y58075D01*
X155142Y58117D01*
X155029Y58131D01*
X154930Y58145D01*
X154846D01*
X154606Y58131D01*
X154409Y58089D01*
X154240Y58018D01*
X154113Y57948D01*
X154014Y57863D01*
X153944Y57807D01*
X153901Y57751D01*
X153887Y57736D01*
X153789Y57567D01*
X153718Y57384D01*
X153662Y57187D01*
X153634Y56989D01*
X153605Y56820D01*
X153591Y56665D01*
Y56609D01*
Y56580D01*
Y56552D01*
Y56538D01*
Y51957D01*
X152393D01*
Y56059D01*
X152365Y56439D01*
X152309Y56764D01*
X152238Y57031D01*
X152139Y57257D01*
X152055Y57426D01*
X151970Y57539D01*
X151914Y57610D01*
X151900Y57638D01*
X151702Y57807D01*
X151491Y57934D01*
X151279Y58018D01*
X151082Y58089D01*
X150913Y58117D01*
X150772Y58131D01*
X150716Y58145D01*
X150645D01*
X150490Y58131D01*
X150363Y58117D01*
X150236Y58089D01*
X150138Y58046D01*
X150039Y58004D01*
X149983Y57976D01*
X149940Y57962D01*
X149926Y57948D01*
X149813Y57863D01*
X149729Y57779D01*
X149658Y57694D01*
X149602Y57610D01*
X149559Y57539D01*
X149531Y57483D01*
X149503Y57440D01*
Y57426D01*
X149461Y57299D01*
X149433Y57130D01*
X149419Y56961D01*
X149404Y56792D01*
X149390Y56637D01*
Y56510D01*
Y56425D01*
Y56411D01*
Y56397D01*
Y51957D01*
X148192D01*
Y56806D01*
Y57031D01*
X148220Y57229D01*
X148249Y57426D01*
X148277Y57595D01*
X148319Y57765D01*
X148375Y57906D01*
X148418Y58032D01*
X148474Y58159D01*
X148531Y58258D01*
X148573Y58357D01*
X148671Y58484D01*
X148728Y58568D01*
X148756Y58596D01*
X148982Y58794D01*
X149249Y58935D01*
X149517Y59047D01*
X149771Y59118D01*
X150011Y59160D01*
X150109Y59174D01*
X150208D01*
X150279Y59188D01*
X150377D01*
X150631Y59174D01*
X150857Y59132D01*
X151082Y59076D01*
X151293Y58991D01*
X151491Y58892D01*
X151674Y58794D01*
X151829Y58681D01*
X151984Y58568D01*
X152125Y58441D01*
X152238Y58328D01*
X152337Y58230D01*
X152421Y58131D01*
X152492Y58046D01*
X152534Y57990D01*
X152562Y57948D01*
X152576Y57934D01*
X152661Y58145D01*
X152774Y58328D01*
X152900Y58484D01*
X153013Y58610D01*
X153126Y58723D01*
X153211Y58794D01*
X153267Y58836D01*
X153295Y58850D01*
X153493Y58963D01*
X153704Y59047D01*
X153916Y59104D01*
X154127Y59146D01*
X154296Y59174D01*
X154451Y59188D01*
X154578D01*
X154832Y59174D01*
D02*
G37*
G36*
X195361Y57666D02*
X193993D01*
Y59033D01*
X195361D01*
Y57666D01*
D02*
G37*
G36*
X177683Y61740D02*
X177951Y61712D01*
X178205Y61655D01*
X178444Y61585D01*
X178656Y61486D01*
X178867Y61402D01*
X179051Y61289D01*
X179220Y61190D01*
X179361Y61091D01*
X179502Y60979D01*
X179614Y60894D01*
X179699Y60809D01*
X179769Y60725D01*
X179826Y60669D01*
X179854Y60640D01*
X179868Y60626D01*
X180051Y60373D01*
X180206Y60076D01*
X180347Y59766D01*
X180474Y59442D01*
X180573Y59104D01*
X180658Y58766D01*
X180728Y58413D01*
X180784Y58089D01*
X180827Y57765D01*
X180855Y57469D01*
X180883Y57201D01*
X180897Y56975D01*
Y56778D01*
X180911Y56637D01*
Y56580D01*
Y56538D01*
Y56524D01*
Y56510D01*
X180897Y56059D01*
X180869Y55636D01*
X180827Y55241D01*
X180756Y54875D01*
X180686Y54550D01*
X180615Y54254D01*
X180531Y53987D01*
X180432Y53747D01*
X180347Y53550D01*
X180263Y53366D01*
X180192Y53225D01*
X180108Y53099D01*
X180051Y53000D01*
X180009Y52943D01*
X179981Y52901D01*
X179967Y52887D01*
X179783Y52690D01*
X179586Y52520D01*
X179389Y52379D01*
X179191Y52253D01*
X178980Y52140D01*
X178783Y52055D01*
X178585Y51985D01*
X178388Y51928D01*
X178219Y51886D01*
X178050Y51844D01*
X177909Y51816D01*
X177782Y51802D01*
X177669D01*
X177598Y51788D01*
X177528D01*
X177204Y51802D01*
X176908Y51858D01*
X176640Y51914D01*
X176400Y51999D01*
X176217Y52069D01*
X176076Y52140D01*
X176020Y52154D01*
X175977Y52182D01*
X175963Y52196D01*
X175949D01*
X175709Y52365D01*
X175484Y52563D01*
X175301Y52760D01*
X175146Y52958D01*
X175019Y53141D01*
X174934Y53282D01*
X174906Y53338D01*
X174878Y53380D01*
X174864Y53394D01*
Y53409D01*
X174723Y53705D01*
X174624Y54015D01*
X174554Y54297D01*
X174511Y54565D01*
X174469Y54790D01*
Y54875D01*
X174455Y54959D01*
Y55030D01*
Y55072D01*
Y55100D01*
Y55114D01*
X174469Y55368D01*
X174497Y55608D01*
X174539Y55847D01*
X174582Y56059D01*
X174652Y56256D01*
X174723Y56454D01*
X174793Y56623D01*
X174878Y56778D01*
X174962Y56919D01*
X175033Y57046D01*
X175103Y57144D01*
X175174Y57243D01*
X175216Y57313D01*
X175258Y57356D01*
X175287Y57384D01*
X175301Y57398D01*
X175456Y57553D01*
X175625Y57694D01*
X175808Y57807D01*
X175977Y57906D01*
X176147Y58004D01*
X176316Y58075D01*
X176640Y58173D01*
X176781Y58216D01*
X176922Y58244D01*
X177035Y58258D01*
X177147Y58272D01*
X177232Y58286D01*
X177345D01*
X177598Y58272D01*
X177838Y58230D01*
X178064Y58187D01*
X178261Y58131D01*
X178430Y58061D01*
X178557Y58018D01*
X178642Y57976D01*
X178656Y57962D01*
X178670D01*
X178895Y57821D01*
X179093Y57666D01*
X179276Y57511D01*
X179417Y57342D01*
X179544Y57201D01*
X179643Y57088D01*
X179699Y57003D01*
X179713Y56989D01*
Y57243D01*
X179699Y57497D01*
X179685Y57722D01*
X179657Y57948D01*
X179643Y58145D01*
X179614Y58328D01*
X179586Y58498D01*
X179544Y58653D01*
X179516Y58794D01*
X179487Y58906D01*
X179459Y59005D01*
X179445Y59090D01*
X179417Y59146D01*
X179403Y59188D01*
X179389Y59217D01*
Y59231D01*
X179248Y59513D01*
X179107Y59766D01*
X178952Y59964D01*
X178811Y60133D01*
X178684Y60274D01*
X178585Y60373D01*
X178515Y60429D01*
X178487Y60443D01*
X178317Y60556D01*
X178148Y60626D01*
X177979Y60683D01*
X177810Y60725D01*
X177683Y60753D01*
X177570Y60767D01*
X177472D01*
X177218Y60739D01*
X176978Y60683D01*
X176781Y60598D01*
X176598Y60514D01*
X176457Y60415D01*
X176358Y60330D01*
X176302Y60274D01*
X176273Y60246D01*
X176175Y60119D01*
X176076Y59964D01*
X175991Y59795D01*
X175935Y59625D01*
X175879Y59470D01*
X175836Y59343D01*
X175822Y59259D01*
X175808Y59245D01*
Y59231D01*
X174610Y59329D01*
X174694Y59724D01*
X174821Y60076D01*
X174962Y60387D01*
X175117Y60640D01*
X175273Y60838D01*
X175329Y60922D01*
X175399Y60993D01*
X175442Y61035D01*
X175484Y61077D01*
X175498Y61091D01*
X175512Y61106D01*
X175653Y61218D01*
X175808Y61317D01*
X176118Y61486D01*
X176428Y61599D01*
X176724Y61669D01*
X176992Y61726D01*
X177105Y61740D01*
X177204D01*
X177288Y61754D01*
X177401D01*
X177683Y61740D01*
D02*
G37*
G36*
X200647Y59174D02*
X200901Y59146D01*
X201140Y59104D01*
X201366Y59033D01*
X201577Y58963D01*
X201775Y58878D01*
X201958Y58794D01*
X202113Y58695D01*
X202268Y58610D01*
X202395Y58512D01*
X202508Y58427D01*
X202593Y58357D01*
X202663Y58286D01*
X202719Y58244D01*
X202747Y58216D01*
X202762Y58202D01*
X202917Y58004D01*
X203058Y57793D01*
X203185Y57581D01*
X203297Y57356D01*
X203382Y57116D01*
X203452Y56891D01*
X203565Y56439D01*
X203607Y56242D01*
X203636Y56045D01*
X203650Y55876D01*
X203664Y55721D01*
X203678Y55594D01*
Y55509D01*
Y55439D01*
Y55424D01*
X203664Y55114D01*
X203636Y54818D01*
X203593Y54536D01*
X203537Y54283D01*
X203466Y54043D01*
X203396Y53817D01*
X203311Y53620D01*
X203227Y53437D01*
X203142Y53282D01*
X203058Y53141D01*
X202987Y53028D01*
X202917Y52929D01*
X202860Y52845D01*
X202818Y52788D01*
X202790Y52760D01*
X202776Y52746D01*
X202593Y52577D01*
X202409Y52436D01*
X202212Y52309D01*
X202000Y52196D01*
X201803Y52112D01*
X201592Y52027D01*
X201197Y51914D01*
X201014Y51886D01*
X200844Y51858D01*
X200689Y51830D01*
X200562Y51816D01*
X200464Y51802D01*
X200309D01*
X199872Y51830D01*
X199477Y51900D01*
X199125Y51985D01*
X198984Y52041D01*
X198843Y52098D01*
X198716Y52154D01*
X198603Y52210D01*
X198518Y52253D01*
X198434Y52295D01*
X198377Y52337D01*
X198335Y52365D01*
X198307Y52394D01*
X198293D01*
X198011Y52647D01*
X197785Y52915D01*
X197588Y53197D01*
X197447Y53465D01*
X197334Y53705D01*
X197292Y53817D01*
X197250Y53902D01*
X197222Y53987D01*
X197207Y54043D01*
X197193Y54071D01*
Y54085D01*
X198434Y54240D01*
X198547Y53973D01*
X198673Y53747D01*
X198800Y53550D01*
X198913Y53394D01*
X199012Y53282D01*
X199096Y53197D01*
X199167Y53141D01*
X199181Y53127D01*
X199364Y53014D01*
X199548Y52929D01*
X199745Y52873D01*
X199914Y52831D01*
X200069Y52802D01*
X200196Y52788D01*
X200309D01*
X200478Y52802D01*
X200633Y52817D01*
X200915Y52887D01*
X201169Y52986D01*
X201394Y53099D01*
X201563Y53197D01*
X201690Y53296D01*
X201775Y53366D01*
X201789Y53394D01*
X201803D01*
X202000Y53648D01*
X202155Y53930D01*
X202268Y54240D01*
X202353Y54522D01*
X202395Y54776D01*
X202423Y54889D01*
X202437Y54988D01*
Y55072D01*
X202451Y55128D01*
Y55171D01*
Y55185D01*
X197165D01*
X197151Y55326D01*
Y55424D01*
Y55481D01*
Y55495D01*
X197165Y55819D01*
X197193Y56115D01*
X197236Y56397D01*
X197292Y56665D01*
X197362Y56905D01*
X197433Y57130D01*
X197518Y57328D01*
X197602Y57511D01*
X197687Y57680D01*
X197771Y57821D01*
X197842Y57934D01*
X197912Y58032D01*
X197969Y58117D01*
X198011Y58173D01*
X198039Y58202D01*
X198053Y58216D01*
X198222Y58385D01*
X198406Y58540D01*
X198603Y58667D01*
X198800Y58780D01*
X198998Y58878D01*
X199181Y58949D01*
X199378Y59019D01*
X199548Y59061D01*
X199731Y59104D01*
X199886Y59132D01*
X200027Y59160D01*
X200140Y59174D01*
X200238Y59188D01*
X200379D01*
X200647Y59174D01*
D02*
G37*
G36*
X227953Y51957D02*
X226586D01*
Y53324D01*
X227953D01*
Y51957D01*
D02*
G37*
G36*
X213884D02*
X212686D01*
Y59033D01*
X213884D01*
Y51957D01*
D02*
G37*
G36*
X195361D02*
X193993D01*
Y53324D01*
X195361D01*
Y51957D01*
D02*
G37*
G36*
X218790Y59160D02*
X218959Y59146D01*
X219114Y59118D01*
X219241Y59090D01*
X219340Y59061D01*
X219396Y59047D01*
X219424Y59033D01*
X219593Y58977D01*
X219748Y58920D01*
X219875Y58864D01*
X219988Y58808D01*
X220073Y58766D01*
X220129Y58723D01*
X220171Y58709D01*
X220186Y58695D01*
X220326Y58596D01*
X220439Y58484D01*
X220538Y58357D01*
X220623Y58258D01*
X220693Y58159D01*
X220735Y58089D01*
X220763Y58032D01*
X220778Y58018D01*
X220848Y57863D01*
X220905Y57722D01*
X220933Y57567D01*
X220961Y57440D01*
X220975Y57313D01*
X220989Y57229D01*
Y57172D01*
Y57144D01*
X220975Y56947D01*
X220947Y56778D01*
X220905Y56609D01*
X220862Y56468D01*
X220820Y56355D01*
X220778Y56256D01*
X220749Y56200D01*
X220735Y56186D01*
X220623Y56031D01*
X220496Y55904D01*
X220369Y55791D01*
X220242Y55692D01*
X220129Y55622D01*
X220044Y55565D01*
X219988Y55537D01*
X219960Y55523D01*
X219861Y55481D01*
X219734Y55424D01*
X219452Y55326D01*
X219156Y55241D01*
X218846Y55142D01*
X218578Y55072D01*
X218452Y55030D01*
X218339Y55002D01*
X218254Y54973D01*
X218184Y54959D01*
X218141Y54945D01*
X218127D01*
X217944Y54903D01*
X217789Y54861D01*
X217648Y54818D01*
X217521Y54776D01*
X217408Y54748D01*
X217310Y54706D01*
X217141Y54649D01*
X217028Y54607D01*
X216957Y54565D01*
X216915Y54550D01*
X216901Y54536D01*
X216774Y54452D01*
X216689Y54339D01*
X216619Y54240D01*
X216577Y54142D01*
X216549Y54043D01*
X216534Y53973D01*
Y53916D01*
Y53902D01*
X216549Y53733D01*
X216591Y53592D01*
X216661Y53451D01*
X216732Y53338D01*
X216816Y53239D01*
X216873Y53169D01*
X216929Y53127D01*
X216943Y53113D01*
X217112Y53000D01*
X217296Y52929D01*
X217507Y52873D01*
X217704Y52831D01*
X217888Y52802D01*
X218029Y52788D01*
X218170D01*
X218466Y52802D01*
X218719Y52845D01*
X218931Y52901D01*
X219114Y52972D01*
X219255Y53042D01*
X219368Y53099D01*
X219424Y53141D01*
X219452Y53155D01*
X219608Y53310D01*
X219734Y53493D01*
X219819Y53676D01*
X219890Y53846D01*
X219946Y54001D01*
X219974Y54142D01*
X220002Y54226D01*
Y54240D01*
Y54254D01*
X221186Y54071D01*
X221088Y53676D01*
X220961Y53324D01*
X220806Y53042D01*
X220651Y52802D01*
X220510Y52605D01*
X220383Y52478D01*
X220298Y52394D01*
X220284Y52379D01*
X220270Y52365D01*
X220129Y52267D01*
X219974Y52182D01*
X219636Y52041D01*
X219283Y51943D01*
X218945Y51872D01*
X218790Y51844D01*
X218649Y51830D01*
X218508Y51816D01*
X218395D01*
X218297Y51802D01*
X218170D01*
X217859Y51816D01*
X217592Y51844D01*
X217338Y51886D01*
X217112Y51943D01*
X216929Y51999D01*
X216788Y52041D01*
X216704Y52069D01*
X216689Y52084D01*
X216675D01*
X216436Y52210D01*
X216238Y52337D01*
X216069Y52478D01*
X215914Y52605D01*
X215801Y52718D01*
X215731Y52817D01*
X215674Y52873D01*
X215660Y52901D01*
X215548Y53099D01*
X215463Y53310D01*
X215392Y53493D01*
X215350Y53662D01*
X215322Y53817D01*
X215308Y53930D01*
Y54001D01*
Y54029D01*
X215322Y54254D01*
X215350Y54452D01*
X215407Y54621D01*
X215449Y54776D01*
X215505Y54903D01*
X215562Y54988D01*
X215590Y55044D01*
X215604Y55058D01*
X215717Y55199D01*
X215844Y55326D01*
X215970Y55439D01*
X216097Y55523D01*
X216224Y55594D01*
X216309Y55636D01*
X216365Y55664D01*
X216393Y55678D01*
X216492Y55721D01*
X216605Y55763D01*
X216873Y55862D01*
X217169Y55960D01*
X217465Y56045D01*
X217733Y56129D01*
X217859Y56157D01*
X217958Y56186D01*
X218043Y56214D01*
X218113Y56228D01*
X218155Y56242D01*
X218170D01*
X218325Y56284D01*
X218466Y56327D01*
X218593Y56355D01*
X218705Y56397D01*
X218889Y56439D01*
X219030Y56482D01*
X219128Y56524D01*
X219185Y56538D01*
X219213Y56552D01*
X219227D01*
X219340Y56609D01*
X219438Y56651D01*
X219523Y56707D01*
X219579Y56750D01*
X219636Y56792D01*
X219664Y56834D01*
X219678Y56848D01*
X219692Y56862D01*
X219777Y57003D01*
X219819Y57144D01*
Y57201D01*
X219833Y57243D01*
Y57271D01*
Y57285D01*
X219819Y57412D01*
X219777Y57539D01*
X219720Y57652D01*
X219650Y57736D01*
X219593Y57821D01*
X219537Y57877D01*
X219495Y57906D01*
X219481Y57920D01*
X219326Y58018D01*
X219142Y58089D01*
X218945Y58131D01*
X218762Y58173D01*
X218578Y58187D01*
X218438Y58202D01*
X218297D01*
X218057Y58187D01*
X217831Y58159D01*
X217648Y58103D01*
X217507Y58046D01*
X217380Y57990D01*
X217296Y57934D01*
X217239Y57906D01*
X217225Y57892D01*
X217084Y57765D01*
X216985Y57624D01*
X216901Y57483D01*
X216830Y57356D01*
X216788Y57229D01*
X216760Y57130D01*
X216746Y57074D01*
Y57046D01*
X215576Y57201D01*
X215632Y57440D01*
X215689Y57652D01*
X215759Y57835D01*
X215830Y58004D01*
X215900Y58117D01*
X215956Y58216D01*
X215985Y58272D01*
X215999Y58286D01*
X216126Y58427D01*
X216266Y58554D01*
X216422Y58667D01*
X216577Y58766D01*
X216718Y58836D01*
X216830Y58892D01*
X216901Y58920D01*
X216915Y58935D01*
X216929D01*
X217169Y59019D01*
X217423Y59076D01*
X217662Y59132D01*
X217888Y59160D01*
X218099Y59174D01*
X218254Y59188D01*
X218593D01*
X218790Y59160D01*
D02*
G37*
G36*
X206371Y58216D02*
X206497Y58371D01*
X206638Y58498D01*
X206765Y58625D01*
X206906Y58723D01*
X207019Y58794D01*
X207104Y58864D01*
X207160Y58892D01*
X207188Y58906D01*
X207371Y59005D01*
X207569Y59076D01*
X207766Y59118D01*
X207949Y59160D01*
X208104Y59174D01*
X208217Y59188D01*
X208330D01*
X208640Y59174D01*
X208936Y59118D01*
X209204Y59047D01*
X209429Y58963D01*
X209627Y58864D01*
X209768Y58794D01*
X209824Y58766D01*
X209867Y58737D01*
X209881Y58723D01*
X209895D01*
X210148Y58540D01*
X210360Y58314D01*
X210543Y58103D01*
X210684Y57892D01*
X210797Y57694D01*
X210882Y57539D01*
X210910Y57483D01*
X210938Y57440D01*
X210952Y57412D01*
Y57398D01*
X211065Y57074D01*
X211149Y56736D01*
X211220Y56411D01*
X211262Y56115D01*
X211290Y55862D01*
Y55749D01*
X211304Y55664D01*
Y55580D01*
Y55523D01*
Y55495D01*
Y55481D01*
X211290Y55086D01*
X211248Y54720D01*
X211178Y54395D01*
X211107Y54113D01*
X211079Y53987D01*
X211051Y53888D01*
X211008Y53789D01*
X210980Y53705D01*
X210952Y53648D01*
X210938Y53606D01*
X210924Y53578D01*
Y53564D01*
X210769Y53268D01*
X210585Y53014D01*
X210402Y52788D01*
X210219Y52605D01*
X210064Y52464D01*
X209937Y52351D01*
X209852Y52295D01*
X209838Y52267D01*
X209824D01*
X209556Y52112D01*
X209289Y51999D01*
X209021Y51914D01*
X208781Y51858D01*
X208584Y51830D01*
X208414Y51816D01*
X208358Y51802D01*
X208274D01*
X208034Y51816D01*
X207808Y51844D01*
X207597Y51900D01*
X207414Y51971D01*
X207230Y52041D01*
X207061Y52126D01*
X206920Y52224D01*
X206793Y52323D01*
X206667Y52422D01*
X206568Y52520D01*
X206483Y52605D01*
X206413Y52676D01*
X206356Y52746D01*
X206314Y52802D01*
X206300Y52831D01*
X206286Y52845D01*
Y51957D01*
X205172D01*
Y61712D01*
X206371D01*
Y58216D01*
D02*
G37*
G36*
X241824Y61867D02*
X242149Y61824D01*
X242459Y61768D01*
X242727Y61712D01*
X242938Y61655D01*
X243037Y61627D01*
X243107Y61599D01*
X243164Y61571D01*
X243206Y61557D01*
X243234Y61543D01*
X243248D01*
X243530Y61402D01*
X243784Y61247D01*
X243995Y61077D01*
X244165Y60922D01*
X244291Y60781D01*
X244390Y60669D01*
X244461Y60584D01*
X244475Y60570D01*
Y60556D01*
X244616Y60316D01*
X244714Y60076D01*
X244785Y59837D01*
X244827Y59625D01*
X244855Y59442D01*
X244883Y59301D01*
Y59245D01*
Y59202D01*
Y59188D01*
Y59174D01*
X244869Y58935D01*
X244827Y58709D01*
X244771Y58498D01*
X244714Y58314D01*
X244658Y58173D01*
X244601Y58061D01*
X244559Y57990D01*
X244545Y57962D01*
X244404Y57765D01*
X244235Y57581D01*
X244066Y57426D01*
X243897Y57299D01*
X243756Y57187D01*
X243629Y57116D01*
X243544Y57060D01*
X243530Y57046D01*
X243516D01*
X243403Y56989D01*
X243276Y56933D01*
X242994Y56834D01*
X242670Y56736D01*
X242360Y56637D01*
X242078Y56552D01*
X241951Y56524D01*
X241838Y56496D01*
X241754Y56468D01*
X241683Y56454D01*
X241641Y56439D01*
X241627D01*
X241387Y56383D01*
X241162Y56327D01*
X240965Y56270D01*
X240795Y56228D01*
X240626Y56186D01*
X240485Y56143D01*
X240358Y56115D01*
X240260Y56073D01*
X240161Y56045D01*
X240091Y56031D01*
X239978Y55988D01*
X239907Y55974D01*
X239893Y55960D01*
X239682Y55876D01*
X239498Y55777D01*
X239343Y55678D01*
X239231Y55594D01*
X239132Y55509D01*
X239076Y55453D01*
X239033Y55410D01*
X239019Y55396D01*
X238920Y55269D01*
X238850Y55128D01*
X238808Y54988D01*
X238765Y54875D01*
X238751Y54762D01*
X238737Y54677D01*
Y54607D01*
Y54593D01*
X238751Y54424D01*
X238780Y54268D01*
X238822Y54128D01*
X238878Y54015D01*
X238934Y53902D01*
X238977Y53832D01*
X239005Y53775D01*
X239019Y53761D01*
X239132Y53620D01*
X239273Y53507D01*
X239414Y53409D01*
X239541Y53310D01*
X239668Y53253D01*
X239766Y53197D01*
X239837Y53169D01*
X239865Y53155D01*
X240076Y53084D01*
X240302Y53028D01*
X240527Y53000D01*
X240725Y52972D01*
X240894Y52958D01*
X241035Y52943D01*
X241162D01*
X241472Y52958D01*
X241754Y52986D01*
X242008Y53028D01*
X242233Y53084D01*
X242416Y53141D01*
X242558Y53183D01*
X242600Y53197D01*
X242642Y53211D01*
X242656Y53225D01*
X242670D01*
X242896Y53338D01*
X243107Y53465D01*
X243262Y53592D01*
X243403Y53719D01*
X243516Y53817D01*
X243587Y53916D01*
X243629Y53973D01*
X243643Y53987D01*
X243742Y54170D01*
X243840Y54367D01*
X243897Y54579D01*
X243953Y54762D01*
X243995Y54945D01*
X244023Y55072D01*
Y55128D01*
X244038Y55171D01*
Y55185D01*
Y55199D01*
X245250Y55086D01*
X245222Y54734D01*
X245165Y54395D01*
X245081Y54099D01*
X244982Y53832D01*
X244883Y53620D01*
X244841Y53535D01*
X244813Y53465D01*
X244771Y53409D01*
X244757Y53366D01*
X244728Y53338D01*
Y53324D01*
X244517Y53056D01*
X244291Y52817D01*
X244052Y52619D01*
X243826Y52450D01*
X243629Y52323D01*
X243460Y52239D01*
X243403Y52210D01*
X243361Y52182D01*
X243333Y52168D01*
X243319D01*
X242966Y52041D01*
X242600Y51943D01*
X242233Y51886D01*
X241881Y51830D01*
X241712Y51816D01*
X241571Y51802D01*
X241444D01*
X241331Y51788D01*
X241105D01*
X240725Y51802D01*
X240372Y51844D01*
X240048Y51914D01*
X239780Y51985D01*
X239555Y52041D01*
X239456Y52084D01*
X239371Y52112D01*
X239315Y52140D01*
X239273Y52154D01*
X239245Y52168D01*
X239231D01*
X238934Y52323D01*
X238681Y52492D01*
X238455Y52676D01*
X238272Y52845D01*
X238131Y52986D01*
X238032Y53113D01*
X237962Y53197D01*
X237948Y53211D01*
Y53225D01*
X237793Y53493D01*
X237680Y53747D01*
X237609Y53987D01*
X237553Y54212D01*
X237525Y54409D01*
X237497Y54565D01*
Y54621D01*
Y54663D01*
Y54677D01*
Y54691D01*
X237511Y54973D01*
X237553Y55241D01*
X237624Y55481D01*
X237694Y55678D01*
X237779Y55847D01*
X237835Y55974D01*
X237891Y56045D01*
X237905Y56073D01*
X238075Y56284D01*
X238272Y56482D01*
X238483Y56651D01*
X238695Y56806D01*
X238878Y56919D01*
X239033Y57003D01*
X239090Y57031D01*
X239132Y57060D01*
X239160Y57074D01*
X239174D01*
X239287Y57130D01*
X239428Y57172D01*
X239583Y57229D01*
X239752Y57285D01*
X240105Y57384D01*
X240471Y57483D01*
X240640Y57525D01*
X240795Y57567D01*
X240950Y57610D01*
X241077Y57638D01*
X241176Y57666D01*
X241261Y57680D01*
X241317Y57694D01*
X241331D01*
X241613Y57765D01*
X241867Y57821D01*
X242092Y57892D01*
X242290Y57948D01*
X242473Y58018D01*
X242628Y58075D01*
X242769Y58131D01*
X242896Y58173D01*
X242994Y58230D01*
X243079Y58272D01*
X243135Y58300D01*
X243192Y58343D01*
X243262Y58385D01*
X243276Y58399D01*
X243403Y58540D01*
X243488Y58681D01*
X243558Y58822D01*
X243601Y58963D01*
X243629Y59076D01*
X243643Y59174D01*
Y59231D01*
Y59259D01*
X243615Y59484D01*
X243558Y59682D01*
X243474Y59851D01*
X243375Y60006D01*
X243291Y60119D01*
X243206Y60217D01*
X243150Y60274D01*
X243121Y60288D01*
X243009Y60358D01*
X242896Y60429D01*
X242628Y60542D01*
X242346Y60612D01*
X242064Y60669D01*
X241810Y60697D01*
X241698Y60711D01*
X241613Y60725D01*
X241416D01*
X241021Y60711D01*
X240669Y60655D01*
X240387Y60570D01*
X240147Y60485D01*
X239964Y60401D01*
X239823Y60316D01*
X239752Y60260D01*
X239724Y60246D01*
X239527Y60048D01*
X239371Y59837D01*
X239245Y59611D01*
X239160Y59386D01*
X239104Y59174D01*
X239061Y59019D01*
X239047Y58949D01*
X239033Y58906D01*
Y58878D01*
Y58864D01*
X237793Y58963D01*
X237821Y59273D01*
X237891Y59555D01*
X237962Y59823D01*
X238060Y60048D01*
X238145Y60232D01*
X238216Y60373D01*
X238244Y60415D01*
X238272Y60457D01*
X238286Y60471D01*
Y60485D01*
X238469Y60725D01*
X238667Y60936D01*
X238878Y61120D01*
X239090Y61261D01*
X239273Y61388D01*
X239414Y61458D01*
X239470Y61486D01*
X239513Y61514D01*
X239541Y61529D01*
X239555D01*
X239865Y61641D01*
X240203Y61726D01*
X240513Y61796D01*
X240809Y61839D01*
X241077Y61867D01*
X241176D01*
X241275Y61881D01*
X241458D01*
X241824Y61867D01*
D02*
G37*
G36*
X280251Y80999D02*
X279052D01*
Y82367D01*
X280251D01*
Y80999D01*
D02*
G37*
G36*
X116147Y82395D02*
X116387Y82381D01*
X116613Y82339D01*
X116824Y82296D01*
X117021Y82240D01*
X117205Y82184D01*
X117374Y82113D01*
X117529Y82043D01*
X117670Y81972D01*
X117783Y81902D01*
X117881Y81845D01*
X117966Y81789D01*
X118036Y81747D01*
X118079Y81704D01*
X118107Y81690D01*
X118121Y81676D01*
X118262Y81535D01*
X118389Y81380D01*
X118516Y81211D01*
X118614Y81042D01*
X118784Y80703D01*
X118896Y80365D01*
X118939Y80210D01*
X118981Y80055D01*
X119009Y79928D01*
X119037Y79815D01*
X119051Y79717D01*
Y79646D01*
X119066Y79604D01*
Y79590D01*
X117839Y79463D01*
X117811Y79787D01*
X117754Y80069D01*
X117670Y80323D01*
X117571Y80520D01*
X117487Y80689D01*
X117402Y80802D01*
X117346Y80872D01*
X117317Y80901D01*
X117106Y81070D01*
X116880Y81197D01*
X116641Y81295D01*
X116429Y81352D01*
X116232Y81394D01*
X116063Y81408D01*
X116006Y81422D01*
X115922D01*
X115626Y81408D01*
X115358Y81352D01*
X115132Y81267D01*
X114935Y81183D01*
X114780Y81084D01*
X114681Y81013D01*
X114611Y80957D01*
X114583Y80929D01*
X114413Y80732D01*
X114287Y80534D01*
X114188Y80337D01*
X114131Y80140D01*
X114089Y79984D01*
X114075Y79844D01*
X114061Y79759D01*
Y79745D01*
Y79731D01*
X114089Y79477D01*
X114146Y79209D01*
X114244Y78969D01*
X114343Y78744D01*
X114456Y78561D01*
X114554Y78406D01*
X114583Y78349D01*
X114611Y78307D01*
X114639Y78293D01*
Y78279D01*
X114752Y78124D01*
X114893Y77969D01*
X115048Y77799D01*
X115217Y77630D01*
X115569Y77292D01*
X115922Y76954D01*
X116105Y76799D01*
X116260Y76658D01*
X116415Y76531D01*
X116542Y76418D01*
X116641Y76333D01*
X116725Y76263D01*
X116782Y76220D01*
X116796Y76206D01*
X117148Y75910D01*
X117472Y75628D01*
X117740Y75375D01*
X117952Y75163D01*
X118135Y74980D01*
X118262Y74853D01*
X118332Y74769D01*
X118361Y74754D01*
Y74740D01*
X118558Y74501D01*
X118713Y74275D01*
X118854Y74050D01*
X118967Y73852D01*
X119051Y73683D01*
X119108Y73556D01*
X119136Y73472D01*
X119150Y73457D01*
Y73443D01*
X119206Y73288D01*
X119235Y73147D01*
X119263Y73006D01*
X119277Y72880D01*
X119291Y72767D01*
Y72682D01*
Y72626D01*
Y72612D01*
X112821D01*
Y73768D01*
X117628D01*
X117458Y74007D01*
X117374Y74106D01*
X117303Y74205D01*
X117233Y74289D01*
X117177Y74346D01*
X117134Y74388D01*
X117120Y74402D01*
X117050Y74472D01*
X116965Y74543D01*
X116768Y74726D01*
X116542Y74938D01*
X116302Y75149D01*
X116077Y75332D01*
X115978Y75417D01*
X115894Y75502D01*
X115823Y75558D01*
X115767Y75600D01*
X115739Y75628D01*
X115724Y75642D01*
X115499Y75840D01*
X115273Y76023D01*
X115076Y76206D01*
X114893Y76361D01*
X114724Y76517D01*
X114583Y76658D01*
X114442Y76784D01*
X114329Y76897D01*
X114216Y77010D01*
X114131Y77094D01*
X114061Y77165D01*
X113991Y77235D01*
X113920Y77320D01*
X113892Y77348D01*
X113694Y77588D01*
X113525Y77799D01*
X113384Y78011D01*
X113272Y78180D01*
X113187Y78335D01*
X113131Y78448D01*
X113102Y78518D01*
X113088Y78547D01*
X113004Y78758D01*
X112947Y78969D01*
X112891Y79167D01*
X112863Y79336D01*
X112849Y79491D01*
X112835Y79604D01*
Y79674D01*
Y79703D01*
X112849Y79914D01*
X112877Y80111D01*
X112905Y80309D01*
X112962Y80478D01*
X113102Y80816D01*
X113243Y81084D01*
X113328Y81211D01*
X113399Y81309D01*
X113469Y81408D01*
X113539Y81479D01*
X113596Y81535D01*
X113624Y81592D01*
X113652Y81606D01*
X113666Y81620D01*
X113821Y81761D01*
X113991Y81888D01*
X114174Y81986D01*
X114357Y82071D01*
X114724Y82212D01*
X115090Y82310D01*
X115245Y82339D01*
X115400Y82367D01*
X115541Y82381D01*
X115654Y82395D01*
X115753Y82409D01*
X115894D01*
X116147Y82395D01*
D02*
G37*
G36*
X250689Y72612D02*
X249491D01*
Y76474D01*
X249477Y76770D01*
X249463Y77024D01*
X249435Y77250D01*
X249392Y77433D01*
X249350Y77574D01*
X249322Y77687D01*
X249308Y77743D01*
X249294Y77771D01*
X249209Y77940D01*
X249110Y78095D01*
X248997Y78222D01*
X248885Y78335D01*
X248786Y78420D01*
X248701Y78476D01*
X248645Y78518D01*
X248631Y78532D01*
X248448Y78631D01*
X248279Y78702D01*
X248109Y78744D01*
X247968Y78786D01*
X247827Y78800D01*
X247729Y78814D01*
X247644D01*
X247390Y78800D01*
X247165Y78744D01*
X246982Y78688D01*
X246827Y78603D01*
X246700Y78532D01*
X246615Y78462D01*
X246559Y78406D01*
X246545Y78391D01*
X246418Y78222D01*
X246319Y78011D01*
X246249Y77799D01*
X246192Y77588D01*
X246164Y77391D01*
X246150Y77235D01*
Y77179D01*
Y77137D01*
Y77109D01*
Y77094D01*
Y72612D01*
X244952D01*
Y77080D01*
X244966Y77447D01*
X244994Y77771D01*
X245036Y78039D01*
X245079Y78265D01*
X245121Y78448D01*
X245163Y78575D01*
X245191Y78645D01*
X245205Y78673D01*
X245318Y78871D01*
X245445Y79040D01*
X245586Y79181D01*
X245713Y79308D01*
X245840Y79406D01*
X245938Y79477D01*
X246009Y79519D01*
X246037Y79533D01*
X246263Y79632D01*
X246488Y79717D01*
X246714Y79773D01*
X246925Y79801D01*
X247108Y79829D01*
X247264Y79844D01*
X247390D01*
X247616Y79829D01*
X247842Y79801D01*
X248053Y79759D01*
X248250Y79688D01*
X248617Y79533D01*
X248772Y79449D01*
X248913Y79364D01*
X249040Y79265D01*
X249167Y79181D01*
X249265Y79096D01*
X249336Y79026D01*
X249406Y78955D01*
X249449Y78913D01*
X249477Y78885D01*
X249491Y78871D01*
Y82367D01*
X250689D01*
Y72612D01*
D02*
G37*
G36*
X199531Y79829D02*
X199827Y79801D01*
X200109Y79759D01*
X200335Y79717D01*
X200532Y79674D01*
X200673Y79632D01*
X200729Y79618D01*
X200772Y79604D01*
X200786Y79590D01*
X200800D01*
X201040Y79491D01*
X201251Y79364D01*
X201434Y79251D01*
X201589Y79139D01*
X201702Y79026D01*
X201787Y78941D01*
X201843Y78885D01*
X201857Y78871D01*
X201984Y78688D01*
X202097Y78490D01*
X202181Y78293D01*
X202252Y78109D01*
X202308Y77926D01*
X202351Y77799D01*
X202365Y77743D01*
Y77701D01*
X202379Y77687D01*
Y77673D01*
X201209Y77517D01*
X201124Y77771D01*
X201040Y77997D01*
X200941Y78180D01*
X200856Y78321D01*
X200772Y78434D01*
X200701Y78504D01*
X200645Y78547D01*
X200631Y78561D01*
X200462Y78659D01*
X200264Y78730D01*
X200053Y78786D01*
X199855Y78814D01*
X199658Y78843D01*
X199517Y78857D01*
X199376D01*
X199052Y78843D01*
X198770Y78800D01*
X198544Y78730D01*
X198347Y78659D01*
X198206Y78575D01*
X198093Y78518D01*
X198023Y78462D01*
X198009Y78448D01*
X197896Y78321D01*
X197811Y78166D01*
X197741Y77997D01*
X197698Y77828D01*
X197670Y77673D01*
X197656Y77531D01*
Y77447D01*
Y77433D01*
Y77419D01*
Y77391D01*
Y77334D01*
Y77235D01*
X197670Y77151D01*
Y77123D01*
Y77109D01*
X197811Y77066D01*
X197966Y77024D01*
X198291Y76940D01*
X198657Y76869D01*
X198995Y76799D01*
X199165Y76770D01*
X199320Y76756D01*
X199461Y76728D01*
X199573Y76714D01*
X199672Y76700D01*
X199743D01*
X199799Y76686D01*
X199813D01*
X200067Y76658D01*
X200278Y76615D01*
X200462Y76587D01*
X200602Y76559D01*
X200715Y76545D01*
X200800Y76517D01*
X200856Y76502D01*
X200870D01*
X201054Y76446D01*
X201209Y76390D01*
X201364Y76319D01*
X201491Y76263D01*
X201603Y76206D01*
X201674Y76150D01*
X201730Y76122D01*
X201744Y76108D01*
X201885Y76009D01*
X201998Y75896D01*
X202111Y75784D01*
X202195Y75671D01*
X202266Y75572D01*
X202322Y75487D01*
X202351Y75431D01*
X202365Y75417D01*
X202435Y75262D01*
X202491Y75093D01*
X202534Y74938D01*
X202562Y74783D01*
X202576Y74656D01*
X202590Y74557D01*
Y74501D01*
Y74472D01*
X202576Y74303D01*
X202562Y74162D01*
X202491Y73866D01*
X202393Y73627D01*
X202280Y73415D01*
X202167Y73246D01*
X202069Y73119D01*
X201998Y73049D01*
X201970Y73021D01*
X201716Y72837D01*
X201434Y72696D01*
X201124Y72598D01*
X200842Y72527D01*
X200588Y72485D01*
X200476Y72471D01*
X200377D01*
X200292Y72457D01*
X200180D01*
X199926Y72471D01*
X199672Y72499D01*
X199447Y72527D01*
X199249Y72569D01*
X199094Y72612D01*
X198967Y72654D01*
X198883Y72668D01*
X198855Y72682D01*
X198615Y72781D01*
X198389Y72908D01*
X198178Y73049D01*
X197966Y73176D01*
X197797Y73302D01*
X197670Y73401D01*
X197586Y73472D01*
X197572Y73500D01*
X197558D01*
X197529Y73316D01*
X197501Y73147D01*
X197473Y72992D01*
X197431Y72865D01*
X197388Y72753D01*
X197360Y72682D01*
X197346Y72626D01*
X197332Y72612D01*
X196077D01*
X196148Y72767D01*
X196218Y72922D01*
X196275Y73063D01*
X196303Y73190D01*
X196345Y73302D01*
X196359Y73387D01*
X196373Y73443D01*
Y73457D01*
X196388Y73556D01*
X196402Y73683D01*
Y73824D01*
X196416Y73979D01*
X196430Y74331D01*
Y74684D01*
X196444Y75022D01*
Y75177D01*
Y75304D01*
Y75417D01*
Y75502D01*
Y75558D01*
Y75572D01*
Y77179D01*
Y77447D01*
X196458Y77687D01*
X196472Y77870D01*
Y78025D01*
X196486Y78138D01*
X196500Y78222D01*
X196514Y78265D01*
Y78279D01*
X196557Y78462D01*
X196613Y78617D01*
X196670Y78744D01*
X196740Y78871D01*
X196796Y78955D01*
X196839Y79026D01*
X196867Y79068D01*
X196881Y79082D01*
X196994Y79195D01*
X197121Y79308D01*
X197262Y79392D01*
X197402Y79477D01*
X197529Y79533D01*
X197628Y79576D01*
X197698Y79604D01*
X197727Y79618D01*
X197952Y79688D01*
X198192Y79745D01*
X198432Y79787D01*
X198671Y79815D01*
X198883Y79829D01*
X199038Y79844D01*
X199193D01*
X199531Y79829D01*
D02*
G37*
G36*
X291500Y72612D02*
X290259D01*
Y80915D01*
X287440Y72612D01*
X286284D01*
X283437Y80774D01*
Y72612D01*
X282196D01*
Y82367D01*
X283930D01*
X286270Y75572D01*
X286397Y75205D01*
X286495Y74895D01*
X286594Y74628D01*
X286665Y74402D01*
X286721Y74233D01*
X286763Y74106D01*
X286777Y74036D01*
X286792Y74007D01*
X286848Y74205D01*
X286919Y74430D01*
X287003Y74670D01*
X287073Y74910D01*
X287144Y75121D01*
X287200Y75290D01*
X287229Y75361D01*
X287243Y75403D01*
X287257Y75431D01*
Y75445D01*
X289569Y82367D01*
X291500D01*
Y72612D01*
D02*
G37*
G36*
X192610D02*
X192666Y72485D01*
X192694Y72386D01*
X192722Y72330D01*
Y72316D01*
X192807Y72076D01*
X192892Y71879D01*
X192948Y71709D01*
X193004Y71597D01*
X193032Y71512D01*
X193061Y71456D01*
X193089Y71427D01*
Y71413D01*
X193202Y71258D01*
X193328Y71146D01*
X193385Y71103D01*
X193427Y71075D01*
X193455Y71047D01*
X193469D01*
X193568Y71005D01*
X193667Y70962D01*
X193878Y70920D01*
X193963D01*
X194033Y70906D01*
X194104D01*
X194329Y70920D01*
X194555Y70962D01*
X194639Y70991D01*
X194710Y71005D01*
X194766Y71019D01*
X194781D01*
X194654Y69905D01*
X194499Y69849D01*
X194357Y69820D01*
X194231Y69792D01*
X194118Y69764D01*
X194019D01*
X193949Y69750D01*
X193892D01*
X193681Y69764D01*
X193498Y69792D01*
X193328Y69835D01*
X193188Y69891D01*
X193061Y69947D01*
X192976Y69990D01*
X192920Y70018D01*
X192906Y70032D01*
X192750Y70145D01*
X192624Y70286D01*
X192497Y70427D01*
X192384Y70568D01*
X192299Y70694D01*
X192229Y70793D01*
X192187Y70864D01*
X192173Y70892D01*
X192130Y70991D01*
X192074Y71089D01*
X191961Y71329D01*
X191848Y71597D01*
X191750Y71865D01*
X191651Y72104D01*
X191609Y72217D01*
X191566Y72316D01*
X191538Y72386D01*
X191510Y72442D01*
X191496Y72485D01*
Y72499D01*
X188803Y79688D01*
X190002D01*
X191524Y75558D01*
X191637Y75262D01*
X191721Y74980D01*
X191820Y74698D01*
X191891Y74458D01*
X191947Y74247D01*
X191975Y74162D01*
X191989Y74092D01*
X192003Y74036D01*
X192017Y73993D01*
X192031Y73965D01*
Y73951D01*
X192116Y74275D01*
X192201Y74571D01*
X192285Y74853D01*
X192370Y75093D01*
X192440Y75290D01*
X192469Y75375D01*
X192497Y75445D01*
X192511Y75516D01*
X192525Y75558D01*
X192539Y75572D01*
Y75586D01*
X194019Y79688D01*
X195288D01*
X192610Y72612D01*
D02*
G37*
G36*
X274696Y79829D02*
X275007Y79773D01*
X275303Y79703D01*
X275542Y79632D01*
X275754Y79547D01*
X275838Y79505D01*
X275909Y79477D01*
X275965Y79449D01*
X276007Y79420D01*
X276036Y79406D01*
X276050D01*
X276318Y79237D01*
X276557Y79026D01*
X276754Y78814D01*
X276924Y78603D01*
X277051Y78420D01*
X277135Y78265D01*
X277163Y78208D01*
X277192Y78166D01*
X277206Y78138D01*
Y78124D01*
X277332Y77785D01*
X277417Y77447D01*
X277488Y77109D01*
X277530Y76799D01*
X277544Y76658D01*
X277558Y76531D01*
Y76418D01*
X277572Y76319D01*
Y76235D01*
Y76178D01*
Y76136D01*
Y76122D01*
X277558Y75798D01*
X277530Y75502D01*
X277488Y75205D01*
X277431Y74952D01*
X277375Y74698D01*
X277290Y74487D01*
X277220Y74275D01*
X277135Y74092D01*
X277051Y73937D01*
X276980Y73796D01*
X276896Y73669D01*
X276839Y73570D01*
X276783Y73500D01*
X276740Y73443D01*
X276712Y73415D01*
X276698Y73401D01*
X276529Y73232D01*
X276346Y73091D01*
X276162Y72964D01*
X275965Y72851D01*
X275768Y72767D01*
X275585Y72682D01*
X275204Y72569D01*
X275035Y72541D01*
X274880Y72513D01*
X274739Y72485D01*
X274612Y72471D01*
X274513Y72457D01*
X274372D01*
X274161Y72471D01*
X273949Y72485D01*
X273583Y72569D01*
X273244Y72668D01*
X272962Y72795D01*
X272850Y72865D01*
X272737Y72922D01*
X272638Y72978D01*
X272568Y73035D01*
X272511Y73077D01*
X272469Y73105D01*
X272441Y73119D01*
X272427Y73133D01*
X272286Y73274D01*
X272159Y73415D01*
X271933Y73725D01*
X271750Y74050D01*
X271623Y74346D01*
X271525Y74628D01*
X271496Y74740D01*
X271468Y74853D01*
X271454Y74938D01*
X271440Y74994D01*
X271426Y75036D01*
Y75051D01*
X272610Y75205D01*
X272666Y74895D01*
X272751Y74613D01*
X272864Y74388D01*
X272962Y74205D01*
X273061Y74050D01*
X273146Y73951D01*
X273188Y73880D01*
X273216Y73866D01*
X273399Y73725D01*
X273597Y73627D01*
X273794Y73542D01*
X273977Y73500D01*
X274132Y73472D01*
X274273Y73457D01*
X274358Y73443D01*
X274386D01*
X274541Y73457D01*
X274696Y73472D01*
X274978Y73542D01*
X275218Y73641D01*
X275429Y73768D01*
X275585Y73880D01*
X275711Y73979D01*
X275782Y74050D01*
X275810Y74078D01*
X275909Y74205D01*
X275993Y74360D01*
X276120Y74670D01*
X276219Y75022D01*
X276275Y75361D01*
X276318Y75671D01*
X276332Y75798D01*
Y75925D01*
X276346Y76009D01*
Y76094D01*
Y76136D01*
Y76150D01*
Y76404D01*
X276318Y76643D01*
X276289Y76869D01*
X276261Y77066D01*
X276219Y77250D01*
X276162Y77419D01*
X276120Y77574D01*
X276064Y77715D01*
X276007Y77828D01*
X275965Y77926D01*
X275909Y78011D01*
X275866Y78081D01*
X275838Y78138D01*
X275810Y78180D01*
X275782Y78194D01*
Y78208D01*
X275669Y78321D01*
X275556Y78420D01*
X275317Y78589D01*
X275063Y78702D01*
X274837Y78772D01*
X274626Y78829D01*
X274471Y78843D01*
X274400Y78857D01*
X274316D01*
X274104Y78843D01*
X273907Y78800D01*
X273738Y78744D01*
X273583Y78673D01*
X273470Y78603D01*
X273371Y78547D01*
X273315Y78504D01*
X273301Y78490D01*
X273160Y78349D01*
X273033Y78180D01*
X272920Y77997D01*
X272850Y77828D01*
X272779Y77673D01*
X272737Y77546D01*
X272723Y77461D01*
X272709Y77447D01*
Y77433D01*
X271539Y77616D01*
X271637Y77997D01*
X271778Y78321D01*
X271933Y78603D01*
X272088Y78829D01*
X272243Y79012D01*
X272370Y79139D01*
X272455Y79223D01*
X272469Y79251D01*
X272483D01*
X272779Y79449D01*
X273089Y79590D01*
X273399Y79703D01*
X273696Y79773D01*
X273963Y79815D01*
X274076Y79829D01*
X274161D01*
X274245Y79844D01*
X274358D01*
X274696Y79829D01*
D02*
G37*
G36*
X225315D02*
X225568Y79801D01*
X225808Y79759D01*
X226033Y79688D01*
X226245Y79618D01*
X226442Y79533D01*
X226626Y79449D01*
X226781Y79350D01*
X226936Y79265D01*
X227063Y79167D01*
X227175Y79082D01*
X227260Y79012D01*
X227330Y78941D01*
X227387Y78899D01*
X227415Y78871D01*
X227429Y78857D01*
X227584Y78659D01*
X227725Y78448D01*
X227852Y78236D01*
X227965Y78011D01*
X228049Y77771D01*
X228120Y77546D01*
X228233Y77094D01*
X228275Y76897D01*
X228303Y76700D01*
X228317Y76531D01*
X228331Y76376D01*
X228345Y76249D01*
Y76164D01*
Y76094D01*
Y76080D01*
X228331Y75769D01*
X228303Y75473D01*
X228261Y75191D01*
X228204Y74938D01*
X228134Y74698D01*
X228064Y74472D01*
X227979Y74275D01*
X227894Y74092D01*
X227810Y73937D01*
X227725Y73796D01*
X227655Y73683D01*
X227584Y73584D01*
X227528Y73500D01*
X227486Y73443D01*
X227457Y73415D01*
X227443Y73401D01*
X227260Y73232D01*
X227077Y73091D01*
X226879Y72964D01*
X226668Y72851D01*
X226471Y72767D01*
X226259Y72682D01*
X225864Y72569D01*
X225681Y72541D01*
X225512Y72513D01*
X225357Y72485D01*
X225230Y72471D01*
X225131Y72457D01*
X224976D01*
X224539Y72485D01*
X224144Y72555D01*
X223792Y72640D01*
X223651Y72696D01*
X223510Y72753D01*
X223383Y72809D01*
X223270Y72865D01*
X223186Y72908D01*
X223101Y72950D01*
X223045Y72992D01*
X223003Y73021D01*
X222974Y73049D01*
X222960D01*
X222678Y73302D01*
X222453Y73570D01*
X222255Y73852D01*
X222115Y74120D01*
X222002Y74360D01*
X221959Y74472D01*
X221917Y74557D01*
X221889Y74642D01*
X221875Y74698D01*
X221861Y74726D01*
Y74740D01*
X223101Y74895D01*
X223214Y74628D01*
X223341Y74402D01*
X223468Y74205D01*
X223581Y74050D01*
X223679Y73937D01*
X223764Y73852D01*
X223834Y73796D01*
X223848Y73782D01*
X224032Y73669D01*
X224215Y73584D01*
X224412Y73528D01*
X224582Y73486D01*
X224737Y73457D01*
X224863Y73443D01*
X224976D01*
X225145Y73457D01*
X225301Y73472D01*
X225582Y73542D01*
X225836Y73641D01*
X226062Y73753D01*
X226231Y73852D01*
X226358Y73951D01*
X226442Y74021D01*
X226456Y74050D01*
X226471D01*
X226668Y74303D01*
X226823Y74585D01*
X226936Y74895D01*
X227020Y75177D01*
X227063Y75431D01*
X227091Y75544D01*
X227105Y75642D01*
Y75727D01*
X227119Y75784D01*
Y75826D01*
Y75840D01*
X221833D01*
X221819Y75981D01*
Y76080D01*
Y76136D01*
Y76150D01*
X221833Y76474D01*
X221861Y76770D01*
X221903Y77052D01*
X221959Y77320D01*
X222030Y77560D01*
X222100Y77785D01*
X222185Y77983D01*
X222270Y78166D01*
X222354Y78335D01*
X222439Y78476D01*
X222509Y78589D01*
X222580Y78688D01*
X222636Y78772D01*
X222678Y78829D01*
X222707Y78857D01*
X222721Y78871D01*
X222890Y79040D01*
X223073Y79195D01*
X223270Y79322D01*
X223468Y79435D01*
X223665Y79533D01*
X223848Y79604D01*
X224046Y79674D01*
X224215Y79717D01*
X224398Y79759D01*
X224553Y79787D01*
X224694Y79815D01*
X224807Y79829D01*
X224906Y79844D01*
X225047D01*
X225315Y79829D01*
D02*
G37*
G36*
X172267D02*
X172521Y79801D01*
X172761Y79759D01*
X172987Y79688D01*
X173198Y79618D01*
X173395Y79533D01*
X173579Y79449D01*
X173734Y79350D01*
X173889Y79265D01*
X174016Y79167D01*
X174128Y79082D01*
X174213Y79012D01*
X174283Y78941D01*
X174340Y78899D01*
X174368Y78871D01*
X174382Y78857D01*
X174537Y78659D01*
X174678Y78448D01*
X174805Y78236D01*
X174918Y78011D01*
X175002Y77771D01*
X175073Y77546D01*
X175186Y77094D01*
X175228Y76897D01*
X175256Y76700D01*
X175270Y76531D01*
X175284Y76376D01*
X175298Y76249D01*
Y76164D01*
Y76094D01*
Y76080D01*
X175284Y75769D01*
X175256Y75473D01*
X175214Y75191D01*
X175157Y74938D01*
X175087Y74698D01*
X175016Y74472D01*
X174932Y74275D01*
X174847Y74092D01*
X174763Y73937D01*
X174678Y73796D01*
X174608Y73683D01*
X174537Y73584D01*
X174481Y73500D01*
X174438Y73443D01*
X174410Y73415D01*
X174396Y73401D01*
X174213Y73232D01*
X174030Y73091D01*
X173832Y72964D01*
X173621Y72851D01*
X173424Y72767D01*
X173212Y72682D01*
X172817Y72569D01*
X172634Y72541D01*
X172465Y72513D01*
X172310Y72485D01*
X172183Y72471D01*
X172084Y72457D01*
X171929D01*
X171492Y72485D01*
X171098Y72555D01*
X170745Y72640D01*
X170604Y72696D01*
X170463Y72753D01*
X170336Y72809D01*
X170224Y72865D01*
X170139Y72908D01*
X170054Y72950D01*
X169998Y72992D01*
X169956Y73021D01*
X169927Y73049D01*
X169913D01*
X169631Y73302D01*
X169406Y73570D01*
X169209Y73852D01*
X169067Y74120D01*
X168955Y74360D01*
X168913Y74472D01*
X168870Y74557D01*
X168842Y74642D01*
X168828Y74698D01*
X168814Y74726D01*
Y74740D01*
X170054Y74895D01*
X170167Y74628D01*
X170294Y74402D01*
X170421Y74205D01*
X170534Y74050D01*
X170632Y73937D01*
X170717Y73852D01*
X170787Y73796D01*
X170802Y73782D01*
X170985Y73669D01*
X171168Y73584D01*
X171365Y73528D01*
X171535Y73486D01*
X171690Y73457D01*
X171816Y73443D01*
X171929D01*
X172098Y73457D01*
X172253Y73472D01*
X172535Y73542D01*
X172789Y73641D01*
X173015Y73753D01*
X173184Y73852D01*
X173311Y73951D01*
X173395Y74021D01*
X173409Y74050D01*
X173424D01*
X173621Y74303D01*
X173776Y74585D01*
X173889Y74895D01*
X173973Y75177D01*
X174016Y75431D01*
X174044Y75544D01*
X174058Y75642D01*
Y75727D01*
X174072Y75784D01*
Y75826D01*
Y75840D01*
X168786D01*
X168771Y75981D01*
Y76080D01*
Y76136D01*
Y76150D01*
X168786Y76474D01*
X168814Y76770D01*
X168856Y77052D01*
X168913Y77320D01*
X168983Y77560D01*
X169053Y77785D01*
X169138Y77983D01*
X169223Y78166D01*
X169307Y78335D01*
X169392Y78476D01*
X169462Y78589D01*
X169533Y78688D01*
X169589Y78772D01*
X169631Y78829D01*
X169660Y78857D01*
X169674Y78871D01*
X169843Y79040D01*
X170026Y79195D01*
X170224Y79322D01*
X170421Y79435D01*
X170618Y79533D01*
X170802Y79604D01*
X170999Y79674D01*
X171168Y79717D01*
X171351Y79759D01*
X171506Y79787D01*
X171647Y79815D01*
X171760Y79829D01*
X171859Y79844D01*
X172000D01*
X172267Y79829D01*
D02*
G37*
G36*
X280251Y72612D02*
X279052D01*
Y79688D01*
X280251D01*
Y72612D01*
D02*
G37*
G36*
X267958Y79829D02*
X268099Y79801D01*
X268240Y79759D01*
X268353Y79717D01*
X268437Y79674D01*
X268522Y79632D01*
X268564Y79604D01*
X268578Y79590D01*
X268705Y79477D01*
X268832Y79336D01*
X268959Y79167D01*
X269072Y79012D01*
X269184Y78857D01*
X269255Y78730D01*
X269311Y78631D01*
X269325Y78617D01*
Y79688D01*
X270411D01*
Y72612D01*
X269213D01*
Y76305D01*
X269198Y76587D01*
X269184Y76841D01*
X269156Y77080D01*
X269114Y77292D01*
X269072Y77461D01*
X269044Y77588D01*
X269029Y77673D01*
X269015Y77701D01*
X268959Y77856D01*
X268888Y77983D01*
X268818Y78095D01*
X268747Y78194D01*
X268677Y78265D01*
X268635Y78321D01*
X268592Y78349D01*
X268578Y78363D01*
X268465Y78448D01*
X268339Y78504D01*
X268212Y78547D01*
X268113Y78575D01*
X268014Y78589D01*
X267944Y78603D01*
X267873D01*
X267718Y78589D01*
X267563Y78561D01*
X267408Y78518D01*
X267281Y78476D01*
X267169Y78434D01*
X267084Y78391D01*
X267028Y78363D01*
X267013Y78349D01*
X266576Y79449D01*
X266816Y79576D01*
X267042Y79674D01*
X267239Y79745D01*
X267422Y79801D01*
X267577Y79829D01*
X267704Y79844D01*
X267803D01*
X267958Y79829D01*
D02*
G37*
G36*
X232476D02*
X232730Y79787D01*
X232955Y79731D01*
X233181Y79660D01*
X233378Y79576D01*
X233561Y79477D01*
X233731Y79364D01*
X233871Y79265D01*
X234012Y79153D01*
X234125Y79040D01*
X234224Y78941D01*
X234308Y78857D01*
X234365Y78786D01*
X234407Y78730D01*
X234435Y78688D01*
X234449Y78673D01*
Y79688D01*
X235521D01*
Y72612D01*
X234322D01*
Y76460D01*
Y76700D01*
X234294Y76940D01*
X234266Y77137D01*
X234238Y77320D01*
X234196Y77489D01*
X234153Y77644D01*
X234097Y77785D01*
X234041Y77898D01*
X233998Y77997D01*
X233942Y78081D01*
X233900Y78152D01*
X233857Y78208D01*
X233801Y78279D01*
X233773Y78307D01*
X233561Y78476D01*
X233336Y78589D01*
X233110Y78673D01*
X232913Y78744D01*
X232730Y78772D01*
X232589Y78786D01*
X232532Y78800D01*
X232462D01*
X232293Y78786D01*
X232123Y78772D01*
X231982Y78730D01*
X231870Y78688D01*
X231771Y78645D01*
X231686Y78617D01*
X231644Y78589D01*
X231630Y78575D01*
X231503Y78490D01*
X231390Y78391D01*
X231306Y78293D01*
X231235Y78208D01*
X231193Y78124D01*
X231151Y78053D01*
X231122Y78011D01*
Y77997D01*
X231080Y77842D01*
X231038Y77673D01*
X231010Y77489D01*
X230996Y77306D01*
X230982Y77151D01*
Y77024D01*
Y76925D01*
Y76911D01*
Y76897D01*
Y72612D01*
X229783D01*
Y76954D01*
Y77250D01*
X229797Y77489D01*
X229811Y77687D01*
Y77856D01*
X229826Y77969D01*
X229840Y78053D01*
X229854Y78109D01*
Y78124D01*
X229896Y78307D01*
X229967Y78476D01*
X230023Y78617D01*
X230079Y78758D01*
X230150Y78857D01*
X230192Y78927D01*
X230220Y78983D01*
X230234Y78998D01*
X230347Y79139D01*
X230474Y79251D01*
X230601Y79364D01*
X230742Y79449D01*
X230855Y79519D01*
X230953Y79562D01*
X231010Y79590D01*
X231038Y79604D01*
X231235Y79688D01*
X231447Y79745D01*
X231644Y79787D01*
X231827Y79815D01*
X231982Y79829D01*
X232095Y79844D01*
X232208D01*
X232476Y79829D01*
D02*
G37*
G36*
X221269Y72612D02*
X219901D01*
X218844Y75572D01*
X214756D01*
X213614Y72612D01*
X212148D01*
X216137Y82367D01*
X217547D01*
X221269Y72612D01*
D02*
G37*
G36*
X208821Y79829D02*
X208962Y79801D01*
X209103Y79759D01*
X209216Y79717D01*
X209300Y79674D01*
X209385Y79632D01*
X209427Y79604D01*
X209441Y79590D01*
X209568Y79477D01*
X209695Y79336D01*
X209822Y79167D01*
X209935Y79012D01*
X210047Y78857D01*
X210118Y78730D01*
X210174Y78631D01*
X210189Y78617D01*
Y79688D01*
X211274D01*
Y72612D01*
X210076D01*
Y76305D01*
X210062Y76587D01*
X210047Y76841D01*
X210019Y77080D01*
X209977Y77292D01*
X209935Y77461D01*
X209907Y77588D01*
X209892Y77673D01*
X209878Y77701D01*
X209822Y77856D01*
X209751Y77983D01*
X209681Y78095D01*
X209611Y78194D01*
X209540Y78265D01*
X209498Y78321D01*
X209455Y78349D01*
X209441Y78363D01*
X209329Y78448D01*
X209202Y78504D01*
X209075Y78547D01*
X208976Y78575D01*
X208878Y78589D01*
X208807Y78603D01*
X208736D01*
X208581Y78589D01*
X208426Y78561D01*
X208271Y78518D01*
X208144Y78476D01*
X208032Y78434D01*
X207947Y78391D01*
X207891Y78363D01*
X207877Y78349D01*
X207440Y79449D01*
X207679Y79576D01*
X207905Y79674D01*
X208102Y79745D01*
X208285Y79801D01*
X208440Y79829D01*
X208567Y79844D01*
X208666D01*
X208821Y79829D01*
D02*
G37*
G36*
X204282D02*
X204423Y79801D01*
X204564Y79759D01*
X204677Y79717D01*
X204761Y79674D01*
X204846Y79632D01*
X204888Y79604D01*
X204902Y79590D01*
X205029Y79477D01*
X205156Y79336D01*
X205283Y79167D01*
X205396Y79012D01*
X205508Y78857D01*
X205579Y78730D01*
X205635Y78631D01*
X205649Y78617D01*
Y79688D01*
X206735D01*
Y72612D01*
X205536D01*
Y76305D01*
X205522Y76587D01*
X205508Y76841D01*
X205480Y77080D01*
X205438Y77292D01*
X205396Y77461D01*
X205367Y77588D01*
X205353Y77673D01*
X205339Y77701D01*
X205283Y77856D01*
X205212Y77983D01*
X205142Y78095D01*
X205071Y78194D01*
X205001Y78265D01*
X204958Y78321D01*
X204916Y78349D01*
X204902Y78363D01*
X204789Y78448D01*
X204662Y78504D01*
X204536Y78547D01*
X204437Y78575D01*
X204338Y78589D01*
X204268Y78603D01*
X204197D01*
X204042Y78589D01*
X203887Y78561D01*
X203732Y78518D01*
X203605Y78476D01*
X203492Y78434D01*
X203408Y78391D01*
X203351Y78363D01*
X203337Y78349D01*
X202900Y79449D01*
X203140Y79576D01*
X203365Y79674D01*
X203563Y79745D01*
X203746Y79801D01*
X203901Y79829D01*
X204028Y79844D01*
X204127D01*
X204282Y79829D01*
D02*
G37*
G36*
X187436Y72612D02*
X186068D01*
Y73979D01*
X187436D01*
Y72612D01*
D02*
G37*
G36*
X164261Y79829D02*
X164514Y79787D01*
X164740Y79731D01*
X164965Y79660D01*
X165163Y79576D01*
X165346Y79477D01*
X165515Y79364D01*
X165656Y79265D01*
X165797Y79153D01*
X165910Y79040D01*
X166008Y78941D01*
X166093Y78857D01*
X166150Y78786D01*
X166192Y78730D01*
X166220Y78688D01*
X166234Y78673D01*
Y79688D01*
X167305D01*
Y72612D01*
X166107D01*
Y76460D01*
Y76700D01*
X166079Y76940D01*
X166051Y77137D01*
X166023Y77320D01*
X165980Y77489D01*
X165938Y77644D01*
X165882Y77785D01*
X165825Y77898D01*
X165783Y77997D01*
X165727Y78081D01*
X165684Y78152D01*
X165642Y78208D01*
X165586Y78279D01*
X165557Y78307D01*
X165346Y78476D01*
X165120Y78589D01*
X164895Y78673D01*
X164697Y78744D01*
X164514Y78772D01*
X164373Y78786D01*
X164317Y78800D01*
X164246D01*
X164077Y78786D01*
X163908Y78772D01*
X163767Y78730D01*
X163654Y78688D01*
X163556Y78645D01*
X163471Y78617D01*
X163429Y78589D01*
X163415Y78575D01*
X163288Y78490D01*
X163175Y78391D01*
X163090Y78293D01*
X163020Y78208D01*
X162978Y78124D01*
X162935Y78053D01*
X162907Y78011D01*
Y77997D01*
X162865Y77842D01*
X162823Y77673D01*
X162794Y77489D01*
X162780Y77306D01*
X162766Y77151D01*
Y77024D01*
Y76925D01*
Y76911D01*
Y76897D01*
Y72612D01*
X161568D01*
Y76954D01*
Y77250D01*
X161582Y77489D01*
X161596Y77687D01*
Y77856D01*
X161610Y77969D01*
X161624Y78053D01*
X161638Y78109D01*
Y78124D01*
X161681Y78307D01*
X161751Y78476D01*
X161808Y78617D01*
X161864Y78758D01*
X161934Y78857D01*
X161977Y78927D01*
X162005Y78983D01*
X162019Y78998D01*
X162132Y79139D01*
X162259Y79251D01*
X162386Y79364D01*
X162526Y79449D01*
X162639Y79519D01*
X162738Y79562D01*
X162794Y79590D01*
X162823Y79604D01*
X163020Y79688D01*
X163231Y79745D01*
X163429Y79787D01*
X163612Y79815D01*
X163767Y79829D01*
X163880Y79844D01*
X163993D01*
X164261Y79829D01*
D02*
G37*
G36*
X142875D02*
X143016Y79801D01*
X143157Y79759D01*
X143270Y79717D01*
X143355Y79674D01*
X143439Y79632D01*
X143482Y79604D01*
X143496Y79590D01*
X143622Y79477D01*
X143749Y79336D01*
X143876Y79167D01*
X143989Y79012D01*
X144102Y78857D01*
X144172Y78730D01*
X144229Y78631D01*
X144243Y78617D01*
Y79688D01*
X145328D01*
Y72612D01*
X144130D01*
Y76305D01*
X144116Y76587D01*
X144102Y76841D01*
X144073Y77080D01*
X144031Y77292D01*
X143989Y77461D01*
X143961Y77588D01*
X143947Y77673D01*
X143933Y77701D01*
X143876Y77856D01*
X143806Y77983D01*
X143735Y78095D01*
X143665Y78194D01*
X143594Y78265D01*
X143552Y78321D01*
X143510Y78349D01*
X143496Y78363D01*
X143383Y78448D01*
X143256Y78504D01*
X143129Y78547D01*
X143030Y78575D01*
X142932Y78589D01*
X142861Y78603D01*
X142791D01*
X142636Y78589D01*
X142481Y78561D01*
X142325Y78518D01*
X142199Y78476D01*
X142086Y78434D01*
X142001Y78391D01*
X141945Y78363D01*
X141931Y78349D01*
X141494Y79449D01*
X141733Y79576D01*
X141959Y79674D01*
X142156Y79745D01*
X142340Y79801D01*
X142495Y79829D01*
X142622Y79844D01*
X142720D01*
X142875Y79829D01*
D02*
G37*
G36*
X122237Y72612D02*
X120870D01*
Y73979D01*
X122237D01*
Y72612D01*
D02*
G37*
G36*
X110861D02*
X109494D01*
Y73979D01*
X110861D01*
Y72612D01*
D02*
G37*
G36*
X263235Y79829D02*
X263461Y79815D01*
X263898Y79717D01*
X264279Y79590D01*
X264448Y79519D01*
X264603Y79449D01*
X264744Y79378D01*
X264857Y79308D01*
X264969Y79237D01*
X265054Y79181D01*
X265124Y79124D01*
X265181Y79082D01*
X265209Y79068D01*
X265223Y79054D01*
X265420Y78871D01*
X265576Y78659D01*
X265731Y78434D01*
X265843Y78208D01*
X265956Y77969D01*
X266041Y77715D01*
X266111Y77475D01*
X266168Y77250D01*
X266224Y77024D01*
X266252Y76827D01*
X266280Y76629D01*
X266294Y76474D01*
Y76333D01*
X266309Y76235D01*
Y76178D01*
Y76150D01*
X266294Y75826D01*
X266266Y75516D01*
X266224Y75234D01*
X266168Y74966D01*
X266097Y74726D01*
X266027Y74501D01*
X265942Y74289D01*
X265858Y74106D01*
X265773Y73937D01*
X265688Y73796D01*
X265618Y73683D01*
X265547Y73584D01*
X265491Y73500D01*
X265449Y73443D01*
X265420Y73415D01*
X265406Y73401D01*
X265223Y73232D01*
X265040Y73091D01*
X264842Y72964D01*
X264645Y72851D01*
X264448Y72767D01*
X264236Y72682D01*
X263856Y72569D01*
X263687Y72541D01*
X263517Y72513D01*
X263377Y72485D01*
X263250Y72471D01*
X263137Y72457D01*
X262996D01*
X262658Y72471D01*
X262347Y72527D01*
X262051Y72598D01*
X261812Y72668D01*
X261600Y72753D01*
X261516Y72781D01*
X261445Y72809D01*
X261375Y72837D01*
X261332Y72865D01*
X261318Y72880D01*
X261304D01*
X261022Y73063D01*
X260783Y73260D01*
X260571Y73457D01*
X260402Y73655D01*
X260275Y73824D01*
X260176Y73965D01*
X260148Y74021D01*
X260120Y74064D01*
X260106Y74078D01*
Y74092D01*
X259965Y74416D01*
X259866Y74769D01*
X259782Y75121D01*
X259739Y75473D01*
X259711Y75628D01*
Y75769D01*
X259697Y75910D01*
X259683Y76023D01*
Y76122D01*
Y76192D01*
Y76235D01*
Y76249D01*
X259697Y76559D01*
X259725Y76841D01*
X259768Y77109D01*
X259824Y77362D01*
X259895Y77602D01*
X259979Y77814D01*
X260064Y78025D01*
X260148Y78194D01*
X260233Y78349D01*
X260317Y78490D01*
X260402Y78617D01*
X260473Y78716D01*
X260529Y78786D01*
X260571Y78843D01*
X260599Y78871D01*
X260613Y78885D01*
X260797Y79054D01*
X260980Y79195D01*
X261177Y79336D01*
X261375Y79435D01*
X261572Y79533D01*
X261769Y79604D01*
X262150Y79731D01*
X262333Y79759D01*
X262488Y79787D01*
X262629Y79815D01*
X262756Y79829D01*
X262855Y79844D01*
X262996D01*
X263235Y79829D01*
D02*
G37*
G36*
X240483D02*
X240709Y79815D01*
X241145Y79717D01*
X241526Y79590D01*
X241695Y79519D01*
X241850Y79449D01*
X241991Y79378D01*
X242104Y79308D01*
X242217Y79237D01*
X242301Y79181D01*
X242372Y79124D01*
X242428Y79082D01*
X242456Y79068D01*
X242471Y79054D01*
X242668Y78871D01*
X242823Y78659D01*
X242978Y78434D01*
X243091Y78208D01*
X243204Y77969D01*
X243288Y77715D01*
X243359Y77475D01*
X243415Y77250D01*
X243472Y77024D01*
X243500Y76827D01*
X243528Y76629D01*
X243542Y76474D01*
Y76333D01*
X243556Y76235D01*
Y76178D01*
Y76150D01*
X243542Y75826D01*
X243514Y75516D01*
X243472Y75234D01*
X243415Y74966D01*
X243345Y74726D01*
X243274Y74501D01*
X243190Y74289D01*
X243105Y74106D01*
X243020Y73937D01*
X242936Y73796D01*
X242865Y73683D01*
X242795Y73584D01*
X242738Y73500D01*
X242696Y73443D01*
X242668Y73415D01*
X242654Y73401D01*
X242471Y73232D01*
X242287Y73091D01*
X242090Y72964D01*
X241893Y72851D01*
X241695Y72767D01*
X241484Y72682D01*
X241103Y72569D01*
X240934Y72541D01*
X240765Y72513D01*
X240624Y72485D01*
X240497Y72471D01*
X240384Y72457D01*
X240243D01*
X239905Y72471D01*
X239595Y72527D01*
X239299Y72598D01*
X239059Y72668D01*
X238848Y72753D01*
X238763Y72781D01*
X238693Y72809D01*
X238622Y72837D01*
X238580Y72865D01*
X238566Y72880D01*
X238552D01*
X238270Y73063D01*
X238030Y73260D01*
X237819Y73457D01*
X237649Y73655D01*
X237523Y73824D01*
X237424Y73965D01*
X237396Y74021D01*
X237367Y74064D01*
X237353Y74078D01*
Y74092D01*
X237212Y74416D01*
X237114Y74769D01*
X237029Y75121D01*
X236987Y75473D01*
X236959Y75628D01*
Y75769D01*
X236945Y75910D01*
X236931Y76023D01*
Y76122D01*
Y76192D01*
Y76235D01*
Y76249D01*
X236945Y76559D01*
X236973Y76841D01*
X237015Y77109D01*
X237071Y77362D01*
X237142Y77602D01*
X237227Y77814D01*
X237311Y78025D01*
X237396Y78194D01*
X237480Y78349D01*
X237565Y78490D01*
X237649Y78617D01*
X237720Y78716D01*
X237776Y78786D01*
X237819Y78843D01*
X237847Y78871D01*
X237861Y78885D01*
X238044Y79054D01*
X238227Y79195D01*
X238425Y79336D01*
X238622Y79435D01*
X238820Y79533D01*
X239017Y79604D01*
X239398Y79731D01*
X239581Y79759D01*
X239736Y79787D01*
X239877Y79815D01*
X240004Y79829D01*
X240102Y79844D01*
X240243D01*
X240483Y79829D01*
D02*
G37*
G36*
X157804Y79815D02*
X157973Y79801D01*
X158128Y79773D01*
X158255Y79745D01*
X158354Y79717D01*
X158410Y79703D01*
X158438Y79688D01*
X158608Y79632D01*
X158763Y79576D01*
X158890Y79519D01*
X159002Y79463D01*
X159087Y79420D01*
X159143Y79378D01*
X159185Y79364D01*
X159200Y79350D01*
X159341Y79251D01*
X159453Y79139D01*
X159552Y79012D01*
X159637Y78913D01*
X159707Y78814D01*
X159749Y78744D01*
X159778Y78688D01*
X159792Y78673D01*
X159862Y78518D01*
X159919Y78377D01*
X159947Y78222D01*
X159975Y78095D01*
X159989Y77969D01*
X160003Y77884D01*
Y77828D01*
Y77799D01*
X159989Y77602D01*
X159961Y77433D01*
X159919Y77264D01*
X159876Y77123D01*
X159834Y77010D01*
X159792Y76911D01*
X159763Y76855D01*
X159749Y76841D01*
X159637Y76686D01*
X159510Y76559D01*
X159383Y76446D01*
X159256Y76347D01*
X159143Y76277D01*
X159059Y76220D01*
X159002Y76192D01*
X158974Y76178D01*
X158875Y76136D01*
X158749Y76080D01*
X158467Y75981D01*
X158170Y75896D01*
X157860Y75798D01*
X157593Y75727D01*
X157466Y75685D01*
X157353Y75657D01*
X157268Y75628D01*
X157198Y75614D01*
X157156Y75600D01*
X157142D01*
X156958Y75558D01*
X156803Y75516D01*
X156662Y75473D01*
X156535Y75431D01*
X156423Y75403D01*
X156324Y75361D01*
X156155Y75304D01*
X156042Y75262D01*
X155971Y75220D01*
X155929Y75205D01*
X155915Y75191D01*
X155788Y75107D01*
X155704Y74994D01*
X155633Y74895D01*
X155591Y74797D01*
X155563Y74698D01*
X155548Y74628D01*
Y74571D01*
Y74557D01*
X155563Y74388D01*
X155605Y74247D01*
X155675Y74106D01*
X155746Y73993D01*
X155830Y73895D01*
X155887Y73824D01*
X155943Y73782D01*
X155957Y73768D01*
X156126Y73655D01*
X156310Y73584D01*
X156521Y73528D01*
X156719Y73486D01*
X156902Y73457D01*
X157043Y73443D01*
X157184D01*
X157480Y73457D01*
X157733Y73500D01*
X157945Y73556D01*
X158128Y73627D01*
X158269Y73697D01*
X158382Y73753D01*
X158438Y73796D01*
X158467Y73810D01*
X158622Y73965D01*
X158749Y74148D01*
X158833Y74331D01*
X158904Y74501D01*
X158960Y74656D01*
X158988Y74797D01*
X159016Y74881D01*
Y74895D01*
Y74910D01*
X160201Y74726D01*
X160102Y74331D01*
X159975Y73979D01*
X159820Y73697D01*
X159665Y73457D01*
X159524Y73260D01*
X159397Y73133D01*
X159312Y73049D01*
X159298Y73035D01*
X159284Y73021D01*
X159143Y72922D01*
X158988Y72837D01*
X158650Y72696D01*
X158297Y72598D01*
X157959Y72527D01*
X157804Y72499D01*
X157663Y72485D01*
X157522Y72471D01*
X157409D01*
X157311Y72457D01*
X157184D01*
X156874Y72471D01*
X156606Y72499D01*
X156352Y72541D01*
X156126Y72598D01*
X155943Y72654D01*
X155802Y72696D01*
X155718Y72724D01*
X155704Y72739D01*
X155689D01*
X155450Y72865D01*
X155253Y72992D01*
X155083Y73133D01*
X154928Y73260D01*
X154816Y73373D01*
X154745Y73472D01*
X154689Y73528D01*
X154675Y73556D01*
X154562Y73753D01*
X154477Y73965D01*
X154407Y74148D01*
X154364Y74317D01*
X154336Y74472D01*
X154322Y74585D01*
Y74656D01*
Y74684D01*
X154336Y74910D01*
X154364Y75107D01*
X154421Y75276D01*
X154463Y75431D01*
X154519Y75558D01*
X154576Y75642D01*
X154604Y75699D01*
X154618Y75713D01*
X154731Y75854D01*
X154858Y75981D01*
X154985Y76094D01*
X155112Y76178D01*
X155238Y76249D01*
X155323Y76291D01*
X155379Y76319D01*
X155407Y76333D01*
X155506Y76376D01*
X155619Y76418D01*
X155887Y76517D01*
X156183Y76615D01*
X156479Y76700D01*
X156747Y76784D01*
X156874Y76813D01*
X156972Y76841D01*
X157057Y76869D01*
X157127Y76883D01*
X157170Y76897D01*
X157184D01*
X157339Y76940D01*
X157480Y76982D01*
X157607Y77010D01*
X157719Y77052D01*
X157903Y77094D01*
X158044Y77137D01*
X158142Y77179D01*
X158199Y77193D01*
X158227Y77207D01*
X158241D01*
X158354Y77264D01*
X158453Y77306D01*
X158537Y77362D01*
X158594Y77405D01*
X158650Y77447D01*
X158678Y77489D01*
X158692Y77503D01*
X158706Y77517D01*
X158791Y77658D01*
X158833Y77799D01*
Y77856D01*
X158847Y77898D01*
Y77926D01*
Y77940D01*
X158833Y78067D01*
X158791Y78194D01*
X158734Y78307D01*
X158664Y78391D01*
X158608Y78476D01*
X158551Y78532D01*
X158509Y78561D01*
X158495Y78575D01*
X158340Y78673D01*
X158156Y78744D01*
X157959Y78786D01*
X157776Y78829D01*
X157593Y78843D01*
X157452Y78857D01*
X157311D01*
X157071Y78843D01*
X156845Y78814D01*
X156662Y78758D01*
X156521Y78702D01*
X156394Y78645D01*
X156310Y78589D01*
X156253Y78561D01*
X156239Y78547D01*
X156098Y78420D01*
X156000Y78279D01*
X155915Y78138D01*
X155844Y78011D01*
X155802Y77884D01*
X155774Y77785D01*
X155760Y77729D01*
Y77701D01*
X154590Y77856D01*
X154646Y78095D01*
X154703Y78307D01*
X154773Y78490D01*
X154844Y78659D01*
X154914Y78772D01*
X154971Y78871D01*
X154999Y78927D01*
X155013Y78941D01*
X155140Y79082D01*
X155281Y79209D01*
X155436Y79322D01*
X155591Y79420D01*
X155732Y79491D01*
X155844Y79547D01*
X155915Y79576D01*
X155929Y79590D01*
X155943D01*
X156183Y79674D01*
X156437Y79731D01*
X156676Y79787D01*
X156902Y79815D01*
X157113Y79829D01*
X157268Y79844D01*
X157607D01*
X157804Y79815D01*
D02*
G37*
G36*
X150276Y79829D02*
X150502Y79815D01*
X150939Y79717D01*
X151319Y79590D01*
X151489Y79519D01*
X151644Y79449D01*
X151785Y79378D01*
X151897Y79308D01*
X152010Y79237D01*
X152095Y79181D01*
X152165Y79124D01*
X152222Y79082D01*
X152250Y79068D01*
X152264Y79054D01*
X152461Y78871D01*
X152616Y78659D01*
X152771Y78434D01*
X152884Y78208D01*
X152997Y77969D01*
X153082Y77715D01*
X153152Y77475D01*
X153208Y77250D01*
X153265Y77024D01*
X153293Y76827D01*
X153321Y76629D01*
X153335Y76474D01*
Y76333D01*
X153349Y76235D01*
Y76178D01*
Y76150D01*
X153335Y75826D01*
X153307Y75516D01*
X153265Y75234D01*
X153208Y74966D01*
X153138Y74726D01*
X153067Y74501D01*
X152983Y74289D01*
X152898Y74106D01*
X152814Y73937D01*
X152729Y73796D01*
X152659Y73683D01*
X152588Y73584D01*
X152532Y73500D01*
X152490Y73443D01*
X152461Y73415D01*
X152447Y73401D01*
X152264Y73232D01*
X152081Y73091D01*
X151883Y72964D01*
X151686Y72851D01*
X151489Y72767D01*
X151277Y72682D01*
X150897Y72569D01*
X150727Y72541D01*
X150558Y72513D01*
X150417Y72485D01*
X150290Y72471D01*
X150178Y72457D01*
X150037D01*
X149698Y72471D01*
X149388Y72527D01*
X149092Y72598D01*
X148852Y72668D01*
X148641Y72753D01*
X148556Y72781D01*
X148486Y72809D01*
X148415Y72837D01*
X148373Y72865D01*
X148359Y72880D01*
X148345D01*
X148063Y73063D01*
X147823Y73260D01*
X147612Y73457D01*
X147443Y73655D01*
X147316Y73824D01*
X147217Y73965D01*
X147189Y74021D01*
X147161Y74064D01*
X147147Y74078D01*
Y74092D01*
X147006Y74416D01*
X146907Y74769D01*
X146823Y75121D01*
X146780Y75473D01*
X146752Y75628D01*
Y75769D01*
X146738Y75910D01*
X146724Y76023D01*
Y76122D01*
Y76192D01*
Y76235D01*
Y76249D01*
X146738Y76559D01*
X146766Y76841D01*
X146808Y77109D01*
X146865Y77362D01*
X146935Y77602D01*
X147020Y77814D01*
X147104Y78025D01*
X147189Y78194D01*
X147274Y78349D01*
X147358Y78490D01*
X147443Y78617D01*
X147513Y78716D01*
X147570Y78786D01*
X147612Y78843D01*
X147640Y78871D01*
X147654Y78885D01*
X147837Y79054D01*
X148021Y79195D01*
X148218Y79336D01*
X148415Y79435D01*
X148613Y79533D01*
X148810Y79604D01*
X149191Y79731D01*
X149374Y79759D01*
X149529Y79787D01*
X149670Y79815D01*
X149797Y79829D01*
X149896Y79844D01*
X150037D01*
X150276Y79829D01*
D02*
G37*
G36*
X138858Y79815D02*
X139027Y79801D01*
X139182Y79773D01*
X139309Y79745D01*
X139407Y79717D01*
X139464Y79703D01*
X139492Y79688D01*
X139661Y79632D01*
X139816Y79576D01*
X139943Y79519D01*
X140056Y79463D01*
X140140Y79420D01*
X140197Y79378D01*
X140239Y79364D01*
X140253Y79350D01*
X140394Y79251D01*
X140507Y79139D01*
X140606Y79012D01*
X140690Y78913D01*
X140761Y78814D01*
X140803Y78744D01*
X140831Y78688D01*
X140845Y78673D01*
X140916Y78518D01*
X140972Y78377D01*
X141000Y78222D01*
X141029Y78095D01*
X141043Y77969D01*
X141057Y77884D01*
Y77828D01*
Y77799D01*
X141043Y77602D01*
X141014Y77433D01*
X140972Y77264D01*
X140930Y77123D01*
X140888Y77010D01*
X140845Y76911D01*
X140817Y76855D01*
X140803Y76841D01*
X140690Y76686D01*
X140563Y76559D01*
X140436Y76446D01*
X140310Y76347D01*
X140197Y76277D01*
X140112Y76220D01*
X140056Y76192D01*
X140028Y76178D01*
X139929Y76136D01*
X139802Y76080D01*
X139520Y75981D01*
X139224Y75896D01*
X138914Y75798D01*
X138646Y75727D01*
X138519Y75685D01*
X138407Y75657D01*
X138322Y75628D01*
X138251Y75614D01*
X138209Y75600D01*
X138195D01*
X138012Y75558D01*
X137857Y75516D01*
X137716Y75473D01*
X137589Y75431D01*
X137476Y75403D01*
X137378Y75361D01*
X137208Y75304D01*
X137095Y75262D01*
X137025Y75220D01*
X136983Y75205D01*
X136969Y75191D01*
X136842Y75107D01*
X136757Y74994D01*
X136687Y74895D01*
X136644Y74797D01*
X136616Y74698D01*
X136602Y74628D01*
Y74571D01*
Y74557D01*
X136616Y74388D01*
X136658Y74247D01*
X136729Y74106D01*
X136799Y73993D01*
X136884Y73895D01*
X136940Y73824D01*
X136997Y73782D01*
X137011Y73768D01*
X137180Y73655D01*
X137363Y73584D01*
X137575Y73528D01*
X137772Y73486D01*
X137956Y73457D01*
X138096Y73443D01*
X138237D01*
X138533Y73457D01*
X138787Y73500D01*
X138999Y73556D01*
X139182Y73627D01*
X139323Y73697D01*
X139436Y73753D01*
X139492Y73796D01*
X139520Y73810D01*
X139675Y73965D01*
X139802Y74148D01*
X139887Y74331D01*
X139957Y74501D01*
X140014Y74656D01*
X140042Y74797D01*
X140070Y74881D01*
Y74895D01*
Y74910D01*
X141254Y74726D01*
X141156Y74331D01*
X141029Y73979D01*
X140873Y73697D01*
X140718Y73457D01*
X140577Y73260D01*
X140451Y73133D01*
X140366Y73049D01*
X140352Y73035D01*
X140338Y73021D01*
X140197Y72922D01*
X140042Y72837D01*
X139704Y72696D01*
X139351Y72598D01*
X139013Y72527D01*
X138858Y72499D01*
X138717Y72485D01*
X138576Y72471D01*
X138463D01*
X138364Y72457D01*
X138237D01*
X137927Y72471D01*
X137659Y72499D01*
X137406Y72541D01*
X137180Y72598D01*
X136997Y72654D01*
X136856Y72696D01*
X136771Y72724D01*
X136757Y72739D01*
X136743D01*
X136503Y72865D01*
X136306Y72992D01*
X136137Y73133D01*
X135982Y73260D01*
X135869Y73373D01*
X135799Y73472D01*
X135742Y73528D01*
X135728Y73556D01*
X135615Y73753D01*
X135531Y73965D01*
X135460Y74148D01*
X135418Y74317D01*
X135390Y74472D01*
X135376Y74585D01*
Y74656D01*
Y74684D01*
X135390Y74910D01*
X135418Y75107D01*
X135474Y75276D01*
X135517Y75431D01*
X135573Y75558D01*
X135629Y75642D01*
X135658Y75699D01*
X135672Y75713D01*
X135785Y75854D01*
X135911Y75981D01*
X136038Y76094D01*
X136165Y76178D01*
X136292Y76249D01*
X136377Y76291D01*
X136433Y76319D01*
X136461Y76333D01*
X136560Y76376D01*
X136673Y76418D01*
X136940Y76517D01*
X137236Y76615D01*
X137533Y76700D01*
X137800Y76784D01*
X137927Y76813D01*
X138026Y76841D01*
X138111Y76869D01*
X138181Y76883D01*
X138223Y76897D01*
X138237D01*
X138392Y76940D01*
X138533Y76982D01*
X138660Y77010D01*
X138773Y77052D01*
X138956Y77094D01*
X139097Y77137D01*
X139196Y77179D01*
X139252Y77193D01*
X139281Y77207D01*
X139295D01*
X139407Y77264D01*
X139506Y77306D01*
X139591Y77362D01*
X139647Y77405D01*
X139704Y77447D01*
X139732Y77489D01*
X139746Y77503D01*
X139760Y77517D01*
X139844Y77658D01*
X139887Y77799D01*
Y77856D01*
X139901Y77898D01*
Y77926D01*
Y77940D01*
X139887Y78067D01*
X139844Y78194D01*
X139788Y78307D01*
X139718Y78391D01*
X139661Y78476D01*
X139605Y78532D01*
X139563Y78561D01*
X139548Y78575D01*
X139393Y78673D01*
X139210Y78744D01*
X139013Y78786D01*
X138829Y78829D01*
X138646Y78843D01*
X138505Y78857D01*
X138364D01*
X138125Y78843D01*
X137899Y78814D01*
X137716Y78758D01*
X137575Y78702D01*
X137448Y78645D01*
X137363Y78589D01*
X137307Y78561D01*
X137293Y78547D01*
X137152Y78420D01*
X137053Y78279D01*
X136969Y78138D01*
X136898Y78011D01*
X136856Y77884D01*
X136828Y77785D01*
X136814Y77729D01*
Y77701D01*
X135644Y77856D01*
X135700Y78095D01*
X135756Y78307D01*
X135827Y78490D01*
X135897Y78659D01*
X135968Y78772D01*
X136024Y78871D01*
X136052Y78927D01*
X136067Y78941D01*
X136193Y79082D01*
X136334Y79209D01*
X136489Y79322D01*
X136644Y79420D01*
X136785Y79491D01*
X136898Y79547D01*
X136969Y79576D01*
X136983Y79590D01*
X136997D01*
X137236Y79674D01*
X137490Y79731D01*
X137730Y79787D01*
X137956Y79815D01*
X138167Y79829D01*
X138322Y79844D01*
X138660D01*
X138858Y79815D01*
D02*
G37*
G36*
X180839Y82522D02*
X181163Y82480D01*
X181473Y82423D01*
X181741Y82367D01*
X181952Y82310D01*
X182051Y82282D01*
X182121Y82254D01*
X182178Y82226D01*
X182220Y82212D01*
X182248Y82198D01*
X182262D01*
X182544Y82057D01*
X182798Y81902D01*
X183009Y81733D01*
X183179Y81577D01*
X183305Y81436D01*
X183404Y81324D01*
X183475Y81239D01*
X183489Y81225D01*
Y81211D01*
X183630Y80971D01*
X183728Y80732D01*
X183799Y80492D01*
X183841Y80281D01*
X183869Y80097D01*
X183898Y79956D01*
Y79900D01*
Y79858D01*
Y79844D01*
Y79829D01*
X183883Y79590D01*
X183841Y79364D01*
X183785Y79153D01*
X183728Y78969D01*
X183672Y78829D01*
X183616Y78716D01*
X183573Y78645D01*
X183559Y78617D01*
X183418Y78420D01*
X183249Y78236D01*
X183080Y78081D01*
X182911Y77955D01*
X182770Y77842D01*
X182643Y77771D01*
X182558Y77715D01*
X182544Y77701D01*
X182530D01*
X182417Y77644D01*
X182290Y77588D01*
X182009Y77489D01*
X181684Y77391D01*
X181374Y77292D01*
X181092Y77207D01*
X180965Y77179D01*
X180853Y77151D01*
X180768Y77123D01*
X180698Y77109D01*
X180655Y77094D01*
X180641D01*
X180401Y77038D01*
X180176Y76982D01*
X179979Y76925D01*
X179809Y76883D01*
X179640Y76841D01*
X179499Y76799D01*
X179372Y76770D01*
X179274Y76728D01*
X179175Y76700D01*
X179105Y76686D01*
X178992Y76643D01*
X178921Y76629D01*
X178907Y76615D01*
X178696Y76531D01*
X178512Y76432D01*
X178358Y76333D01*
X178245Y76249D01*
X178146Y76164D01*
X178090Y76108D01*
X178047Y76066D01*
X178033Y76051D01*
X177934Y75925D01*
X177864Y75784D01*
X177822Y75642D01*
X177780Y75530D01*
X177765Y75417D01*
X177751Y75332D01*
Y75262D01*
Y75248D01*
X177765Y75079D01*
X177794Y74924D01*
X177836Y74783D01*
X177892Y74670D01*
X177949Y74557D01*
X177991Y74487D01*
X178019Y74430D01*
X178033Y74416D01*
X178146Y74275D01*
X178287Y74162D01*
X178428Y74064D01*
X178555Y73965D01*
X178682Y73909D01*
X178780Y73852D01*
X178851Y73824D01*
X178879Y73810D01*
X179090Y73740D01*
X179316Y73683D01*
X179542Y73655D01*
X179739Y73627D01*
X179908Y73613D01*
X180049Y73598D01*
X180176D01*
X180486Y73613D01*
X180768Y73641D01*
X181022Y73683D01*
X181247Y73740D01*
X181431Y73796D01*
X181572Y73838D01*
X181614Y73852D01*
X181656Y73866D01*
X181670Y73880D01*
X181684D01*
X181910Y73993D01*
X182121Y74120D01*
X182276Y74247D01*
X182417Y74374D01*
X182530Y74472D01*
X182601Y74571D01*
X182643Y74628D01*
X182657Y74642D01*
X182756Y74825D01*
X182854Y75022D01*
X182911Y75234D01*
X182967Y75417D01*
X183009Y75600D01*
X183038Y75727D01*
Y75784D01*
X183052Y75826D01*
Y75840D01*
Y75854D01*
X184264Y75741D01*
X184236Y75389D01*
X184179Y75051D01*
X184095Y74754D01*
X183996Y74487D01*
X183898Y74275D01*
X183855Y74191D01*
X183827Y74120D01*
X183785Y74064D01*
X183771Y74021D01*
X183743Y73993D01*
Y73979D01*
X183531Y73711D01*
X183305Y73472D01*
X183066Y73274D01*
X182840Y73105D01*
X182643Y72978D01*
X182474Y72894D01*
X182417Y72865D01*
X182375Y72837D01*
X182347Y72823D01*
X182333D01*
X181980Y72696D01*
X181614Y72598D01*
X181247Y72541D01*
X180895Y72485D01*
X180726Y72471D01*
X180585Y72457D01*
X180458D01*
X180345Y72442D01*
X180120D01*
X179739Y72457D01*
X179387Y72499D01*
X179062Y72569D01*
X178794Y72640D01*
X178569Y72696D01*
X178470Y72739D01*
X178386Y72767D01*
X178329Y72795D01*
X178287Y72809D01*
X178259Y72823D01*
X178245D01*
X177949Y72978D01*
X177695Y73147D01*
X177469Y73331D01*
X177286Y73500D01*
X177145Y73641D01*
X177046Y73768D01*
X176976Y73852D01*
X176962Y73866D01*
Y73880D01*
X176807Y74148D01*
X176694Y74402D01*
X176623Y74642D01*
X176567Y74867D01*
X176539Y75065D01*
X176511Y75220D01*
Y75276D01*
Y75318D01*
Y75332D01*
Y75346D01*
X176525Y75628D01*
X176567Y75896D01*
X176638Y76136D01*
X176708Y76333D01*
X176793Y76502D01*
X176849Y76629D01*
X176905Y76700D01*
X176920Y76728D01*
X177089Y76940D01*
X177286Y77137D01*
X177498Y77306D01*
X177709Y77461D01*
X177892Y77574D01*
X178047Y77658D01*
X178104Y77687D01*
X178146Y77715D01*
X178174Y77729D01*
X178188D01*
X178301Y77785D01*
X178442Y77828D01*
X178597Y77884D01*
X178766Y77940D01*
X179119Y78039D01*
X179485Y78138D01*
X179654Y78180D01*
X179809Y78222D01*
X179965Y78265D01*
X180091Y78293D01*
X180190Y78321D01*
X180275Y78335D01*
X180331Y78349D01*
X180345D01*
X180627Y78420D01*
X180881Y78476D01*
X181106Y78547D01*
X181304Y78603D01*
X181487Y78673D01*
X181642Y78730D01*
X181783Y78786D01*
X181910Y78829D01*
X182009Y78885D01*
X182093Y78927D01*
X182150Y78955D01*
X182206Y78998D01*
X182276Y79040D01*
X182290Y79054D01*
X182417Y79195D01*
X182502Y79336D01*
X182572Y79477D01*
X182615Y79618D01*
X182643Y79731D01*
X182657Y79829D01*
Y79886D01*
Y79914D01*
X182629Y80140D01*
X182572Y80337D01*
X182488Y80506D01*
X182389Y80661D01*
X182305Y80774D01*
X182220Y80872D01*
X182164Y80929D01*
X182135Y80943D01*
X182023Y81013D01*
X181910Y81084D01*
X181642Y81197D01*
X181360Y81267D01*
X181078Y81324D01*
X180824Y81352D01*
X180712Y81366D01*
X180627Y81380D01*
X180430D01*
X180035Y81366D01*
X179683Y81309D01*
X179401Y81225D01*
X179161Y81140D01*
X178978Y81056D01*
X178837Y80971D01*
X178766Y80915D01*
X178738Y80901D01*
X178541Y80703D01*
X178386Y80492D01*
X178259Y80266D01*
X178174Y80041D01*
X178118Y79829D01*
X178076Y79674D01*
X178061Y79604D01*
X178047Y79562D01*
Y79533D01*
Y79519D01*
X176807Y79618D01*
X176835Y79928D01*
X176905Y80210D01*
X176976Y80478D01*
X177075Y80703D01*
X177159Y80887D01*
X177230Y81028D01*
X177258Y81070D01*
X177286Y81112D01*
X177300Y81126D01*
Y81140D01*
X177483Y81380D01*
X177681Y81592D01*
X177892Y81775D01*
X178104Y81916D01*
X178287Y82043D01*
X178428Y82113D01*
X178484Y82141D01*
X178527Y82170D01*
X178555Y82184D01*
X178569D01*
X178879Y82296D01*
X179217Y82381D01*
X179527Y82451D01*
X179823Y82494D01*
X180091Y82522D01*
X180190D01*
X180289Y82536D01*
X180472D01*
X180839Y82522D01*
D02*
G37*
G36*
X127693Y82381D02*
X128045Y82324D01*
X128341Y82226D01*
X128595Y82127D01*
X128806Y82014D01*
X128891Y81972D01*
X128962Y81916D01*
X129018Y81888D01*
X129060Y81859D01*
X129074Y81831D01*
X129088D01*
X129342Y81606D01*
X129554Y81338D01*
X129737Y81070D01*
X129878Y80816D01*
X129991Y80576D01*
X130047Y80478D01*
X130075Y80379D01*
X130103Y80309D01*
X130132Y80252D01*
X130146Y80224D01*
Y80210D01*
X130202Y79998D01*
X130259Y79787D01*
X130343Y79322D01*
X130414Y78857D01*
X130456Y78420D01*
X130470Y78208D01*
X130484Y78025D01*
Y77856D01*
X130498Y77701D01*
Y77588D01*
Y77489D01*
Y77433D01*
Y77419D01*
X130484Y76925D01*
X130456Y76460D01*
X130414Y76037D01*
X130343Y75642D01*
X130273Y75276D01*
X130188Y74952D01*
X130103Y74656D01*
X130019Y74402D01*
X129934Y74177D01*
X129836Y73979D01*
X129765Y73810D01*
X129695Y73683D01*
X129624Y73570D01*
X129582Y73500D01*
X129554Y73457D01*
X129539Y73443D01*
X129384Y73274D01*
X129215Y73119D01*
X129032Y72978D01*
X128849Y72865D01*
X128666Y72767D01*
X128482Y72682D01*
X128299Y72626D01*
X128130Y72569D01*
X127961Y72527D01*
X127806Y72499D01*
X127665Y72471D01*
X127552Y72457D01*
X127453Y72442D01*
X127312D01*
X126932Y72471D01*
X126579Y72527D01*
X126283Y72626D01*
X126029Y72724D01*
X125818Y72823D01*
X125747Y72880D01*
X125677Y72922D01*
X125621Y72950D01*
X125578Y72978D01*
X125564Y73006D01*
X125550D01*
X125296Y73246D01*
X125085Y73500D01*
X124902Y73782D01*
X124761Y74036D01*
X124648Y74275D01*
X124592Y74374D01*
X124563Y74472D01*
X124535Y74543D01*
X124507Y74599D01*
X124493Y74628D01*
Y74642D01*
X124422Y74853D01*
X124366Y75065D01*
X124281Y75516D01*
X124211Y75981D01*
X124169Y76432D01*
X124155Y76629D01*
X124140Y76813D01*
Y76982D01*
X124126Y77137D01*
Y77250D01*
Y77348D01*
Y77405D01*
Y77419D01*
Y77687D01*
X124140Y77940D01*
Y78166D01*
X124155Y78391D01*
X124183Y78589D01*
X124197Y78786D01*
X124211Y78955D01*
X124239Y79110D01*
X124253Y79251D01*
X124281Y79378D01*
X124296Y79477D01*
X124310Y79562D01*
X124324Y79632D01*
X124338Y79674D01*
X124352Y79703D01*
Y79717D01*
X124436Y80027D01*
X124535Y80309D01*
X124648Y80548D01*
X124733Y80760D01*
X124831Y80943D01*
X124888Y81070D01*
X124944Y81140D01*
X124958Y81169D01*
X125113Y81380D01*
X125268Y81563D01*
X125437Y81718D01*
X125592Y81859D01*
X125733Y81958D01*
X125846Y82029D01*
X125917Y82071D01*
X125931Y82085D01*
X125945D01*
X126170Y82198D01*
X126410Y82268D01*
X126636Y82324D01*
X126847Y82367D01*
X127030Y82395D01*
X127185Y82409D01*
X127312D01*
X127693Y82381D01*
D02*
G37*
G36*
X104940D02*
X105293Y82324D01*
X105589Y82226D01*
X105843Y82127D01*
X106054Y82014D01*
X106138Y81972D01*
X106209Y81916D01*
X106265Y81888D01*
X106308Y81859D01*
X106322Y81831D01*
X106336D01*
X106590Y81606D01*
X106801Y81338D01*
X106984Y81070D01*
X107125Y80816D01*
X107238Y80576D01*
X107295Y80478D01*
X107323Y80379D01*
X107351Y80309D01*
X107379Y80252D01*
X107393Y80224D01*
Y80210D01*
X107450Y79998D01*
X107506Y79787D01*
X107591Y79322D01*
X107661Y78857D01*
X107703Y78420D01*
X107717Y78208D01*
X107732Y78025D01*
Y77856D01*
X107746Y77701D01*
Y77588D01*
Y77489D01*
Y77433D01*
Y77419D01*
X107732Y76925D01*
X107703Y76460D01*
X107661Y76037D01*
X107591Y75642D01*
X107520Y75276D01*
X107435Y74952D01*
X107351Y74656D01*
X107266Y74402D01*
X107182Y74177D01*
X107083Y73979D01*
X107013Y73810D01*
X106942Y73683D01*
X106872Y73570D01*
X106829Y73500D01*
X106801Y73457D01*
X106787Y73443D01*
X106632Y73274D01*
X106463Y73119D01*
X106279Y72978D01*
X106096Y72865D01*
X105913Y72767D01*
X105730Y72682D01*
X105546Y72626D01*
X105377Y72569D01*
X105208Y72527D01*
X105053Y72499D01*
X104912Y72471D01*
X104799Y72457D01*
X104701Y72442D01*
X104560D01*
X104179Y72471D01*
X103827Y72527D01*
X103531Y72626D01*
X103277Y72724D01*
X103065Y72823D01*
X102995Y72880D01*
X102924Y72922D01*
X102868Y72950D01*
X102826Y72978D01*
X102812Y73006D01*
X102797D01*
X102544Y73246D01*
X102332Y73500D01*
X102149Y73782D01*
X102008Y74036D01*
X101895Y74275D01*
X101839Y74374D01*
X101811Y74472D01*
X101783Y74543D01*
X101754Y74599D01*
X101740Y74628D01*
Y74642D01*
X101670Y74853D01*
X101613Y75065D01*
X101529Y75516D01*
X101458Y75981D01*
X101416Y76432D01*
X101402Y76629D01*
X101388Y76813D01*
Y76982D01*
X101374Y77137D01*
Y77250D01*
Y77348D01*
Y77405D01*
Y77419D01*
Y77687D01*
X101388Y77940D01*
Y78166D01*
X101402Y78391D01*
X101430Y78589D01*
X101444Y78786D01*
X101458Y78955D01*
X101487Y79110D01*
X101501Y79251D01*
X101529Y79378D01*
X101543Y79477D01*
X101557Y79562D01*
X101571Y79632D01*
X101585Y79674D01*
X101599Y79703D01*
Y79717D01*
X101684Y80027D01*
X101783Y80309D01*
X101895Y80548D01*
X101980Y80760D01*
X102079Y80943D01*
X102135Y81070D01*
X102191Y81140D01*
X102205Y81169D01*
X102360Y81380D01*
X102516Y81563D01*
X102685Y81718D01*
X102840Y81859D01*
X102981Y81958D01*
X103094Y82029D01*
X103164Y82071D01*
X103178Y82085D01*
X103192D01*
X103418Y82198D01*
X103658Y82268D01*
X103883Y82324D01*
X104094Y82367D01*
X104278Y82395D01*
X104433Y82409D01*
X104560D01*
X104940Y82381D01*
D02*
G37*
G36*
X255398Y79829D02*
X255623Y79801D01*
X255821Y79759D01*
X255990Y79703D01*
X256131Y79646D01*
X256243Y79604D01*
X256300Y79576D01*
X256328Y79562D01*
X256497Y79449D01*
X256666Y79322D01*
X256807Y79195D01*
X256934Y79054D01*
X257047Y78941D01*
X257117Y78843D01*
X257174Y78786D01*
X257188Y78758D01*
Y79688D01*
X258273D01*
Y69905D01*
X257075D01*
Y73345D01*
X256962Y73204D01*
X256835Y73077D01*
X256695Y72964D01*
X256582Y72880D01*
X256469Y72795D01*
X256384Y72739D01*
X256314Y72710D01*
X256300Y72696D01*
X256117Y72612D01*
X255933Y72555D01*
X255750Y72513D01*
X255581Y72485D01*
X255440Y72471D01*
X255327Y72457D01*
X255228D01*
X254932Y72471D01*
X254636Y72527D01*
X254383Y72598D01*
X254143Y72682D01*
X253946Y72767D01*
X253805Y72837D01*
X253748Y72865D01*
X253706Y72894D01*
X253692Y72908D01*
X253678D01*
X253410Y73105D01*
X253184Y73316D01*
X252987Y73528D01*
X252832Y73740D01*
X252705Y73937D01*
X252606Y74092D01*
X252578Y74148D01*
X252550Y74191D01*
X252536Y74219D01*
Y74233D01*
X252409Y74571D01*
X252310Y74910D01*
X252240Y75234D01*
X252183Y75544D01*
X252155Y75798D01*
Y75910D01*
X252141Y76009D01*
Y76094D01*
Y76150D01*
Y76178D01*
Y76192D01*
X252155Y76559D01*
X252197Y76911D01*
X252254Y77221D01*
X252324Y77503D01*
X252395Y77729D01*
X252423Y77828D01*
X252451Y77912D01*
X252479Y77969D01*
X252494Y78011D01*
X252508Y78039D01*
Y78053D01*
X252649Y78349D01*
X252818Y78617D01*
X252987Y78843D01*
X253156Y79026D01*
X253311Y79167D01*
X253438Y79280D01*
X253523Y79336D01*
X253537Y79364D01*
X253551D01*
X253819Y79519D01*
X254086Y79646D01*
X254354Y79731D01*
X254608Y79787D01*
X254820Y79815D01*
X254918Y79829D01*
X254989Y79844D01*
X255144D01*
X255398Y79829D01*
D02*
G37*
%LPC*%
G36*
X233282Y58244D02*
X233211D01*
X233070Y58230D01*
X232929Y58216D01*
X232661Y58131D01*
X232436Y58018D01*
X232224Y57892D01*
X232069Y57751D01*
X231942Y57638D01*
X231872Y57553D01*
X231844Y57539D01*
Y57525D01*
X231745Y57384D01*
X231646Y57229D01*
X231505Y56891D01*
X231393Y56538D01*
X231322Y56200D01*
X231294Y56031D01*
X231280Y55890D01*
X231266Y55749D01*
Y55636D01*
X231252Y55537D01*
Y55453D01*
Y55410D01*
Y55396D01*
Y55157D01*
X231280Y54931D01*
X231308Y54734D01*
X231336Y54536D01*
X231378Y54367D01*
X231435Y54198D01*
X231477Y54057D01*
X231534Y53930D01*
X231590Y53817D01*
X231632Y53705D01*
X231689Y53634D01*
X231731Y53564D01*
X231759Y53507D01*
X231787Y53465D01*
X231815Y53451D01*
Y53437D01*
X231914Y53324D01*
X232027Y53225D01*
X232253Y53056D01*
X232478Y52943D01*
X232675Y52873D01*
X232859Y52817D01*
X233000Y52802D01*
X233056Y52788D01*
X233127D01*
X233267Y52802D01*
X233423Y52817D01*
X233676Y52901D01*
X233916Y53000D01*
X234113Y53127D01*
X234282Y53253D01*
X234409Y53366D01*
X234480Y53437D01*
X234494Y53451D01*
X234508Y53465D01*
X234607Y53606D01*
X234691Y53747D01*
X234832Y54071D01*
X234931Y54409D01*
X235002Y54748D01*
X235044Y55044D01*
X235058Y55171D01*
Y55283D01*
X235072Y55382D01*
Y55453D01*
Y55495D01*
Y55509D01*
Y55763D01*
X235044Y56002D01*
X235016Y56228D01*
X234987Y56425D01*
X234945Y56609D01*
X234903Y56778D01*
X234860Y56933D01*
X234804Y57074D01*
X234748Y57201D01*
X234705Y57299D01*
X234663Y57384D01*
X234621Y57454D01*
X234579Y57511D01*
X234564Y57553D01*
X234536Y57567D01*
Y57581D01*
X234424Y57694D01*
X234325Y57807D01*
X234099Y57962D01*
X233874Y58089D01*
X233662Y58159D01*
X233479Y58216D01*
X233338Y58230D01*
X233282Y58244D01*
D02*
G37*
G36*
X177669Y57229D02*
X177584D01*
X177288Y57201D01*
X177020Y57130D01*
X176795Y57046D01*
X176598Y56933D01*
X176443Y56820D01*
X176330Y56736D01*
X176259Y56665D01*
X176231Y56637D01*
X176048Y56397D01*
X175907Y56143D01*
X175808Y55876D01*
X175752Y55622D01*
X175709Y55396D01*
X175695Y55298D01*
Y55213D01*
X175681Y55142D01*
Y55086D01*
Y55058D01*
Y55044D01*
X175709Y54663D01*
X175766Y54339D01*
X175850Y54057D01*
X175949Y53817D01*
X176062Y53634D01*
X176147Y53493D01*
X176203Y53409D01*
X176231Y53394D01*
Y53380D01*
X176330Y53268D01*
X176443Y53183D01*
X176668Y53028D01*
X176894Y52929D01*
X177091Y52845D01*
X177274Y52802D01*
X177415Y52788D01*
X177472Y52774D01*
X177542D01*
X177739Y52788D01*
X177923Y52817D01*
X178092Y52873D01*
X178233Y52929D01*
X178360Y52972D01*
X178458Y53028D01*
X178515Y53056D01*
X178543Y53070D01*
X178712Y53197D01*
X178853Y53324D01*
X178980Y53479D01*
X179079Y53606D01*
X179163Y53733D01*
X179220Y53832D01*
X179262Y53902D01*
X179276Y53930D01*
X179361Y54142D01*
X179417Y54353D01*
X179473Y54550D01*
X179502Y54734D01*
X179516Y54889D01*
X179530Y55016D01*
Y55086D01*
Y55114D01*
X179502Y55453D01*
X179445Y55749D01*
X179347Y56017D01*
X179248Y56228D01*
X179149Y56411D01*
X179051Y56538D01*
X178994Y56609D01*
X178966Y56637D01*
X178740Y56834D01*
X178515Y56975D01*
X178275Y57088D01*
X178064Y57158D01*
X177866Y57201D01*
X177725Y57215D01*
X177669Y57229D01*
D02*
G37*
G36*
X200450Y58202D02*
X200365D01*
X200196Y58187D01*
X200041Y58173D01*
X199745Y58089D01*
X199491Y57976D01*
X199280Y57849D01*
X199111Y57722D01*
X198984Y57610D01*
X198913Y57525D01*
X198885Y57511D01*
Y57497D01*
X198758Y57313D01*
X198645Y57102D01*
X198575Y56891D01*
X198504Y56665D01*
X198462Y56482D01*
X198434Y56313D01*
Y56256D01*
X198420Y56214D01*
Y56186D01*
Y56172D01*
X202381D01*
X202339Y56496D01*
X202254Y56792D01*
X202155Y57046D01*
X202043Y57243D01*
X201944Y57412D01*
X201845Y57539D01*
X201789Y57610D01*
X201761Y57638D01*
X201535Y57821D01*
X201310Y57962D01*
X201070Y58061D01*
X200844Y58131D01*
X200661Y58173D01*
X200506Y58187D01*
X200450Y58202D01*
D02*
G37*
G36*
X208274D02*
X208203D01*
X208048Y58187D01*
X207907Y58173D01*
X207639Y58089D01*
X207400Y57990D01*
X207202Y57863D01*
X207047Y57736D01*
X206920Y57624D01*
X206850Y57539D01*
X206822Y57525D01*
Y57511D01*
X206723Y57370D01*
X206638Y57229D01*
X206497Y56891D01*
X206399Y56538D01*
X206328Y56200D01*
X206300Y56031D01*
X206286Y55876D01*
X206272Y55735D01*
Y55622D01*
X206258Y55523D01*
Y55453D01*
Y55396D01*
Y55382D01*
Y55142D01*
X206286Y54917D01*
X206314Y54720D01*
X206342Y54522D01*
X206385Y54353D01*
X206441Y54184D01*
X206483Y54043D01*
X206540Y53916D01*
X206596Y53803D01*
X206638Y53691D01*
X206695Y53620D01*
X206737Y53550D01*
X206765Y53493D01*
X206793Y53451D01*
X206822Y53437D01*
Y53423D01*
X206920Y53310D01*
X207033Y53211D01*
X207259Y53056D01*
X207484Y52943D01*
X207696Y52873D01*
X207879Y52817D01*
X208034Y52802D01*
X208090Y52788D01*
X208161D01*
X208302Y52802D01*
X208443Y52817D01*
X208696Y52887D01*
X208936Y53000D01*
X209133Y53127D01*
X209289Y53239D01*
X209415Y53352D01*
X209486Y53423D01*
X209500Y53451D01*
X209514D01*
X209613Y53592D01*
X209697Y53733D01*
X209838Y54057D01*
X209937Y54395D01*
X210007Y54720D01*
X210050Y55016D01*
X210064Y55142D01*
Y55255D01*
X210078Y55354D01*
Y55424D01*
Y55467D01*
Y55481D01*
Y55735D01*
X210050Y55974D01*
X210022Y56200D01*
X209993Y56397D01*
X209951Y56580D01*
X209909Y56750D01*
X209867Y56905D01*
X209810Y57046D01*
X209754Y57158D01*
X209711Y57257D01*
X209669Y57342D01*
X209627Y57412D01*
X209585Y57469D01*
X209571Y57511D01*
X209542Y57525D01*
Y57539D01*
X209444Y57652D01*
X209331Y57765D01*
X209105Y57920D01*
X208880Y58046D01*
X208668Y58117D01*
X208485Y58173D01*
X208330Y58187D01*
X208274Y58202D01*
D02*
G37*
G36*
X197670Y76164D02*
X197656D01*
X197670Y75713D01*
X197684Y75431D01*
X197698Y75191D01*
X197727Y74994D01*
X197769Y74825D01*
X197811Y74698D01*
X197840Y74599D01*
X197854Y74543D01*
X197868Y74529D01*
X197980Y74346D01*
X198093Y74177D01*
X198234Y74036D01*
X198361Y73923D01*
X198474Y73824D01*
X198573Y73753D01*
X198629Y73711D01*
X198657Y73697D01*
X198869Y73598D01*
X199080Y73528D01*
X199277Y73472D01*
X199475Y73443D01*
X199630Y73415D01*
X199771Y73401D01*
X199884D01*
X200137Y73415D01*
X200349Y73443D01*
X200532Y73500D01*
X200687Y73556D01*
X200800Y73613D01*
X200884Y73669D01*
X200941Y73697D01*
X200955Y73711D01*
X201068Y73838D01*
X201152Y73979D01*
X201223Y74106D01*
X201265Y74233D01*
X201293Y74346D01*
X201307Y74430D01*
Y74501D01*
Y74515D01*
X201293Y74628D01*
X201279Y74740D01*
X201251Y74825D01*
X201223Y74910D01*
X201195Y74980D01*
X201180Y75036D01*
X201152Y75065D01*
Y75079D01*
X201011Y75248D01*
X200842Y75361D01*
X200786Y75403D01*
X200729Y75431D01*
X200687Y75459D01*
X200673D01*
X200532Y75516D01*
X200377Y75558D01*
X200208Y75600D01*
X200039Y75628D01*
X199884Y75657D01*
X199743Y75685D01*
X199658Y75699D01*
X199630D01*
X199390Y75741D01*
X199165Y75769D01*
X198967Y75812D01*
X198770Y75854D01*
X198587Y75896D01*
X198432Y75939D01*
X198277Y75967D01*
X198150Y76009D01*
X198037Y76037D01*
X197938Y76066D01*
X197854Y76094D01*
X197783Y76122D01*
X197727Y76136D01*
X197684Y76150D01*
X197670Y76164D01*
D02*
G37*
G36*
X225117Y78857D02*
X225033D01*
X224863Y78843D01*
X224708Y78829D01*
X224412Y78744D01*
X224159Y78631D01*
X223947Y78504D01*
X223778Y78377D01*
X223651Y78265D01*
X223581Y78180D01*
X223552Y78166D01*
Y78152D01*
X223426Y77969D01*
X223313Y77757D01*
X223242Y77546D01*
X223172Y77320D01*
X223130Y77137D01*
X223101Y76968D01*
Y76911D01*
X223087Y76869D01*
Y76841D01*
Y76827D01*
X227048D01*
X227006Y77151D01*
X226922Y77447D01*
X226823Y77701D01*
X226710Y77898D01*
X226611Y78067D01*
X226513Y78194D01*
X226456Y78265D01*
X226428Y78293D01*
X226203Y78476D01*
X225977Y78617D01*
X225737Y78716D01*
X225512Y78786D01*
X225329Y78829D01*
X225174Y78843D01*
X225117Y78857D01*
D02*
G37*
G36*
X172070D02*
X171986D01*
X171816Y78843D01*
X171661Y78829D01*
X171365Y78744D01*
X171112Y78631D01*
X170900Y78504D01*
X170731Y78377D01*
X170604Y78265D01*
X170534Y78180D01*
X170505Y78166D01*
Y78152D01*
X170379Y77969D01*
X170266Y77757D01*
X170195Y77546D01*
X170125Y77320D01*
X170082Y77137D01*
X170054Y76968D01*
Y76911D01*
X170040Y76869D01*
Y76841D01*
Y76827D01*
X174002D01*
X173959Y77151D01*
X173875Y77447D01*
X173776Y77701D01*
X173663Y77898D01*
X173564Y78067D01*
X173466Y78194D01*
X173409Y78265D01*
X173381Y78293D01*
X173156Y78476D01*
X172930Y78617D01*
X172691Y78716D01*
X172465Y78786D01*
X172282Y78829D01*
X172127Y78843D01*
X172070Y78857D01*
D02*
G37*
G36*
X216870Y81352D02*
X216772Y81028D01*
X216659Y80689D01*
X216546Y80351D01*
X216434Y80027D01*
X216377Y79886D01*
X216335Y79745D01*
X216292Y79618D01*
X216250Y79519D01*
X216222Y79435D01*
X216194Y79364D01*
X216180Y79322D01*
Y79308D01*
X215165Y76629D01*
X218463D01*
X217406Y79477D01*
X217279Y79829D01*
X217181Y80168D01*
X217082Y80478D01*
X217011Y80760D01*
X216955Y80999D01*
X216927Y81098D01*
X216913Y81197D01*
X216885Y81253D01*
Y81309D01*
X216870Y81338D01*
Y81352D01*
D02*
G37*
G36*
X263080Y78857D02*
X262996D01*
X262827Y78843D01*
X262672Y78829D01*
X262390Y78758D01*
X262136Y78645D01*
X261924Y78518D01*
X261755Y78391D01*
X261628Y78293D01*
X261544Y78208D01*
X261516Y78194D01*
Y78180D01*
X261403Y78053D01*
X261318Y77898D01*
X261163Y77588D01*
X261050Y77250D01*
X260980Y76940D01*
X260938Y76643D01*
X260924Y76517D01*
Y76404D01*
X260910Y76319D01*
Y76249D01*
Y76206D01*
Y76192D01*
Y75939D01*
X260938Y75699D01*
X260966Y75487D01*
X261008Y75276D01*
X261050Y75093D01*
X261107Y74924D01*
X261149Y74769D01*
X261206Y74628D01*
X261262Y74515D01*
X261318Y74402D01*
X261375Y74317D01*
X261417Y74247D01*
X261459Y74191D01*
X261488Y74148D01*
X261502Y74134D01*
X261516Y74120D01*
X261628Y74007D01*
X261755Y73895D01*
X261995Y73725D01*
X262249Y73613D01*
X262474Y73528D01*
X262686Y73486D01*
X262841Y73457D01*
X262911Y73443D01*
X262996D01*
X263165Y73457D01*
X263320Y73472D01*
X263616Y73542D01*
X263870Y73655D01*
X264081Y73782D01*
X264251Y73895D01*
X264377Y74007D01*
X264462Y74078D01*
X264476Y74106D01*
X264490D01*
X264589Y74247D01*
X264688Y74388D01*
X264828Y74712D01*
X264941Y75051D01*
X265012Y75389D01*
X265054Y75685D01*
X265068Y75812D01*
Y75925D01*
X265082Y76023D01*
Y76094D01*
Y76136D01*
Y76150D01*
X265068Y76390D01*
X265054Y76629D01*
X265026Y76841D01*
X264984Y77038D01*
X264941Y77221D01*
X264899Y77391D01*
X264842Y77531D01*
X264786Y77673D01*
X264730Y77785D01*
X264673Y77898D01*
X264631Y77983D01*
X264589Y78053D01*
X264547Y78109D01*
X264518Y78152D01*
X264490Y78166D01*
Y78180D01*
X264377Y78293D01*
X264251Y78406D01*
X264011Y78575D01*
X263757Y78688D01*
X263517Y78772D01*
X263306Y78829D01*
X263151Y78843D01*
X263080Y78857D01*
D02*
G37*
G36*
X240328D02*
X240243D01*
X240074Y78843D01*
X239919Y78829D01*
X239637Y78758D01*
X239383Y78645D01*
X239172Y78518D01*
X239003Y78391D01*
X238876Y78293D01*
X238791Y78208D01*
X238763Y78194D01*
Y78180D01*
X238650Y78053D01*
X238566Y77898D01*
X238411Y77588D01*
X238298Y77250D01*
X238227Y76940D01*
X238185Y76643D01*
X238171Y76517D01*
Y76404D01*
X238157Y76319D01*
Y76249D01*
Y76206D01*
Y76192D01*
Y75939D01*
X238185Y75699D01*
X238213Y75487D01*
X238256Y75276D01*
X238298Y75093D01*
X238354Y74924D01*
X238397Y74769D01*
X238453Y74628D01*
X238509Y74515D01*
X238566Y74402D01*
X238622Y74317D01*
X238664Y74247D01*
X238707Y74191D01*
X238735Y74148D01*
X238749Y74134D01*
X238763Y74120D01*
X238876Y74007D01*
X239003Y73895D01*
X239242Y73725D01*
X239496Y73613D01*
X239722Y73528D01*
X239933Y73486D01*
X240088Y73457D01*
X240159Y73443D01*
X240243D01*
X240412Y73457D01*
X240567Y73472D01*
X240864Y73542D01*
X241117Y73655D01*
X241329Y73782D01*
X241498Y73895D01*
X241625Y74007D01*
X241709Y74078D01*
X241723Y74106D01*
X241738D01*
X241836Y74247D01*
X241935Y74388D01*
X242076Y74712D01*
X242189Y75051D01*
X242259Y75389D01*
X242301Y75685D01*
X242316Y75812D01*
Y75925D01*
X242330Y76023D01*
Y76094D01*
Y76136D01*
Y76150D01*
X242316Y76390D01*
X242301Y76629D01*
X242273Y76841D01*
X242231Y77038D01*
X242189Y77221D01*
X242146Y77391D01*
X242090Y77531D01*
X242034Y77673D01*
X241977Y77785D01*
X241921Y77898D01*
X241879Y77983D01*
X241836Y78053D01*
X241794Y78109D01*
X241766Y78152D01*
X241738Y78166D01*
Y78180D01*
X241625Y78293D01*
X241498Y78406D01*
X241258Y78575D01*
X241005Y78688D01*
X240765Y78772D01*
X240553Y78829D01*
X240398Y78843D01*
X240328Y78857D01*
D02*
G37*
G36*
X150121D02*
X150037D01*
X149867Y78843D01*
X149712Y78829D01*
X149430Y78758D01*
X149177Y78645D01*
X148965Y78518D01*
X148796Y78391D01*
X148669Y78293D01*
X148585Y78208D01*
X148556Y78194D01*
Y78180D01*
X148444Y78053D01*
X148359Y77898D01*
X148204Y77588D01*
X148091Y77250D01*
X148021Y76940D01*
X147978Y76643D01*
X147964Y76517D01*
Y76404D01*
X147950Y76319D01*
Y76249D01*
Y76206D01*
Y76192D01*
Y75939D01*
X147978Y75699D01*
X148007Y75487D01*
X148049Y75276D01*
X148091Y75093D01*
X148148Y74924D01*
X148190Y74769D01*
X148246Y74628D01*
X148303Y74515D01*
X148359Y74402D01*
X148415Y74317D01*
X148458Y74247D01*
X148500Y74191D01*
X148528Y74148D01*
X148542Y74134D01*
X148556Y74120D01*
X148669Y74007D01*
X148796Y73895D01*
X149036Y73725D01*
X149289Y73613D01*
X149515Y73528D01*
X149726Y73486D01*
X149881Y73457D01*
X149952Y73443D01*
X150037D01*
X150206Y73457D01*
X150361Y73472D01*
X150657Y73542D01*
X150911Y73655D01*
X151122Y73782D01*
X151291Y73895D01*
X151418Y74007D01*
X151503Y74078D01*
X151517Y74106D01*
X151531D01*
X151629Y74247D01*
X151728Y74388D01*
X151869Y74712D01*
X151982Y75051D01*
X152052Y75389D01*
X152095Y75685D01*
X152109Y75812D01*
Y75925D01*
X152123Y76023D01*
Y76094D01*
Y76136D01*
Y76150D01*
X152109Y76390D01*
X152095Y76629D01*
X152066Y76841D01*
X152024Y77038D01*
X151982Y77221D01*
X151940Y77391D01*
X151883Y77531D01*
X151827Y77673D01*
X151770Y77785D01*
X151714Y77898D01*
X151672Y77983D01*
X151629Y78053D01*
X151587Y78109D01*
X151559Y78152D01*
X151531Y78166D01*
Y78180D01*
X151418Y78293D01*
X151291Y78406D01*
X151052Y78575D01*
X150798Y78688D01*
X150558Y78772D01*
X150347Y78829D01*
X150192Y78843D01*
X150121Y78857D01*
D02*
G37*
G36*
X127411Y81422D02*
X127326D01*
X127171Y81408D01*
X127016Y81394D01*
X126875Y81352D01*
X126748Y81295D01*
X126509Y81169D01*
X126297Y81028D01*
X126142Y80872D01*
X126015Y80746D01*
X125973Y80689D01*
X125945Y80647D01*
X125917Y80633D01*
Y80619D01*
X125818Y80450D01*
X125733Y80252D01*
X125649Y80027D01*
X125592Y79787D01*
X125536Y79533D01*
X125494Y79265D01*
X125423Y78730D01*
X125395Y78462D01*
X125381Y78222D01*
X125367Y77997D01*
Y77814D01*
X125353Y77644D01*
Y77517D01*
Y77447D01*
Y77433D01*
Y77419D01*
Y76982D01*
X125381Y76587D01*
X125409Y76235D01*
X125437Y75896D01*
X125480Y75614D01*
X125536Y75346D01*
X125592Y75121D01*
X125635Y74910D01*
X125691Y74740D01*
X125747Y74599D01*
X125790Y74472D01*
X125846Y74374D01*
X125874Y74303D01*
X125903Y74261D01*
X125931Y74233D01*
Y74219D01*
X126044Y74078D01*
X126156Y73965D01*
X126269Y73852D01*
X126382Y73768D01*
X126622Y73627D01*
X126833Y73528D01*
X127030Y73472D01*
X127171Y73443D01*
X127228Y73429D01*
X127312D01*
X127467Y73443D01*
X127608Y73457D01*
X127876Y73556D01*
X128116Y73683D01*
X128327Y73824D01*
X128482Y73965D01*
X128609Y74092D01*
X128680Y74191D01*
X128708Y74205D01*
Y74219D01*
X128806Y74388D01*
X128891Y74585D01*
X128976Y74811D01*
X129032Y75051D01*
X129088Y75304D01*
X129131Y75572D01*
X129201Y76122D01*
X129229Y76376D01*
X129243Y76615D01*
X129258Y76841D01*
Y77024D01*
X129272Y77193D01*
Y77320D01*
Y77391D01*
Y77419D01*
X129258Y77856D01*
X129243Y78250D01*
X129215Y78617D01*
X129173Y78955D01*
X129131Y79251D01*
X129074Y79519D01*
X129018Y79759D01*
X128962Y79970D01*
X128905Y80154D01*
X128863Y80309D01*
X128806Y80435D01*
X128764Y80548D01*
X128722Y80619D01*
X128694Y80675D01*
X128666Y80703D01*
Y80717D01*
X128567Y80844D01*
X128468Y80957D01*
X128355Y81042D01*
X128243Y81126D01*
X128017Y81253D01*
X127806Y81338D01*
X127622Y81380D01*
X127467Y81408D01*
X127411Y81422D01*
D02*
G37*
G36*
X104658D02*
X104574D01*
X104419Y81408D01*
X104264Y81394D01*
X104123Y81352D01*
X103996Y81295D01*
X103756Y81169D01*
X103545Y81028D01*
X103390Y80872D01*
X103263Y80746D01*
X103220Y80689D01*
X103192Y80647D01*
X103164Y80633D01*
Y80619D01*
X103065Y80450D01*
X102981Y80252D01*
X102896Y80027D01*
X102840Y79787D01*
X102783Y79533D01*
X102741Y79265D01*
X102671Y78730D01*
X102642Y78462D01*
X102628Y78222D01*
X102614Y77997D01*
Y77814D01*
X102600Y77644D01*
Y77517D01*
Y77447D01*
Y77433D01*
Y77419D01*
Y76982D01*
X102628Y76587D01*
X102657Y76235D01*
X102685Y75896D01*
X102727Y75614D01*
X102783Y75346D01*
X102840Y75121D01*
X102882Y74910D01*
X102938Y74740D01*
X102995Y74599D01*
X103037Y74472D01*
X103094Y74374D01*
X103122Y74303D01*
X103150Y74261D01*
X103178Y74233D01*
Y74219D01*
X103291Y74078D01*
X103404Y73965D01*
X103517Y73852D01*
X103629Y73768D01*
X103869Y73627D01*
X104080Y73528D01*
X104278Y73472D01*
X104419Y73443D01*
X104475Y73429D01*
X104560D01*
X104715Y73443D01*
X104856Y73457D01*
X105124Y73556D01*
X105363Y73683D01*
X105575Y73824D01*
X105730Y73965D01*
X105857Y74092D01*
X105927Y74191D01*
X105955Y74205D01*
Y74219D01*
X106054Y74388D01*
X106138Y74585D01*
X106223Y74811D01*
X106279Y75051D01*
X106336Y75304D01*
X106378Y75572D01*
X106449Y76122D01*
X106477Y76376D01*
X106491Y76615D01*
X106505Y76841D01*
Y77024D01*
X106519Y77193D01*
Y77320D01*
Y77391D01*
Y77419D01*
X106505Y77856D01*
X106491Y78250D01*
X106463Y78617D01*
X106420Y78955D01*
X106378Y79251D01*
X106322Y79519D01*
X106265Y79759D01*
X106209Y79970D01*
X106153Y80154D01*
X106110Y80309D01*
X106054Y80435D01*
X106012Y80548D01*
X105969Y80619D01*
X105941Y80675D01*
X105913Y80703D01*
Y80717D01*
X105814Y80844D01*
X105716Y80957D01*
X105603Y81042D01*
X105490Y81126D01*
X105265Y81253D01*
X105053Y81338D01*
X104870Y81380D01*
X104715Y81408D01*
X104658Y81422D01*
D02*
G37*
G36*
X255327Y78899D02*
X255257D01*
X255116Y78885D01*
X254975Y78871D01*
X254721Y78800D01*
X254495Y78688D01*
X254298Y78561D01*
X254143Y78434D01*
X254030Y78335D01*
X253960Y78250D01*
X253932Y78236D01*
Y78222D01*
X253833Y78095D01*
X253748Y77940D01*
X253607Y77616D01*
X253509Y77292D01*
X253438Y76968D01*
X253396Y76672D01*
X253382Y76545D01*
Y76432D01*
X253368Y76333D01*
Y76263D01*
Y76220D01*
Y76206D01*
Y75953D01*
X253396Y75713D01*
X253424Y75487D01*
X253452Y75276D01*
X253494Y75093D01*
X253551Y74924D01*
X253607Y74754D01*
X253650Y74628D01*
X253706Y74501D01*
X253762Y74402D01*
X253805Y74303D01*
X253861Y74233D01*
X253889Y74177D01*
X253917Y74134D01*
X253946Y74120D01*
Y74106D01*
X254058Y73993D01*
X254171Y73895D01*
X254397Y73725D01*
X254622Y73613D01*
X254834Y73528D01*
X255031Y73486D01*
X255172Y73457D01*
X255228Y73443D01*
X255313D01*
X255454Y73457D01*
X255595Y73472D01*
X255849Y73542D01*
X256074Y73655D01*
X256272Y73768D01*
X256427Y73880D01*
X256539Y73993D01*
X256610Y74064D01*
X256638Y74092D01*
X256737Y74219D01*
X256821Y74360D01*
X256962Y74684D01*
X257047Y75008D01*
X257117Y75346D01*
X257160Y75642D01*
X257174Y75769D01*
Y75882D01*
X257188Y75981D01*
Y76051D01*
Y76094D01*
Y76108D01*
Y76361D01*
X257160Y76587D01*
X257132Y76799D01*
X257103Y77010D01*
X257047Y77193D01*
X257005Y77362D01*
X256948Y77517D01*
X256892Y77658D01*
X256849Y77771D01*
X256793Y77884D01*
X256737Y77969D01*
X256695Y78053D01*
X256666Y78109D01*
X256638Y78152D01*
X256610Y78166D01*
Y78180D01*
X256497Y78307D01*
X256384Y78420D01*
X256272Y78518D01*
X256145Y78603D01*
X255919Y78730D01*
X255708Y78814D01*
X255524Y78857D01*
X255383Y78885D01*
X255327Y78899D01*
D02*
G37*
%LPD*%
D10*
X146750Y368000D02*
G03*
X146750Y368000I-27000J0D01*
G01*
X86250Y210250D02*
G03*
X86250Y210250I-27000J0D01*
G01*
D15*
X27083Y77582D02*
X27499Y77166D01*
Y76333D01*
X27083Y75916D01*
X25417D01*
X25000Y76333D01*
Y77166D01*
X25417Y77582D01*
X27083D01*
X25000Y75083D02*
X27499D01*
Y73833D01*
X27083Y73417D01*
X26250D01*
X25833Y73833D01*
Y75083D01*
Y74250D02*
X25000Y73417D01*
X69332Y71417D02*
X68916Y71001D01*
X68083D01*
X67666Y71417D01*
Y73084D01*
X68083Y73500D01*
X68916D01*
X69332Y73084D01*
Y71417D01*
X66833Y73500D02*
Y71001D01*
X65583D01*
X65167Y71417D01*
Y72250D01*
X65583Y72667D01*
X66833D01*
X66000D02*
X65167Y73500D01*
X364833Y68082D02*
X365249Y67666D01*
Y66833D01*
X364833Y66416D01*
X363167D01*
X362750Y66833D01*
Y67666D01*
X363167Y68082D01*
X364833D01*
X362750Y65583D02*
X365249D01*
Y64333D01*
X364833Y63917D01*
X364000D01*
X363583Y64333D01*
Y65583D01*
Y64750D02*
X362750Y63917D01*
X410833Y77582D02*
X411249Y77166D01*
Y76333D01*
X410833Y75916D01*
X409166D01*
X408750Y76333D01*
Y77166D01*
X409166Y77582D01*
X410833D01*
X408750Y75083D02*
X411249D01*
Y73833D01*
X410833Y73417D01*
X410000D01*
X409583Y73833D01*
Y75083D01*
Y74250D02*
X408750Y73417D01*
X84082Y419417D02*
X83666Y419001D01*
X82833D01*
X82416Y419417D01*
Y421083D01*
X82833Y421500D01*
X83666D01*
X84082Y421083D01*
Y419417D01*
X81583Y421500D02*
Y419001D01*
X80333D01*
X79917Y419417D01*
Y420250D01*
X80333Y420667D01*
X81583D01*
X80750D02*
X79917Y421500D01*
X4917Y361168D02*
X4501Y361584D01*
Y362417D01*
X4917Y362834D01*
X6583D01*
X7000Y362417D01*
Y361584D01*
X6583Y361168D01*
X4917D01*
X7000Y363667D02*
X4501D01*
Y364916D01*
X4917Y365333D01*
X5750D01*
X6167Y364916D01*
Y363667D01*
Y364500D02*
X7000Y365333D01*
X353918Y402333D02*
X354334Y402749D01*
X355167D01*
X355584Y402333D01*
Y400667D01*
X355167Y400250D01*
X354334D01*
X353918Y400667D01*
Y402333D01*
X356417Y400250D02*
Y402749D01*
X357667D01*
X358083Y402333D01*
Y401500D01*
X357667Y401083D01*
X356417D01*
X357250D02*
X358083Y400250D01*
X396418Y421833D02*
X396834Y422249D01*
X397667D01*
X398084Y421833D01*
Y420167D01*
X397667Y419750D01*
X396834D01*
X396418Y420167D01*
Y421833D01*
X398917Y419750D02*
Y422249D01*
X400167D01*
X400583Y421833D01*
Y421000D01*
X400167Y420583D01*
X398917D01*
X399750D02*
X400583Y419750D01*
D16*
X345001Y43997D02*
Y42664D01*
Y43331D01*
X348999D01*
X348333Y43997D01*
Y40665D02*
X348999Y39998D01*
Y38665D01*
X348333Y37999D01*
X345667D01*
X345001Y38665D01*
Y39998D01*
X345667Y40665D01*
X348333D01*
Y36666D02*
X348999Y36000D01*
Y34667D01*
X348333Y34000D01*
X345667D01*
X345001Y34667D01*
Y36000D01*
X345667Y36666D01*
X348333D01*
X345001Y32667D02*
X347667D01*
Y30668D01*
X347000Y30002D01*
X345001D01*
X348999Y26003D02*
Y28669D01*
X347000D01*
Y27336D01*
Y28669D01*
X345001D01*
X41998Y353999D02*
X40665D01*
X41331D01*
Y350001D01*
X41998Y350667D01*
X38665D02*
X37999Y350001D01*
X36666D01*
X36000Y350667D01*
Y353333D01*
X36666Y353999D01*
X37999D01*
X38665Y353333D01*
Y350667D01*
X34667Y351334D02*
Y353333D01*
X34000Y353999D01*
X32001D01*
Y351334D01*
X28002Y350001D02*
X30668D01*
Y352000D01*
X29335D01*
X30668D01*
Y353999D01*
X43997Y366999D02*
X42664D01*
X43331D01*
Y363001D01*
X43997Y363667D01*
X40665D02*
X39998Y363001D01*
X38665D01*
X37999Y363667D01*
Y366333D01*
X38665Y366999D01*
X39998D01*
X40665Y366333D01*
Y363667D01*
X36666D02*
X36000Y363001D01*
X34667D01*
X34000Y363667D01*
Y366333D01*
X34667Y366999D01*
X36000D01*
X36666Y366333D01*
Y363667D01*
X32667Y366999D02*
Y364333D01*
X30668D01*
X30002Y365000D01*
Y366999D01*
X26003Y363001D02*
X28669D01*
Y365000D01*
X27336D01*
X28669D01*
Y366999D01*
X68001Y41998D02*
Y40665D01*
Y41331D01*
X71999D01*
X71333Y41998D01*
Y38665D02*
X71999Y37999D01*
Y36666D01*
X71333Y36000D01*
X68667D01*
X68001Y36666D01*
Y37999D01*
X68667Y38665D01*
X71333D01*
X70666Y34667D02*
X68667D01*
X68001Y34000D01*
Y32001D01*
X70666D01*
X71999Y28002D02*
Y30668D01*
X70000D01*
Y29335D01*
Y30668D01*
X68001D01*
X403997Y366999D02*
X402664D01*
X403331D01*
Y363001D01*
X403997Y363667D01*
X400665D02*
X399998Y363001D01*
X398665D01*
X397999Y363667D01*
Y366333D01*
X398665Y366999D01*
X399998D01*
X400665Y366333D01*
Y363667D01*
X396666D02*
X396000Y363001D01*
X394667D01*
X394000Y363667D01*
Y366333D01*
X394667Y366999D01*
X396000D01*
X396666Y366333D01*
Y363667D01*
X392667Y366999D02*
Y364333D01*
X390668D01*
X390002Y365000D01*
Y366999D01*
X386003Y363001D02*
X388669D01*
Y365000D01*
X387336D01*
X388669D01*
Y366999D01*
X358001Y41998D02*
Y40665D01*
Y41331D01*
X361999D01*
X361333Y41998D01*
Y38665D02*
X361999Y37999D01*
Y36666D01*
X361333Y36000D01*
X358667D01*
X358001Y36666D01*
Y37999D01*
X358667Y38665D01*
X361333D01*
X360667Y34667D02*
X358667D01*
X358001Y34000D01*
Y32001D01*
X360667D01*
X361999Y28002D02*
Y30668D01*
X360000D01*
Y29335D01*
Y30668D01*
X358001D01*
X81001Y43997D02*
Y42664D01*
Y43331D01*
X84999D01*
X84333Y43997D01*
Y40665D02*
X84999Y39998D01*
Y38665D01*
X84333Y37999D01*
X81667D01*
X81001Y38665D01*
Y39998D01*
X81667Y40665D01*
X84333D01*
Y36666D02*
X84999Y36000D01*
Y34667D01*
X84333Y34000D01*
X81667D01*
X81001Y34667D01*
Y36000D01*
X81667Y36666D01*
X84333D01*
X81001Y32667D02*
X83666D01*
Y30668D01*
X83000Y30002D01*
X81001D01*
X84999Y26003D02*
Y28669D01*
X83000D01*
Y27336D01*
Y28669D01*
X81001D01*
X401998Y353999D02*
X400665D01*
X401331D01*
Y350001D01*
X401998Y350667D01*
X398666D02*
X397999Y350001D01*
X396666D01*
X396000Y350667D01*
Y353333D01*
X396666Y353999D01*
X397999D01*
X398666Y353333D01*
Y350667D01*
X394667Y351334D02*
Y353333D01*
X394000Y353999D01*
X392001D01*
Y351334D01*
X388002Y350001D02*
X390668D01*
Y352000D01*
X389335D01*
X390668D01*
Y353999D01*
D17*
X260501Y190749D02*
X258502D01*
Y189250D01*
X259501Y189750D01*
X260001D01*
X260501Y189250D01*
Y188250D01*
X260001Y187750D01*
X259002D01*
X258502Y188250D01*
X261501Y190250D02*
X262001Y190749D01*
X263000D01*
X263500Y190250D01*
Y188250D01*
X263000Y187750D01*
X262001D01*
X261501Y188250D01*
Y190250D01*
X264500D02*
X265000Y190749D01*
X265999D01*
X266499Y190250D01*
Y188250D01*
X265999Y187750D01*
X265000D01*
X264500Y188250D01*
Y190250D01*
X267499Y187750D02*
X268498D01*
X267999D01*
Y190749D01*
X267499Y190250D01*
X384001Y279249D02*
X382002D01*
Y277750D01*
X383001Y278250D01*
X383501D01*
X384001Y277750D01*
Y276750D01*
X383501Y276250D01*
X382501D01*
X382002Y276750D01*
X385001Y278750D02*
X385500Y279249D01*
X386500D01*
X387000Y278750D01*
Y276750D01*
X386500Y276250D01*
X385500D01*
X385001Y276750D01*
Y278750D01*
X388000D02*
X388499Y279249D01*
X389499D01*
X389999Y278750D01*
Y276750D01*
X389499Y276250D01*
X388499D01*
X388000Y276750D01*
Y278750D01*
X390999Y276250D02*
X391998D01*
X391499D01*
Y279249D01*
X390999Y278750D01*
X382251Y209750D02*
X380252D01*
Y208250D01*
X381251Y208750D01*
X381751D01*
X382251Y208250D01*
Y207250D01*
X381751Y206751D01*
X380751D01*
X380252Y207250D01*
X383251Y209250D02*
X383750Y209750D01*
X384750D01*
X385250Y209250D01*
Y207250D01*
X384750Y206751D01*
X383750D01*
X383251Y207250D01*
Y209250D01*
X386250D02*
X386749Y209750D01*
X387749D01*
X388249Y209250D01*
Y207250D01*
X387749Y206751D01*
X386749D01*
X386250Y207250D01*
Y209250D01*
X389249Y206751D02*
X390248D01*
X389749D01*
Y209750D01*
X389249Y209250D01*
X242001Y396499D02*
X240002D01*
Y395000D01*
X241001Y395500D01*
X241501D01*
X242001Y395000D01*
Y394000D01*
X241501Y393501D01*
X240501D01*
X240002Y394000D01*
X243001Y396000D02*
X243500Y396499D01*
X244500D01*
X245000Y396000D01*
Y394000D01*
X244500Y393501D01*
X243500D01*
X243001Y394000D01*
Y396000D01*
X246000D02*
X246500Y396499D01*
X247499D01*
X247999Y396000D01*
Y394000D01*
X247499Y393501D01*
X246500D01*
X246000Y394000D01*
Y396000D01*
X248999Y393501D02*
X249998D01*
X249499D01*
Y396499D01*
X248999Y396000D01*
X304501Y89749D02*
X302502D01*
Y88250D01*
X303501Y88750D01*
X304001D01*
X304501Y88250D01*
Y87250D01*
X304001Y86750D01*
X303001D01*
X302502Y87250D01*
X305501Y89250D02*
X306000Y89749D01*
X307000D01*
X307500Y89250D01*
Y87250D01*
X307000Y86750D01*
X306000D01*
X305501Y87250D01*
Y89250D01*
X308500D02*
X309000Y89749D01*
X309999D01*
X310499Y89250D01*
Y87250D01*
X309999Y86750D01*
X309000D01*
X308500Y87250D01*
Y89250D01*
X311499Y86750D02*
X312498D01*
X311999D01*
Y89749D01*
X311499Y89250D01*
X202001Y396499D02*
X200002D01*
Y395000D01*
X201001Y395500D01*
X201501D01*
X202001Y395000D01*
Y394000D01*
X201501Y393501D01*
X200501D01*
X200002Y394000D01*
X203001Y396000D02*
X203500Y396499D01*
X204500D01*
X205000Y396000D01*
Y394000D01*
X204500Y393501D01*
X203500D01*
X203001Y394000D01*
Y396000D01*
X206000D02*
X206500Y396499D01*
X207499D01*
X207999Y396000D01*
Y394000D01*
X207499Y393501D01*
X206500D01*
X206000Y394000D01*
Y396000D01*
X208999Y393501D02*
X209998D01*
X209499D01*
Y396499D01*
X208999Y396000D01*
X87251Y325750D02*
X85252D01*
Y324250D01*
X86251Y324750D01*
X86751D01*
X87251Y324250D01*
Y323250D01*
X86751Y322751D01*
X85751D01*
X85252Y323250D01*
X88251Y325250D02*
X88750Y325750D01*
X89750D01*
X90250Y325250D01*
Y323250D01*
X89750Y322751D01*
X88750D01*
X88251Y323250D01*
Y325250D01*
X91250D02*
X91749Y325750D01*
X92749D01*
X93249Y325250D01*
Y323250D01*
X92749Y322751D01*
X91749D01*
X91250Y323250D01*
Y325250D01*
X94249Y322751D02*
X95248D01*
X94749D01*
Y325750D01*
X94249Y325250D01*
D18*
X102950Y324250D02*
G03*
X102950Y324250I-12700J0D01*
G01*
X81400Y322700D02*
G03*
X82400Y321700I1000J0D01*
G01*
X98100D02*
G03*
X99100Y322700I0J1000D01*
G01*
X82400Y326800D02*
G03*
X81400Y325800I0J-1000D01*
G01*
X99100D02*
G03*
X98100Y326800I-1000J0D01*
G01*
X146750Y368000D02*
G03*
X146750Y368000I-27000J0D01*
G01*
X86250Y210250D02*
G03*
X86250Y210250I-27000J0D01*
G01*
X257700Y395000D02*
G03*
X257700Y395000I-12700J0D01*
G01*
X236150Y393450D02*
G03*
X237150Y392450I1000J0D01*
G01*
X252850D02*
G03*
X253850Y393450I0J1000D01*
G01*
X237150Y397550D02*
G03*
X236150Y396550I0J-1000D01*
G01*
X253850D02*
G03*
X252850Y397550I-1000J0D01*
G01*
X217700Y395000D02*
G03*
X217700Y395000I-12700J0D01*
G01*
X196150Y393450D02*
G03*
X197150Y392450I1000J0D01*
G01*
X212850D02*
G03*
X213850Y393450I0J1000D01*
G01*
X197150Y397550D02*
G03*
X196150Y396550I0J-1000D01*
G01*
X213850D02*
G03*
X212850Y397550I-1000J0D01*
G01*
X320200Y88250D02*
G03*
X320200Y88250I-12700J0D01*
G01*
X298650Y86700D02*
G03*
X299650Y85700I1000J0D01*
G01*
X315350D02*
G03*
X316350Y86700I0J1000D01*
G01*
X299650Y90800D02*
G03*
X298650Y89800I0J-1000D01*
G01*
X316350D02*
G03*
X315350Y90800I-1000J0D01*
G01*
X272350Y190800D02*
G03*
X271350Y191800I-1000J0D01*
G01*
X255650D02*
G03*
X254650Y190800I0J-1000D01*
G01*
X271350Y186700D02*
G03*
X272350Y187700I0J1000D01*
G01*
X254650D02*
G03*
X255650Y186700I1000J0D01*
G01*
X276200Y189250D02*
G03*
X276200Y189250I-12700J0D01*
G01*
X394100Y209800D02*
G03*
X393100Y210800I-1000J0D01*
G01*
X377400D02*
G03*
X376400Y209800I0J-1000D01*
G01*
X393100Y205700D02*
G03*
X394100Y206700I0J1000D01*
G01*
X376400D02*
G03*
X377400Y205700I1000J0D01*
G01*
X397950Y208250D02*
G03*
X397950Y208250I-12700J0D01*
G01*
X395850Y279300D02*
G03*
X394850Y280300I-1000J0D01*
G01*
X379150D02*
G03*
X378150Y279300I0J-1000D01*
G01*
X394850Y275200D02*
G03*
X395850Y276200I0J1000D01*
G01*
X378150D02*
G03*
X379150Y275200I1000J0D01*
G01*
X399700Y277750D02*
G03*
X399700Y277750I-12700J0D01*
G01*
X23800Y80500D02*
G03*
X23750Y80450I0J-50D01*
G01*
X28750D02*
G03*
X28700Y80500I-50J0D01*
G01*
X23750Y70550D02*
G03*
X23800Y70500I50J0D01*
G01*
X28700D02*
G03*
X28750Y70550I0J50D01*
G01*
X72250Y74700D02*
G03*
X72200Y74750I-50J0D01*
G01*
Y69750D02*
G03*
X72250Y69800I0J50D01*
G01*
X62300Y74750D02*
G03*
X62250Y74700I0J-50D01*
G01*
Y69800D02*
G03*
X62300Y69750I50J0D01*
G01*
X8200Y358250D02*
G03*
X8250Y358300I0J50D01*
G01*
X3250D02*
G03*
X3300Y358250I50J0D01*
G01*
X8250Y368200D02*
G03*
X8200Y368250I-50J0D01*
G01*
X3300D02*
G03*
X3250Y368200I0J-50D01*
G01*
X393500Y418550D02*
G03*
X393550Y418500I50J0D01*
G01*
Y423500D02*
G03*
X393500Y423450I0J-50D01*
G01*
X403450Y418500D02*
G03*
X403500Y418550I0J50D01*
G01*
Y423450D02*
G03*
X403450Y423500I-50J0D01*
G01*
X407550Y80500D02*
G03*
X407500Y80450I0J-50D01*
G01*
X412500D02*
G03*
X412450Y80500I-50J0D01*
G01*
X407500Y70550D02*
G03*
X407550Y70500I50J0D01*
G01*
X412450D02*
G03*
X412500Y70550I0J50D01*
G01*
X361550Y71000D02*
G03*
X361500Y70950I0J-50D01*
G01*
X366500D02*
G03*
X366450Y71000I-50J0D01*
G01*
X361500Y61050D02*
G03*
X361550Y61000I50J0D01*
G01*
X366450D02*
G03*
X366500Y61050I0J50D01*
G01*
X351000Y399050D02*
G03*
X351050Y399000I50J0D01*
G01*
Y404000D02*
G03*
X351000Y403950I0J-50D01*
G01*
X360950Y399000D02*
G03*
X361000Y399050I0J50D01*
G01*
Y403950D02*
G03*
X360950Y404000I-50J0D01*
G01*
X87000Y422700D02*
G03*
X86950Y422750I-50J0D01*
G01*
Y417750D02*
G03*
X87000Y417800I0J50D01*
G01*
X77050Y422750D02*
G03*
X77000Y422700I0J-50D01*
G01*
Y417800D02*
G03*
X77050Y417750I50J0D01*
G01*
X81400Y322700D02*
Y325800D01*
X99100Y322700D02*
Y325800D01*
X82400Y321700D02*
X98100D01*
X82400Y326800D02*
X98100D01*
X81400Y322700D02*
X99100D01*
X81400Y325800D02*
X99100D01*
X27000Y361000D02*
Y369000D01*
X31000D01*
Y361000D02*
Y369000D01*
X27000Y361000D02*
X31000D01*
X43000D02*
Y369000D01*
X39000D02*
X43000D01*
X39000Y361000D02*
Y369000D01*
Y361000D02*
X43000D01*
X31000Y361100D02*
X39000D01*
X31000Y368900D02*
X39000D01*
X108059Y374750D02*
X119750Y381500D01*
X108059Y361250D02*
X119750Y354500D01*
Y381500D02*
X131441Y374750D01*
X119750Y354500D02*
X131441Y361250D01*
Y374750D01*
X108059Y361250D02*
Y374750D01*
X47559Y217000D02*
X59250Y223750D01*
X47559Y203500D02*
X59250Y196750D01*
Y223750D02*
X70941Y217000D01*
X59250Y196750D02*
X70941Y203500D01*
Y217000D01*
X47559Y203500D02*
Y217000D01*
X236150Y393450D02*
Y396550D01*
X253850Y393450D02*
Y396550D01*
X237150Y392450D02*
X252850D01*
X237150Y397550D02*
X252850D01*
X236150Y393450D02*
X253850D01*
X236150Y396550D02*
X253850D01*
X196150Y393450D02*
Y396550D01*
X213850Y393450D02*
Y396550D01*
X197150Y392450D02*
X212850D01*
X197150Y397550D02*
X212850D01*
X196150Y393450D02*
X213850D01*
X196150Y396550D02*
X213850D01*
X298650Y86700D02*
Y89800D01*
X316350Y86700D02*
Y89800D01*
X299650Y85700D02*
X315350D01*
X299650Y90800D02*
X315350D01*
X298650Y86700D02*
X316350D01*
X298650Y89800D02*
X316350D01*
X254650Y190800D02*
X272350D01*
X254650Y187700D02*
X272350D01*
X255650Y191800D02*
X271350D01*
X255650Y186700D02*
X271350D01*
X272350Y187700D02*
Y190800D01*
X254650Y187700D02*
Y190800D01*
X376400Y209800D02*
X394100D01*
X376400Y206700D02*
X394100D01*
X377400Y210800D02*
X393100D01*
X377400Y205700D02*
X393100D01*
X394100Y206700D02*
Y209800D01*
X376400Y206700D02*
Y209800D01*
X378150Y279300D02*
X395850D01*
X378150Y276200D02*
X395850D01*
X379150Y280300D02*
X394850D01*
X379150Y275200D02*
X394850D01*
X395850Y276200D02*
Y279300D01*
X378150Y276200D02*
Y279300D01*
X79100Y31000D02*
Y39000D01*
X86900Y31000D02*
Y39000D01*
X87000D02*
Y43000D01*
X79000Y39000D02*
X87000D01*
X79000D02*
Y43000D01*
X87000D01*
Y27000D02*
Y31000D01*
X79000D02*
X87000D01*
X79000Y27000D02*
Y31000D01*
Y27000D02*
X87000D01*
X66100Y31000D02*
Y39000D01*
X73900Y31000D02*
Y39000D01*
X74000D02*
Y43000D01*
X66000Y39000D02*
X74000D01*
X66000D02*
Y43000D01*
X74000D01*
Y27000D02*
Y31000D01*
X66000D02*
X74000D01*
X66000Y27000D02*
Y31000D01*
Y27000D02*
X74000D01*
X23800Y80500D02*
X28700D01*
X23750Y78050D02*
X28750D01*
X23800Y70500D02*
X28700D01*
X23750Y72950D02*
X28750D01*
X23750Y70550D02*
Y80450D01*
X28750Y70550D02*
Y80450D01*
X72250Y69800D02*
Y74700D01*
X69800Y69750D02*
Y74750D01*
X62250Y69800D02*
Y74700D01*
X64700Y69750D02*
Y74750D01*
X62300D02*
X72200D01*
X62300Y69750D02*
X72200D01*
X3300Y358250D02*
X8200D01*
X3250Y360700D02*
X8250D01*
X3300Y368250D02*
X8200D01*
X3250Y365800D02*
X8250D01*
Y358300D02*
Y368200D01*
X3250Y358300D02*
Y368200D01*
X393500Y418550D02*
Y423450D01*
X395950Y418500D02*
Y423500D01*
X403500Y418550D02*
Y423450D01*
X401050Y418500D02*
Y423500D01*
X393550Y418500D02*
X403450D01*
X393550Y423500D02*
X403450D01*
X407550Y80500D02*
X412450D01*
X407500Y78050D02*
X412500D01*
X407550Y70500D02*
X412450D01*
X407500Y72950D02*
X412500D01*
X407500Y70550D02*
Y80450D01*
X412500Y70550D02*
Y80450D01*
X361550Y71000D02*
X366450D01*
X361500Y68550D02*
X366500D01*
X361550Y61000D02*
X366450D01*
X361500Y63450D02*
X366500D01*
X361500Y61050D02*
Y70950D01*
X366500Y61050D02*
Y70950D01*
X351000Y399050D02*
Y403950D01*
X353450Y399000D02*
Y404000D01*
X361000Y399050D02*
Y403950D01*
X358550Y399000D02*
Y404000D01*
X351050Y399000D02*
X360950D01*
X351050Y404000D02*
X360950D01*
X87000Y417800D02*
Y422700D01*
X84550Y417750D02*
Y422750D01*
X77000Y417800D02*
Y422700D01*
X79450Y417750D02*
Y422750D01*
X77050D02*
X86950D01*
X77050Y417750D02*
X86950D01*
X356100Y31000D02*
Y39000D01*
X363900Y31000D02*
Y39000D01*
X364000D02*
Y43000D01*
X356000Y39000D02*
X364000D01*
X356000D02*
Y43000D01*
X364000D01*
Y27000D02*
Y31000D01*
X356000D02*
X364000D01*
X356000Y27000D02*
Y31000D01*
Y27000D02*
X364000D01*
X343100Y31000D02*
Y39000D01*
X350900Y31000D02*
Y39000D01*
X351000D02*
Y43000D01*
X343000Y39000D02*
X351000D01*
X343000D02*
Y43000D01*
X351000D01*
Y27000D02*
Y31000D01*
X343000D02*
X351000D01*
X343000Y27000D02*
Y31000D01*
Y27000D02*
X351000D01*
X391000Y355900D02*
X399000D01*
X391000Y348100D02*
X399000D01*
Y348000D02*
X403000D01*
X399000D02*
Y356000D01*
X403000D01*
Y348000D02*
Y356000D01*
X387000Y348000D02*
X391000D01*
Y356000D01*
X387000D02*
X391000D01*
X387000Y348000D02*
Y356000D01*
X391000Y368900D02*
X399000D01*
X391000Y361100D02*
X399000D01*
Y361000D02*
X403000D01*
X399000D02*
Y369000D01*
X403000D01*
Y361000D02*
Y369000D01*
X387000Y361000D02*
X391000D01*
Y369000D01*
X387000D02*
X391000D01*
X387000Y361000D02*
Y369000D01*
X31000Y355900D02*
X39000D01*
X31000Y348100D02*
X39000D01*
Y348000D02*
X43000D01*
X39000D02*
Y356000D01*
X43000D01*
Y348000D02*
Y356000D01*
X27000Y348000D02*
X31000D01*
Y356000D01*
X27000D02*
X31000D01*
X27000Y348000D02*
Y356000D01*
D19*
X28999Y32524D02*
G03*
X28999Y32524I-762J0D01*
G01*
X14553Y31952D02*
G03*
X14553Y38048I0J3048D01*
G01*
X388999Y32524D02*
G03*
X388999Y32524I-762J0D01*
G01*
X374553Y31952D02*
G03*
X374553Y38048I0J3048D01*
G01*
X28999Y392523D02*
G03*
X28999Y392523I-762J0D01*
G01*
X14553Y391952D02*
G03*
X14553Y398048I0J3048D01*
G01*
X388999Y392523D02*
G03*
X388999Y392523I-762J0D01*
G01*
X374553Y391952D02*
G03*
X374553Y398048I0J3048D01*
G01*
X55447Y19506D02*
Y50494D01*
X14553D02*
X55447D01*
X14553Y19506D02*
Y50494D01*
Y19506D02*
X55447D01*
X415447D02*
Y50494D01*
X374553D02*
X415447D01*
X374553Y19506D02*
Y50494D01*
Y19506D02*
X415447D01*
X55447Y379506D02*
Y410494D01*
X14553D02*
X55447D01*
X14553Y379506D02*
Y410494D01*
Y379506D02*
X55447D01*
X415447D02*
Y410494D01*
X374553D02*
X415447D01*
X374553Y379506D02*
Y410494D01*
Y379506D02*
X415447D01*
D20*
X41350Y75D02*
X28654D01*
X32886Y4307D01*
X28654Y8539D01*
X41350D01*
X28654Y12771D02*
Y17003D01*
Y14887D01*
X41350D01*
Y12771D01*
Y17003D01*
X30770Y31815D02*
X28654Y29699D01*
Y25467D01*
X30770Y23351D01*
X39234D01*
X41350Y25467D01*
Y29699D01*
X39234Y31815D01*
X30770Y36047D02*
X28654Y38163D01*
Y42395D01*
X30770Y44511D01*
X32886D01*
X35002Y42395D01*
Y40279D01*
Y42395D01*
X37118Y44511D01*
X39234D01*
X41350Y42395D01*
Y38163D01*
X39234Y36047D01*
X13283Y386533D02*
Y399229D01*
X17515Y394997D01*
X21747Y399229D01*
Y386533D01*
X25979Y399229D02*
X30211D01*
X28095D01*
Y386533D01*
X25979D01*
X30211D01*
X45023Y397113D02*
X42906Y399229D01*
X38675D01*
X36559Y397113D01*
Y388649D01*
X38675Y386533D01*
X42906D01*
X45023Y388649D01*
X55602Y386533D02*
Y399229D01*
X49254Y392881D01*
X57718D01*
X371250Y389250D02*
Y401946D01*
X375482Y397714D01*
X379714Y401946D01*
Y389250D01*
X383946Y401946D02*
X388178D01*
X386062D01*
Y389250D01*
X383946D01*
X388178D01*
X402990Y399830D02*
X400874Y401946D01*
X396642D01*
X394526Y399830D01*
Y391366D01*
X396642Y389250D01*
X400874D01*
X402990Y391366D01*
X415686Y389250D02*
X407222D01*
X415686Y397714D01*
Y399830D01*
X413570Y401946D01*
X409338D01*
X407222Y399830D01*
M02*
