G04*
G04 #@! TF.GenerationSoftware,Altium Limited,Altium Designer,21.6.4 (81)*
G04*
G04 Layer_Physical_Order=1*
G04 Layer_Color=255*
%FSLAX44Y44*%
%MOMM*%
G71*
G04*
G04 #@! TF.SameCoordinates,18438919-A3FB-418B-B37F-EB825DAFB3B7*
G04*
G04*
G04 #@! TF.FilePolarity,Positive*
G04*
G01*
G75*
%ADD10C,0.2000*%
%ADD15C,0.0600*%
%ADD16C,0.1100*%
%ADD17C,0.0700*%
%ADD18C,0.0127*%
%ADD19C,0.0254*%
%ADD20C,0.0762*%
G04:AMPARAMS|DCode=21|XSize=1mm|YSize=0.8mm|CornerRadius=0.2mm|HoleSize=0mm|Usage=FLASHONLY|Rotation=270.000|XOffset=0mm|YOffset=0mm|HoleType=Round|Shape=RoundedRectangle|*
%AMROUNDEDRECTD21*
21,1,1.0000,0.4000,0,0,270.0*
21,1,0.6000,0.8000,0,0,270.0*
1,1,0.4000,-0.2000,-0.3000*
1,1,0.4000,-0.2000,0.3000*
1,1,0.4000,0.2000,0.3000*
1,1,0.4000,0.2000,-0.3000*
%
%ADD21ROUNDEDRECTD21*%
G04:AMPARAMS|DCode=22|XSize=1mm|YSize=0.8mm|CornerRadius=0.2mm|HoleSize=0mm|Usage=FLASHONLY|Rotation=0.000|XOffset=0mm|YOffset=0mm|HoleType=Round|Shape=RoundedRectangle|*
%AMROUNDEDRECTD22*
21,1,1.0000,0.4000,0,0,0.0*
21,1,0.6000,0.8000,0,0,0.0*
1,1,0.4000,0.3000,-0.2000*
1,1,0.4000,-0.3000,-0.2000*
1,1,0.4000,-0.3000,0.2000*
1,1,0.4000,0.3000,0.2000*
%
%ADD22ROUNDEDRECTD22*%
G04:AMPARAMS|DCode=23|XSize=0.55mm|YSize=0.55mm|CornerRadius=0.1375mm|HoleSize=0mm|Usage=FLASHONLY|Rotation=0.000|XOffset=0mm|YOffset=0mm|HoleType=Round|Shape=RoundedRectangle|*
%AMROUNDEDRECTD23*
21,1,0.5500,0.2750,0,0,0.0*
21,1,0.2750,0.5500,0,0,0.0*
1,1,0.2750,0.1375,-0.1375*
1,1,0.2750,-0.1375,-0.1375*
1,1,0.2750,-0.1375,0.1375*
1,1,0.2750,0.1375,0.1375*
%
%ADD23ROUNDEDRECTD23*%
G04:AMPARAMS|DCode=24|XSize=0.55mm|YSize=0.55mm|CornerRadius=0.1375mm|HoleSize=0mm|Usage=FLASHONLY|Rotation=270.000|XOffset=0mm|YOffset=0mm|HoleType=Round|Shape=RoundedRectangle|*
%AMROUNDEDRECTD24*
21,1,0.5500,0.2750,0,0,270.0*
21,1,0.2750,0.5500,0,0,270.0*
1,1,0.2750,-0.1375,-0.1375*
1,1,0.2750,-0.1375,0.1375*
1,1,0.2750,0.1375,0.1375*
1,1,0.2750,0.1375,-0.1375*
%
%ADD24ROUNDEDRECTD24*%
%ADD27R,0.9398X0.4064*%
%ADD28R,0.3556X1.2954*%
%ADD34R,2.3114X0.3556*%
%ADD35C,0.3000*%
%ADD36C,0.6000*%
%ADD37C,1.8000*%
%ADD38C,4.8000*%
%ADD39C,0.6000*%
G36*
X427451Y2549D02*
X2549D01*
Y304577D01*
X3819Y304963D01*
X3976Y304727D01*
X14250Y294453D01*
Y293505D01*
X15011Y291668D01*
X16418Y290261D01*
X18255Y289500D01*
X20245D01*
X22082Y290261D01*
X23489Y291668D01*
X24250Y293505D01*
Y295495D01*
X23489Y297332D01*
X22082Y298739D01*
X20245Y299500D01*
X19297D01*
X10068Y308728D01*
Y355706D01*
X10304Y356058D01*
X10566Y357375D01*
Y360125D01*
X10304Y361442D01*
X9625Y362459D01*
X9473Y362855D01*
Y363645D01*
X9625Y364041D01*
X10304Y365058D01*
X10566Y366375D01*
Y369125D01*
X10304Y370442D01*
X9558Y371558D01*
X8809Y372059D01*
Y396233D01*
X11277Y398701D01*
X12450Y398215D01*
Y396750D01*
X17728D01*
Y393250D01*
X12450D01*
Y385023D01*
X17884D01*
Y377395D01*
X17884Y377395D01*
X18117Y376224D01*
X18780Y375232D01*
X21807Y372205D01*
X22116Y370884D01*
X21232Y369561D01*
X20922Y368000D01*
Y362000D01*
X21232Y360439D01*
X21902Y359437D01*
Y357564D01*
X21232Y356561D01*
X20922Y355000D01*
Y349000D01*
X21232Y347439D01*
X21902Y346437D01*
Y339000D01*
X22290Y337049D01*
X23395Y335395D01*
X96595Y262195D01*
X98249Y261090D01*
X100200Y260702D01*
X126152D01*
Y114250D01*
X126250Y113757D01*
Y113255D01*
X126442Y112792D01*
X126540Y112299D01*
X126819Y111882D01*
X127011Y111418D01*
X127366Y111063D01*
X127645Y110645D01*
X128063Y110366D01*
X128418Y110011D01*
X128882Y109819D01*
X129299Y109540D01*
X129792Y109442D01*
X130255Y109250D01*
X130758D01*
X131250Y109152D01*
X131742Y109250D01*
X132245D01*
X132708Y109442D01*
X133201Y109540D01*
X133618Y109819D01*
X134082Y110011D01*
X134437Y110366D01*
X134855Y110645D01*
X135134Y111063D01*
X135489Y111418D01*
X135681Y111882D01*
X135960Y112299D01*
X136058Y112792D01*
X136250Y113255D01*
Y113757D01*
X136348Y114250D01*
Y260702D01*
X192542D01*
X193498Y259046D01*
X195546Y256998D01*
X198054Y255550D01*
X200852Y254800D01*
X203748D01*
X206546Y255550D01*
X209054Y256998D01*
X211102Y259046D01*
X212550Y261554D01*
X213300Y264352D01*
Y267248D01*
X212550Y270046D01*
X211102Y272554D01*
X209054Y274602D01*
X207398Y275558D01*
Y351438D01*
X240726Y384766D01*
X240754Y384750D01*
X243552Y384000D01*
X246448D01*
X249246Y384750D01*
X251754Y386198D01*
X253802Y388246D01*
X255250Y390754D01*
X256000Y393552D01*
Y396448D01*
X255250Y399246D01*
X254543Y400472D01*
X254598Y400750D01*
X254210Y402701D01*
X253105Y404355D01*
X251451Y405460D01*
X249500Y405848D01*
X248074Y405564D01*
X246448Y406000D01*
X243552D01*
X240754Y405250D01*
X238246Y403802D01*
X236198Y401754D01*
X234750Y399246D01*
X234000Y396448D01*
Y393552D01*
X234231Y392690D01*
X198695Y357155D01*
X197590Y355501D01*
X197202Y353550D01*
Y275558D01*
X195546Y274602D01*
X193498Y272554D01*
X192542Y270898D01*
X102312D01*
X32098Y341112D01*
Y346437D01*
X32768Y347439D01*
X33078Y349000D01*
Y355000D01*
X32768Y356561D01*
X32098Y357563D01*
Y359437D01*
X32768Y360439D01*
X33078Y362000D01*
Y368000D01*
X32768Y369561D01*
X31884Y370884D01*
X30561Y371768D01*
X29000Y372079D01*
X28809D01*
Y372587D01*
X28576Y373758D01*
X27913Y374750D01*
X26370Y376293D01*
X26856Y377467D01*
X33250D01*
Y382744D01*
X35000D01*
Y384495D01*
X50057D01*
Y385023D01*
X50522D01*
Y395000D01*
X52272D01*
Y396750D01*
X57550D01*
Y404977D01*
X55883D01*
X55397Y406150D01*
X66438Y417191D01*
X73191D01*
X73692Y416442D01*
X74808Y415696D01*
X76125Y415434D01*
X78875D01*
X80192Y415696D01*
X81209Y416375D01*
X81605Y416527D01*
X82395D01*
X82791Y416375D01*
X83808Y415696D01*
X85125Y415434D01*
X87875D01*
X89192Y415696D01*
X90293Y416432D01*
X119271D01*
X178431Y357272D01*
Y323003D01*
X177761Y322332D01*
X177000Y320495D01*
Y318505D01*
X177761Y316668D01*
X179168Y315261D01*
X181005Y314500D01*
X182995D01*
X184832Y315261D01*
X186239Y316668D01*
X187000Y318505D01*
Y320495D01*
X186239Y322332D01*
X185569Y323003D01*
Y358750D01*
X185297Y360115D01*
X184523Y361273D01*
X123273Y422523D01*
X122115Y423297D01*
X120750Y423569D01*
X90635D01*
X90308Y424058D01*
X89192Y424804D01*
X87875Y425066D01*
X85125D01*
X83808Y424804D01*
X82791Y424125D01*
X82395Y423974D01*
X81605D01*
X81209Y424125D01*
X80192Y424804D01*
X78875Y425066D01*
X76125D01*
X74808Y424804D01*
X73692Y424058D01*
X73191Y423309D01*
X65171D01*
X64001Y423076D01*
X63008Y422413D01*
X63008Y422413D01*
X51230Y410635D01*
X50057Y411121D01*
Y412533D01*
X36750D01*
Y407256D01*
X33250D01*
Y412533D01*
X19943D01*
Y407036D01*
X12227D01*
X12227Y407036D01*
X11056Y406803D01*
X10064Y406140D01*
X10064Y406140D01*
X3819Y399895D01*
X2913Y400129D01*
X2549Y400380D01*
Y427451D01*
X427451D01*
Y2549D01*
D02*
G37*
%LPC*%
G36*
X404375Y425816D02*
X401625D01*
X400308Y425554D01*
X399291Y424875D01*
X398895Y424723D01*
X398105D01*
X397709Y424875D01*
X396692Y425554D01*
X395375Y425816D01*
X392625D01*
X391308Y425554D01*
X390192Y424808D01*
X390032Y424568D01*
X355503D01*
X355082Y424989D01*
X353245Y425750D01*
X351255D01*
X349418Y424989D01*
X348011Y423582D01*
X347250Y421745D01*
Y419755D01*
X348011Y417918D01*
X349418Y416511D01*
X351255Y415750D01*
X353245D01*
X355082Y416511D01*
X356002Y417431D01*
X390032D01*
X390192Y417192D01*
X391308Y416446D01*
X392625Y416184D01*
X395375D01*
X396692Y416446D01*
X397709Y417125D01*
X398105Y417276D01*
X398895D01*
X399291Y417125D01*
X400308Y416446D01*
X401625Y416184D01*
X403490D01*
X405870Y413803D01*
X405690Y412533D01*
X396750D01*
Y407256D01*
X393250D01*
Y412533D01*
X379943D01*
Y407036D01*
X372620D01*
X371449Y406803D01*
X370457Y406140D01*
X370457Y406140D01*
X368876Y404559D01*
X364809D01*
X364308Y405308D01*
X363192Y406054D01*
X361875Y406316D01*
X359125D01*
X357808Y406054D01*
X356692Y405308D01*
X356635Y405224D01*
X355365D01*
X355308Y405308D01*
X354192Y406054D01*
X352875Y406316D01*
X350125D01*
X348808Y406054D01*
X347707Y405319D01*
X320750D01*
X319385Y405047D01*
X318227Y404273D01*
X225177Y311223D01*
X224403Y310065D01*
X224131Y308700D01*
Y276232D01*
X223454Y276050D01*
X220946Y274602D01*
X218898Y272554D01*
X217450Y270046D01*
X216700Y267248D01*
Y264352D01*
X217450Y261554D01*
X218898Y259046D01*
X220946Y256998D01*
X223454Y255550D01*
X226252Y254800D01*
X229148D01*
X231946Y255550D01*
X234454Y256998D01*
X236502Y259046D01*
X237732Y261175D01*
X238857Y261490D01*
X239241Y261463D01*
X284591Y216112D01*
Y150640D01*
X284621Y150490D01*
X284591Y150340D01*
X284863Y148974D01*
X285637Y147817D01*
X323078Y110375D01*
X311318Y98615D01*
X308948Y99250D01*
X306052D01*
X303254Y98500D01*
X300746Y97052D01*
X298698Y95004D01*
X297250Y92496D01*
X296500Y89698D01*
Y86802D01*
X297250Y84004D01*
X298698Y81496D01*
X300746Y79448D01*
X303254Y78000D01*
X306052Y77250D01*
X308948D01*
X311746Y78000D01*
X314254Y79448D01*
X316302Y81496D01*
X317750Y84004D01*
X318500Y86802D01*
Y89698D01*
X317750Y92496D01*
X316851Y94054D01*
X328125Y105328D01*
X359772Y73681D01*
X359446Y73192D01*
X359184Y71875D01*
Y69125D01*
X359446Y67808D01*
X360192Y66692D01*
X360277Y66635D01*
Y65365D01*
X360192Y65308D01*
X359446Y64192D01*
X359184Y62875D01*
Y60125D01*
X359446Y58808D01*
X360192Y57691D01*
X361308Y56946D01*
X362625Y56684D01*
X364490D01*
X372230Y48944D01*
X372253Y48829D01*
X372916Y47836D01*
X374602Y46150D01*
X374116Y44977D01*
X372450D01*
Y36750D01*
X377728D01*
Y33250D01*
X372450D01*
Y30638D01*
X371744Y30059D01*
X371744Y30059D01*
X366868D01*
X366768Y30561D01*
X365884Y31884D01*
X364561Y32768D01*
X363000Y33078D01*
X357000D01*
X355439Y32768D01*
X354436Y32098D01*
X352564D01*
X351561Y32768D01*
X350000Y33078D01*
X344000D01*
X342439Y32768D01*
X341437Y32098D01*
X132362D01*
X131995Y32250D01*
X131493D01*
X131000Y32348D01*
X130507Y32250D01*
X130005D01*
X129638Y32098D01*
X88563D01*
X87561Y32768D01*
X86000Y33078D01*
X80000D01*
X78439Y32768D01*
X77436Y32098D01*
X75563D01*
X74561Y32768D01*
X73000Y33078D01*
X67000D01*
X65439Y32768D01*
X64116Y31884D01*
X63232Y30561D01*
X63132Y30059D01*
X58256D01*
X58256Y30059D01*
X57550Y30638D01*
Y33250D01*
X52272D01*
Y36750D01*
X57550D01*
Y44977D01*
X55883D01*
X55588Y45691D01*
X55482Y46247D01*
X56122Y47204D01*
X56355Y48374D01*
Y61529D01*
X62259Y67434D01*
X64125D01*
X65442Y67696D01*
X66558Y68442D01*
X66615Y68527D01*
X67885D01*
X67942Y68442D01*
X69058Y67696D01*
X70375Y67434D01*
X73125D01*
X74442Y67696D01*
X75558Y68442D01*
X75718Y68681D01*
X81250D01*
X82616Y68953D01*
X83773Y69727D01*
X111855Y97808D01*
X194493D01*
X195858Y98080D01*
X197016Y98853D01*
X198773Y100611D01*
X199547Y101769D01*
X199819Y103134D01*
Y127772D01*
X225459Y153412D01*
X226252Y153200D01*
X229148D01*
X231946Y153950D01*
X234454Y155398D01*
X236502Y157446D01*
X237950Y159954D01*
X238700Y162752D01*
Y165648D01*
X237950Y168446D01*
X236502Y170954D01*
X234454Y173002D01*
X231946Y174450D01*
X231269Y174632D01*
Y179168D01*
X231946Y179350D01*
X234454Y180798D01*
X236502Y182846D01*
X237950Y185354D01*
X238132Y186031D01*
X253068D01*
X253250Y185354D01*
X254698Y182846D01*
X256746Y180798D01*
X259254Y179350D01*
X262052Y178600D01*
X264948D01*
X267746Y179350D01*
X270254Y180798D01*
X272302Y182846D01*
X273750Y185354D01*
X274500Y188152D01*
Y191048D01*
X273750Y193846D01*
X272302Y196354D01*
X270254Y198402D01*
X267746Y199850D01*
X264948Y200600D01*
X262052D01*
X259254Y199850D01*
X256746Y198402D01*
X254698Y196354D01*
X253250Y193846D01*
X253068Y193169D01*
X238132D01*
X237950Y193846D01*
X236502Y196354D01*
X234454Y198402D01*
X231946Y199850D01*
X229148Y200600D01*
X226252D01*
X223454Y199850D01*
X220946Y198402D01*
X218898Y196354D01*
X217450Y193846D01*
X216700Y191048D01*
Y188152D01*
X217450Y185354D01*
X218898Y182846D01*
X220946Y180798D01*
X223454Y179350D01*
X224131Y179168D01*
Y174632D01*
X223454Y174450D01*
X220946Y173002D01*
X218898Y170954D01*
X217450Y168446D01*
X216700Y165648D01*
Y162752D01*
X217450Y159954D01*
X218898Y157446D01*
X219148Y157195D01*
X193727Y131773D01*
X192953Y130616D01*
X192681Y129250D01*
Y104945D01*
X110377D01*
X109011Y104674D01*
X107853Y103900D01*
X79772Y75819D01*
X75718D01*
X75558Y76058D01*
X74442Y76804D01*
X73125Y77066D01*
X70375D01*
X69058Y76804D01*
X67942Y76058D01*
X67885Y75973D01*
X66615D01*
X66558Y76058D01*
X65442Y76804D01*
X64125Y77066D01*
X61375D01*
X60058Y76804D01*
X58942Y76058D01*
X58196Y74942D01*
X57934Y73625D01*
Y71760D01*
X51133Y64959D01*
X50470Y63966D01*
X50237Y62796D01*
X50237Y62796D01*
Y53729D01*
X50057Y52533D01*
X36750D01*
Y47255D01*
X33250D01*
Y52533D01*
X25391D01*
X24865Y53803D01*
X28413Y57351D01*
X29076Y58343D01*
X29309Y59514D01*
X29309Y59514D01*
Y66691D01*
X30058Y67192D01*
X30804Y68308D01*
X31066Y69625D01*
Y72375D01*
X30804Y73692D01*
X30125Y74709D01*
X29973Y75105D01*
Y75895D01*
X30125Y76291D01*
X30804Y77308D01*
X31066Y78625D01*
Y81375D01*
X30804Y82692D01*
X30058Y83808D01*
X29819Y83968D01*
Y96272D01*
X53228Y119681D01*
X56997D01*
X57668Y119011D01*
X59505Y118250D01*
X61494D01*
X63332Y119011D01*
X64739Y120418D01*
X65500Y122255D01*
Y124245D01*
X64739Y126082D01*
X63332Y127489D01*
X61494Y128250D01*
X59505D01*
X57668Y127489D01*
X56997Y126819D01*
X51750D01*
X50384Y126547D01*
X49227Y125773D01*
X23727Y100273D01*
X22953Y99116D01*
X22681Y97750D01*
Y83968D01*
X22442Y83808D01*
X21696Y82692D01*
X21434Y81375D01*
Y78625D01*
X21696Y77308D01*
X22375Y76291D01*
X22527Y75895D01*
Y75105D01*
X22375Y74709D01*
X21696Y73692D01*
X21434Y72375D01*
Y69625D01*
X21696Y68308D01*
X22442Y67192D01*
X23191Y66691D01*
Y60781D01*
X18780Y56370D01*
X18117Y55377D01*
X17884Y54207D01*
X17884Y54207D01*
Y44977D01*
X12450D01*
Y36750D01*
X17728D01*
Y35000D01*
X19478D01*
Y25023D01*
X19943D01*
Y24494D01*
X35000D01*
Y22744D01*
X36750D01*
Y17466D01*
X50057D01*
Y22964D01*
X57278D01*
X57279Y22964D01*
X58449Y23197D01*
X59441Y23860D01*
X59523Y23941D01*
X63132D01*
X63232Y23439D01*
X64116Y22116D01*
X65439Y21232D01*
X67000Y20921D01*
X73000D01*
X74561Y21232D01*
X75563Y21902D01*
X77436D01*
X78439Y21232D01*
X80000Y20921D01*
X86000D01*
X87561Y21232D01*
X88563Y21902D01*
X130750D01*
X131000Y21952D01*
X131250Y21902D01*
X341437D01*
X342439Y21232D01*
X344000Y20921D01*
X350000D01*
X351561Y21232D01*
X352564Y21902D01*
X354436D01*
X355439Y21232D01*
X357000Y20921D01*
X363000D01*
X364561Y21232D01*
X365884Y22116D01*
X366768Y23439D01*
X366868Y23941D01*
X370477D01*
X370558Y23860D01*
X370558Y23860D01*
X371551Y23197D01*
X372721Y22964D01*
X372721Y22964D01*
X379943D01*
Y17466D01*
X393250D01*
Y22744D01*
X395000D01*
Y24494D01*
X410057D01*
Y25023D01*
X410522D01*
Y35000D01*
X412272D01*
Y36750D01*
X417550D01*
Y44977D01*
X412116D01*
Y66332D01*
X412692Y66446D01*
X413808Y67192D01*
X414554Y68308D01*
X414816Y69625D01*
Y72375D01*
X414554Y73692D01*
X413875Y74709D01*
X413723Y75105D01*
Y75895D01*
X413875Y76291D01*
X414554Y77308D01*
X414816Y78625D01*
Y81375D01*
X414554Y82692D01*
X413808Y83808D01*
X413444Y84052D01*
Y117122D01*
X413989Y117668D01*
X414750Y119505D01*
Y121495D01*
X413989Y123332D01*
X412582Y124739D01*
X410745Y125500D01*
X408755D01*
X406918Y124739D01*
X405511Y123332D01*
X404750Y121495D01*
Y119505D01*
X405511Y117668D01*
X406306Y116873D01*
Y83885D01*
X406192Y83808D01*
X405446Y82692D01*
X405184Y81375D01*
Y78625D01*
X405446Y77308D01*
X406125Y76291D01*
X406277Y75895D01*
Y75105D01*
X406125Y74709D01*
X405446Y73692D01*
X405184Y72375D01*
Y69625D01*
X405446Y68308D01*
X405998Y67482D01*
Y52533D01*
X396750D01*
Y47255D01*
X393250D01*
Y52533D01*
X379943D01*
Y51120D01*
X378770Y50634D01*
X377928Y51476D01*
X377905Y51591D01*
X377242Y52584D01*
X377242Y52584D01*
X368816Y61009D01*
Y62875D01*
X368554Y64192D01*
X367808Y65308D01*
X367723Y65365D01*
Y66635D01*
X367808Y66692D01*
X368554Y67808D01*
X368816Y69125D01*
Y71875D01*
X368554Y73192D01*
X367808Y74308D01*
X367039Y74822D01*
Y75029D01*
X366768Y76395D01*
X365994Y77553D01*
X330648Y112898D01*
X291729Y151818D01*
Y217590D01*
X291457Y218956D01*
X290683Y220113D01*
X242474Y268323D01*
X241316Y269097D01*
X239950Y269368D01*
X238132D01*
X237950Y270046D01*
X236502Y272554D01*
X234454Y274602D01*
X231946Y276050D01*
X231269Y276232D01*
Y307222D01*
X322228Y398182D01*
X347365D01*
X347692Y397692D01*
X348808Y396946D01*
X350125Y396684D01*
X352875D01*
X354192Y396946D01*
X355209Y397625D01*
X355605Y397777D01*
X356395D01*
X356791Y397625D01*
X357808Y396946D01*
X359125Y396684D01*
X361875D01*
X363192Y396946D01*
X364308Y397692D01*
X364809Y398441D01*
X370143D01*
X370143Y398441D01*
X371180Y398648D01*
X371434Y398593D01*
X372450Y397906D01*
Y396750D01*
X377728D01*
Y393250D01*
X372450D01*
Y385023D01*
X377884D01*
Y379931D01*
X377884Y379931D01*
X378117Y378760D01*
X378780Y377768D01*
X383478Y373070D01*
X383463Y372587D01*
X383233Y371630D01*
X382116Y370884D01*
X381232Y369561D01*
X380922Y368000D01*
Y362000D01*
X381232Y360439D01*
X381902Y359437D01*
Y357563D01*
X381232Y356561D01*
X380922Y355000D01*
Y353131D01*
X370638Y342848D01*
X312500D01*
X312008Y342750D01*
X311505D01*
X311042Y342558D01*
X310549Y342460D01*
X310132Y342181D01*
X309668Y341989D01*
X309313Y341634D01*
X308895Y341355D01*
X308616Y340937D01*
X308261Y340582D01*
X308069Y340118D01*
X307790Y339701D01*
X307692Y339208D01*
X307500Y338745D01*
Y338242D01*
X307402Y337750D01*
X307500Y337257D01*
Y336755D01*
X307692Y336292D01*
X307790Y335799D01*
X308069Y335382D01*
X308261Y334918D01*
X308616Y334563D01*
X308895Y334145D01*
X309313Y333866D01*
X309668Y333511D01*
X310132Y333319D01*
X310549Y333040D01*
X311042Y332942D01*
X311505Y332750D01*
X312008D01*
X312500Y332652D01*
X372750D01*
X374701Y333040D01*
X376355Y334145D01*
X380729Y338519D01*
X381902Y338033D01*
Y287508D01*
X380246Y286552D01*
X378198Y284504D01*
X376750Y281996D01*
X376000Y279198D01*
Y276302D01*
X376750Y273504D01*
X378198Y270996D01*
X380246Y268948D01*
X382754Y267500D01*
X385552Y266750D01*
X388448D01*
X391246Y267500D01*
X393754Y268948D01*
X395802Y270996D01*
X397250Y273504D01*
X398000Y276302D01*
Y279198D01*
X397250Y281996D01*
X395802Y284504D01*
X393754Y286552D01*
X392098Y287508D01*
Y346437D01*
X392768Y347439D01*
X393078Y349000D01*
Y355000D01*
X392768Y356561D01*
X392098Y357563D01*
Y359437D01*
X392768Y360439D01*
X393078Y362000D01*
Y368000D01*
X392768Y369561D01*
X391884Y370884D01*
X390561Y371768D01*
X390059Y371868D01*
Y373874D01*
X389826Y375045D01*
X389163Y376037D01*
X389163Y376037D01*
X388907Y376293D01*
X389393Y377467D01*
X393250D01*
Y382744D01*
X395000D01*
Y384495D01*
X410057D01*
Y385023D01*
X410522D01*
Y395000D01*
X412272D01*
Y396750D01*
X417550D01*
Y404977D01*
X412116D01*
Y414943D01*
X412116Y414943D01*
X411883Y416113D01*
X411220Y417105D01*
X407816Y420509D01*
Y422375D01*
X407554Y423692D01*
X406808Y424808D01*
X405692Y425554D01*
X404375Y425816D01*
D02*
G37*
G36*
X206750Y407472D02*
Y396750D01*
X217472D01*
X216648Y399825D01*
X215002Y402675D01*
X212675Y405003D01*
X209825Y406648D01*
X206750Y407472D01*
D02*
G37*
G36*
X203250D02*
X200175Y406648D01*
X197325Y405003D01*
X194998Y402675D01*
X193352Y399825D01*
X192528Y396750D01*
X203250D01*
Y407472D01*
D02*
G37*
G36*
X417550Y393250D02*
X414022D01*
Y385023D01*
X417550D01*
Y393250D01*
D02*
G37*
G36*
X57550D02*
X54022D01*
Y385023D01*
X57550D01*
Y393250D01*
D02*
G37*
G36*
X217472D02*
X206750D01*
Y382528D01*
X209825Y383352D01*
X212675Y384997D01*
X215002Y387325D01*
X216648Y390175D01*
X217472Y393250D01*
D02*
G37*
G36*
X203250D02*
X192528D01*
X193352Y390175D01*
X194998Y387325D01*
X197325Y384997D01*
X200175Y383352D01*
X203250Y382528D01*
Y393250D01*
D02*
G37*
G36*
X410057Y380994D02*
X396750D01*
Y377467D01*
X410057D01*
Y380994D01*
D02*
G37*
G36*
X50057D02*
X36750D01*
Y377467D01*
X50057D01*
Y380994D01*
D02*
G37*
G36*
X45000Y373608D02*
X44750D01*
Y366750D01*
X50608D01*
Y368000D01*
X50181Y370146D01*
X48965Y371965D01*
X47146Y373181D01*
X45000Y373608D01*
D02*
G37*
G36*
X41250D02*
X41000D01*
X38854Y373181D01*
X37035Y371965D01*
X35819Y370146D01*
X35392Y368000D01*
Y366750D01*
X41250D01*
Y373608D01*
D02*
G37*
G36*
X405000Y373608D02*
X404750D01*
Y366750D01*
X410608D01*
Y368000D01*
X410181Y370146D01*
X408965Y371965D01*
X407146Y373181D01*
X405000Y373608D01*
D02*
G37*
G36*
X401250D02*
X401000D01*
X398854Y373181D01*
X397035Y371965D01*
X395819Y370146D01*
X395392Y368000D01*
Y366750D01*
X401250D01*
Y373608D01*
D02*
G37*
G36*
X50608Y363250D02*
X43000D01*
X35392D01*
Y362000D01*
X35819Y359854D01*
X36724Y358500D01*
X35819Y357146D01*
X35392Y355000D01*
Y353750D01*
X43000D01*
X50608D01*
Y355000D01*
X50181Y357146D01*
X49276Y358500D01*
X50181Y359854D01*
X50608Y362000D01*
Y363250D01*
D02*
G37*
G36*
X410608Y363250D02*
X403000D01*
X395392D01*
Y362000D01*
X395819Y359854D01*
X396724Y358500D01*
X395819Y357146D01*
X395392Y355000D01*
Y353750D01*
X403000D01*
X410608D01*
Y355000D01*
X410181Y357146D01*
X409276Y358500D01*
X410181Y359854D01*
X410608Y362000D01*
Y363250D01*
D02*
G37*
G36*
X50608Y350250D02*
X44750D01*
Y343392D01*
X45000D01*
X47146Y343819D01*
X48965Y345035D01*
X50181Y346854D01*
X50608Y349000D01*
Y350250D01*
D02*
G37*
G36*
X41250D02*
X35392D01*
Y349000D01*
X35819Y346854D01*
X37035Y345035D01*
X38854Y343819D01*
X41000Y343392D01*
X41250D01*
Y350250D01*
D02*
G37*
G36*
X410608Y350250D02*
X404750D01*
Y343392D01*
X405000D01*
X407146Y343819D01*
X408965Y345035D01*
X410181Y346854D01*
X410608Y349000D01*
Y350250D01*
D02*
G37*
G36*
X401250D02*
X395392D01*
Y349000D01*
X395819Y346854D01*
X397035Y345035D01*
X398854Y343819D01*
X401000Y343392D01*
X401250D01*
Y350250D01*
D02*
G37*
G36*
X91698Y335250D02*
X88802D01*
X86004Y334500D01*
X83496Y333052D01*
X81448Y331004D01*
X80000Y328496D01*
X79250Y325698D01*
Y322802D01*
X80000Y320004D01*
X81448Y317496D01*
X83496Y315448D01*
X86004Y314000D01*
X88802Y313250D01*
X91698D01*
X94496Y314000D01*
X97004Y315448D01*
X99052Y317496D01*
X100500Y320004D01*
X101250Y322802D01*
Y325698D01*
X100500Y328496D01*
X99052Y331004D01*
X97004Y333052D01*
X94496Y334500D01*
X91698Y335250D01*
D02*
G37*
G36*
X229148Y251400D02*
X226252D01*
X223454Y250650D01*
X220946Y249202D01*
X218898Y247154D01*
X217450Y244646D01*
X216700Y241848D01*
Y238952D01*
X217450Y236154D01*
X218898Y233646D01*
X220946Y231598D01*
X223454Y230150D01*
X226252Y229400D01*
X229148D01*
X231946Y230150D01*
X234454Y231598D01*
X236502Y233646D01*
X237950Y236154D01*
X238700Y238952D01*
Y241848D01*
X237950Y244646D01*
X236502Y247154D01*
X234454Y249202D01*
X231946Y250650D01*
X229148Y251400D01*
D02*
G37*
G36*
X203748D02*
X200852D01*
X198054Y250650D01*
X195546Y249202D01*
X193498Y247154D01*
X192050Y244646D01*
X191300Y241848D01*
Y238952D01*
X192050Y236154D01*
X193498Y233646D01*
X195546Y231598D01*
X198054Y230150D01*
X200852Y229400D01*
X203748D01*
X206546Y230150D01*
X209054Y231598D01*
X211102Y233646D01*
X212550Y236154D01*
X213300Y238952D01*
Y241848D01*
X212550Y244646D01*
X211102Y247154D01*
X209054Y249202D01*
X206546Y250650D01*
X203748Y251400D01*
D02*
G37*
G36*
X387000Y220722D02*
Y210000D01*
X397722D01*
X396898Y213075D01*
X395252Y215925D01*
X392925Y218253D01*
X390075Y219898D01*
X387000Y220722D01*
D02*
G37*
G36*
X383500D02*
X380425Y219898D01*
X377575Y218253D01*
X375247Y215925D01*
X373602Y213075D01*
X372778Y210000D01*
X383500D01*
Y220722D01*
D02*
G37*
G36*
X229148Y226000D02*
X226252D01*
X223454Y225250D01*
X220946Y223802D01*
X218898Y221754D01*
X217450Y219246D01*
X216700Y216448D01*
Y213552D01*
X217450Y210754D01*
X218898Y208246D01*
X220946Y206198D01*
X223454Y204750D01*
X226252Y204000D01*
X229148D01*
X231946Y204750D01*
X234454Y206198D01*
X236502Y208246D01*
X237950Y210754D01*
X238700Y213552D01*
Y216448D01*
X237950Y219246D01*
X236502Y221754D01*
X234454Y223802D01*
X231946Y225250D01*
X229148Y226000D01*
D02*
G37*
G36*
X203748D02*
X200852D01*
X198054Y225250D01*
X195546Y223802D01*
X193498Y221754D01*
X192050Y219246D01*
X191300Y216448D01*
Y213552D01*
X192050Y210754D01*
X193498Y208246D01*
X195546Y206198D01*
X198054Y204750D01*
X200852Y204000D01*
X203748D01*
X206546Y204750D01*
X209054Y206198D01*
X211102Y208246D01*
X212550Y210754D01*
X213300Y213552D01*
Y216448D01*
X212550Y219246D01*
X211102Y221754D01*
X209054Y223802D01*
X206546Y225250D01*
X203748Y226000D01*
D02*
G37*
G36*
X397722Y206500D02*
X387000D01*
Y195778D01*
X390075Y196602D01*
X392925Y198248D01*
X395252Y200575D01*
X396898Y203425D01*
X397722Y206500D01*
D02*
G37*
G36*
X383500D02*
X372778D01*
X373602Y203425D01*
X375247Y200575D01*
X377575Y198248D01*
X380425Y196602D01*
X383500Y195778D01*
Y206500D01*
D02*
G37*
G36*
X203748Y200600D02*
X200852D01*
X198054Y199850D01*
X195546Y198402D01*
X193498Y196354D01*
X192050Y193846D01*
X191300Y191048D01*
Y188152D01*
X192050Y185354D01*
X193498Y182846D01*
X195546Y180798D01*
X198054Y179350D01*
X200852Y178600D01*
X203748D01*
X206546Y179350D01*
X209054Y180798D01*
X211102Y182846D01*
X212550Y185354D01*
X213300Y188152D01*
Y191048D01*
X212550Y193846D01*
X211102Y196354D01*
X209054Y198402D01*
X206546Y199850D01*
X203748Y200600D01*
D02*
G37*
G36*
X204050Y176672D02*
Y165950D01*
X214772D01*
X213948Y169025D01*
X212302Y171875D01*
X209975Y174202D01*
X207125Y175848D01*
X204050Y176672D01*
D02*
G37*
G36*
X200550D02*
X197475Y175848D01*
X194625Y174202D01*
X192297Y171875D01*
X190652Y169025D01*
X189828Y165950D01*
X200550D01*
Y176672D01*
D02*
G37*
G36*
X214772Y162450D02*
X204050D01*
Y151728D01*
X207125Y152552D01*
X209975Y154197D01*
X212302Y156525D01*
X213948Y159375D01*
X214772Y162450D01*
D02*
G37*
G36*
X200550D02*
X189828D01*
X190652Y159375D01*
X192297Y156525D01*
X194625Y154197D01*
X197475Y152552D01*
X200550Y151728D01*
Y162450D01*
D02*
G37*
G36*
X358250Y50608D02*
X357000D01*
X354854Y50181D01*
X353500Y49276D01*
X352146Y50181D01*
X350000Y50608D01*
X348750D01*
Y43000D01*
Y35392D01*
X350000D01*
X352146Y35819D01*
X353500Y36723D01*
X354854Y35819D01*
X357000Y35392D01*
X358250D01*
Y43000D01*
Y50608D01*
D02*
G37*
G36*
X81250D02*
X80000D01*
X77854Y50181D01*
X76500Y49276D01*
X75146Y50181D01*
X73000Y50608D01*
X71750D01*
Y43000D01*
Y35392D01*
X73000D01*
X75146Y35819D01*
X76500Y36724D01*
X77854Y35819D01*
X80000Y35392D01*
X81250D01*
Y43000D01*
Y50608D01*
D02*
G37*
G36*
X363000D02*
X361750D01*
Y44750D01*
X368607D01*
Y45000D01*
X368181Y47146D01*
X366965Y48965D01*
X365146Y50181D01*
X363000Y50608D01*
D02*
G37*
G36*
X345250D02*
X344000D01*
X341854Y50181D01*
X340035Y48965D01*
X338819Y47146D01*
X338392Y45000D01*
Y44750D01*
X345250D01*
Y50608D01*
D02*
G37*
G36*
X86000D02*
X84750D01*
Y44750D01*
X91608D01*
Y45000D01*
X91181Y47146D01*
X89965Y48965D01*
X88146Y50181D01*
X86000Y50608D01*
D02*
G37*
G36*
X68250D02*
X67000D01*
X64854Y50181D01*
X63035Y48965D01*
X61819Y47146D01*
X61392Y45000D01*
Y44750D01*
X68250D01*
Y50608D01*
D02*
G37*
G36*
X368607Y41250D02*
X361750D01*
Y35392D01*
X363000D01*
X365146Y35819D01*
X366965Y37034D01*
X368181Y38854D01*
X368607Y41000D01*
Y41250D01*
D02*
G37*
G36*
X345250D02*
X338392D01*
Y41000D01*
X338819Y38854D01*
X340035Y37034D01*
X341854Y35819D01*
X344000Y35392D01*
X345250D01*
Y41250D01*
D02*
G37*
G36*
X91608D02*
X84750D01*
Y35392D01*
X86000D01*
X88146Y35819D01*
X89965Y37034D01*
X91181Y38854D01*
X91608Y41000D01*
Y41250D01*
D02*
G37*
G36*
X68250D02*
X61392D01*
Y41000D01*
X61819Y38854D01*
X63035Y37034D01*
X64854Y35819D01*
X67000Y35392D01*
X68250D01*
Y41250D01*
D02*
G37*
G36*
X417550Y33250D02*
X414022D01*
Y25023D01*
X417550D01*
Y33250D01*
D02*
G37*
G36*
X15978D02*
X12450D01*
Y25023D01*
X15978D01*
Y33250D01*
D02*
G37*
G36*
X410057Y20994D02*
X396750D01*
Y17466D01*
X410057D01*
Y20994D01*
D02*
G37*
G36*
X33250D02*
X19943D01*
Y17466D01*
X33250D01*
Y20994D01*
D02*
G37*
%LPD*%
D10*
X12227Y403977D02*
X21102D01*
X5750Y367750D02*
Y397500D01*
X12227Y403977D01*
X25570Y399509D02*
X28237D01*
X21102Y403977D02*
X25570Y399509D01*
X40937Y382744D02*
X41715Y383522D01*
Y390443D01*
X41763Y390491D01*
X35000Y382744D02*
X40937D01*
X401715Y383522D02*
Y390444D01*
X401763Y390491D01*
X395000Y382744D02*
X400937D01*
X401715Y383522D01*
X380943Y379931D02*
X387000Y373874D01*
X380943Y379931D02*
Y385864D01*
X385570Y390491D01*
X388237D01*
X387000Y365000D02*
Y373874D01*
X388237Y30491D02*
X401763D01*
X371744Y27000D02*
X372721Y26023D01*
X381101D01*
X385570Y30491D01*
X360000Y27000D02*
X371744D01*
X385570Y30491D02*
X388237D01*
X28237D02*
X41763D01*
X44430D01*
X48898Y26023D01*
X57279D01*
X58256Y27000D01*
X70000D01*
X409057Y44136D02*
Y70057D01*
X410000Y71000D01*
X404430Y39508D02*
X409057Y44136D01*
X401763Y39508D02*
X404430D01*
X375079Y49999D02*
X385570Y39508D01*
X364000Y61500D02*
X375079Y50421D01*
Y49999D02*
Y50421D01*
X385570Y39508D02*
X388237D01*
X44430D02*
X53296Y48374D01*
Y62796D02*
X62750Y72250D01*
X41763Y39508D02*
X44430D01*
X53296Y48374D02*
Y62796D01*
X20943Y54207D02*
X26250Y59514D01*
Y71000D01*
X20943Y44136D02*
Y54207D01*
Y44136D02*
X25570Y39508D01*
X28237D01*
X65171Y420250D02*
X77500D01*
X44430Y399509D02*
X65171Y420250D01*
X41763Y399509D02*
X44430D01*
X360500Y401500D02*
X370143D01*
X372620Y403977D01*
X381101D01*
X385570Y399509D01*
X388237D01*
X401763D02*
X404430D01*
X409057Y404136D01*
Y414943D01*
X403000Y421000D02*
X409057Y414943D01*
X25750Y368152D02*
Y372587D01*
X25570Y390491D02*
X28237D01*
X20943Y385864D02*
X25570Y390491D01*
X20943Y377395D02*
Y385864D01*
Y377395D02*
X25750Y372587D01*
D15*
X27083Y77582D02*
X27499Y77166D01*
Y76333D01*
X27083Y75916D01*
X25417D01*
X25000Y76333D01*
Y77166D01*
X25417Y77582D01*
X27083D01*
X25000Y75083D02*
X27499D01*
Y73833D01*
X27083Y73417D01*
X26250D01*
X25833Y73833D01*
Y75083D01*
Y74250D02*
X25000Y73417D01*
X69332Y71417D02*
X68916Y71001D01*
X68083D01*
X67666Y71417D01*
Y73084D01*
X68083Y73500D01*
X68916D01*
X69332Y73084D01*
Y71417D01*
X66833Y73500D02*
Y71001D01*
X65583D01*
X65167Y71417D01*
Y72250D01*
X65583Y72667D01*
X66833D01*
X66000D02*
X65167Y73500D01*
X364833Y68082D02*
X365249Y67666D01*
Y66833D01*
X364833Y66416D01*
X363167D01*
X362750Y66833D01*
Y67666D01*
X363167Y68082D01*
X364833D01*
X362750Y65583D02*
X365249D01*
Y64333D01*
X364833Y63917D01*
X364000D01*
X363583Y64333D01*
Y65583D01*
Y64750D02*
X362750Y63917D01*
X410833Y77582D02*
X411249Y77166D01*
Y76333D01*
X410833Y75916D01*
X409166D01*
X408750Y76333D01*
Y77166D01*
X409166Y77582D01*
X410833D01*
X408750Y75083D02*
X411249D01*
Y73833D01*
X410833Y73417D01*
X410000D01*
X409583Y73833D01*
Y75083D01*
Y74250D02*
X408750Y73417D01*
X84082Y419417D02*
X83666Y419001D01*
X82833D01*
X82416Y419417D01*
Y421083D01*
X82833Y421500D01*
X83666D01*
X84082Y421083D01*
Y419417D01*
X81583Y421500D02*
Y419001D01*
X80333D01*
X79917Y419417D01*
Y420250D01*
X80333Y420667D01*
X81583D01*
X80750D02*
X79917Y421500D01*
X4917Y361168D02*
X4501Y361584D01*
Y362417D01*
X4917Y362834D01*
X6583D01*
X7000Y362417D01*
Y361584D01*
X6583Y361168D01*
X4917D01*
X7000Y363667D02*
X4501D01*
Y364916D01*
X4917Y365333D01*
X5750D01*
X6167Y364916D01*
Y363667D01*
Y364500D02*
X7000Y365333D01*
X353918Y402333D02*
X354334Y402749D01*
X355167D01*
X355584Y402333D01*
Y400667D01*
X355167Y400250D01*
X354334D01*
X353918Y400667D01*
Y402333D01*
X356417Y400250D02*
Y402749D01*
X357667D01*
X358083Y402333D01*
Y401500D01*
X357667Y401083D01*
X356417D01*
X357250D02*
X358083Y400250D01*
X396418Y421833D02*
X396834Y422249D01*
X397667D01*
X398084Y421833D01*
Y420167D01*
X397667Y419750D01*
X396834D01*
X396418Y420167D01*
Y421833D01*
X398917Y419750D02*
Y422249D01*
X400167D01*
X400583Y421833D01*
Y421000D01*
X400167Y420583D01*
X398917D01*
X399750D02*
X400583Y419750D01*
D16*
X345001Y43997D02*
Y42664D01*
Y43331D01*
X348999D01*
X348333Y43997D01*
Y40665D02*
X348999Y39998D01*
Y38665D01*
X348333Y37999D01*
X345667D01*
X345001Y38665D01*
Y39998D01*
X345667Y40665D01*
X348333D01*
Y36666D02*
X348999Y36000D01*
Y34667D01*
X348333Y34000D01*
X345667D01*
X345001Y34667D01*
Y36000D01*
X345667Y36666D01*
X348333D01*
X345001Y32667D02*
X347667D01*
Y30668D01*
X347000Y30002D01*
X345001D01*
X348999Y26003D02*
Y28669D01*
X347000D01*
Y27336D01*
Y28669D01*
X345001D01*
X41998Y353999D02*
X40665D01*
X41331D01*
Y350001D01*
X41998Y350667D01*
X38665D02*
X37999Y350001D01*
X36666D01*
X36000Y350667D01*
Y353333D01*
X36666Y353999D01*
X37999D01*
X38665Y353333D01*
Y350667D01*
X34667Y351334D02*
Y353333D01*
X34000Y353999D01*
X32001D01*
Y351334D01*
X28002Y350001D02*
X30668D01*
Y352000D01*
X29335D01*
X30668D01*
Y353999D01*
X43997Y366999D02*
X42664D01*
X43331D01*
Y363001D01*
X43997Y363667D01*
X40665D02*
X39998Y363001D01*
X38665D01*
X37999Y363667D01*
Y366333D01*
X38665Y366999D01*
X39998D01*
X40665Y366333D01*
Y363667D01*
X36666D02*
X36000Y363001D01*
X34667D01*
X34000Y363667D01*
Y366333D01*
X34667Y366999D01*
X36000D01*
X36666Y366333D01*
Y363667D01*
X32667Y366999D02*
Y364333D01*
X30668D01*
X30002Y365000D01*
Y366999D01*
X26003Y363001D02*
X28669D01*
Y365000D01*
X27336D01*
X28669D01*
Y366999D01*
X68001Y41998D02*
Y40665D01*
Y41331D01*
X71999D01*
X71333Y41998D01*
Y38665D02*
X71999Y37999D01*
Y36666D01*
X71333Y36000D01*
X68667D01*
X68001Y36666D01*
Y37999D01*
X68667Y38665D01*
X71333D01*
X70666Y34667D02*
X68667D01*
X68001Y34000D01*
Y32001D01*
X70666D01*
X71999Y28002D02*
Y30668D01*
X70000D01*
Y29335D01*
Y30668D01*
X68001D01*
X403997Y366999D02*
X402664D01*
X403331D01*
Y363001D01*
X403997Y363667D01*
X400665D02*
X399998Y363001D01*
X398665D01*
X397999Y363667D01*
Y366333D01*
X398665Y366999D01*
X399998D01*
X400665Y366333D01*
Y363667D01*
X396666D02*
X396000Y363001D01*
X394667D01*
X394000Y363667D01*
Y366333D01*
X394667Y366999D01*
X396000D01*
X396666Y366333D01*
Y363667D01*
X392667Y366999D02*
Y364333D01*
X390668D01*
X390002Y365000D01*
Y366999D01*
X386003Y363001D02*
X388669D01*
Y365000D01*
X387336D01*
X388669D01*
Y366999D01*
X358001Y41998D02*
Y40665D01*
Y41331D01*
X361999D01*
X361333Y41998D01*
Y38665D02*
X361999Y37999D01*
Y36666D01*
X361333Y36000D01*
X358667D01*
X358001Y36666D01*
Y37999D01*
X358667Y38665D01*
X361333D01*
X360667Y34667D02*
X358667D01*
X358001Y34000D01*
Y32001D01*
X360667D01*
X361999Y28002D02*
Y30668D01*
X360000D01*
Y29335D01*
Y30668D01*
X358001D01*
X81001Y43997D02*
Y42664D01*
Y43331D01*
X84999D01*
X84333Y43997D01*
Y40665D02*
X84999Y39998D01*
Y38665D01*
X84333Y37999D01*
X81667D01*
X81001Y38665D01*
Y39998D01*
X81667Y40665D01*
X84333D01*
Y36666D02*
X84999Y36000D01*
Y34667D01*
X84333Y34000D01*
X81667D01*
X81001Y34667D01*
Y36000D01*
X81667Y36666D01*
X84333D01*
X81001Y32667D02*
X83666D01*
Y30668D01*
X83000Y30002D01*
X81001D01*
X84999Y26003D02*
Y28669D01*
X83000D01*
Y27336D01*
Y28669D01*
X81001D01*
X401998Y353999D02*
X400665D01*
X401331D01*
Y350001D01*
X401998Y350667D01*
X398666D02*
X397999Y350001D01*
X396666D01*
X396000Y350667D01*
Y353333D01*
X396666Y353999D01*
X397999D01*
X398666Y353333D01*
Y350667D01*
X394667Y351334D02*
Y353333D01*
X394000Y353999D01*
X392001D01*
Y351334D01*
X388002Y350001D02*
X390668D01*
Y352000D01*
X389335D01*
X390668D01*
Y353999D01*
D17*
X260501Y190749D02*
X258502D01*
Y189250D01*
X259501Y189750D01*
X260001D01*
X260501Y189250D01*
Y188250D01*
X260001Y187750D01*
X259002D01*
X258502Y188250D01*
X261501Y190250D02*
X262001Y190749D01*
X263000D01*
X263500Y190250D01*
Y188250D01*
X263000Y187750D01*
X262001D01*
X261501Y188250D01*
Y190250D01*
X264500D02*
X265000Y190749D01*
X265999D01*
X266499Y190250D01*
Y188250D01*
X265999Y187750D01*
X265000D01*
X264500Y188250D01*
Y190250D01*
X267499Y187750D02*
X268498D01*
X267999D01*
Y190749D01*
X267499Y190250D01*
X384001Y279249D02*
X382002D01*
Y277750D01*
X383001Y278250D01*
X383501D01*
X384001Y277750D01*
Y276750D01*
X383501Y276250D01*
X382501D01*
X382002Y276750D01*
X385001Y278750D02*
X385500Y279249D01*
X386500D01*
X387000Y278750D01*
Y276750D01*
X386500Y276250D01*
X385500D01*
X385001Y276750D01*
Y278750D01*
X388000D02*
X388499Y279249D01*
X389499D01*
X389999Y278750D01*
Y276750D01*
X389499Y276250D01*
X388499D01*
X388000Y276750D01*
Y278750D01*
X390999Y276250D02*
X391998D01*
X391499D01*
Y279249D01*
X390999Y278750D01*
X382251Y209750D02*
X380252D01*
Y208250D01*
X381251Y208750D01*
X381751D01*
X382251Y208250D01*
Y207250D01*
X381751Y206751D01*
X380751D01*
X380252Y207250D01*
X383251Y209250D02*
X383750Y209750D01*
X384750D01*
X385250Y209250D01*
Y207250D01*
X384750Y206751D01*
X383750D01*
X383251Y207250D01*
Y209250D01*
X386250D02*
X386749Y209750D01*
X387749D01*
X388249Y209250D01*
Y207250D01*
X387749Y206751D01*
X386749D01*
X386250Y207250D01*
Y209250D01*
X389249Y206751D02*
X390248D01*
X389749D01*
Y209750D01*
X389249Y209250D01*
X242001Y396499D02*
X240002D01*
Y395000D01*
X241001Y395500D01*
X241501D01*
X242001Y395000D01*
Y394000D01*
X241501Y393501D01*
X240501D01*
X240002Y394000D01*
X243001Y396000D02*
X243500Y396499D01*
X244500D01*
X245000Y396000D01*
Y394000D01*
X244500Y393501D01*
X243500D01*
X243001Y394000D01*
Y396000D01*
X246000D02*
X246500Y396499D01*
X247499D01*
X247999Y396000D01*
Y394000D01*
X247499Y393501D01*
X246500D01*
X246000Y394000D01*
Y396000D01*
X248999Y393501D02*
X249998D01*
X249499D01*
Y396499D01*
X248999Y396000D01*
X304501Y89749D02*
X302502D01*
Y88250D01*
X303501Y88750D01*
X304001D01*
X304501Y88250D01*
Y87250D01*
X304001Y86750D01*
X303001D01*
X302502Y87250D01*
X305501Y89250D02*
X306000Y89749D01*
X307000D01*
X307500Y89250D01*
Y87250D01*
X307000Y86750D01*
X306000D01*
X305501Y87250D01*
Y89250D01*
X308500D02*
X309000Y89749D01*
X309999D01*
X310499Y89250D01*
Y87250D01*
X309999Y86750D01*
X309000D01*
X308500Y87250D01*
Y89250D01*
X311499Y86750D02*
X312498D01*
X311999D01*
Y89749D01*
X311499Y89250D01*
X202001Y396499D02*
X200002D01*
Y395000D01*
X201001Y395500D01*
X201501D01*
X202001Y395000D01*
Y394000D01*
X201501Y393501D01*
X200501D01*
X200002Y394000D01*
X203001Y396000D02*
X203500Y396499D01*
X204500D01*
X205000Y396000D01*
Y394000D01*
X204500Y393501D01*
X203500D01*
X203001Y394000D01*
Y396000D01*
X206000D02*
X206500Y396499D01*
X207499D01*
X207999Y396000D01*
Y394000D01*
X207499Y393501D01*
X206500D01*
X206000Y394000D01*
Y396000D01*
X208999Y393501D02*
X209998D01*
X209499D01*
Y396499D01*
X208999Y396000D01*
X87251Y325750D02*
X85252D01*
Y324250D01*
X86251Y324750D01*
X86751D01*
X87251Y324250D01*
Y323250D01*
X86751Y322751D01*
X85751D01*
X85252Y323250D01*
X88251Y325250D02*
X88750Y325750D01*
X89750D01*
X90250Y325250D01*
Y323250D01*
X89750Y322751D01*
X88750D01*
X88251Y323250D01*
Y325250D01*
X91250D02*
X91749Y325750D01*
X92749D01*
X93249Y325250D01*
Y323250D01*
X92749Y322751D01*
X91749D01*
X91250Y323250D01*
Y325250D01*
X94249Y322751D02*
X95248D01*
X94749D01*
Y325750D01*
X94249Y325250D01*
D18*
X102950Y324250D02*
G03*
X102950Y324250I-12700J0D01*
G01*
X81400Y322700D02*
G03*
X82400Y321700I1000J0D01*
G01*
X98100D02*
G03*
X99100Y322700I0J1000D01*
G01*
X82400Y326800D02*
G03*
X81400Y325800I0J-1000D01*
G01*
X99100D02*
G03*
X98100Y326800I-1000J0D01*
G01*
X146750Y368000D02*
G03*
X146750Y368000I-27000J0D01*
G01*
X86250Y210250D02*
G03*
X86250Y210250I-27000J0D01*
G01*
X257700Y395000D02*
G03*
X257700Y395000I-12700J0D01*
G01*
X236150Y393450D02*
G03*
X237150Y392450I1000J0D01*
G01*
X252850D02*
G03*
X253850Y393450I0J1000D01*
G01*
X237150Y397550D02*
G03*
X236150Y396550I0J-1000D01*
G01*
X253850D02*
G03*
X252850Y397550I-1000J0D01*
G01*
X217700Y395000D02*
G03*
X217700Y395000I-12700J0D01*
G01*
X196150Y393450D02*
G03*
X197150Y392450I1000J0D01*
G01*
X212850D02*
G03*
X213850Y393450I0J1000D01*
G01*
X197150Y397550D02*
G03*
X196150Y396550I0J-1000D01*
G01*
X213850D02*
G03*
X212850Y397550I-1000J0D01*
G01*
X320200Y88250D02*
G03*
X320200Y88250I-12700J0D01*
G01*
X298650Y86700D02*
G03*
X299650Y85700I1000J0D01*
G01*
X315350D02*
G03*
X316350Y86700I0J1000D01*
G01*
X299650Y90800D02*
G03*
X298650Y89800I0J-1000D01*
G01*
X316350D02*
G03*
X315350Y90800I-1000J0D01*
G01*
X272350Y190800D02*
G03*
X271350Y191800I-1000J0D01*
G01*
X255650D02*
G03*
X254650Y190800I0J-1000D01*
G01*
X271350Y186700D02*
G03*
X272350Y187700I0J1000D01*
G01*
X254650D02*
G03*
X255650Y186700I1000J0D01*
G01*
X276200Y189250D02*
G03*
X276200Y189250I-12700J0D01*
G01*
X394100Y209800D02*
G03*
X393100Y210800I-1000J0D01*
G01*
X377400D02*
G03*
X376400Y209800I0J-1000D01*
G01*
X393100Y205700D02*
G03*
X394100Y206700I0J1000D01*
G01*
X376400D02*
G03*
X377400Y205700I1000J0D01*
G01*
X397950Y208250D02*
G03*
X397950Y208250I-12700J0D01*
G01*
X395850Y279300D02*
G03*
X394850Y280300I-1000J0D01*
G01*
X379150D02*
G03*
X378150Y279300I0J-1000D01*
G01*
X394850Y275200D02*
G03*
X395850Y276200I0J1000D01*
G01*
X378150D02*
G03*
X379150Y275200I1000J0D01*
G01*
X399700Y277750D02*
G03*
X399700Y277750I-12700J0D01*
G01*
X23800Y80500D02*
G03*
X23750Y80450I0J-50D01*
G01*
X28750D02*
G03*
X28700Y80500I-50J0D01*
G01*
X23750Y70550D02*
G03*
X23800Y70500I50J0D01*
G01*
X28700D02*
G03*
X28750Y70550I0J50D01*
G01*
X72250Y74700D02*
G03*
X72200Y74750I-50J0D01*
G01*
Y69750D02*
G03*
X72250Y69800I0J50D01*
G01*
X62300Y74750D02*
G03*
X62250Y74700I0J-50D01*
G01*
Y69800D02*
G03*
X62300Y69750I50J0D01*
G01*
X8200Y358250D02*
G03*
X8250Y358300I0J50D01*
G01*
X3250D02*
G03*
X3300Y358250I50J0D01*
G01*
X8250Y368200D02*
G03*
X8200Y368250I-50J0D01*
G01*
X3300D02*
G03*
X3250Y368200I0J-50D01*
G01*
X393500Y418550D02*
G03*
X393550Y418500I50J0D01*
G01*
Y423500D02*
G03*
X393500Y423450I0J-50D01*
G01*
X403450Y418500D02*
G03*
X403500Y418550I0J50D01*
G01*
Y423450D02*
G03*
X403450Y423500I-50J0D01*
G01*
X407550Y80500D02*
G03*
X407500Y80450I0J-50D01*
G01*
X412500D02*
G03*
X412450Y80500I-50J0D01*
G01*
X407500Y70550D02*
G03*
X407550Y70500I50J0D01*
G01*
X412450D02*
G03*
X412500Y70550I0J50D01*
G01*
X361550Y71000D02*
G03*
X361500Y70950I0J-50D01*
G01*
X366500D02*
G03*
X366450Y71000I-50J0D01*
G01*
X361500Y61050D02*
G03*
X361550Y61000I50J0D01*
G01*
X366450D02*
G03*
X366500Y61050I0J50D01*
G01*
X351000Y399050D02*
G03*
X351050Y399000I50J0D01*
G01*
Y404000D02*
G03*
X351000Y403950I0J-50D01*
G01*
X360950Y399000D02*
G03*
X361000Y399050I0J50D01*
G01*
Y403950D02*
G03*
X360950Y404000I-50J0D01*
G01*
X87000Y422700D02*
G03*
X86950Y422750I-50J0D01*
G01*
Y417750D02*
G03*
X87000Y417800I0J50D01*
G01*
X77050Y422750D02*
G03*
X77000Y422700I0J-50D01*
G01*
Y417800D02*
G03*
X77050Y417750I50J0D01*
G01*
X81400Y322700D02*
Y325800D01*
X99100Y322700D02*
Y325800D01*
X82400Y321700D02*
X98100D01*
X82400Y326800D02*
X98100D01*
X81400Y322700D02*
X99100D01*
X81400Y325800D02*
X99100D01*
X27000Y361000D02*
Y369000D01*
X31000D01*
Y361000D02*
Y369000D01*
X27000Y361000D02*
X31000D01*
X43000D02*
Y369000D01*
X39000D02*
X43000D01*
X39000Y361000D02*
Y369000D01*
Y361000D02*
X43000D01*
X31000Y361100D02*
X39000D01*
X31000Y368900D02*
X39000D01*
X108059Y374750D02*
X119750Y381500D01*
X108059Y361250D02*
X119750Y354500D01*
Y381500D02*
X131441Y374750D01*
X119750Y354500D02*
X131441Y361250D01*
Y374750D01*
X108059Y361250D02*
Y374750D01*
X47559Y217000D02*
X59250Y223750D01*
X47559Y203500D02*
X59250Y196750D01*
Y223750D02*
X70941Y217000D01*
X59250Y196750D02*
X70941Y203500D01*
Y217000D01*
X47559Y203500D02*
Y217000D01*
X236150Y393450D02*
Y396550D01*
X253850Y393450D02*
Y396550D01*
X237150Y392450D02*
X252850D01*
X237150Y397550D02*
X252850D01*
X236150Y393450D02*
X253850D01*
X236150Y396550D02*
X253850D01*
X196150Y393450D02*
Y396550D01*
X213850Y393450D02*
Y396550D01*
X197150Y392450D02*
X212850D01*
X197150Y397550D02*
X212850D01*
X196150Y393450D02*
X213850D01*
X196150Y396550D02*
X213850D01*
X298650Y86700D02*
Y89800D01*
X316350Y86700D02*
Y89800D01*
X299650Y85700D02*
X315350D01*
X299650Y90800D02*
X315350D01*
X298650Y86700D02*
X316350D01*
X298650Y89800D02*
X316350D01*
X254650Y190800D02*
X272350D01*
X254650Y187700D02*
X272350D01*
X255650Y191800D02*
X271350D01*
X255650Y186700D02*
X271350D01*
X272350Y187700D02*
Y190800D01*
X254650Y187700D02*
Y190800D01*
X376400Y209800D02*
X394100D01*
X376400Y206700D02*
X394100D01*
X377400Y210800D02*
X393100D01*
X377400Y205700D02*
X393100D01*
X394100Y206700D02*
Y209800D01*
X376400Y206700D02*
Y209800D01*
X378150Y279300D02*
X395850D01*
X378150Y276200D02*
X395850D01*
X379150Y280300D02*
X394850D01*
X379150Y275200D02*
X394850D01*
X395850Y276200D02*
Y279300D01*
X378150Y276200D02*
Y279300D01*
X79100Y31000D02*
Y39000D01*
X86900Y31000D02*
Y39000D01*
X87000D02*
Y43000D01*
X79000Y39000D02*
X87000D01*
X79000D02*
Y43000D01*
X87000D01*
Y27000D02*
Y31000D01*
X79000D02*
X87000D01*
X79000Y27000D02*
Y31000D01*
Y27000D02*
X87000D01*
X66100Y31000D02*
Y39000D01*
X73900Y31000D02*
Y39000D01*
X74000D02*
Y43000D01*
X66000Y39000D02*
X74000D01*
X66000D02*
Y43000D01*
X74000D01*
Y27000D02*
Y31000D01*
X66000D02*
X74000D01*
X66000Y27000D02*
Y31000D01*
Y27000D02*
X74000D01*
X23800Y80500D02*
X28700D01*
X23750Y78050D02*
X28750D01*
X23800Y70500D02*
X28700D01*
X23750Y72950D02*
X28750D01*
X23750Y70550D02*
Y80450D01*
X28750Y70550D02*
Y80450D01*
X72250Y69800D02*
Y74700D01*
X69800Y69750D02*
Y74750D01*
X62250Y69800D02*
Y74700D01*
X64700Y69750D02*
Y74750D01*
X62300D02*
X72200D01*
X62300Y69750D02*
X72200D01*
X3300Y358250D02*
X8200D01*
X3250Y360700D02*
X8250D01*
X3300Y368250D02*
X8200D01*
X3250Y365800D02*
X8250D01*
Y358300D02*
Y368200D01*
X3250Y358300D02*
Y368200D01*
X393500Y418550D02*
Y423450D01*
X395950Y418500D02*
Y423500D01*
X403500Y418550D02*
Y423450D01*
X401050Y418500D02*
Y423500D01*
X393550Y418500D02*
X403450D01*
X393550Y423500D02*
X403450D01*
X407550Y80500D02*
X412450D01*
X407500Y78050D02*
X412500D01*
X407550Y70500D02*
X412450D01*
X407500Y72950D02*
X412500D01*
X407500Y70550D02*
Y80450D01*
X412500Y70550D02*
Y80450D01*
X361550Y71000D02*
X366450D01*
X361500Y68550D02*
X366500D01*
X361550Y61000D02*
X366450D01*
X361500Y63450D02*
X366500D01*
X361500Y61050D02*
Y70950D01*
X366500Y61050D02*
Y70950D01*
X351000Y399050D02*
Y403950D01*
X353450Y399000D02*
Y404000D01*
X361000Y399050D02*
Y403950D01*
X358550Y399000D02*
Y404000D01*
X351050Y399000D02*
X360950D01*
X351050Y404000D02*
X360950D01*
X87000Y417800D02*
Y422700D01*
X84550Y417750D02*
Y422750D01*
X77000Y417800D02*
Y422700D01*
X79450Y417750D02*
Y422750D01*
X77050D02*
X86950D01*
X77050Y417750D02*
X86950D01*
X356100Y31000D02*
Y39000D01*
X363900Y31000D02*
Y39000D01*
X364000D02*
Y43000D01*
X356000Y39000D02*
X364000D01*
X356000D02*
Y43000D01*
X364000D01*
Y27000D02*
Y31000D01*
X356000D02*
X364000D01*
X356000Y27000D02*
Y31000D01*
Y27000D02*
X364000D01*
X343100Y31000D02*
Y39000D01*
X350900Y31000D02*
Y39000D01*
X351000D02*
Y43000D01*
X343000Y39000D02*
X351000D01*
X343000D02*
Y43000D01*
X351000D01*
Y27000D02*
Y31000D01*
X343000D02*
X351000D01*
X343000Y27000D02*
Y31000D01*
Y27000D02*
X351000D01*
X391000Y355900D02*
X399000D01*
X391000Y348100D02*
X399000D01*
Y348000D02*
X403000D01*
X399000D02*
Y356000D01*
X403000D01*
Y348000D02*
Y356000D01*
X387000Y348000D02*
X391000D01*
Y356000D01*
X387000D02*
X391000D01*
X387000Y348000D02*
Y356000D01*
X391000Y368900D02*
X399000D01*
X391000Y361100D02*
X399000D01*
Y361000D02*
X403000D01*
X399000D02*
Y369000D01*
X403000D01*
Y361000D02*
Y369000D01*
X387000Y361000D02*
X391000D01*
Y369000D01*
X387000D02*
X391000D01*
X387000Y361000D02*
Y369000D01*
X31000Y355900D02*
X39000D01*
X31000Y348100D02*
X39000D01*
Y348000D02*
X43000D01*
X39000D02*
Y356000D01*
X43000D01*
Y348000D02*
Y356000D01*
X27000Y348000D02*
X31000D01*
Y356000D01*
X27000D02*
X31000D01*
X27000Y348000D02*
Y356000D01*
D19*
X28999Y32524D02*
G03*
X28999Y32524I-762J0D01*
G01*
X14553Y31952D02*
G03*
X14553Y38048I0J3048D01*
G01*
X388999Y32524D02*
G03*
X388999Y32524I-762J0D01*
G01*
X374553Y31952D02*
G03*
X374553Y38048I0J3048D01*
G01*
X28999Y392523D02*
G03*
X28999Y392523I-762J0D01*
G01*
X14553Y391952D02*
G03*
X14553Y398048I0J3048D01*
G01*
X388999Y392523D02*
G03*
X388999Y392523I-762J0D01*
G01*
X374553Y391952D02*
G03*
X374553Y398048I0J3048D01*
G01*
X55447Y19506D02*
Y50494D01*
X14553D02*
X55447D01*
X14553Y19506D02*
Y50494D01*
Y19506D02*
X55447D01*
X415447D02*
Y50494D01*
X374553D02*
X415447D01*
X374553Y19506D02*
Y50494D01*
Y19506D02*
X415447D01*
X55447Y379506D02*
Y410494D01*
X14553D02*
X55447D01*
X14553Y379506D02*
Y410494D01*
Y379506D02*
X55447D01*
X415447D02*
Y410494D01*
X374553D02*
X415447D01*
X374553Y379506D02*
Y410494D01*
Y379506D02*
X415447D01*
D20*
X41350Y75D02*
X28654D01*
X32886Y4307D01*
X28654Y8539D01*
X41350D01*
X28654Y12771D02*
Y17003D01*
Y14887D01*
X41350D01*
Y12771D01*
Y17003D01*
X30770Y31815D02*
X28654Y29699D01*
Y25467D01*
X30770Y23351D01*
X39234D01*
X41350Y25467D01*
Y29699D01*
X39234Y31815D01*
X30770Y36047D02*
X28654Y38163D01*
Y42395D01*
X30770Y44511D01*
X32886D01*
X35002Y42395D01*
Y40279D01*
Y42395D01*
X37118Y44511D01*
X39234D01*
X41350Y42395D01*
Y38163D01*
X39234Y36047D01*
X13283Y386533D02*
Y399229D01*
X17515Y394997D01*
X21747Y399229D01*
Y386533D01*
X25979Y399229D02*
X30211D01*
X28095D01*
Y386533D01*
X25979D01*
X30211D01*
X45023Y397113D02*
X42906Y399229D01*
X38675D01*
X36559Y397113D01*
Y388649D01*
X38675Y386533D01*
X42906D01*
X45023Y388649D01*
X55602Y386533D02*
Y399229D01*
X49254Y392881D01*
X57718D01*
X371250Y389250D02*
Y401946D01*
X375482Y397714D01*
X379714Y401946D01*
Y389250D01*
X383946Y401946D02*
X388178D01*
X386062D01*
Y389250D01*
X383946D01*
X388178D01*
X402990Y399830D02*
X400874Y401946D01*
X396642D01*
X394526Y399830D01*
Y391366D01*
X396642Y389250D01*
X400874D01*
X402990Y391366D01*
X415686Y389250D02*
X407222D01*
X415686Y397714D01*
Y399830D01*
X413570Y401946D01*
X409338D01*
X407222Y399830D01*
D21*
X27000Y365000D02*
D03*
X43000D02*
D03*
X403000Y352000D02*
D03*
X387000D02*
D03*
X403000Y365000D02*
D03*
X387000D02*
D03*
X43000Y352000D02*
D03*
X27000D02*
D03*
D22*
X83000Y43000D02*
D03*
Y27000D02*
D03*
X70000Y43000D02*
D03*
Y27000D02*
D03*
X360000Y43000D02*
D03*
Y27000D02*
D03*
X347000Y43000D02*
D03*
Y27000D02*
D03*
D23*
X26250Y80000D02*
D03*
Y71000D02*
D03*
X5750Y358750D02*
D03*
Y367750D02*
D03*
X410000Y80000D02*
D03*
Y71000D02*
D03*
X364000Y70500D02*
D03*
Y61500D02*
D03*
D24*
X71750Y72250D02*
D03*
X62750D02*
D03*
X394000Y421000D02*
D03*
X403000D02*
D03*
X351500Y401500D02*
D03*
X360500D02*
D03*
X86500Y420250D02*
D03*
X77500D02*
D03*
D27*
X28237Y30491D02*
D03*
X41763D02*
D03*
Y39508D02*
D03*
X28237D02*
D03*
X388237Y30491D02*
D03*
X401763D02*
D03*
Y39508D02*
D03*
X388237D02*
D03*
X28237Y390491D02*
D03*
X41763D02*
D03*
Y399509D02*
D03*
X28237D02*
D03*
X388237Y390491D02*
D03*
X401763D02*
D03*
Y399509D02*
D03*
X388237D02*
D03*
D28*
X17728Y35000D02*
D03*
X52272D02*
D03*
X377728D02*
D03*
X412272D02*
D03*
X17728Y395000D02*
D03*
X52272D02*
D03*
X377728D02*
D03*
X412272D02*
D03*
D34*
X35000Y47255D02*
D03*
Y22744D02*
D03*
X395000Y47255D02*
D03*
Y22744D02*
D03*
X35000Y407256D02*
D03*
Y382744D02*
D03*
X395000Y407256D02*
D03*
Y382744D02*
D03*
D35*
X196250Y129250D02*
X227700Y160700D01*
X196250Y103134D02*
Y129250D01*
X227700Y160700D02*
Y189600D01*
X110377Y101377D02*
X194493D01*
X196250Y103134D01*
X71750Y72250D02*
X81250D01*
X110377Y101377D01*
X227700Y265800D02*
X239950D01*
X288160Y217590D01*
X227700Y265800D02*
Y308700D01*
X351250Y401750D02*
X351500Y401500D01*
X227700Y308700D02*
X320750Y401750D01*
X351250D01*
X227700Y189600D02*
X263500D01*
X263500Y189600D01*
X227700Y189600D02*
X227700Y189600D01*
X288160Y150340D02*
X328125Y110375D01*
X288160Y150640D02*
Y217590D01*
X6500Y307250D02*
Y358000D01*
X5750Y358750D02*
X6500Y358000D01*
Y307250D02*
X19250Y294500D01*
X51750Y123250D02*
X60500D01*
X26250Y97750D02*
X51750Y123250D01*
X120750Y420000D02*
X182000Y358750D01*
Y319500D02*
Y358750D01*
X328125Y110375D02*
X363471Y75029D01*
Y71029D02*
X364000Y70500D01*
X363471Y71029D02*
Y75029D01*
X307500Y89750D02*
X327913Y110163D01*
X409875Y80125D02*
X410000Y80000D01*
X409875Y80125D02*
Y120375D01*
X409750Y120500D02*
X409875Y120375D01*
X86750Y420000D02*
X120750D01*
X86500Y420250D02*
X86750Y420000D01*
X352250Y420750D02*
X352500Y421000D01*
X394000D01*
X307500Y88250D02*
Y89750D01*
X26250Y80000D02*
Y97750D01*
D36*
X202300Y353550D02*
X249500Y400750D01*
X202300Y265800D02*
Y353550D01*
X131250Y265800D02*
X202300D01*
X27000Y339000D02*
X100200Y265800D01*
X131250D01*
X27000Y339000D02*
Y352000D01*
X130750Y27000D02*
X131000Y27250D01*
X70000Y27000D02*
X130750D01*
X131000Y27250D02*
X131250Y27000D01*
X345000D01*
X387000Y277750D02*
Y352000D01*
X387000Y352000D02*
X387000Y352000D01*
Y277750D02*
X387000Y277750D01*
X27000Y352000D02*
X27000Y352000D01*
Y365000D01*
X27000Y365000D01*
X387000Y352000D02*
Y365000D01*
X347000Y27000D02*
X360000D01*
X131250Y114250D02*
Y265800D01*
X386000Y350000D02*
X387000Y351000D01*
X372750Y337750D02*
X385000Y350000D01*
X312500Y337750D02*
X372750D01*
X387000Y351000D02*
Y352000D01*
X385000Y350000D02*
X386000D01*
D37*
X202300Y164200D02*
D03*
Y265800D02*
D03*
Y240400D02*
D03*
Y215000D02*
D03*
Y189600D02*
D03*
X227700Y240400D02*
D03*
Y215000D02*
D03*
Y189600D02*
D03*
Y265800D02*
D03*
Y164200D02*
D03*
X90250Y324250D02*
D03*
X245000Y395000D02*
D03*
X205000D02*
D03*
X307500Y88250D02*
D03*
X263500Y189600D02*
D03*
X385250Y208250D02*
D03*
X387000Y277750D02*
D03*
D38*
X119750Y368000D02*
D03*
X59250Y210250D02*
D03*
D39*
X365000Y315000D02*
D03*
Y115000D02*
D03*
X390000Y65000D02*
D03*
X365000Y15000D02*
D03*
X315000Y315000D02*
D03*
X340000Y265000D02*
D03*
X315000Y215000D02*
D03*
X340000Y165000D02*
D03*
Y65000D02*
D03*
X315000Y15000D02*
D03*
X265000Y315000D02*
D03*
X290000Y265000D02*
D03*
X265000Y115000D02*
D03*
X290000Y65000D02*
D03*
X265000Y15000D02*
D03*
X240000Y365000D02*
D03*
X215000Y315000D02*
D03*
X240000Y65000D02*
D03*
X215000Y15000D02*
D03*
X190000Y365000D02*
D03*
X165000Y315000D02*
D03*
Y215000D02*
D03*
Y115000D02*
D03*
X190000Y65000D02*
D03*
X165000Y15000D02*
D03*
X115000Y315000D02*
D03*
Y215000D02*
D03*
X140000Y165000D02*
D03*
X115000Y115000D02*
D03*
X140000Y65000D02*
D03*
X115000Y15000D02*
D03*
X65000Y315000D02*
D03*
X90000Y165000D02*
D03*
X65000Y115000D02*
D03*
X90000Y65000D02*
D03*
X65000Y15000D02*
D03*
X15000Y315000D02*
D03*
X40000Y265000D02*
D03*
X15000Y215000D02*
D03*
X40000Y165000D02*
D03*
X15000Y115000D02*
D03*
X40000Y65000D02*
D03*
X131000Y27250D02*
D03*
X19250Y294500D02*
D03*
X131250Y114250D02*
D03*
X60500Y123250D02*
D03*
X312500Y337750D02*
D03*
X182000Y319500D02*
D03*
X409750Y120500D02*
D03*
X352250Y420750D02*
D03*
M02*
