G04*
G04 #@! TF.GenerationSoftware,Altium Limited,Altium Designer,21.6.4 (81)*
G04*
G04 Layer_Physical_Order=2*
G04 Layer_Color=16711680*
%FSLAX44Y44*%
%MOMM*%
G71*
G04*
G04 #@! TF.SameCoordinates,18438919-A3FB-418B-B37F-EB825DAFB3B7*
G04*
G04*
G04 #@! TF.FilePolarity,Positive*
G04*
G01*
G75*
%ADD15C,0.0600*%
%ADD16C,0.1100*%
%ADD17C,0.0700*%
%ADD18C,0.0127*%
%ADD19C,0.0254*%
%ADD20C,0.0762*%
%ADD35C,0.3000*%
%ADD36C,0.6000*%
%ADD37C,1.8000*%
%ADD38C,4.8000*%
%ADD39C,0.6000*%
G36*
X427451Y2549D02*
X2549D01*
Y427451D01*
X427451D01*
Y2549D01*
D02*
G37*
%LPC*%
G36*
X206750Y407472D02*
Y396750D01*
X217472D01*
X216648Y399825D01*
X215002Y402675D01*
X212675Y405003D01*
X209825Y406648D01*
X206750Y407472D01*
D02*
G37*
G36*
X203250D02*
X200175Y406648D01*
X197325Y405003D01*
X194998Y402675D01*
X193352Y399825D01*
X192528Y396750D01*
X203250D01*
Y407472D01*
D02*
G37*
G36*
X217472Y393250D02*
X206750D01*
Y382528D01*
X209825Y383352D01*
X212675Y384997D01*
X215002Y387325D01*
X216648Y390175D01*
X217472Y393250D01*
D02*
G37*
G36*
X203250D02*
X192528D01*
X193352Y390175D01*
X194998Y387325D01*
X197325Y384997D01*
X200175Y383352D01*
X203250Y382528D01*
Y393250D01*
D02*
G37*
G36*
X246448Y406000D02*
X243552D01*
X240754Y405250D01*
X238246Y403802D01*
X236198Y401754D01*
X234750Y399246D01*
X234000Y396448D01*
Y393552D01*
X234750Y390754D01*
X236198Y388246D01*
X238246Y386198D01*
X240754Y384750D01*
X243552Y384000D01*
X246448D01*
X249246Y384750D01*
X251754Y386198D01*
X253558Y388002D01*
X254991Y388050D01*
X308895Y334145D01*
X309313Y333866D01*
X309668Y333511D01*
X310132Y333319D01*
X310549Y333040D01*
X311042Y332942D01*
X311505Y332750D01*
X312008D01*
X312500Y332652D01*
X312992Y332750D01*
X313494D01*
X313958Y332942D01*
X314451Y333040D01*
X314868Y333319D01*
X315332Y333511D01*
X315687Y333866D01*
X316105Y334145D01*
X316384Y334563D01*
X316739Y334918D01*
X316931Y335382D01*
X317210Y335799D01*
X317308Y336292D01*
X317500Y336755D01*
Y337257D01*
X317598Y337750D01*
X317500Y338242D01*
Y338745D01*
X317308Y339208D01*
X317210Y339701D01*
X316931Y340118D01*
X316739Y340582D01*
X316384Y340937D01*
X316105Y341355D01*
X253105Y404355D01*
X251451Y405460D01*
X249500Y405848D01*
X248074Y405564D01*
X246448Y406000D01*
D02*
G37*
G36*
X388448Y288750D02*
X385552D01*
X382754Y288000D01*
X380246Y286552D01*
X378198Y284504D01*
X376750Y281996D01*
X376000Y279198D01*
Y276302D01*
X376750Y273504D01*
X378198Y270996D01*
X380246Y268948D01*
X382754Y267500D01*
X385552Y266750D01*
X388448D01*
X391246Y267500D01*
X393754Y268948D01*
X395802Y270996D01*
X397250Y273504D01*
X398000Y276302D01*
Y279198D01*
X397250Y281996D01*
X395802Y284504D01*
X393754Y286552D01*
X391246Y288000D01*
X388448Y288750D01*
D02*
G37*
G36*
X387000Y220722D02*
Y210000D01*
X397722D01*
X396898Y213075D01*
X395252Y215925D01*
X392925Y218253D01*
X390075Y219898D01*
X387000Y220722D01*
D02*
G37*
G36*
X383500D02*
X380425Y219898D01*
X377575Y218253D01*
X375247Y215925D01*
X373602Y213075D01*
X372778Y210000D01*
X383500D01*
Y220722D01*
D02*
G37*
G36*
X397722Y206500D02*
X387000D01*
Y195778D01*
X390075Y196602D01*
X392925Y198248D01*
X395252Y200575D01*
X396898Y203425D01*
X397722Y206500D01*
D02*
G37*
G36*
X383500D02*
X372778D01*
X373602Y203425D01*
X375247Y200575D01*
X377575Y198248D01*
X380425Y196602D01*
X383500Y195778D01*
Y206500D01*
D02*
G37*
G36*
X91698Y335250D02*
X88802D01*
X86004Y334500D01*
X83496Y333052D01*
X81448Y331004D01*
X80330Y329069D01*
X62337D01*
X60971Y328797D01*
X59814Y328023D01*
X29859Y298069D01*
X22752D01*
X22082Y298739D01*
X20245Y299500D01*
X18255D01*
X16418Y298739D01*
X15011Y297332D01*
X14250Y295495D01*
Y293505D01*
X15011Y291668D01*
X16418Y290261D01*
X18255Y289500D01*
X20245D01*
X22082Y290261D01*
X22752Y290931D01*
X31337D01*
X32703Y291203D01*
X33860Y291977D01*
X63815Y321931D01*
X79483D01*
X80000Y320004D01*
X81448Y317496D01*
X83496Y315448D01*
X86004Y314000D01*
X88802Y313250D01*
X91698D01*
X94496Y314000D01*
X97004Y315448D01*
X99052Y317496D01*
X100500Y320004D01*
X101017Y321931D01*
X176452D01*
X177158Y320875D01*
X177000Y320495D01*
Y318505D01*
X177761Y316668D01*
X178431Y315998D01*
Y218329D01*
X178703Y216964D01*
X179477Y215806D01*
X194806Y200476D01*
X195637Y199921D01*
X195788Y198542D01*
X195546Y198402D01*
X193498Y196354D01*
X192050Y193846D01*
X191300Y191048D01*
Y188152D01*
X192050Y185354D01*
X193498Y182846D01*
X195546Y180798D01*
X198054Y179350D01*
X200852Y178600D01*
X203748D01*
X206546Y179350D01*
X209054Y180798D01*
X211102Y182846D01*
X212550Y185354D01*
X213300Y188152D01*
Y191048D01*
X212550Y193846D01*
X211102Y196354D01*
X209295Y198161D01*
X209635Y199431D01*
X212822D01*
X217800Y194453D01*
X217450Y193846D01*
X216700Y191048D01*
Y188152D01*
X217450Y185354D01*
X218898Y182846D01*
X220946Y180798D01*
X223454Y179350D01*
X226252Y178600D01*
X229148D01*
X231946Y179350D01*
X234454Y180798D01*
X234958Y181302D01*
X236131Y180816D01*
Y172984D01*
X234958Y172498D01*
X234454Y173002D01*
X231946Y174450D01*
X229148Y175200D01*
X226252D01*
X223454Y174450D01*
X220946Y173002D01*
X218898Y170954D01*
X217450Y168446D01*
X216700Y165648D01*
Y162752D01*
X217450Y159954D01*
X218898Y157446D01*
X220946Y155398D01*
X223454Y153950D01*
X226252Y153200D01*
X229148D01*
X231483Y153826D01*
X232140Y152687D01*
X206272Y126819D01*
X64002D01*
X63332Y127489D01*
X61494Y128250D01*
X59505D01*
X57668Y127489D01*
X56261Y126082D01*
X55500Y124245D01*
Y122255D01*
X56261Y120418D01*
X57668Y119011D01*
X59505Y118250D01*
X61494D01*
X63332Y119011D01*
X64002Y119681D01*
X127978D01*
X128308Y118786D01*
X128340Y118411D01*
X128063Y118134D01*
X127645Y117855D01*
X127366Y117437D01*
X127011Y117082D01*
X126819Y116618D01*
X126540Y116201D01*
X126442Y115708D01*
X126250Y115245D01*
Y114742D01*
X126152Y114250D01*
Y28612D01*
X126000Y28245D01*
Y27743D01*
X125902Y27250D01*
X126000Y26758D01*
Y26255D01*
X126192Y25792D01*
X126290Y25299D01*
X126569Y24882D01*
X126761Y24418D01*
X127116Y24063D01*
X127395Y23645D01*
X127813Y23366D01*
X128168Y23011D01*
X128632Y22819D01*
X129049Y22540D01*
X129542Y22442D01*
X130005Y22250D01*
X130507D01*
X131000Y22152D01*
X131493Y22250D01*
X131995D01*
X132458Y22442D01*
X132951Y22540D01*
X133368Y22819D01*
X133832Y23011D01*
X134187Y23366D01*
X134605Y23645D01*
X134855Y23895D01*
X135134Y24313D01*
X135239Y24418D01*
X135296Y24555D01*
X135960Y25549D01*
X136348Y27500D01*
Y114250D01*
X136250Y114742D01*
Y115245D01*
X136058Y115708D01*
X135960Y116201D01*
X135681Y116618D01*
X135489Y117082D01*
X135134Y117437D01*
X134855Y117855D01*
X134437Y118134D01*
X134160Y118411D01*
X134192Y118786D01*
X134522Y119681D01*
X207750D01*
X209116Y119953D01*
X210273Y120727D01*
X242223Y152676D01*
X242997Y153834D01*
X243269Y155200D01*
Y228400D01*
X242997Y229765D01*
X242223Y230923D01*
X237600Y235547D01*
X237950Y236154D01*
X238700Y238952D01*
Y241848D01*
X237950Y244646D01*
X237600Y245253D01*
X257023Y264677D01*
X257797Y265834D01*
X258069Y267200D01*
Y292500D01*
X257797Y293866D01*
X257023Y295023D01*
X224023Y328023D01*
X222866Y328797D01*
X221500Y329069D01*
X100170D01*
X99052Y331004D01*
X97004Y333052D01*
X94496Y334500D01*
X91698Y335250D01*
D02*
G37*
G36*
X204050Y176672D02*
Y165950D01*
X214772D01*
X213948Y169025D01*
X212302Y171875D01*
X209975Y174202D01*
X207125Y175848D01*
X204050Y176672D01*
D02*
G37*
G36*
X200550D02*
X197475Y175848D01*
X194625Y174202D01*
X192297Y171875D01*
X190652Y169025D01*
X189828Y165950D01*
X200550D01*
Y176672D01*
D02*
G37*
G36*
X214772Y162450D02*
X204050D01*
Y151728D01*
X207125Y152552D01*
X209975Y154197D01*
X212302Y156525D01*
X213948Y159375D01*
X214772Y162450D01*
D02*
G37*
G36*
X200550D02*
X189828D01*
X190652Y159375D01*
X192297Y156525D01*
X194625Y154197D01*
X197475Y152552D01*
X200550Y151728D01*
Y162450D01*
D02*
G37*
G36*
X353245Y425750D02*
X351255D01*
X349418Y424989D01*
X348011Y423582D01*
X347250Y421745D01*
Y421297D01*
X334977Y409023D01*
X334203Y407866D01*
X333931Y406500D01*
Y303728D01*
X260977Y230773D01*
X260203Y229616D01*
X259931Y228250D01*
Y200032D01*
X259254Y199850D01*
X256746Y198402D01*
X254698Y196354D01*
X253250Y193846D01*
X252500Y191048D01*
Y188152D01*
X253250Y185354D01*
X254698Y182846D01*
X256746Y180798D01*
X259254Y179350D01*
X262052Y178600D01*
X264948D01*
X267746Y179350D01*
X270254Y180798D01*
X272302Y182846D01*
X273750Y185354D01*
X273932Y186031D01*
X355922D01*
X406181Y135772D01*
Y124003D01*
X405511Y123332D01*
X404750Y121495D01*
Y119505D01*
X405511Y117668D01*
X406918Y116261D01*
X408755Y115500D01*
X410745D01*
X412582Y116261D01*
X413989Y117668D01*
X414750Y119505D01*
Y121495D01*
X413989Y123332D01*
X413319Y124003D01*
Y137250D01*
X413047Y138616D01*
X412273Y139773D01*
X359923Y192123D01*
X358766Y192897D01*
X357400Y193169D01*
X273932D01*
X273750Y193846D01*
X272302Y196354D01*
X270254Y198402D01*
X267746Y199850D01*
X267069Y200032D01*
Y226772D01*
X340023Y299727D01*
X340797Y300884D01*
X341069Y302250D01*
Y405022D01*
X351797Y415750D01*
X353245D01*
X355082Y416511D01*
X356489Y417918D01*
X357250Y419755D01*
Y421745D01*
X356489Y423582D01*
X355082Y424989D01*
X353245Y425750D01*
D02*
G37*
G36*
X308948Y99250D02*
X306052D01*
X303254Y98500D01*
X300746Y97052D01*
X298698Y95004D01*
X297250Y92496D01*
X296500Y89698D01*
Y86802D01*
X297250Y84004D01*
X298698Y81496D01*
X300746Y79448D01*
X303254Y78000D01*
X306052Y77250D01*
X308948D01*
X311746Y78000D01*
X314254Y79448D01*
X316302Y81496D01*
X317750Y84004D01*
X318500Y86802D01*
Y89698D01*
X317750Y92496D01*
X316302Y95004D01*
X314254Y97052D01*
X311746Y98500D01*
X308948Y99250D01*
D02*
G37*
%LPD*%
G36*
X250931Y291022D02*
Y268678D01*
X232553Y250300D01*
X231946Y250650D01*
X229148Y251400D01*
X226252D01*
X223454Y250650D01*
X220946Y249202D01*
X218898Y247154D01*
X217450Y244646D01*
X216700Y241848D01*
Y238952D01*
X217450Y236154D01*
X218898Y233646D01*
X220946Y231598D01*
X223454Y230150D01*
X226252Y229400D01*
X229148D01*
X231946Y230150D01*
X232553Y230500D01*
X236131Y226922D01*
Y223784D01*
X234958Y223298D01*
X234454Y223802D01*
X231946Y225250D01*
X229148Y226000D01*
X226252D01*
X223454Y225250D01*
X220946Y223802D01*
X218898Y221754D01*
X217450Y219246D01*
X216700Y216448D01*
Y213552D01*
X217450Y210754D01*
X218898Y208246D01*
X220946Y206198D01*
X223454Y204750D01*
X226252Y204000D01*
X229148D01*
X231946Y204750D01*
X234454Y206198D01*
X234958Y206702D01*
X236131Y206216D01*
Y198384D01*
X234958Y197898D01*
X234454Y198402D01*
X231946Y199850D01*
X229148Y200600D01*
X226252D01*
X223454Y199850D01*
X222847Y199500D01*
X216823Y205523D01*
X215665Y206297D01*
X214300Y206569D01*
X211084D01*
X210598Y207742D01*
X211102Y208246D01*
X212550Y210754D01*
X213300Y213552D01*
Y216448D01*
X212550Y219246D01*
X211102Y221754D01*
X209054Y223802D01*
X206546Y225250D01*
X203748Y226000D01*
X200852D01*
X198054Y225250D01*
X195546Y223802D01*
X193498Y221754D01*
X192050Y219246D01*
X191300Y216448D01*
Y215735D01*
X190127Y215249D01*
X185569Y219807D01*
Y315998D01*
X186239Y316668D01*
X187000Y318505D01*
Y320495D01*
X186842Y320875D01*
X187548Y321931D01*
X220022D01*
X250931Y291022D01*
D02*
G37*
%LPC*%
G36*
X229148Y276800D02*
X226252D01*
X223454Y276050D01*
X220946Y274602D01*
X218898Y272554D01*
X217450Y270046D01*
X216700Y267248D01*
Y264352D01*
X217450Y261554D01*
X218898Y259046D01*
X220946Y256998D01*
X223454Y255550D01*
X226252Y254800D01*
X229148D01*
X231946Y255550D01*
X234454Y256998D01*
X236502Y259046D01*
X237950Y261554D01*
X238700Y264352D01*
Y267248D01*
X237950Y270046D01*
X236502Y272554D01*
X234454Y274602D01*
X231946Y276050D01*
X229148Y276800D01*
D02*
G37*
G36*
X203748D02*
X200852D01*
X198054Y276050D01*
X195546Y274602D01*
X193498Y272554D01*
X192050Y270046D01*
X191300Y267248D01*
Y264352D01*
X192050Y261554D01*
X193498Y259046D01*
X195546Y256998D01*
X198054Y255550D01*
X200852Y254800D01*
X203748D01*
X206546Y255550D01*
X209054Y256998D01*
X211102Y259046D01*
X212550Y261554D01*
X213300Y264352D01*
Y267248D01*
X212550Y270046D01*
X211102Y272554D01*
X209054Y274602D01*
X206546Y276050D01*
X203748Y276800D01*
D02*
G37*
G36*
Y251400D02*
X200852D01*
X198054Y250650D01*
X195546Y249202D01*
X193498Y247154D01*
X192050Y244646D01*
X191300Y241848D01*
Y238952D01*
X192050Y236154D01*
X193498Y233646D01*
X195546Y231598D01*
X198054Y230150D01*
X200852Y229400D01*
X203748D01*
X206546Y230150D01*
X209054Y231598D01*
X211102Y233646D01*
X212550Y236154D01*
X213300Y238952D01*
Y241848D01*
X212550Y244646D01*
X211102Y247154D01*
X209054Y249202D01*
X206546Y250650D01*
X203748Y251400D01*
D02*
G37*
%LPD*%
D15*
X27083Y77582D02*
X27499Y77166D01*
Y76333D01*
X27083Y75916D01*
X25417D01*
X25000Y76333D01*
Y77166D01*
X25417Y77582D01*
X27083D01*
X25000Y75083D02*
X27499D01*
Y73833D01*
X27083Y73417D01*
X26250D01*
X25833Y73833D01*
Y75083D01*
Y74250D02*
X25000Y73417D01*
X69332Y71417D02*
X68916Y71001D01*
X68083D01*
X67666Y71417D01*
Y73084D01*
X68083Y73500D01*
X68916D01*
X69332Y73084D01*
Y71417D01*
X66833Y73500D02*
Y71001D01*
X65583D01*
X65167Y71417D01*
Y72250D01*
X65583Y72667D01*
X66833D01*
X66000D02*
X65167Y73500D01*
X364833Y68082D02*
X365249Y67666D01*
Y66833D01*
X364833Y66416D01*
X363167D01*
X362750Y66833D01*
Y67666D01*
X363167Y68082D01*
X364833D01*
X362750Y65583D02*
X365249D01*
Y64333D01*
X364833Y63917D01*
X364000D01*
X363583Y64333D01*
Y65583D01*
Y64750D02*
X362750Y63917D01*
X410833Y77582D02*
X411249Y77166D01*
Y76333D01*
X410833Y75916D01*
X409166D01*
X408750Y76333D01*
Y77166D01*
X409166Y77582D01*
X410833D01*
X408750Y75083D02*
X411249D01*
Y73833D01*
X410833Y73417D01*
X410000D01*
X409583Y73833D01*
Y75083D01*
Y74250D02*
X408750Y73417D01*
X84082Y419417D02*
X83666Y419001D01*
X82833D01*
X82416Y419417D01*
Y421083D01*
X82833Y421500D01*
X83666D01*
X84082Y421083D01*
Y419417D01*
X81583Y421500D02*
Y419001D01*
X80333D01*
X79917Y419417D01*
Y420250D01*
X80333Y420667D01*
X81583D01*
X80750D02*
X79917Y421500D01*
X4917Y361168D02*
X4501Y361584D01*
Y362417D01*
X4917Y362834D01*
X6583D01*
X7000Y362417D01*
Y361584D01*
X6583Y361168D01*
X4917D01*
X7000Y363667D02*
X4501D01*
Y364916D01*
X4917Y365333D01*
X5750D01*
X6167Y364916D01*
Y363667D01*
Y364500D02*
X7000Y365333D01*
X353918Y402333D02*
X354334Y402749D01*
X355167D01*
X355584Y402333D01*
Y400667D01*
X355167Y400250D01*
X354334D01*
X353918Y400667D01*
Y402333D01*
X356417Y400250D02*
Y402749D01*
X357667D01*
X358083Y402333D01*
Y401500D01*
X357667Y401083D01*
X356417D01*
X357250D02*
X358083Y400250D01*
X396418Y421833D02*
X396834Y422249D01*
X397667D01*
X398084Y421833D01*
Y420167D01*
X397667Y419750D01*
X396834D01*
X396418Y420167D01*
Y421833D01*
X398917Y419750D02*
Y422249D01*
X400167D01*
X400583Y421833D01*
Y421000D01*
X400167Y420583D01*
X398917D01*
X399750D02*
X400583Y419750D01*
D16*
X345001Y43997D02*
Y42664D01*
Y43331D01*
X348999D01*
X348333Y43997D01*
Y40665D02*
X348999Y39998D01*
Y38665D01*
X348333Y37999D01*
X345667D01*
X345001Y38665D01*
Y39998D01*
X345667Y40665D01*
X348333D01*
Y36666D02*
X348999Y36000D01*
Y34667D01*
X348333Y34000D01*
X345667D01*
X345001Y34667D01*
Y36000D01*
X345667Y36666D01*
X348333D01*
X345001Y32667D02*
X347667D01*
Y30668D01*
X347000Y30002D01*
X345001D01*
X348999Y26003D02*
Y28669D01*
X347000D01*
Y27336D01*
Y28669D01*
X345001D01*
X41998Y353999D02*
X40665D01*
X41331D01*
Y350001D01*
X41998Y350667D01*
X38665D02*
X37999Y350001D01*
X36666D01*
X36000Y350667D01*
Y353333D01*
X36666Y353999D01*
X37999D01*
X38665Y353333D01*
Y350667D01*
X34667Y351334D02*
Y353333D01*
X34000Y353999D01*
X32001D01*
Y351334D01*
X28002Y350001D02*
X30668D01*
Y352000D01*
X29335D01*
X30668D01*
Y353999D01*
X43997Y366999D02*
X42664D01*
X43331D01*
Y363001D01*
X43997Y363667D01*
X40665D02*
X39998Y363001D01*
X38665D01*
X37999Y363667D01*
Y366333D01*
X38665Y366999D01*
X39998D01*
X40665Y366333D01*
Y363667D01*
X36666D02*
X36000Y363001D01*
X34667D01*
X34000Y363667D01*
Y366333D01*
X34667Y366999D01*
X36000D01*
X36666Y366333D01*
Y363667D01*
X32667Y366999D02*
Y364333D01*
X30668D01*
X30002Y365000D01*
Y366999D01*
X26003Y363001D02*
X28669D01*
Y365000D01*
X27336D01*
X28669D01*
Y366999D01*
X68001Y41998D02*
Y40665D01*
Y41331D01*
X71999D01*
X71333Y41998D01*
Y38665D02*
X71999Y37999D01*
Y36666D01*
X71333Y36000D01*
X68667D01*
X68001Y36666D01*
Y37999D01*
X68667Y38665D01*
X71333D01*
X70666Y34667D02*
X68667D01*
X68001Y34000D01*
Y32001D01*
X70666D01*
X71999Y28002D02*
Y30668D01*
X70000D01*
Y29335D01*
Y30668D01*
X68001D01*
X403997Y366999D02*
X402664D01*
X403331D01*
Y363001D01*
X403997Y363667D01*
X400665D02*
X399998Y363001D01*
X398665D01*
X397999Y363667D01*
Y366333D01*
X398665Y366999D01*
X399998D01*
X400665Y366333D01*
Y363667D01*
X396666D02*
X396000Y363001D01*
X394667D01*
X394000Y363667D01*
Y366333D01*
X394667Y366999D01*
X396000D01*
X396666Y366333D01*
Y363667D01*
X392667Y366999D02*
Y364333D01*
X390668D01*
X390002Y365000D01*
Y366999D01*
X386003Y363001D02*
X388669D01*
Y365000D01*
X387336D01*
X388669D01*
Y366999D01*
X358001Y41998D02*
Y40665D01*
Y41331D01*
X361999D01*
X361333Y41998D01*
Y38665D02*
X361999Y37999D01*
Y36666D01*
X361333Y36000D01*
X358667D01*
X358001Y36666D01*
Y37999D01*
X358667Y38665D01*
X361333D01*
X360667Y34667D02*
X358667D01*
X358001Y34000D01*
Y32001D01*
X360667D01*
X361999Y28002D02*
Y30668D01*
X360000D01*
Y29335D01*
Y30668D01*
X358001D01*
X81001Y43997D02*
Y42664D01*
Y43331D01*
X84999D01*
X84333Y43997D01*
Y40665D02*
X84999Y39998D01*
Y38665D01*
X84333Y37999D01*
X81667D01*
X81001Y38665D01*
Y39998D01*
X81667Y40665D01*
X84333D01*
Y36666D02*
X84999Y36000D01*
Y34667D01*
X84333Y34000D01*
X81667D01*
X81001Y34667D01*
Y36000D01*
X81667Y36666D01*
X84333D01*
X81001Y32667D02*
X83666D01*
Y30668D01*
X83000Y30002D01*
X81001D01*
X84999Y26003D02*
Y28669D01*
X83000D01*
Y27336D01*
Y28669D01*
X81001D01*
X401998Y353999D02*
X400665D01*
X401331D01*
Y350001D01*
X401998Y350667D01*
X398666D02*
X397999Y350001D01*
X396666D01*
X396000Y350667D01*
Y353333D01*
X396666Y353999D01*
X397999D01*
X398666Y353333D01*
Y350667D01*
X394667Y351334D02*
Y353333D01*
X394000Y353999D01*
X392001D01*
Y351334D01*
X388002Y350001D02*
X390668D01*
Y352000D01*
X389335D01*
X390668D01*
Y353999D01*
D17*
X260501Y190749D02*
X258502D01*
Y189250D01*
X259501Y189750D01*
X260001D01*
X260501Y189250D01*
Y188250D01*
X260001Y187750D01*
X259002D01*
X258502Y188250D01*
X261501Y190250D02*
X262001Y190749D01*
X263000D01*
X263500Y190250D01*
Y188250D01*
X263000Y187750D01*
X262001D01*
X261501Y188250D01*
Y190250D01*
X264500D02*
X265000Y190749D01*
X265999D01*
X266499Y190250D01*
Y188250D01*
X265999Y187750D01*
X265000D01*
X264500Y188250D01*
Y190250D01*
X267499Y187750D02*
X268498D01*
X267999D01*
Y190749D01*
X267499Y190250D01*
X384001Y279249D02*
X382002D01*
Y277750D01*
X383001Y278250D01*
X383501D01*
X384001Y277750D01*
Y276750D01*
X383501Y276250D01*
X382501D01*
X382002Y276750D01*
X385001Y278750D02*
X385500Y279249D01*
X386500D01*
X387000Y278750D01*
Y276750D01*
X386500Y276250D01*
X385500D01*
X385001Y276750D01*
Y278750D01*
X388000D02*
X388499Y279249D01*
X389499D01*
X389999Y278750D01*
Y276750D01*
X389499Y276250D01*
X388499D01*
X388000Y276750D01*
Y278750D01*
X390999Y276250D02*
X391998D01*
X391499D01*
Y279249D01*
X390999Y278750D01*
X382251Y209750D02*
X380252D01*
Y208250D01*
X381251Y208750D01*
X381751D01*
X382251Y208250D01*
Y207250D01*
X381751Y206751D01*
X380751D01*
X380252Y207250D01*
X383251Y209250D02*
X383750Y209750D01*
X384750D01*
X385250Y209250D01*
Y207250D01*
X384750Y206751D01*
X383750D01*
X383251Y207250D01*
Y209250D01*
X386250D02*
X386749Y209750D01*
X387749D01*
X388249Y209250D01*
Y207250D01*
X387749Y206751D01*
X386749D01*
X386250Y207250D01*
Y209250D01*
X389249Y206751D02*
X390248D01*
X389749D01*
Y209750D01*
X389249Y209250D01*
X242001Y396499D02*
X240002D01*
Y395000D01*
X241001Y395500D01*
X241501D01*
X242001Y395000D01*
Y394000D01*
X241501Y393501D01*
X240501D01*
X240002Y394000D01*
X243001Y396000D02*
X243500Y396499D01*
X244500D01*
X245000Y396000D01*
Y394000D01*
X244500Y393501D01*
X243500D01*
X243001Y394000D01*
Y396000D01*
X246000D02*
X246500Y396499D01*
X247499D01*
X247999Y396000D01*
Y394000D01*
X247499Y393501D01*
X246500D01*
X246000Y394000D01*
Y396000D01*
X248999Y393501D02*
X249998D01*
X249499D01*
Y396499D01*
X248999Y396000D01*
X304501Y89749D02*
X302502D01*
Y88250D01*
X303501Y88750D01*
X304001D01*
X304501Y88250D01*
Y87250D01*
X304001Y86750D01*
X303001D01*
X302502Y87250D01*
X305501Y89250D02*
X306000Y89749D01*
X307000D01*
X307500Y89250D01*
Y87250D01*
X307000Y86750D01*
X306000D01*
X305501Y87250D01*
Y89250D01*
X308500D02*
X309000Y89749D01*
X309999D01*
X310499Y89250D01*
Y87250D01*
X309999Y86750D01*
X309000D01*
X308500Y87250D01*
Y89250D01*
X311499Y86750D02*
X312498D01*
X311999D01*
Y89749D01*
X311499Y89250D01*
X202001Y396499D02*
X200002D01*
Y395000D01*
X201001Y395500D01*
X201501D01*
X202001Y395000D01*
Y394000D01*
X201501Y393501D01*
X200501D01*
X200002Y394000D01*
X203001Y396000D02*
X203500Y396499D01*
X204500D01*
X205000Y396000D01*
Y394000D01*
X204500Y393501D01*
X203500D01*
X203001Y394000D01*
Y396000D01*
X206000D02*
X206500Y396499D01*
X207499D01*
X207999Y396000D01*
Y394000D01*
X207499Y393501D01*
X206500D01*
X206000Y394000D01*
Y396000D01*
X208999Y393501D02*
X209998D01*
X209499D01*
Y396499D01*
X208999Y396000D01*
X87251Y325750D02*
X85252D01*
Y324250D01*
X86251Y324750D01*
X86751D01*
X87251Y324250D01*
Y323250D01*
X86751Y322751D01*
X85751D01*
X85252Y323250D01*
X88251Y325250D02*
X88750Y325750D01*
X89750D01*
X90250Y325250D01*
Y323250D01*
X89750Y322751D01*
X88750D01*
X88251Y323250D01*
Y325250D01*
X91250D02*
X91749Y325750D01*
X92749D01*
X93249Y325250D01*
Y323250D01*
X92749Y322751D01*
X91749D01*
X91250Y323250D01*
Y325250D01*
X94249Y322751D02*
X95248D01*
X94749D01*
Y325750D01*
X94249Y325250D01*
D18*
X102950Y324250D02*
G03*
X102950Y324250I-12700J0D01*
G01*
X81400Y322700D02*
G03*
X82400Y321700I1000J0D01*
G01*
X98100D02*
G03*
X99100Y322700I0J1000D01*
G01*
X82400Y326800D02*
G03*
X81400Y325800I0J-1000D01*
G01*
X99100D02*
G03*
X98100Y326800I-1000J0D01*
G01*
X146750Y368000D02*
G03*
X146750Y368000I-27000J0D01*
G01*
X86250Y210250D02*
G03*
X86250Y210250I-27000J0D01*
G01*
X257700Y395000D02*
G03*
X257700Y395000I-12700J0D01*
G01*
X236150Y393450D02*
G03*
X237150Y392450I1000J0D01*
G01*
X252850D02*
G03*
X253850Y393450I0J1000D01*
G01*
X237150Y397550D02*
G03*
X236150Y396550I0J-1000D01*
G01*
X253850D02*
G03*
X252850Y397550I-1000J0D01*
G01*
X217700Y395000D02*
G03*
X217700Y395000I-12700J0D01*
G01*
X196150Y393450D02*
G03*
X197150Y392450I1000J0D01*
G01*
X212850D02*
G03*
X213850Y393450I0J1000D01*
G01*
X197150Y397550D02*
G03*
X196150Y396550I0J-1000D01*
G01*
X213850D02*
G03*
X212850Y397550I-1000J0D01*
G01*
X320200Y88250D02*
G03*
X320200Y88250I-12700J0D01*
G01*
X298650Y86700D02*
G03*
X299650Y85700I1000J0D01*
G01*
X315350D02*
G03*
X316350Y86700I0J1000D01*
G01*
X299650Y90800D02*
G03*
X298650Y89800I0J-1000D01*
G01*
X316350D02*
G03*
X315350Y90800I-1000J0D01*
G01*
X272350Y190800D02*
G03*
X271350Y191800I-1000J0D01*
G01*
X255650D02*
G03*
X254650Y190800I0J-1000D01*
G01*
X271350Y186700D02*
G03*
X272350Y187700I0J1000D01*
G01*
X254650D02*
G03*
X255650Y186700I1000J0D01*
G01*
X276200Y189250D02*
G03*
X276200Y189250I-12700J0D01*
G01*
X394100Y209800D02*
G03*
X393100Y210800I-1000J0D01*
G01*
X377400D02*
G03*
X376400Y209800I0J-1000D01*
G01*
X393100Y205700D02*
G03*
X394100Y206700I0J1000D01*
G01*
X376400D02*
G03*
X377400Y205700I1000J0D01*
G01*
X397950Y208250D02*
G03*
X397950Y208250I-12700J0D01*
G01*
X395850Y279300D02*
G03*
X394850Y280300I-1000J0D01*
G01*
X379150D02*
G03*
X378150Y279300I0J-1000D01*
G01*
X394850Y275200D02*
G03*
X395850Y276200I0J1000D01*
G01*
X378150D02*
G03*
X379150Y275200I1000J0D01*
G01*
X399700Y277750D02*
G03*
X399700Y277750I-12700J0D01*
G01*
X23800Y80500D02*
G03*
X23750Y80450I0J-50D01*
G01*
X28750D02*
G03*
X28700Y80500I-50J0D01*
G01*
X23750Y70550D02*
G03*
X23800Y70500I50J0D01*
G01*
X28700D02*
G03*
X28750Y70550I0J50D01*
G01*
X72250Y74700D02*
G03*
X72200Y74750I-50J0D01*
G01*
Y69750D02*
G03*
X72250Y69800I0J50D01*
G01*
X62300Y74750D02*
G03*
X62250Y74700I0J-50D01*
G01*
Y69800D02*
G03*
X62300Y69750I50J0D01*
G01*
X8200Y358250D02*
G03*
X8250Y358300I0J50D01*
G01*
X3250D02*
G03*
X3300Y358250I50J0D01*
G01*
X8250Y368200D02*
G03*
X8200Y368250I-50J0D01*
G01*
X3300D02*
G03*
X3250Y368200I0J-50D01*
G01*
X393500Y418550D02*
G03*
X393550Y418500I50J0D01*
G01*
Y423500D02*
G03*
X393500Y423450I0J-50D01*
G01*
X403450Y418500D02*
G03*
X403500Y418550I0J50D01*
G01*
Y423450D02*
G03*
X403450Y423500I-50J0D01*
G01*
X407550Y80500D02*
G03*
X407500Y80450I0J-50D01*
G01*
X412500D02*
G03*
X412450Y80500I-50J0D01*
G01*
X407500Y70550D02*
G03*
X407550Y70500I50J0D01*
G01*
X412450D02*
G03*
X412500Y70550I0J50D01*
G01*
X361550Y71000D02*
G03*
X361500Y70950I0J-50D01*
G01*
X366500D02*
G03*
X366450Y71000I-50J0D01*
G01*
X361500Y61050D02*
G03*
X361550Y61000I50J0D01*
G01*
X366450D02*
G03*
X366500Y61050I0J50D01*
G01*
X351000Y399050D02*
G03*
X351050Y399000I50J0D01*
G01*
Y404000D02*
G03*
X351000Y403950I0J-50D01*
G01*
X360950Y399000D02*
G03*
X361000Y399050I0J50D01*
G01*
Y403950D02*
G03*
X360950Y404000I-50J0D01*
G01*
X87000Y422700D02*
G03*
X86950Y422750I-50J0D01*
G01*
Y417750D02*
G03*
X87000Y417800I0J50D01*
G01*
X77050Y422750D02*
G03*
X77000Y422700I0J-50D01*
G01*
Y417800D02*
G03*
X77050Y417750I50J0D01*
G01*
X81400Y322700D02*
Y325800D01*
X99100Y322700D02*
Y325800D01*
X82400Y321700D02*
X98100D01*
X82400Y326800D02*
X98100D01*
X81400Y322700D02*
X99100D01*
X81400Y325800D02*
X99100D01*
X27000Y361000D02*
Y369000D01*
X31000D01*
Y361000D02*
Y369000D01*
X27000Y361000D02*
X31000D01*
X43000D02*
Y369000D01*
X39000D02*
X43000D01*
X39000Y361000D02*
Y369000D01*
Y361000D02*
X43000D01*
X31000Y361100D02*
X39000D01*
X31000Y368900D02*
X39000D01*
X108059Y374750D02*
X119750Y381500D01*
X108059Y361250D02*
X119750Y354500D01*
Y381500D02*
X131441Y374750D01*
X119750Y354500D02*
X131441Y361250D01*
Y374750D01*
X108059Y361250D02*
Y374750D01*
X47559Y217000D02*
X59250Y223750D01*
X47559Y203500D02*
X59250Y196750D01*
Y223750D02*
X70941Y217000D01*
X59250Y196750D02*
X70941Y203500D01*
Y217000D01*
X47559Y203500D02*
Y217000D01*
X236150Y393450D02*
Y396550D01*
X253850Y393450D02*
Y396550D01*
X237150Y392450D02*
X252850D01*
X237150Y397550D02*
X252850D01*
X236150Y393450D02*
X253850D01*
X236150Y396550D02*
X253850D01*
X196150Y393450D02*
Y396550D01*
X213850Y393450D02*
Y396550D01*
X197150Y392450D02*
X212850D01*
X197150Y397550D02*
X212850D01*
X196150Y393450D02*
X213850D01*
X196150Y396550D02*
X213850D01*
X298650Y86700D02*
Y89800D01*
X316350Y86700D02*
Y89800D01*
X299650Y85700D02*
X315350D01*
X299650Y90800D02*
X315350D01*
X298650Y86700D02*
X316350D01*
X298650Y89800D02*
X316350D01*
X254650Y190800D02*
X272350D01*
X254650Y187700D02*
X272350D01*
X255650Y191800D02*
X271350D01*
X255650Y186700D02*
X271350D01*
X272350Y187700D02*
Y190800D01*
X254650Y187700D02*
Y190800D01*
X376400Y209800D02*
X394100D01*
X376400Y206700D02*
X394100D01*
X377400Y210800D02*
X393100D01*
X377400Y205700D02*
X393100D01*
X394100Y206700D02*
Y209800D01*
X376400Y206700D02*
Y209800D01*
X378150Y279300D02*
X395850D01*
X378150Y276200D02*
X395850D01*
X379150Y280300D02*
X394850D01*
X379150Y275200D02*
X394850D01*
X395850Y276200D02*
Y279300D01*
X378150Y276200D02*
Y279300D01*
X79100Y31000D02*
Y39000D01*
X86900Y31000D02*
Y39000D01*
X87000D02*
Y43000D01*
X79000Y39000D02*
X87000D01*
X79000D02*
Y43000D01*
X87000D01*
Y27000D02*
Y31000D01*
X79000D02*
X87000D01*
X79000Y27000D02*
Y31000D01*
Y27000D02*
X87000D01*
X66100Y31000D02*
Y39000D01*
X73900Y31000D02*
Y39000D01*
X74000D02*
Y43000D01*
X66000Y39000D02*
X74000D01*
X66000D02*
Y43000D01*
X74000D01*
Y27000D02*
Y31000D01*
X66000D02*
X74000D01*
X66000Y27000D02*
Y31000D01*
Y27000D02*
X74000D01*
X23800Y80500D02*
X28700D01*
X23750Y78050D02*
X28750D01*
X23800Y70500D02*
X28700D01*
X23750Y72950D02*
X28750D01*
X23750Y70550D02*
Y80450D01*
X28750Y70550D02*
Y80450D01*
X72250Y69800D02*
Y74700D01*
X69800Y69750D02*
Y74750D01*
X62250Y69800D02*
Y74700D01*
X64700Y69750D02*
Y74750D01*
X62300D02*
X72200D01*
X62300Y69750D02*
X72200D01*
X3300Y358250D02*
X8200D01*
X3250Y360700D02*
X8250D01*
X3300Y368250D02*
X8200D01*
X3250Y365800D02*
X8250D01*
Y358300D02*
Y368200D01*
X3250Y358300D02*
Y368200D01*
X393500Y418550D02*
Y423450D01*
X395950Y418500D02*
Y423500D01*
X403500Y418550D02*
Y423450D01*
X401050Y418500D02*
Y423500D01*
X393550Y418500D02*
X403450D01*
X393550Y423500D02*
X403450D01*
X407550Y80500D02*
X412450D01*
X407500Y78050D02*
X412500D01*
X407550Y70500D02*
X412450D01*
X407500Y72950D02*
X412500D01*
X407500Y70550D02*
Y80450D01*
X412500Y70550D02*
Y80450D01*
X361550Y71000D02*
X366450D01*
X361500Y68550D02*
X366500D01*
X361550Y61000D02*
X366450D01*
X361500Y63450D02*
X366500D01*
X361500Y61050D02*
Y70950D01*
X366500Y61050D02*
Y70950D01*
X351000Y399050D02*
Y403950D01*
X353450Y399000D02*
Y404000D01*
X361000Y399050D02*
Y403950D01*
X358550Y399000D02*
Y404000D01*
X351050Y399000D02*
X360950D01*
X351050Y404000D02*
X360950D01*
X87000Y417800D02*
Y422700D01*
X84550Y417750D02*
Y422750D01*
X77000Y417800D02*
Y422700D01*
X79450Y417750D02*
Y422750D01*
X77050D02*
X86950D01*
X77050Y417750D02*
X86950D01*
X356100Y31000D02*
Y39000D01*
X363900Y31000D02*
Y39000D01*
X364000D02*
Y43000D01*
X356000Y39000D02*
X364000D01*
X356000D02*
Y43000D01*
X364000D01*
Y27000D02*
Y31000D01*
X356000D02*
X364000D01*
X356000Y27000D02*
Y31000D01*
Y27000D02*
X364000D01*
X343100Y31000D02*
Y39000D01*
X350900Y31000D02*
Y39000D01*
X351000D02*
Y43000D01*
X343000Y39000D02*
X351000D01*
X343000D02*
Y43000D01*
X351000D01*
Y27000D02*
Y31000D01*
X343000D02*
X351000D01*
X343000Y27000D02*
Y31000D01*
Y27000D02*
X351000D01*
X391000Y355900D02*
X399000D01*
X391000Y348100D02*
X399000D01*
Y348000D02*
X403000D01*
X399000D02*
Y356000D01*
X403000D01*
Y348000D02*
Y356000D01*
X387000Y348000D02*
X391000D01*
Y356000D01*
X387000D02*
X391000D01*
X387000Y348000D02*
Y356000D01*
X391000Y368900D02*
X399000D01*
X391000Y361100D02*
X399000D01*
Y361000D02*
X403000D01*
X399000D02*
Y369000D01*
X403000D01*
Y361000D02*
Y369000D01*
X387000Y361000D02*
X391000D01*
Y369000D01*
X387000D02*
X391000D01*
X387000Y361000D02*
Y369000D01*
X31000Y355900D02*
X39000D01*
X31000Y348100D02*
X39000D01*
Y348000D02*
X43000D01*
X39000D02*
Y356000D01*
X43000D01*
Y348000D02*
Y356000D01*
X27000Y348000D02*
X31000D01*
Y356000D01*
X27000D02*
X31000D01*
X27000Y348000D02*
Y356000D01*
D19*
X28999Y32524D02*
G03*
X28999Y32524I-762J0D01*
G01*
X14553Y31952D02*
G03*
X14553Y38048I0J3048D01*
G01*
X388999Y32524D02*
G03*
X388999Y32524I-762J0D01*
G01*
X374553Y31952D02*
G03*
X374553Y38048I0J3048D01*
G01*
X28999Y392523D02*
G03*
X28999Y392523I-762J0D01*
G01*
X14553Y391952D02*
G03*
X14553Y398048I0J3048D01*
G01*
X388999Y392523D02*
G03*
X388999Y392523I-762J0D01*
G01*
X374553Y391952D02*
G03*
X374553Y398048I0J3048D01*
G01*
X55447Y19506D02*
Y50494D01*
X14553D02*
X55447D01*
X14553Y19506D02*
Y50494D01*
Y19506D02*
X55447D01*
X415447D02*
Y50494D01*
X374553D02*
X415447D01*
X374553Y19506D02*
Y50494D01*
Y19506D02*
X415447D01*
X55447Y379506D02*
Y410494D01*
X14553D02*
X55447D01*
X14553Y379506D02*
Y410494D01*
Y379506D02*
X55447D01*
X415447D02*
Y410494D01*
X374553D02*
X415447D01*
X374553Y379506D02*
Y410494D01*
Y379506D02*
X415447D01*
D20*
X41350Y75D02*
X28654D01*
X32886Y4307D01*
X28654Y8539D01*
X41350D01*
X28654Y12771D02*
Y17003D01*
Y14887D01*
X41350D01*
Y12771D01*
Y17003D01*
X30770Y31815D02*
X28654Y29699D01*
Y25467D01*
X30770Y23351D01*
X39234D01*
X41350Y25467D01*
Y29699D01*
X39234Y31815D01*
X30770Y36047D02*
X28654Y38163D01*
Y42395D01*
X30770Y44511D01*
X32886D01*
X35002Y42395D01*
Y40279D01*
Y42395D01*
X37118Y44511D01*
X39234D01*
X41350Y42395D01*
Y38163D01*
X39234Y36047D01*
X13283Y386533D02*
Y399229D01*
X17515Y394997D01*
X21747Y399229D01*
Y386533D01*
X25979Y399229D02*
X30211D01*
X28095D01*
Y386533D01*
X25979D01*
X30211D01*
X45023Y397113D02*
X42906Y399229D01*
X38675D01*
X36559Y397113D01*
Y388649D01*
X38675Y386533D01*
X42906D01*
X45023Y388649D01*
X55602Y386533D02*
Y399229D01*
X49254Y392881D01*
X57718D01*
X371250Y389250D02*
Y401946D01*
X375482Y397714D01*
X379714Y401946D01*
Y389250D01*
X383946Y401946D02*
X388178D01*
X386062D01*
Y389250D01*
X383946D01*
X388178D01*
X402990Y399830D02*
X400874Y401946D01*
X396642D01*
X394526Y399830D01*
Y391366D01*
X396642Y389250D01*
X400874D01*
X402990Y391366D01*
X415686Y389250D02*
X407222D01*
X415686Y397714D01*
Y399830D01*
X413570Y401946D01*
X409338D01*
X407222Y399830D01*
D35*
X60500Y123250D02*
X207750D01*
X239700Y155200D02*
Y228400D01*
X207750Y123250D02*
X239700Y155200D01*
X227700Y240400D02*
X254500Y267200D01*
Y292500D01*
X221500Y325500D02*
X254500Y292500D01*
X227700Y240400D02*
X227700D01*
X62337Y325500D02*
X90250D01*
X221500D01*
X197329Y203000D02*
X214300D01*
X182000Y218329D02*
X197329Y203000D01*
X182000Y218329D02*
Y319500D01*
X214300Y203000D02*
X227700Y189600D01*
Y240400D02*
X239700Y228400D01*
X19250Y294500D02*
X31337D01*
X62337Y325500D01*
X357400Y189600D02*
X409750Y137250D01*
Y120500D02*
Y137250D01*
X351750Y420750D02*
X352250D01*
X337500Y406500D02*
X351750Y420750D01*
X337500Y302250D02*
Y406500D01*
X263500Y228250D02*
X337500Y302250D01*
X263500Y189600D02*
Y228250D01*
Y189600D02*
X357400D01*
D36*
X131000Y27250D02*
X131250Y27500D01*
Y114250D01*
X249500Y400750D02*
X312500Y337750D01*
D37*
X202300Y164200D02*
D03*
Y265800D02*
D03*
Y240400D02*
D03*
Y215000D02*
D03*
Y189600D02*
D03*
X227700Y240400D02*
D03*
Y215000D02*
D03*
Y189600D02*
D03*
Y265800D02*
D03*
Y164200D02*
D03*
X90250Y324250D02*
D03*
X245000Y395000D02*
D03*
X205000D02*
D03*
X307500Y88250D02*
D03*
X263500Y189600D02*
D03*
X385250Y208250D02*
D03*
X387000Y277750D02*
D03*
D38*
X119750Y368000D02*
D03*
X59250Y210250D02*
D03*
D39*
X365000Y315000D02*
D03*
Y115000D02*
D03*
X390000Y65000D02*
D03*
X365000Y15000D02*
D03*
X315000Y315000D02*
D03*
X340000Y265000D02*
D03*
X315000Y215000D02*
D03*
X340000Y165000D02*
D03*
Y65000D02*
D03*
X315000Y15000D02*
D03*
X265000Y315000D02*
D03*
X290000Y265000D02*
D03*
X265000Y115000D02*
D03*
X290000Y65000D02*
D03*
X265000Y15000D02*
D03*
X240000Y365000D02*
D03*
X215000Y315000D02*
D03*
X240000Y65000D02*
D03*
X215000Y15000D02*
D03*
X190000Y365000D02*
D03*
X165000Y315000D02*
D03*
Y215000D02*
D03*
Y115000D02*
D03*
X190000Y65000D02*
D03*
X165000Y15000D02*
D03*
X115000Y315000D02*
D03*
Y215000D02*
D03*
X140000Y165000D02*
D03*
X115000Y115000D02*
D03*
X140000Y65000D02*
D03*
X115000Y15000D02*
D03*
X65000Y315000D02*
D03*
X90000Y165000D02*
D03*
X65000Y115000D02*
D03*
X90000Y65000D02*
D03*
X65000Y15000D02*
D03*
X15000Y315000D02*
D03*
X40000Y265000D02*
D03*
X15000Y215000D02*
D03*
X40000Y165000D02*
D03*
X15000Y115000D02*
D03*
X40000Y65000D02*
D03*
X131000Y27250D02*
D03*
X19250Y294500D02*
D03*
X131250Y114250D02*
D03*
X60500Y123250D02*
D03*
X312500Y337750D02*
D03*
X182000Y319500D02*
D03*
X409750Y120500D02*
D03*
X352250Y420750D02*
D03*
M02*
