M48
;Layer_Color=9474304
;FILE_FORMAT=4:4
METRIC,LZ
;TYPE=PLATED
T1F00S00C0.3000
T2F00S00C1.0000
T3F00S00C3.2000
%
T01
X00065Y00015
X00115
X00131Y0002725
X00165Y00015
X00215
X00265
X0029Y00065
X0024
X0019
X0014
X0009
X0004
X00065Y00115
X000605Y0012325
X00015Y00115
X0004Y00165
X0009
X0014
X0013125Y0011425
X00115Y00115
X00165
X00265
X0029Y00265
X00165Y00215
X00115
X00015
X0004Y00265
X0001925Y002945
X0034Y00265
X00315Y00215
X0034Y00165
X00365Y00115
X0040975Y001205
X0039Y00065
X0034
X00365Y00015
X00315
Y00315
X003125Y0033775
X00365Y00315
X0035225Y0042075
X0024Y00365
X0019
X00182Y003195
X00165Y00315
X00215
X00265
X00115
X00065
X00015
T02
X002023Y001642
Y001896
Y00215
Y002404
Y002658
X002277
Y002404
Y00215
Y001896
Y001642
X002635Y001896
X003075Y0008825
X0038525Y0020825
X00387Y0027775
X00245Y00395
X00205
X0009025Y0032425
T03
X0005925Y0021025
X0011975Y00368
M30
