%TF.GenerationSoftware,Altium Limited,Altium Designer,21.6.4 (81)*%
G04 Layer_Color=32768*
%FSLAX45Y45*%
%MOMM*%
%TF.SameCoordinates,7929FA66-B327-4B03-B2B1-7C6E8A9D7EF4*%
%TF.FilePolarity,Positive*%
%TF.FileFunction,Other,PCB_Contour*%
%TF.Part,Single*%
%TFFileComment,PewCB.BlankType,3x3Base*%
G01*
G75*
%TA.AperFunction,NonConductor*%
%ADD18C,0.15240*%
G36*
X2667000Y-2667000D02*
X-2667000D01*
Y2286000D01*
Y2290156D01*
X-2666819Y2298467D01*
X-2666456Y2306771D01*
X-2665913Y2315066D01*
X-2665188Y2323347D01*
X-2664283Y2331610D01*
X-2663198Y2339851D01*
X-2661934Y2348067D01*
X-2660490Y2356253D01*
X-2658868Y2364406D01*
X-2657069Y2372521D01*
X-2655093Y2380595D01*
X-2652942Y2388625D01*
X-2650616Y2396605D01*
X-2648116Y2404533D01*
X-2645445Y2412404D01*
X-2642602Y2420215D01*
X-2639589Y2427962D01*
X-2636408Y2435642D01*
X-2633060Y2443251D01*
X-2629547Y2450784D01*
X-2625870Y2458239D01*
X-2622032Y2465613D01*
X-2618034Y2472901D01*
X-2613878Y2480099D01*
X-2609566Y2487206D01*
X-2605099Y2494216D01*
X-2600481Y2501128D01*
X-2595713Y2507937D01*
X-2590798Y2514641D01*
X-2585738Y2521235D01*
X-2580535Y2527718D01*
X-2575191Y2534086D01*
X-2569711Y2540336D01*
X-2564095Y2546464D01*
X-2558347Y2552469D01*
X-2552469Y2558346D01*
X-2546464Y2564095D01*
X-2540336Y2569710D01*
X-2534086Y2575191D01*
X-2527718Y2580534D01*
X-2521235Y2585737D01*
X-2514641Y2590798D01*
X-2507937Y2595713D01*
X-2501128Y2600481D01*
X-2494216Y2605099D01*
X-2487206Y2609565D01*
X-2480099Y2613877D01*
X-2472901Y2618034D01*
X-2465613Y2622032D01*
X-2458240Y2625870D01*
X-2450785Y2629547D01*
X-2443251Y2633060D01*
X-2435642Y2636407D01*
X-2427963Y2639589D01*
X-2420215Y2642601D01*
X-2412404Y2645444D01*
X-2404533Y2648116D01*
X-2396605Y2650616D01*
X-2388625Y2652942D01*
X-2380596Y2655093D01*
X-2372521Y2657069D01*
X-2364406Y2658868D01*
X-2356253Y2660490D01*
X-2348067Y2661933D01*
X-2339851Y2663198D01*
X-2331610Y2664283D01*
X-2323347Y2665188D01*
X-2315066Y2665912D01*
X-2306771Y2666456D01*
X-2298467Y2666819D01*
X-2290156Y2667000D01*
X2667000D01*
Y-2667000D01*
D02*
G37*
D18*
X-1570130Y-2180340D02*
Y-1819660D01*
X-1659982D02*
X-1570130D01*
X-2029870D02*
X-1940017D01*
X-2029870Y-2180340D02*
Y-1819660D01*
Y-2180340D02*
X-1940017D01*
X-1659982D02*
X-1570130D01*
X-1940017Y-1819660D02*
X-1659982D01*
X-1940017Y-2180340D02*
X-1659982D01*
X1659982D02*
X1940017D01*
X1659982Y-1819660D02*
X1940017D01*
Y-2180340D02*
X2029870D01*
X1570130D02*
X1659982D01*
X1570130D02*
Y-1819660D01*
X1659982D01*
X1940017D02*
X2029870D01*
Y-2180340D02*
Y-1819660D01*
X-1940017Y1419660D02*
X-1659982D01*
X-1940017Y1780340D02*
X-1659982D01*
Y1419660D02*
X-1570130D01*
X-2029870D02*
X-1940017D01*
X-2029870D02*
Y1780340D01*
X-1940017D01*
X-1659982D02*
X-1570130D01*
Y1419660D02*
Y1780340D01*
X2029870Y1419660D02*
Y1780340D01*
X1940017D02*
X2029870D01*
X1570130D02*
X1659982D01*
X1570130Y1419660D02*
Y1780340D01*
Y1419660D02*
X1659982D01*
X1940017D02*
X2029870D01*
X1659982Y1780340D02*
X1940017D01*
X1659982Y1419660D02*
X1940017D01*
%TF.MD5,1f1eaffd69ef1d2ff69217dd5d82664d*%
M02*
