%TF.GenerationSoftware,Altium Limited,Altium Designer,21.6.4 (81)*%
G04 Layer_Physical_Order=2*
G04 Layer_Color=16711680*
%FSLAX45Y45*%
%MOMM*%
%TF.SameCoordinates,CE7E344D-0350-4870-A94A-7B3C8A625D11*%
%TF.FilePolarity,Positive*%
%TF.FileFunction,Copper,L2,Bot,Signal*%
%TF.Part,Single*%
%TFFileComment,PewCB.BlankType,3x3Base*%
G01*
G75*
%TA.AperFunction,Conductor*%
%ADD17C,0.15000*%
%ADD18C,0.30000*%
%TA.AperFunction,ViaPad*%
%ADD22C,1.80000*%
%ADD23C,4.40000*%
%ADD24C,0.60000*%
%TA.AperFunction,Conductor*%
%ADD25C,0.20000*%
G36*
X2667000Y-2667000D02*
X-2667000D01*
Y2286000D01*
Y2290156D01*
X-2666819Y2298467D01*
X-2666456Y2306771D01*
X-2665913Y2315066D01*
X-2665188Y2323347D01*
X-2664283Y2331610D01*
X-2663198Y2339851D01*
X-2661934Y2348067D01*
X-2660490Y2356253D01*
X-2658868Y2364406D01*
X-2657069Y2372521D01*
X-2655093Y2380595D01*
X-2652942Y2388625D01*
X-2650616Y2396605D01*
X-2648116Y2404533D01*
X-2645445Y2412404D01*
X-2642602Y2420215D01*
X-2639589Y2427962D01*
X-2636408Y2435642D01*
X-2633060Y2443251D01*
X-2629547Y2450784D01*
X-2625870Y2458239D01*
X-2622032Y2465613D01*
X-2618034Y2472901D01*
X-2613878Y2480099D01*
X-2609566Y2487206D01*
X-2605099Y2494216D01*
X-2600481Y2501128D01*
X-2595713Y2507937D01*
X-2590798Y2514641D01*
X-2585738Y2521235D01*
X-2580535Y2527718D01*
X-2575191Y2534086D01*
X-2569711Y2540336D01*
X-2564095Y2546464D01*
X-2558347Y2552469D01*
X-2552469Y2558346D01*
X-2546464Y2564095D01*
X-2540336Y2569710D01*
X-2534086Y2575191D01*
X-2527718Y2580534D01*
X-2521235Y2585737D01*
X-2514641Y2590798D01*
X-2507937Y2595713D01*
X-2501128Y2600481D01*
X-2494216Y2605099D01*
X-2487206Y2609565D01*
X-2480099Y2613877D01*
X-2472901Y2618034D01*
X-2465613Y2622032D01*
X-2458240Y2625870D01*
X-2450785Y2629547D01*
X-2443251Y2633060D01*
X-2435642Y2636407D01*
X-2427963Y2639589D01*
X-2420215Y2642601D01*
X-2412404Y2645444D01*
X-2404533Y2648116D01*
X-2396605Y2650616D01*
X-2388625Y2652942D01*
X-2380596Y2655093D01*
X-2372521Y2657069D01*
X-2364406Y2658868D01*
X-2356253Y2660490D01*
X-2348067Y2661933D01*
X-2339851Y2663198D01*
X-2331610Y2664283D01*
X-2323347Y2665188D01*
X-2315066Y2665912D01*
X-2306771Y2666456D01*
X-2298467Y2666819D01*
X-2290156Y2667000D01*
X2667000D01*
Y-2667000D01*
D02*
G37*
%LPC*%
G36*
X381000Y2523009D02*
X378120Y2522972D01*
X375243Y2522859D01*
X372369Y2522670D01*
X369501Y2522407D01*
X366641Y2522068D01*
X363791Y2521655D01*
X360953Y2521167D01*
X358128Y2520606D01*
X355319Y2519970D01*
X352528Y2519261D01*
X349756Y2518479D01*
X347005Y2517625D01*
X344278Y2516700D01*
X341576Y2515703D01*
X338901Y2514636D01*
X336255Y2513499D01*
X333640Y2512293D01*
X331057Y2511019D01*
X328508Y2509678D01*
X325995Y2508271D01*
X323520Y2506798D01*
X321085Y2505262D01*
X318690Y2503662D01*
X316338Y2502000D01*
X314031Y2500276D01*
X311769Y2498493D01*
X309555Y2496652D01*
X307390Y2494753D01*
X305275Y2492798D01*
X303212Y2490789D01*
X301202Y2488726D01*
X299247Y2486611D01*
X297348Y2484445D01*
X295507Y2482231D01*
X293724Y2479970D01*
X292001Y2477662D01*
X290339Y2475310D01*
X288739Y2472916D01*
X287202Y2470480D01*
X285729Y2468005D01*
X284322Y2465492D01*
X282981Y2462943D01*
X281707Y2460360D01*
X280502Y2457745D01*
X279365Y2455099D01*
X278298Y2452424D01*
X277301Y2449722D01*
X276375Y2446995D01*
X275521Y2444245D01*
X274739Y2441473D01*
X274030Y2438681D01*
X273395Y2435872D01*
X272833Y2433048D01*
X272345Y2430210D01*
X271932Y2427359D01*
X271594Y2424499D01*
X271330Y2421631D01*
X271142Y2418758D01*
X271028Y2415880D01*
X270991Y2413000D01*
X271028Y2410121D01*
X271142Y2407243D01*
X271330Y2404369D01*
X271594Y2401501D01*
X271932Y2398641D01*
X272345Y2395791D01*
X272833Y2392953D01*
X273395Y2390128D01*
X274030Y2387319D01*
X274739Y2384528D01*
X275521Y2381756D01*
X276375Y2379006D01*
X277301Y2376278D01*
X278298Y2373576D01*
X279365Y2370902D01*
X280502Y2368256D01*
X281707Y2365640D01*
X282981Y2363057D01*
X284322Y2360508D01*
X285729Y2357996D01*
X287202Y2355521D01*
X288739Y2353085D01*
X290339Y2350690D01*
X292001Y2348338D01*
X293724Y2346031D01*
X295507Y2343769D01*
X297348Y2341555D01*
X299247Y2339390D01*
X301202Y2337275D01*
X303212Y2335212D01*
X305275Y2333202D01*
X307390Y2331248D01*
X309555Y2329349D01*
X311769Y2327507D01*
X314031Y2325724D01*
X316338Y2324001D01*
X318690Y2322339D01*
X321085Y2320739D01*
X323520Y2319202D01*
X325995Y2317729D01*
X328508Y2316322D01*
X331057Y2314981D01*
X333640Y2313708D01*
X336255Y2312502D01*
X338901Y2311365D01*
X341576Y2310298D01*
X344278Y2309301D01*
X347005Y2308375D01*
X349756Y2307521D01*
X352528Y2306740D01*
X355319Y2306031D01*
X358128Y2305395D01*
X360953Y2304833D01*
X363791Y2304345D01*
X366641Y2303932D01*
X369501Y2303594D01*
X372369Y2303330D01*
X375243Y2303142D01*
X378120Y2303029D01*
X381000Y2302991D01*
X383880Y2303029D01*
X386757Y2303142D01*
X389631Y2303330D01*
X392499Y2303594D01*
X395359Y2303932D01*
X398209Y2304345D01*
X401047Y2304833D01*
X403872Y2305395D01*
X406681Y2306031D01*
X409472Y2306740D01*
X412244Y2307521D01*
X414995Y2308375D01*
X417722Y2309301D01*
X420424Y2310298D01*
X423099Y2311365D01*
X425745Y2312502D01*
X428360Y2313708D01*
X430943Y2314981D01*
X433492Y2316322D01*
X436005Y2317729D01*
X438480Y2319202D01*
X440915Y2320739D01*
X443310Y2322339D01*
X445662Y2324001D01*
X447969Y2325724D01*
X450231Y2327507D01*
X452445Y2329349D01*
X454610Y2331248D01*
X456725Y2333202D01*
X458788Y2335212D01*
X460798Y2337275D01*
X462753Y2339390D01*
X464652Y2341555D01*
X466493Y2343769D01*
X468276Y2346031D01*
X469999Y2348338D01*
X471661Y2350690D01*
X473261Y2353085D01*
X474798Y2355521D01*
X476271Y2357996D01*
X477678Y2360508D01*
X479019Y2363057D01*
X480293Y2365640D01*
X481498Y2368256D01*
X482635Y2370902D01*
X483702Y2373576D01*
X484699Y2376278D01*
X485625Y2379006D01*
X486479Y2381756D01*
X487261Y2384528D01*
X487970Y2387319D01*
X488605Y2390128D01*
X489167Y2392953D01*
X489655Y2395791D01*
X490068Y2398641D01*
X490406Y2401501D01*
X490670Y2404369D01*
X490858Y2407243D01*
X490972Y2410121D01*
X491009Y2413000D01*
X490972Y2415880D01*
X490858Y2418758D01*
X490670Y2421631D01*
X490406Y2424499D01*
X490068Y2427359D01*
X489655Y2430210D01*
X489167Y2433048D01*
X488605Y2435872D01*
X487970Y2438681D01*
X487261Y2441473D01*
X486479Y2444245D01*
X485625Y2446995D01*
X484699Y2449722D01*
X483702Y2452424D01*
X482635Y2455099D01*
X481498Y2457745D01*
X480293Y2460360D01*
X479019Y2462943D01*
X477678Y2465492D01*
X476271Y2468005D01*
X474798Y2470480D01*
X473261Y2472916D01*
X471661Y2475310D01*
X469999Y2477662D01*
X468276Y2479970D01*
X466493Y2482231D01*
X464652Y2484445D01*
X462753Y2486611D01*
X460798Y2488726D01*
X458788Y2490789D01*
X456725Y2492798D01*
X454610Y2494753D01*
X452445Y2496652D01*
X450231Y2498493D01*
X447969Y2500276D01*
X445662Y2502000D01*
X443310Y2503662D01*
X440915Y2505262D01*
X438480Y2506798D01*
X436005Y2508271D01*
X433492Y2509678D01*
X430943Y2511019D01*
X428360Y2512293D01*
X425745Y2513499D01*
X423099Y2514636D01*
X420424Y2515703D01*
X417722Y2516700D01*
X414995Y2517625D01*
X412244Y2518479D01*
X409472Y2519261D01*
X406681Y2519970D01*
X403872Y2520606D01*
X401047Y2521167D01*
X398209Y2521655D01*
X395359Y2522068D01*
X392499Y2522407D01*
X389631Y2522670D01*
X386757Y2522859D01*
X383880Y2522972D01*
X381000Y2523009D01*
D02*
G37*
G36*
X1905000Y2523009D02*
X1902120Y2522972D01*
X1899243Y2522858D01*
X1896369Y2522670D01*
X1893501Y2522406D01*
X1890641Y2522068D01*
X1887791Y2521655D01*
X1884953Y2521167D01*
X1882128Y2520605D01*
X1879319Y2519970D01*
X1876528Y2519261D01*
X1873756Y2518479D01*
X1871005Y2517625D01*
X1868278Y2516699D01*
X1865576Y2515702D01*
X1862901Y2514635D01*
X1860255Y2513498D01*
X1857640Y2512293D01*
X1855057Y2511019D01*
X1852508Y2509678D01*
X1849995Y2508271D01*
X1847520Y2506798D01*
X1845085Y2505261D01*
X1842690Y2503661D01*
X1840338Y2501999D01*
X1838031Y2500276D01*
X1835769Y2498493D01*
X1833555Y2496652D01*
X1831390Y2494753D01*
X1829275Y2492798D01*
X1827212Y2490788D01*
X1825202Y2488725D01*
X1823247Y2486610D01*
X1821348Y2484445D01*
X1819507Y2482231D01*
X1817724Y2479969D01*
X1816001Y2477662D01*
X1814339Y2475310D01*
X1812739Y2472915D01*
X1811202Y2470480D01*
X1809729Y2468005D01*
X1808322Y2465492D01*
X1806981Y2462943D01*
X1805707Y2460360D01*
X1804502Y2457745D01*
X1803365Y2455099D01*
X1802298Y2452424D01*
X1801301Y2449722D01*
X1800375Y2446995D01*
X1799521Y2444244D01*
X1798739Y2441472D01*
X1798030Y2438681D01*
X1797395Y2435872D01*
X1796833Y2433047D01*
X1796345Y2430209D01*
X1795932Y2427359D01*
X1795594Y2424499D01*
X1795330Y2421631D01*
X1795142Y2418757D01*
X1795028Y2415880D01*
X1794991Y2413000D01*
X1795028Y2410120D01*
X1795142Y2407243D01*
X1795330Y2404369D01*
X1795594Y2401501D01*
X1795932Y2398641D01*
X1796345Y2395791D01*
X1796833Y2392953D01*
X1797395Y2390128D01*
X1798030Y2387319D01*
X1798739Y2384528D01*
X1799521Y2381756D01*
X1800375Y2379005D01*
X1801301Y2376278D01*
X1802298Y2373576D01*
X1803365Y2370901D01*
X1804502Y2368255D01*
X1805707Y2365640D01*
X1806981Y2363057D01*
X1808322Y2360508D01*
X1809729Y2357995D01*
X1811202Y2355520D01*
X1812739Y2353085D01*
X1814339Y2350690D01*
X1816001Y2348338D01*
X1817724Y2346031D01*
X1819507Y2343769D01*
X1821348Y2341555D01*
X1823247Y2339390D01*
X1825202Y2337275D01*
X1827212Y2335212D01*
X1829275Y2333202D01*
X1831390Y2331247D01*
X1833555Y2329348D01*
X1835769Y2327507D01*
X1838031Y2325724D01*
X1840338Y2324001D01*
X1842690Y2322339D01*
X1845085Y2320739D01*
X1847520Y2319202D01*
X1849995Y2317729D01*
X1852508Y2316322D01*
X1855057Y2314981D01*
X1857640Y2313707D01*
X1860255Y2312502D01*
X1862901Y2311365D01*
X1865576Y2310298D01*
X1868278Y2309301D01*
X1871005Y2308375D01*
X1873756Y2307521D01*
X1876528Y2306739D01*
X1879319Y2306030D01*
X1882128Y2305395D01*
X1884953Y2304833D01*
X1887791Y2304345D01*
X1890641Y2303932D01*
X1893501Y2303594D01*
X1896369Y2303330D01*
X1899243Y2303142D01*
X1902120Y2303028D01*
X1905000Y2302991D01*
X1907880Y2303028D01*
X1910757Y2303142D01*
X1913631Y2303330D01*
X1916499Y2303594D01*
X1919359Y2303932D01*
X1922209Y2304345D01*
X1925047Y2304833D01*
X1927872Y2305395D01*
X1930681Y2306030D01*
X1933472Y2306739D01*
X1936244Y2307521D01*
X1938995Y2308375D01*
X1941722Y2309301D01*
X1944424Y2310298D01*
X1947099Y2311365D01*
X1949745Y2312502D01*
X1952360Y2313707D01*
X1954943Y2314981D01*
X1957492Y2316322D01*
X1960005Y2317729D01*
X1962480Y2319202D01*
X1964915Y2320739D01*
X1967310Y2322339D01*
X1969662Y2324001D01*
X1971969Y2325724D01*
X1974231Y2327507D01*
X1976445Y2329348D01*
X1978610Y2331247D01*
X1980725Y2333202D01*
X1982788Y2335212D01*
X1984798Y2337275D01*
X1986753Y2339390D01*
X1988652Y2341555D01*
X1990493Y2343769D01*
X1992276Y2346031D01*
X1993999Y2348338D01*
X1995661Y2350690D01*
X1997261Y2353085D01*
X1998798Y2355520D01*
X2000271Y2357995D01*
X2001678Y2360508D01*
X2003019Y2363057D01*
X2004293Y2365640D01*
X2005498Y2368255D01*
X2006635Y2370901D01*
X2007702Y2373576D01*
X2008699Y2376278D01*
X2009625Y2379005D01*
X2010479Y2381756D01*
X2011261Y2384528D01*
X2011970Y2387319D01*
X2012605Y2390128D01*
X2013167Y2392953D01*
X2013655Y2395791D01*
X2014068Y2398641D01*
X2014406Y2401501D01*
X2014670Y2404369D01*
X2014858Y2407243D01*
X2014972Y2410120D01*
X2015009Y2413000D01*
X2014972Y2415880D01*
X2014858Y2418757D01*
X2014670Y2421631D01*
X2014406Y2424499D01*
X2014068Y2427359D01*
X2013655Y2430209D01*
X2013167Y2433047D01*
X2012605Y2435872D01*
X2011970Y2438681D01*
X2011261Y2441472D01*
X2010479Y2444244D01*
X2009625Y2446995D01*
X2008699Y2449722D01*
X2007702Y2452424D01*
X2006635Y2455099D01*
X2005498Y2457745D01*
X2004293Y2460360D01*
X2003019Y2462943D01*
X2001678Y2465492D01*
X2000271Y2468005D01*
X1998798Y2470480D01*
X1997261Y2472915D01*
X1995661Y2475310D01*
X1993999Y2477662D01*
X1992276Y2479969D01*
X1990493Y2482231D01*
X1988652Y2484445D01*
X1986753Y2486610D01*
X1984798Y2488725D01*
X1982788Y2490788D01*
X1980725Y2492798D01*
X1978610Y2494753D01*
X1976445Y2496652D01*
X1974231Y2498493D01*
X1971969Y2500276D01*
X1969662Y2501999D01*
X1967310Y2503661D01*
X1964915Y2505261D01*
X1962480Y2506798D01*
X1960005Y2508271D01*
X1957492Y2509678D01*
X1954943Y2511019D01*
X1952360Y2512293D01*
X1949745Y2513498D01*
X1947099Y2514635D01*
X1944424Y2515702D01*
X1941722Y2516699D01*
X1938995Y2517625D01*
X1936244Y2518479D01*
X1933472Y2519261D01*
X1930681Y2519970D01*
X1927872Y2520605D01*
X1925047Y2521167D01*
X1922209Y2521655D01*
X1919359Y2522068D01*
X1916499Y2522406D01*
X1913631Y2522670D01*
X1910757Y2522858D01*
X1907880Y2522972D01*
X1905000Y2523009D01*
D02*
G37*
G36*
X1651000D02*
X1648121Y2522972D01*
X1645243Y2522858D01*
X1642369Y2522670D01*
X1639501Y2522406D01*
X1636641Y2522068D01*
X1633791Y2521655D01*
X1630953Y2521167D01*
X1628128Y2520605D01*
X1625319Y2519970D01*
X1622528Y2519261D01*
X1619756Y2518479D01*
X1617006Y2517625D01*
X1614278Y2516699D01*
X1611576Y2515702D01*
X1608902Y2514635D01*
X1606256Y2513498D01*
X1603640Y2512293D01*
X1601057Y2511019D01*
X1598508Y2509678D01*
X1595996Y2508271D01*
X1593521Y2506798D01*
X1591085Y2505261D01*
X1588690Y2503661D01*
X1586338Y2501999D01*
X1584031Y2500276D01*
X1581769Y2498493D01*
X1579555Y2496652D01*
X1577390Y2494753D01*
X1575275Y2492798D01*
X1573212Y2490788D01*
X1571202Y2488725D01*
X1569248Y2486610D01*
X1567349Y2484445D01*
X1565507Y2482231D01*
X1563724Y2479969D01*
X1562001Y2477662D01*
X1560339Y2475310D01*
X1558739Y2472915D01*
X1557202Y2470480D01*
X1555729Y2468005D01*
X1554322Y2465492D01*
X1552981Y2462943D01*
X1551708Y2460360D01*
X1550502Y2457745D01*
X1549365Y2455099D01*
X1548298Y2452424D01*
X1547301Y2449722D01*
X1546375Y2446995D01*
X1545521Y2444244D01*
X1544740Y2441472D01*
X1544031Y2438681D01*
X1543395Y2435872D01*
X1542833Y2433047D01*
X1542345Y2430209D01*
X1541932Y2427359D01*
X1541594Y2424499D01*
X1541330Y2421631D01*
X1541142Y2418757D01*
X1541029Y2415880D01*
X1540991Y2413000D01*
X1541029Y2410120D01*
X1541142Y2407243D01*
X1541330Y2404369D01*
X1541594Y2401501D01*
X1541932Y2398641D01*
X1542345Y2395791D01*
X1542833Y2392953D01*
X1543395Y2390128D01*
X1544031Y2387319D01*
X1544740Y2384528D01*
X1545521Y2381756D01*
X1546375Y2379005D01*
X1547301Y2376278D01*
X1548298Y2373576D01*
X1549365Y2370901D01*
X1550502Y2368255D01*
X1551708Y2365640D01*
X1552981Y2363057D01*
X1554322Y2360508D01*
X1555729Y2357995D01*
X1557202Y2355520D01*
X1558739Y2353085D01*
X1560339Y2350690D01*
X1562001Y2348338D01*
X1563724Y2346031D01*
X1565507Y2343769D01*
X1567349Y2341555D01*
X1569248Y2339390D01*
X1571202Y2337275D01*
X1573212Y2335212D01*
X1575275Y2333202D01*
X1577390Y2331247D01*
X1579555Y2329348D01*
X1581769Y2327507D01*
X1584031Y2325724D01*
X1586338Y2324001D01*
X1588690Y2322339D01*
X1591085Y2320739D01*
X1593521Y2319202D01*
X1595996Y2317729D01*
X1598508Y2316322D01*
X1601057Y2314981D01*
X1603640Y2313707D01*
X1606256Y2312502D01*
X1608902Y2311365D01*
X1611576Y2310298D01*
X1614278Y2309301D01*
X1617006Y2308375D01*
X1619756Y2307521D01*
X1622528Y2306739D01*
X1625319Y2306030D01*
X1628128Y2305395D01*
X1630953Y2304833D01*
X1633791Y2304345D01*
X1636641Y2303932D01*
X1639501Y2303594D01*
X1642369Y2303330D01*
X1645243Y2303142D01*
X1648121Y2303028D01*
X1651000Y2302991D01*
X1653880Y2303028D01*
X1656758Y2303142D01*
X1659631Y2303330D01*
X1662499Y2303594D01*
X1665359Y2303932D01*
X1668210Y2304345D01*
X1671048Y2304833D01*
X1673872Y2305395D01*
X1676681Y2306030D01*
X1679473Y2306739D01*
X1682245Y2307521D01*
X1684995Y2308375D01*
X1687722Y2309301D01*
X1690424Y2310298D01*
X1693099Y2311365D01*
X1695745Y2312502D01*
X1698360Y2313707D01*
X1700943Y2314981D01*
X1703492Y2316322D01*
X1706005Y2317729D01*
X1708480Y2319202D01*
X1710916Y2320739D01*
X1713310Y2322339D01*
X1715662Y2324001D01*
X1717970Y2325724D01*
X1720231Y2327507D01*
X1722445Y2329348D01*
X1724611Y2331247D01*
X1726726Y2333202D01*
X1728789Y2335212D01*
X1730798Y2337275D01*
X1732753Y2339390D01*
X1734652Y2341555D01*
X1736493Y2343769D01*
X1738276Y2346031D01*
X1740000Y2348338D01*
X1741662Y2350690D01*
X1743262Y2353085D01*
X1744798Y2355520D01*
X1746271Y2357995D01*
X1747678Y2360508D01*
X1749019Y2363057D01*
X1750293Y2365640D01*
X1751499Y2368255D01*
X1752636Y2370901D01*
X1753703Y2373576D01*
X1754700Y2376278D01*
X1755625Y2379005D01*
X1756479Y2381756D01*
X1757261Y2384528D01*
X1757970Y2387319D01*
X1758606Y2390128D01*
X1759167Y2392953D01*
X1759655Y2395791D01*
X1760068Y2398641D01*
X1760407Y2401501D01*
X1760670Y2404369D01*
X1760859Y2407243D01*
X1760972Y2410120D01*
X1761009Y2413000D01*
X1760972Y2415880D01*
X1760859Y2418757D01*
X1760670Y2421631D01*
X1760407Y2424499D01*
X1760068Y2427359D01*
X1759655Y2430209D01*
X1759167Y2433047D01*
X1758606Y2435872D01*
X1757970Y2438681D01*
X1757261Y2441472D01*
X1756479Y2444244D01*
X1755625Y2446995D01*
X1754700Y2449722D01*
X1753703Y2452424D01*
X1752636Y2455099D01*
X1751499Y2457745D01*
X1750293Y2460360D01*
X1749019Y2462943D01*
X1747678Y2465492D01*
X1746271Y2468005D01*
X1744798Y2470480D01*
X1743262Y2472915D01*
X1741662Y2475310D01*
X1740000Y2477662D01*
X1738276Y2479969D01*
X1736493Y2482231D01*
X1734652Y2484445D01*
X1732753Y2486610D01*
X1730798Y2488725D01*
X1728789Y2490788D01*
X1726726Y2492798D01*
X1724611Y2494753D01*
X1722445Y2496652D01*
X1720231Y2498493D01*
X1717970Y2500276D01*
X1715662Y2501999D01*
X1713310Y2503661D01*
X1710916Y2505261D01*
X1708480Y2506798D01*
X1706005Y2508271D01*
X1703492Y2509678D01*
X1700943Y2511019D01*
X1698360Y2512293D01*
X1695745Y2513498D01*
X1693099Y2514635D01*
X1690424Y2515702D01*
X1687722Y2516699D01*
X1684995Y2517625D01*
X1682245Y2518479D01*
X1679473Y2519261D01*
X1676681Y2519970D01*
X1673872Y2520605D01*
X1671048Y2521167D01*
X1668210Y2521655D01*
X1665359Y2522068D01*
X1662499Y2522406D01*
X1659631Y2522670D01*
X1656758Y2522858D01*
X1653880Y2522972D01*
X1651000Y2523009D01*
D02*
G37*
G36*
X1397000D02*
X1394120Y2522972D01*
X1391243Y2522858D01*
X1388369Y2522670D01*
X1385501Y2522406D01*
X1382641Y2522068D01*
X1379791Y2521655D01*
X1376953Y2521167D01*
X1374128Y2520605D01*
X1371319Y2519970D01*
X1368528Y2519261D01*
X1365756Y2518479D01*
X1363005Y2517625D01*
X1360278Y2516699D01*
X1357576Y2515702D01*
X1354901Y2514635D01*
X1352255Y2513498D01*
X1349640Y2512293D01*
X1347057Y2511019D01*
X1344508Y2509678D01*
X1341995Y2508271D01*
X1339520Y2506798D01*
X1337085Y2505261D01*
X1334690Y2503661D01*
X1332338Y2501999D01*
X1330031Y2500276D01*
X1327769Y2498493D01*
X1325555Y2496652D01*
X1323390Y2494753D01*
X1321275Y2492798D01*
X1319212Y2490788D01*
X1317202Y2488725D01*
X1315247Y2486610D01*
X1313348Y2484445D01*
X1311507Y2482231D01*
X1309724Y2479969D01*
X1308001Y2477662D01*
X1306339Y2475310D01*
X1304739Y2472915D01*
X1303202Y2470480D01*
X1301729Y2468005D01*
X1300322Y2465492D01*
X1298981Y2462943D01*
X1297707Y2460360D01*
X1296502Y2457745D01*
X1295365Y2455099D01*
X1294298Y2452424D01*
X1293301Y2449722D01*
X1292375Y2446995D01*
X1291521Y2444244D01*
X1290739Y2441472D01*
X1290030Y2438681D01*
X1289395Y2435872D01*
X1288833Y2433047D01*
X1288345Y2430209D01*
X1287932Y2427359D01*
X1287594Y2424499D01*
X1287330Y2421631D01*
X1287142Y2418757D01*
X1287028Y2415880D01*
X1286991Y2413000D01*
X1287028Y2410120D01*
X1287142Y2407243D01*
X1287330Y2404369D01*
X1287594Y2401501D01*
X1287932Y2398641D01*
X1288345Y2395791D01*
X1288833Y2392953D01*
X1289395Y2390128D01*
X1290030Y2387319D01*
X1290739Y2384528D01*
X1291521Y2381756D01*
X1292375Y2379005D01*
X1293301Y2376278D01*
X1294298Y2373576D01*
X1295365Y2370901D01*
X1296502Y2368255D01*
X1297707Y2365640D01*
X1298981Y2363057D01*
X1300322Y2360508D01*
X1301729Y2357995D01*
X1303202Y2355520D01*
X1304739Y2353085D01*
X1306339Y2350690D01*
X1308001Y2348338D01*
X1309724Y2346031D01*
X1311507Y2343769D01*
X1313348Y2341555D01*
X1315247Y2339390D01*
X1317202Y2337275D01*
X1319212Y2335212D01*
X1321275Y2333202D01*
X1323390Y2331247D01*
X1325555Y2329348D01*
X1327769Y2327507D01*
X1330031Y2325724D01*
X1332338Y2324001D01*
X1334690Y2322339D01*
X1337085Y2320739D01*
X1339520Y2319202D01*
X1341995Y2317729D01*
X1344508Y2316322D01*
X1347057Y2314981D01*
X1349640Y2313707D01*
X1352255Y2312502D01*
X1354901Y2311365D01*
X1357576Y2310298D01*
X1360278Y2309301D01*
X1363005Y2308375D01*
X1365756Y2307521D01*
X1368528Y2306739D01*
X1371319Y2306030D01*
X1374128Y2305395D01*
X1376953Y2304833D01*
X1379791Y2304345D01*
X1382641Y2303932D01*
X1385501Y2303594D01*
X1388369Y2303330D01*
X1391243Y2303142D01*
X1394120Y2303028D01*
X1397000Y2302991D01*
X1399880Y2303028D01*
X1402757Y2303142D01*
X1405631Y2303330D01*
X1408499Y2303594D01*
X1411359Y2303932D01*
X1414209Y2304345D01*
X1417047Y2304833D01*
X1419872Y2305395D01*
X1422681Y2306030D01*
X1425472Y2306739D01*
X1428244Y2307521D01*
X1430995Y2308375D01*
X1433722Y2309301D01*
X1436424Y2310298D01*
X1439099Y2311365D01*
X1441745Y2312502D01*
X1444360Y2313707D01*
X1446943Y2314981D01*
X1449492Y2316322D01*
X1452005Y2317729D01*
X1454480Y2319202D01*
X1456915Y2320739D01*
X1459310Y2322339D01*
X1461662Y2324001D01*
X1463969Y2325724D01*
X1466231Y2327507D01*
X1468445Y2329348D01*
X1470610Y2331247D01*
X1472725Y2333202D01*
X1474788Y2335212D01*
X1476798Y2337275D01*
X1478753Y2339390D01*
X1480652Y2341555D01*
X1482493Y2343769D01*
X1484276Y2346031D01*
X1485999Y2348338D01*
X1487661Y2350690D01*
X1489261Y2353085D01*
X1490798Y2355520D01*
X1492271Y2357995D01*
X1493678Y2360508D01*
X1495019Y2363057D01*
X1496293Y2365640D01*
X1497498Y2368255D01*
X1498635Y2370901D01*
X1499702Y2373576D01*
X1500699Y2376278D01*
X1501625Y2379005D01*
X1502479Y2381756D01*
X1503261Y2384528D01*
X1503970Y2387319D01*
X1504605Y2390128D01*
X1505167Y2392953D01*
X1505655Y2395791D01*
X1506068Y2398641D01*
X1506406Y2401501D01*
X1506670Y2404369D01*
X1506858Y2407243D01*
X1506972Y2410120D01*
X1507009Y2413000D01*
X1506972Y2415880D01*
X1506858Y2418757D01*
X1506670Y2421631D01*
X1506406Y2424499D01*
X1506068Y2427359D01*
X1505655Y2430209D01*
X1505167Y2433047D01*
X1504605Y2435872D01*
X1503970Y2438681D01*
X1503261Y2441472D01*
X1502479Y2444244D01*
X1501625Y2446995D01*
X1500699Y2449722D01*
X1499702Y2452424D01*
X1498635Y2455099D01*
X1497498Y2457745D01*
X1496293Y2460360D01*
X1495019Y2462943D01*
X1493678Y2465492D01*
X1492271Y2468005D01*
X1490798Y2470480D01*
X1489261Y2472915D01*
X1487661Y2475310D01*
X1485999Y2477662D01*
X1484276Y2479969D01*
X1482493Y2482231D01*
X1480652Y2484445D01*
X1478753Y2486610D01*
X1476798Y2488725D01*
X1474788Y2490788D01*
X1472725Y2492798D01*
X1470610Y2494753D01*
X1468445Y2496652D01*
X1466231Y2498493D01*
X1463969Y2500276D01*
X1461662Y2501999D01*
X1459310Y2503661D01*
X1456915Y2505261D01*
X1454480Y2506798D01*
X1452005Y2508271D01*
X1449492Y2509678D01*
X1446943Y2511019D01*
X1444360Y2512293D01*
X1441745Y2513498D01*
X1439099Y2514635D01*
X1436424Y2515702D01*
X1433722Y2516699D01*
X1430995Y2517625D01*
X1428244Y2518479D01*
X1425472Y2519261D01*
X1422681Y2519970D01*
X1419872Y2520605D01*
X1417047Y2521167D01*
X1414209Y2521655D01*
X1411359Y2522068D01*
X1408499Y2522406D01*
X1405631Y2522670D01*
X1402757Y2522858D01*
X1399880Y2522972D01*
X1397000Y2523009D01*
D02*
G37*
G36*
X1143000D02*
X1140120Y2522972D01*
X1137242Y2522858D01*
X1134369Y2522670D01*
X1131501Y2522406D01*
X1128641Y2522068D01*
X1125790Y2521655D01*
X1122952Y2521167D01*
X1120128Y2520605D01*
X1117319Y2519970D01*
X1114527Y2519261D01*
X1111755Y2518479D01*
X1109005Y2517625D01*
X1106278Y2516699D01*
X1103576Y2515702D01*
X1100901Y2514635D01*
X1098255Y2513498D01*
X1095640Y2512293D01*
X1093057Y2511019D01*
X1090508Y2509678D01*
X1087995Y2508271D01*
X1085520Y2506798D01*
X1083084Y2505261D01*
X1080690Y2503661D01*
X1078338Y2501999D01*
X1076030Y2500276D01*
X1073769Y2498493D01*
X1071555Y2496652D01*
X1069389Y2494753D01*
X1067274Y2492798D01*
X1065211Y2490788D01*
X1063202Y2488725D01*
X1061247Y2486610D01*
X1059348Y2484445D01*
X1057507Y2482231D01*
X1055724Y2479969D01*
X1054000Y2477662D01*
X1052338Y2475310D01*
X1050738Y2472915D01*
X1049202Y2470480D01*
X1047729Y2468005D01*
X1046322Y2465492D01*
X1044981Y2462943D01*
X1043707Y2460360D01*
X1042501Y2457745D01*
X1041364Y2455099D01*
X1040297Y2452424D01*
X1039300Y2449722D01*
X1038375Y2446995D01*
X1037521Y2444244D01*
X1036739Y2441472D01*
X1036030Y2438681D01*
X1035394Y2435872D01*
X1034833Y2433047D01*
X1034345Y2430209D01*
X1033932Y2427359D01*
X1033593Y2424499D01*
X1033330Y2421631D01*
X1033141Y2418757D01*
X1033028Y2415880D01*
X1032991Y2413000D01*
X1033028Y2410120D01*
X1033141Y2407243D01*
X1033330Y2404369D01*
X1033593Y2401501D01*
X1033932Y2398641D01*
X1034345Y2395791D01*
X1034833Y2392953D01*
X1035394Y2390128D01*
X1036030Y2387319D01*
X1036739Y2384528D01*
X1037521Y2381756D01*
X1038375Y2379005D01*
X1039300Y2376278D01*
X1040297Y2373576D01*
X1041364Y2370901D01*
X1042501Y2368255D01*
X1043707Y2365640D01*
X1044981Y2363057D01*
X1046322Y2360508D01*
X1047729Y2357995D01*
X1049202Y2355520D01*
X1050738Y2353085D01*
X1052338Y2350690D01*
X1054000Y2348338D01*
X1055724Y2346031D01*
X1057507Y2343769D01*
X1059348Y2341555D01*
X1061247Y2339390D01*
X1063202Y2337275D01*
X1065211Y2335212D01*
X1067274Y2333202D01*
X1069389Y2331247D01*
X1071555Y2329348D01*
X1073769Y2327507D01*
X1076030Y2325724D01*
X1078338Y2324001D01*
X1080690Y2322339D01*
X1083084Y2320739D01*
X1085520Y2319202D01*
X1087995Y2317729D01*
X1090508Y2316322D01*
X1093057Y2314981D01*
X1095640Y2313707D01*
X1098255Y2312502D01*
X1100901Y2311365D01*
X1103576Y2310298D01*
X1106278Y2309301D01*
X1109005Y2308375D01*
X1111755Y2307521D01*
X1114527Y2306739D01*
X1117319Y2306030D01*
X1120128Y2305395D01*
X1122952Y2304833D01*
X1125790Y2304345D01*
X1128641Y2303932D01*
X1131501Y2303594D01*
X1134369Y2303330D01*
X1137242Y2303142D01*
X1140120Y2303028D01*
X1143000Y2302991D01*
X1145879Y2303028D01*
X1148757Y2303142D01*
X1151631Y2303330D01*
X1154499Y2303594D01*
X1157359Y2303932D01*
X1160209Y2304345D01*
X1163047Y2304833D01*
X1165872Y2305395D01*
X1168681Y2306030D01*
X1171472Y2306739D01*
X1174244Y2307521D01*
X1176994Y2308375D01*
X1179722Y2309301D01*
X1182424Y2310298D01*
X1185098Y2311365D01*
X1187744Y2312502D01*
X1190360Y2313707D01*
X1192943Y2314981D01*
X1195492Y2316322D01*
X1198004Y2317729D01*
X1200479Y2319202D01*
X1202915Y2320739D01*
X1205310Y2322339D01*
X1207662Y2324001D01*
X1209969Y2325724D01*
X1212231Y2327507D01*
X1214445Y2329348D01*
X1216610Y2331247D01*
X1218725Y2333202D01*
X1220788Y2335212D01*
X1222798Y2337275D01*
X1224752Y2339390D01*
X1226651Y2341555D01*
X1228493Y2343769D01*
X1230276Y2346031D01*
X1231999Y2348338D01*
X1233661Y2350690D01*
X1235261Y2353085D01*
X1236798Y2355520D01*
X1238271Y2357995D01*
X1239678Y2360508D01*
X1241019Y2363057D01*
X1242292Y2365640D01*
X1243498Y2368255D01*
X1244635Y2370901D01*
X1245702Y2373576D01*
X1246699Y2376278D01*
X1247625Y2379005D01*
X1248479Y2381756D01*
X1249260Y2384528D01*
X1249969Y2387319D01*
X1250605Y2390128D01*
X1251167Y2392953D01*
X1251655Y2395791D01*
X1252068Y2398641D01*
X1252406Y2401501D01*
X1252670Y2404369D01*
X1252858Y2407243D01*
X1252971Y2410120D01*
X1253009Y2413000D01*
X1252971Y2415880D01*
X1252858Y2418757D01*
X1252670Y2421631D01*
X1252406Y2424499D01*
X1252068Y2427359D01*
X1251655Y2430209D01*
X1251167Y2433047D01*
X1250605Y2435872D01*
X1249969Y2438681D01*
X1249260Y2441472D01*
X1248479Y2444244D01*
X1247625Y2446995D01*
X1246699Y2449722D01*
X1245702Y2452424D01*
X1244635Y2455099D01*
X1243498Y2457745D01*
X1242292Y2460360D01*
X1241019Y2462943D01*
X1239678Y2465492D01*
X1238271Y2468005D01*
X1236798Y2470480D01*
X1235261Y2472915D01*
X1233661Y2475310D01*
X1231999Y2477662D01*
X1230276Y2479969D01*
X1228493Y2482231D01*
X1226651Y2484445D01*
X1224752Y2486610D01*
X1222798Y2488725D01*
X1220788Y2490788D01*
X1218725Y2492798D01*
X1216610Y2494753D01*
X1214445Y2496652D01*
X1212231Y2498493D01*
X1209969Y2500276D01*
X1207662Y2501999D01*
X1205310Y2503661D01*
X1202915Y2505261D01*
X1200479Y2506798D01*
X1198004Y2508271D01*
X1195492Y2509678D01*
X1192943Y2511019D01*
X1190360Y2512293D01*
X1187744Y2513498D01*
X1185098Y2514635D01*
X1182424Y2515702D01*
X1179722Y2516699D01*
X1176994Y2517625D01*
X1174244Y2518479D01*
X1171472Y2519261D01*
X1168681Y2519970D01*
X1165872Y2520605D01*
X1163047Y2521167D01*
X1160209Y2521655D01*
X1157359Y2522068D01*
X1154499Y2522406D01*
X1151631Y2522670D01*
X1148757Y2522858D01*
X1145879Y2522972D01*
X1143000Y2523009D01*
D02*
G37*
G36*
X889000D02*
X886120Y2522972D01*
X883243Y2522858D01*
X880369Y2522670D01*
X877501Y2522406D01*
X874641Y2522068D01*
X871791Y2521655D01*
X868953Y2521167D01*
X866128Y2520605D01*
X863319Y2519970D01*
X860528Y2519261D01*
X857756Y2518479D01*
X855005Y2517625D01*
X852278Y2516699D01*
X849576Y2515702D01*
X846901Y2514635D01*
X844255Y2513498D01*
X841640Y2512293D01*
X839057Y2511019D01*
X836508Y2509678D01*
X833995Y2508271D01*
X831520Y2506798D01*
X829085Y2505261D01*
X826690Y2503661D01*
X824338Y2501999D01*
X822031Y2500276D01*
X819769Y2498493D01*
X817555Y2496652D01*
X815390Y2494753D01*
X813275Y2492798D01*
X811212Y2490788D01*
X809202Y2488725D01*
X807247Y2486610D01*
X805348Y2484445D01*
X803507Y2482231D01*
X801724Y2479969D01*
X800001Y2477662D01*
X798339Y2475310D01*
X796739Y2472915D01*
X795202Y2470480D01*
X793729Y2468005D01*
X792322Y2465492D01*
X790981Y2462943D01*
X789707Y2460360D01*
X788502Y2457745D01*
X787365Y2455099D01*
X786298Y2452424D01*
X785301Y2449722D01*
X784375Y2446995D01*
X783521Y2444244D01*
X782739Y2441472D01*
X782030Y2438681D01*
X781395Y2435872D01*
X780833Y2433047D01*
X780345Y2430209D01*
X779932Y2427359D01*
X779594Y2424499D01*
X779330Y2421631D01*
X779142Y2418757D01*
X779028Y2415880D01*
X778991Y2413000D01*
X779028Y2410120D01*
X779142Y2407243D01*
X779330Y2404369D01*
X779594Y2401501D01*
X779932Y2398641D01*
X780345Y2395791D01*
X780833Y2392953D01*
X781395Y2390128D01*
X782030Y2387319D01*
X782739Y2384528D01*
X783521Y2381756D01*
X784375Y2379005D01*
X785301Y2376278D01*
X786298Y2373576D01*
X787365Y2370901D01*
X788502Y2368255D01*
X789707Y2365640D01*
X790981Y2363057D01*
X792322Y2360508D01*
X793729Y2357995D01*
X795202Y2355520D01*
X796739Y2353085D01*
X798339Y2350690D01*
X800001Y2348338D01*
X801724Y2346031D01*
X803507Y2343769D01*
X805348Y2341555D01*
X807247Y2339390D01*
X809202Y2337275D01*
X811212Y2335212D01*
X813275Y2333202D01*
X815390Y2331247D01*
X817555Y2329348D01*
X819769Y2327507D01*
X822031Y2325724D01*
X824338Y2324001D01*
X826690Y2322339D01*
X829085Y2320739D01*
X831520Y2319202D01*
X833995Y2317729D01*
X836508Y2316322D01*
X839057Y2314981D01*
X841640Y2313707D01*
X844255Y2312502D01*
X846901Y2311365D01*
X849576Y2310298D01*
X852278Y2309301D01*
X855005Y2308375D01*
X857756Y2307521D01*
X860528Y2306739D01*
X863319Y2306030D01*
X866128Y2305395D01*
X868953Y2304833D01*
X871791Y2304345D01*
X874641Y2303932D01*
X877501Y2303594D01*
X880369Y2303330D01*
X883243Y2303142D01*
X886120Y2303028D01*
X889000Y2302991D01*
X891880Y2303028D01*
X894757Y2303142D01*
X897631Y2303330D01*
X900499Y2303594D01*
X903359Y2303932D01*
X906209Y2304345D01*
X909047Y2304833D01*
X911872Y2305395D01*
X914681Y2306030D01*
X917472Y2306739D01*
X920244Y2307521D01*
X922995Y2308375D01*
X925722Y2309301D01*
X928424Y2310298D01*
X931099Y2311365D01*
X933745Y2312502D01*
X936360Y2313707D01*
X938943Y2314981D01*
X941492Y2316322D01*
X944005Y2317729D01*
X946480Y2319202D01*
X948915Y2320739D01*
X951310Y2322339D01*
X953662Y2324001D01*
X955969Y2325724D01*
X958231Y2327507D01*
X960445Y2329348D01*
X962610Y2331247D01*
X964725Y2333202D01*
X966788Y2335212D01*
X968798Y2337275D01*
X970753Y2339390D01*
X972652Y2341555D01*
X974493Y2343769D01*
X976276Y2346031D01*
X977999Y2348338D01*
X979661Y2350690D01*
X981261Y2353085D01*
X982798Y2355520D01*
X984271Y2357995D01*
X985678Y2360508D01*
X987019Y2363057D01*
X988293Y2365640D01*
X989498Y2368255D01*
X990635Y2370901D01*
X991702Y2373576D01*
X992699Y2376278D01*
X993625Y2379005D01*
X994479Y2381756D01*
X995261Y2384528D01*
X995970Y2387319D01*
X996605Y2390128D01*
X997167Y2392953D01*
X997655Y2395791D01*
X998068Y2398641D01*
X998406Y2401501D01*
X998670Y2404369D01*
X998858Y2407243D01*
X998972Y2410120D01*
X999009Y2413000D01*
X998972Y2415880D01*
X998858Y2418757D01*
X998670Y2421631D01*
X998406Y2424499D01*
X998068Y2427359D01*
X997655Y2430209D01*
X997167Y2433047D01*
X996605Y2435872D01*
X995970Y2438681D01*
X995261Y2441472D01*
X994479Y2444244D01*
X993625Y2446995D01*
X992699Y2449722D01*
X991702Y2452424D01*
X990635Y2455099D01*
X989498Y2457745D01*
X988293Y2460360D01*
X987019Y2462943D01*
X985678Y2465492D01*
X984271Y2468005D01*
X982798Y2470480D01*
X981261Y2472915D01*
X979661Y2475310D01*
X977999Y2477662D01*
X976276Y2479969D01*
X974493Y2482231D01*
X972652Y2484445D01*
X970753Y2486610D01*
X968798Y2488725D01*
X966788Y2490788D01*
X964725Y2492798D01*
X962610Y2494753D01*
X960445Y2496652D01*
X958231Y2498493D01*
X955969Y2500276D01*
X953662Y2501999D01*
X951310Y2503661D01*
X948915Y2505261D01*
X946480Y2506798D01*
X944005Y2508271D01*
X941492Y2509678D01*
X938943Y2511019D01*
X936360Y2512293D01*
X933745Y2513498D01*
X931099Y2514635D01*
X928424Y2515702D01*
X925722Y2516699D01*
X922995Y2517625D01*
X920244Y2518479D01*
X917472Y2519261D01*
X914681Y2519970D01*
X911872Y2520605D01*
X909047Y2521167D01*
X906209Y2521655D01*
X903359Y2522068D01*
X900499Y2522406D01*
X897631Y2522670D01*
X894757Y2522858D01*
X891880Y2522972D01*
X889000Y2523009D01*
D02*
G37*
G36*
X635000D02*
X632120Y2522972D01*
X629243Y2522858D01*
X626369Y2522670D01*
X623501Y2522406D01*
X620641Y2522068D01*
X617791Y2521655D01*
X614953Y2521167D01*
X612128Y2520605D01*
X609319Y2519970D01*
X606528Y2519261D01*
X603756Y2518479D01*
X601005Y2517625D01*
X598278Y2516699D01*
X595576Y2515702D01*
X592901Y2514635D01*
X590255Y2513498D01*
X587640Y2512293D01*
X585057Y2511019D01*
X582508Y2509678D01*
X579995Y2508271D01*
X577520Y2506798D01*
X575085Y2505261D01*
X572690Y2503661D01*
X570338Y2501999D01*
X568031Y2500276D01*
X565769Y2498493D01*
X563555Y2496652D01*
X561390Y2494753D01*
X559275Y2492798D01*
X557212Y2490788D01*
X555202Y2488725D01*
X553247Y2486610D01*
X551348Y2484445D01*
X549507Y2482231D01*
X547724Y2479969D01*
X546001Y2477662D01*
X544339Y2475310D01*
X542739Y2472915D01*
X541202Y2470480D01*
X539729Y2468005D01*
X538322Y2465492D01*
X536981Y2462943D01*
X535707Y2460360D01*
X534502Y2457745D01*
X533365Y2455099D01*
X532298Y2452424D01*
X531301Y2449722D01*
X530375Y2446995D01*
X529521Y2444244D01*
X528739Y2441472D01*
X528030Y2438681D01*
X527395Y2435872D01*
X526833Y2433047D01*
X526345Y2430209D01*
X525932Y2427359D01*
X525594Y2424499D01*
X525330Y2421631D01*
X525142Y2418757D01*
X525028Y2415880D01*
X524991Y2413000D01*
X525028Y2410120D01*
X525142Y2407243D01*
X525330Y2404369D01*
X525594Y2401501D01*
X525932Y2398641D01*
X526345Y2395791D01*
X526833Y2392953D01*
X527395Y2390128D01*
X528030Y2387319D01*
X528739Y2384528D01*
X529521Y2381756D01*
X530375Y2379005D01*
X531301Y2376278D01*
X532298Y2373576D01*
X533365Y2370901D01*
X534502Y2368255D01*
X535707Y2365640D01*
X536981Y2363057D01*
X538322Y2360508D01*
X539729Y2357995D01*
X541202Y2355520D01*
X542739Y2353085D01*
X544339Y2350690D01*
X546001Y2348338D01*
X547724Y2346031D01*
X549507Y2343769D01*
X551348Y2341555D01*
X553247Y2339390D01*
X555202Y2337275D01*
X557212Y2335212D01*
X559275Y2333202D01*
X561390Y2331247D01*
X563555Y2329348D01*
X565769Y2327507D01*
X568031Y2325724D01*
X570338Y2324001D01*
X572690Y2322339D01*
X575085Y2320739D01*
X577520Y2319202D01*
X579995Y2317729D01*
X582508Y2316322D01*
X585057Y2314981D01*
X587640Y2313707D01*
X590255Y2312502D01*
X592901Y2311365D01*
X595576Y2310298D01*
X598278Y2309301D01*
X601005Y2308375D01*
X603756Y2307521D01*
X606528Y2306739D01*
X609319Y2306030D01*
X612128Y2305395D01*
X614953Y2304833D01*
X617791Y2304345D01*
X620641Y2303932D01*
X623501Y2303594D01*
X626369Y2303330D01*
X629243Y2303142D01*
X632120Y2303028D01*
X635000Y2302991D01*
X637880Y2303028D01*
X640757Y2303142D01*
X643631Y2303330D01*
X646499Y2303594D01*
X649359Y2303932D01*
X652209Y2304345D01*
X655047Y2304833D01*
X657872Y2305395D01*
X660681Y2306030D01*
X663472Y2306739D01*
X666244Y2307521D01*
X668995Y2308375D01*
X671722Y2309301D01*
X674424Y2310298D01*
X677099Y2311365D01*
X679745Y2312502D01*
X682360Y2313707D01*
X684943Y2314981D01*
X687492Y2316322D01*
X690005Y2317729D01*
X692480Y2319202D01*
X694915Y2320739D01*
X697310Y2322339D01*
X699662Y2324001D01*
X701969Y2325724D01*
X704231Y2327507D01*
X706445Y2329348D01*
X708610Y2331247D01*
X710725Y2333202D01*
X712788Y2335212D01*
X714798Y2337275D01*
X716753Y2339390D01*
X718652Y2341555D01*
X720493Y2343769D01*
X722276Y2346031D01*
X723999Y2348338D01*
X725661Y2350690D01*
X727261Y2353085D01*
X728798Y2355520D01*
X730271Y2357995D01*
X731678Y2360508D01*
X733019Y2363057D01*
X734293Y2365640D01*
X735498Y2368255D01*
X736635Y2370901D01*
X737702Y2373576D01*
X738699Y2376278D01*
X739625Y2379005D01*
X740479Y2381756D01*
X741261Y2384528D01*
X741970Y2387319D01*
X742605Y2390128D01*
X743167Y2392953D01*
X743655Y2395791D01*
X744068Y2398641D01*
X744406Y2401501D01*
X744670Y2404369D01*
X744858Y2407243D01*
X744972Y2410120D01*
X745009Y2413000D01*
X744972Y2415880D01*
X744858Y2418757D01*
X744670Y2421631D01*
X744406Y2424499D01*
X744068Y2427359D01*
X743655Y2430209D01*
X743167Y2433047D01*
X742605Y2435872D01*
X741970Y2438681D01*
X741261Y2441472D01*
X740479Y2444244D01*
X739625Y2446995D01*
X738699Y2449722D01*
X737702Y2452424D01*
X736635Y2455099D01*
X735498Y2457745D01*
X734293Y2460360D01*
X733019Y2462943D01*
X731678Y2465492D01*
X730271Y2468005D01*
X728798Y2470480D01*
X727261Y2472915D01*
X725661Y2475310D01*
X723999Y2477662D01*
X722276Y2479969D01*
X720493Y2482231D01*
X718652Y2484445D01*
X716753Y2486610D01*
X714798Y2488725D01*
X712788Y2490788D01*
X710725Y2492798D01*
X708610Y2494753D01*
X706445Y2496652D01*
X704231Y2498493D01*
X701969Y2500276D01*
X699662Y2501999D01*
X697310Y2503661D01*
X694915Y2505261D01*
X692480Y2506798D01*
X690005Y2508271D01*
X687492Y2509678D01*
X684943Y2511019D01*
X682360Y2512293D01*
X679745Y2513498D01*
X677099Y2514635D01*
X674424Y2515702D01*
X671722Y2516699D01*
X668995Y2517625D01*
X666244Y2518479D01*
X663472Y2519261D01*
X660681Y2519970D01*
X657872Y2520605D01*
X655047Y2521167D01*
X652209Y2521655D01*
X649359Y2522068D01*
X646499Y2522406D01*
X643631Y2522670D01*
X640757Y2522858D01*
X637880Y2522972D01*
X635000Y2523009D01*
D02*
G37*
G36*
X127000D02*
X124120Y2522972D01*
X121243Y2522858D01*
X118369Y2522670D01*
X115501Y2522406D01*
X112641Y2522068D01*
X109791Y2521655D01*
X106953Y2521167D01*
X104128Y2520605D01*
X101319Y2519970D01*
X98528Y2519261D01*
X95756Y2518479D01*
X93005Y2517625D01*
X90278Y2516699D01*
X87576Y2515702D01*
X84901Y2514635D01*
X82255Y2513498D01*
X79640Y2512293D01*
X77057Y2511019D01*
X74508Y2509678D01*
X71995Y2508271D01*
X69520Y2506798D01*
X67085Y2505261D01*
X64690Y2503661D01*
X62338Y2501999D01*
X60031Y2500276D01*
X57769Y2498493D01*
X55555Y2496652D01*
X53390Y2494753D01*
X51275Y2492798D01*
X49212Y2490788D01*
X47202Y2488725D01*
X45247Y2486610D01*
X43348Y2484445D01*
X41507Y2482231D01*
X39724Y2479969D01*
X38001Y2477662D01*
X36339Y2475310D01*
X34739Y2472915D01*
X33202Y2470480D01*
X31729Y2468005D01*
X30322Y2465492D01*
X28981Y2462943D01*
X27707Y2460360D01*
X26502Y2457745D01*
X25365Y2455099D01*
X24298Y2452424D01*
X23301Y2449722D01*
X22375Y2446995D01*
X21521Y2444244D01*
X20739Y2441472D01*
X20030Y2438681D01*
X19395Y2435872D01*
X18833Y2433047D01*
X18345Y2430209D01*
X17932Y2427359D01*
X17594Y2424499D01*
X17330Y2421631D01*
X17142Y2418757D01*
X17028Y2415880D01*
X16991Y2413000D01*
X17028Y2410120D01*
X17142Y2407243D01*
X17330Y2404369D01*
X17594Y2401501D01*
X17932Y2398641D01*
X18345Y2395791D01*
X18833Y2392953D01*
X19395Y2390128D01*
X20030Y2387319D01*
X20739Y2384528D01*
X21521Y2381756D01*
X22375Y2379005D01*
X23301Y2376278D01*
X24298Y2373576D01*
X25365Y2370901D01*
X26502Y2368255D01*
X27707Y2365640D01*
X28981Y2363057D01*
X30322Y2360508D01*
X31729Y2357995D01*
X33202Y2355520D01*
X34739Y2353085D01*
X36339Y2350690D01*
X38001Y2348338D01*
X39724Y2346031D01*
X41507Y2343769D01*
X43348Y2341555D01*
X45247Y2339390D01*
X47202Y2337275D01*
X49212Y2335212D01*
X51275Y2333202D01*
X53390Y2331247D01*
X55555Y2329348D01*
X57769Y2327507D01*
X60031Y2325724D01*
X62338Y2324001D01*
X64690Y2322339D01*
X67085Y2320739D01*
X69520Y2319202D01*
X71995Y2317729D01*
X74508Y2316322D01*
X77057Y2314981D01*
X79640Y2313707D01*
X82255Y2312502D01*
X84901Y2311365D01*
X87576Y2310298D01*
X90278Y2309301D01*
X93005Y2308375D01*
X95756Y2307521D01*
X98528Y2306739D01*
X101319Y2306030D01*
X104128Y2305395D01*
X106953Y2304833D01*
X109791Y2304345D01*
X112641Y2303932D01*
X115501Y2303594D01*
X118369Y2303330D01*
X121243Y2303142D01*
X124120Y2303028D01*
X127000Y2302991D01*
X129880Y2303028D01*
X132757Y2303142D01*
X135631Y2303330D01*
X138499Y2303594D01*
X141359Y2303932D01*
X144209Y2304345D01*
X147047Y2304833D01*
X149872Y2305395D01*
X152681Y2306030D01*
X155472Y2306739D01*
X158244Y2307521D01*
X160995Y2308375D01*
X163722Y2309301D01*
X166424Y2310298D01*
X169099Y2311365D01*
X171745Y2312502D01*
X174360Y2313707D01*
X176943Y2314981D01*
X179492Y2316322D01*
X182005Y2317729D01*
X184480Y2319202D01*
X186915Y2320739D01*
X189310Y2322339D01*
X191662Y2324001D01*
X193969Y2325724D01*
X196231Y2327507D01*
X198445Y2329348D01*
X200610Y2331247D01*
X202725Y2333202D01*
X204788Y2335212D01*
X206798Y2337275D01*
X208753Y2339390D01*
X210652Y2341555D01*
X212493Y2343769D01*
X214276Y2346031D01*
X215999Y2348338D01*
X217661Y2350690D01*
X219261Y2353085D01*
X220798Y2355520D01*
X222271Y2357995D01*
X223678Y2360508D01*
X225019Y2363057D01*
X226293Y2365640D01*
X227498Y2368255D01*
X228635Y2370901D01*
X229702Y2373576D01*
X230699Y2376278D01*
X231625Y2379005D01*
X232479Y2381756D01*
X233261Y2384528D01*
X233970Y2387319D01*
X234605Y2390128D01*
X235167Y2392953D01*
X235655Y2395791D01*
X236068Y2398641D01*
X236406Y2401501D01*
X236670Y2404369D01*
X236858Y2407243D01*
X236972Y2410120D01*
X237009Y2413000D01*
X236972Y2415880D01*
X236858Y2418757D01*
X236670Y2421631D01*
X236406Y2424499D01*
X236068Y2427359D01*
X235655Y2430209D01*
X235167Y2433047D01*
X234605Y2435872D01*
X233970Y2438681D01*
X233261Y2441472D01*
X232479Y2444244D01*
X231625Y2446995D01*
X230699Y2449722D01*
X229702Y2452424D01*
X228635Y2455099D01*
X227498Y2457745D01*
X226293Y2460360D01*
X225019Y2462943D01*
X223678Y2465492D01*
X222271Y2468005D01*
X220798Y2470480D01*
X219261Y2472915D01*
X217661Y2475310D01*
X215999Y2477662D01*
X214276Y2479969D01*
X212493Y2482231D01*
X210652Y2484445D01*
X208753Y2486610D01*
X206798Y2488725D01*
X204788Y2490788D01*
X202725Y2492798D01*
X200610Y2494753D01*
X198445Y2496652D01*
X196231Y2498493D01*
X193969Y2500276D01*
X191662Y2501999D01*
X189310Y2503661D01*
X186915Y2505261D01*
X184480Y2506798D01*
X182005Y2508271D01*
X179492Y2509678D01*
X176943Y2511019D01*
X174360Y2512293D01*
X171745Y2513498D01*
X169099Y2514635D01*
X166424Y2515702D01*
X163722Y2516699D01*
X160995Y2517625D01*
X158244Y2518479D01*
X155472Y2519261D01*
X152681Y2519970D01*
X149872Y2520605D01*
X147047Y2521167D01*
X144209Y2521655D01*
X141359Y2522068D01*
X138499Y2522406D01*
X135631Y2522670D01*
X132757Y2522858D01*
X129880Y2522972D01*
X127000Y2523009D01*
D02*
G37*
G36*
X-127000D02*
X-129880Y2522972D01*
X-132757Y2522858D01*
X-135631Y2522670D01*
X-138499Y2522406D01*
X-141359Y2522068D01*
X-144209Y2521655D01*
X-147047Y2521167D01*
X-149872Y2520605D01*
X-152681Y2519970D01*
X-155472Y2519261D01*
X-158244Y2518479D01*
X-160995Y2517625D01*
X-163722Y2516699D01*
X-166424Y2515702D01*
X-169099Y2514635D01*
X-171745Y2513498D01*
X-174360Y2512293D01*
X-176943Y2511019D01*
X-179492Y2509678D01*
X-182005Y2508271D01*
X-184480Y2506798D01*
X-186915Y2505261D01*
X-189310Y2503661D01*
X-191662Y2501999D01*
X-193969Y2500276D01*
X-196231Y2498493D01*
X-198445Y2496652D01*
X-200610Y2494753D01*
X-202725Y2492798D01*
X-204788Y2490788D01*
X-206798Y2488725D01*
X-208753Y2486610D01*
X-210652Y2484445D01*
X-212493Y2482231D01*
X-214276Y2479969D01*
X-215999Y2477662D01*
X-217661Y2475310D01*
X-219261Y2472915D01*
X-220798Y2470480D01*
X-222271Y2468005D01*
X-223678Y2465492D01*
X-225019Y2462943D01*
X-226293Y2460360D01*
X-227498Y2457745D01*
X-228635Y2455099D01*
X-229702Y2452424D01*
X-230699Y2449722D01*
X-231625Y2446995D01*
X-232479Y2444244D01*
X-233261Y2441472D01*
X-233970Y2438681D01*
X-234605Y2435872D01*
X-235167Y2433047D01*
X-235655Y2430209D01*
X-236068Y2427359D01*
X-236406Y2424499D01*
X-236670Y2421631D01*
X-236858Y2418757D01*
X-236972Y2415880D01*
X-237009Y2413000D01*
X-236972Y2410120D01*
X-236858Y2407243D01*
X-236670Y2404369D01*
X-236406Y2401501D01*
X-236068Y2398641D01*
X-235655Y2395791D01*
X-235167Y2392953D01*
X-234605Y2390128D01*
X-233970Y2387319D01*
X-233261Y2384528D01*
X-232479Y2381756D01*
X-231625Y2379005D01*
X-230699Y2376278D01*
X-229702Y2373576D01*
X-228635Y2370901D01*
X-227498Y2368255D01*
X-226293Y2365640D01*
X-225019Y2363057D01*
X-223678Y2360508D01*
X-222271Y2357995D01*
X-220798Y2355520D01*
X-219261Y2353085D01*
X-217661Y2350690D01*
X-215999Y2348338D01*
X-214276Y2346031D01*
X-212493Y2343769D01*
X-210652Y2341555D01*
X-208753Y2339390D01*
X-206798Y2337275D01*
X-204788Y2335212D01*
X-202725Y2333202D01*
X-200610Y2331247D01*
X-198445Y2329348D01*
X-196231Y2327507D01*
X-193969Y2325724D01*
X-191662Y2324001D01*
X-189310Y2322339D01*
X-186915Y2320739D01*
X-184480Y2319202D01*
X-182005Y2317729D01*
X-179492Y2316322D01*
X-176943Y2314981D01*
X-174360Y2313707D01*
X-171745Y2312502D01*
X-169099Y2311365D01*
X-166424Y2310298D01*
X-163722Y2309301D01*
X-160995Y2308375D01*
X-158244Y2307521D01*
X-155472Y2306739D01*
X-152681Y2306030D01*
X-149872Y2305395D01*
X-147047Y2304833D01*
X-144209Y2304345D01*
X-141359Y2303932D01*
X-138499Y2303594D01*
X-135631Y2303330D01*
X-132757Y2303142D01*
X-129880Y2303028D01*
X-127000Y2302991D01*
X-124120Y2303028D01*
X-121243Y2303142D01*
X-118369Y2303330D01*
X-115501Y2303594D01*
X-112641Y2303932D01*
X-109791Y2304345D01*
X-106953Y2304833D01*
X-104128Y2305395D01*
X-101319Y2306030D01*
X-98528Y2306739D01*
X-95756Y2307521D01*
X-93005Y2308375D01*
X-90278Y2309301D01*
X-87576Y2310298D01*
X-84901Y2311365D01*
X-82255Y2312502D01*
X-79640Y2313707D01*
X-77057Y2314981D01*
X-74508Y2316322D01*
X-71995Y2317729D01*
X-69520Y2319202D01*
X-67085Y2320739D01*
X-64690Y2322339D01*
X-62338Y2324001D01*
X-60031Y2325724D01*
X-57769Y2327507D01*
X-55555Y2329348D01*
X-53390Y2331247D01*
X-51275Y2333202D01*
X-49212Y2335212D01*
X-47202Y2337275D01*
X-45247Y2339390D01*
X-43348Y2341555D01*
X-41507Y2343769D01*
X-39724Y2346031D01*
X-38001Y2348338D01*
X-36339Y2350690D01*
X-34739Y2353085D01*
X-33202Y2355520D01*
X-31729Y2357995D01*
X-30322Y2360508D01*
X-28981Y2363057D01*
X-27707Y2365640D01*
X-26502Y2368255D01*
X-25365Y2370901D01*
X-24298Y2373576D01*
X-23301Y2376278D01*
X-22375Y2379005D01*
X-21521Y2381756D01*
X-20739Y2384528D01*
X-20030Y2387319D01*
X-19395Y2390128D01*
X-18833Y2392953D01*
X-18345Y2395791D01*
X-17932Y2398641D01*
X-17594Y2401501D01*
X-17330Y2404369D01*
X-17142Y2407243D01*
X-17028Y2410120D01*
X-16991Y2413000D01*
X-17028Y2415880D01*
X-17142Y2418757D01*
X-17330Y2421631D01*
X-17594Y2424499D01*
X-17932Y2427359D01*
X-18345Y2430209D01*
X-18833Y2433047D01*
X-19395Y2435872D01*
X-20030Y2438681D01*
X-20739Y2441472D01*
X-21521Y2444244D01*
X-22375Y2446995D01*
X-23301Y2449722D01*
X-24298Y2452424D01*
X-25365Y2455099D01*
X-26502Y2457745D01*
X-27707Y2460360D01*
X-28981Y2462943D01*
X-30322Y2465492D01*
X-31729Y2468005D01*
X-33202Y2470480D01*
X-34739Y2472915D01*
X-36339Y2475310D01*
X-38001Y2477662D01*
X-39724Y2479969D01*
X-41507Y2482231D01*
X-43348Y2484445D01*
X-45247Y2486610D01*
X-47202Y2488725D01*
X-49212Y2490788D01*
X-51275Y2492798D01*
X-53390Y2494753D01*
X-55555Y2496652D01*
X-57769Y2498493D01*
X-60031Y2500276D01*
X-62338Y2501999D01*
X-64690Y2503661D01*
X-67085Y2505261D01*
X-69520Y2506798D01*
X-71995Y2508271D01*
X-74508Y2509678D01*
X-77057Y2511019D01*
X-79640Y2512293D01*
X-82255Y2513498D01*
X-84901Y2514635D01*
X-87576Y2515702D01*
X-90278Y2516699D01*
X-93005Y2517625D01*
X-95756Y2518479D01*
X-98528Y2519261D01*
X-101319Y2519970D01*
X-104128Y2520605D01*
X-106953Y2521167D01*
X-109791Y2521655D01*
X-112641Y2522068D01*
X-115501Y2522406D01*
X-118369Y2522670D01*
X-121243Y2522858D01*
X-124120Y2522972D01*
X-127000Y2523009D01*
D02*
G37*
G36*
X889000Y2269009D02*
X886120Y2268972D01*
X883243Y2268858D01*
X880369Y2268670D01*
X877501Y2268406D01*
X874641Y2268068D01*
X871791Y2267655D01*
X868953Y2267167D01*
X866128Y2266605D01*
X863319Y2265970D01*
X860528Y2265261D01*
X857756Y2264479D01*
X855005Y2263625D01*
X852278Y2262699D01*
X849576Y2261702D01*
X846901Y2260635D01*
X844255Y2259498D01*
X841640Y2258293D01*
X839057Y2257019D01*
X836508Y2255678D01*
X833995Y2254271D01*
X831520Y2252798D01*
X829085Y2251261D01*
X826690Y2249661D01*
X824338Y2247999D01*
X822031Y2246276D01*
X819769Y2244493D01*
X817555Y2242652D01*
X815390Y2240753D01*
X813275Y2238798D01*
X811212Y2236788D01*
X809202Y2234725D01*
X807247Y2232610D01*
X805348Y2230445D01*
X803507Y2228231D01*
X801724Y2225969D01*
X800001Y2223662D01*
X798339Y2221310D01*
X796739Y2218915D01*
X795202Y2216480D01*
X793729Y2214005D01*
X792322Y2211492D01*
X790981Y2208943D01*
X789707Y2206360D01*
X788502Y2203745D01*
X787365Y2201099D01*
X786298Y2198424D01*
X785301Y2195722D01*
X784375Y2192995D01*
X783521Y2190244D01*
X783173Y2189009D01*
X740827D01*
X740479Y2190244D01*
X739625Y2192995D01*
X738699Y2195722D01*
X737702Y2198424D01*
X736635Y2201099D01*
X735498Y2203745D01*
X734293Y2206360D01*
X733019Y2208943D01*
X731678Y2211492D01*
X730271Y2214005D01*
X728798Y2216480D01*
X727261Y2218915D01*
X725661Y2221310D01*
X723999Y2223662D01*
X722276Y2225969D01*
X720493Y2228231D01*
X718652Y2230445D01*
X716753Y2232610D01*
X714798Y2234725D01*
X712788Y2236788D01*
X710725Y2238798D01*
X708610Y2240753D01*
X706445Y2242652D01*
X704231Y2244493D01*
X701969Y2246276D01*
X699662Y2247999D01*
X697310Y2249661D01*
X694915Y2251261D01*
X692480Y2252798D01*
X690005Y2254271D01*
X687492Y2255678D01*
X684943Y2257019D01*
X682360Y2258293D01*
X679745Y2259498D01*
X677099Y2260635D01*
X674424Y2261702D01*
X671722Y2262699D01*
X668995Y2263625D01*
X666244Y2264479D01*
X663472Y2265261D01*
X660681Y2265970D01*
X657872Y2266605D01*
X655047Y2267167D01*
X652209Y2267655D01*
X649359Y2268068D01*
X646499Y2268406D01*
X643631Y2268670D01*
X640757Y2268858D01*
X637880Y2268972D01*
X635000Y2269009D01*
X632120Y2268972D01*
X629243Y2268858D01*
X626369Y2268670D01*
X623501Y2268406D01*
X620641Y2268068D01*
X617791Y2267655D01*
X614953Y2267167D01*
X612128Y2266605D01*
X609319Y2265970D01*
X606528Y2265261D01*
X603756Y2264479D01*
X601005Y2263625D01*
X598278Y2262699D01*
X595576Y2261702D01*
X592901Y2260635D01*
X590255Y2259498D01*
X587640Y2258293D01*
X585057Y2257019D01*
X582508Y2255678D01*
X579995Y2254271D01*
X577520Y2252798D01*
X575085Y2251261D01*
X572690Y2249661D01*
X570338Y2247999D01*
X568031Y2246276D01*
X565769Y2244493D01*
X563555Y2242652D01*
X561390Y2240753D01*
X559275Y2238798D01*
X557212Y2236788D01*
X555202Y2234725D01*
X553247Y2232610D01*
X551348Y2230445D01*
X549507Y2228231D01*
X547724Y2225969D01*
X546001Y2223662D01*
X544339Y2221310D01*
X542739Y2218915D01*
X541202Y2216480D01*
X539729Y2214005D01*
X538322Y2211492D01*
X536981Y2208943D01*
X535707Y2206360D01*
X534502Y2203745D01*
X533365Y2201099D01*
X532298Y2198424D01*
X531301Y2195722D01*
X530375Y2192995D01*
X529521Y2190244D01*
X528739Y2187472D01*
X528030Y2184681D01*
X527395Y2181872D01*
X526833Y2179047D01*
X526345Y2176209D01*
X525932Y2173359D01*
X525594Y2170499D01*
X525330Y2167631D01*
X525142Y2164757D01*
X525028Y2161880D01*
X524991Y2159000D01*
X525028Y2156120D01*
X525142Y2153243D01*
X525330Y2150369D01*
X525594Y2147501D01*
X525932Y2144641D01*
X526345Y2141791D01*
X526833Y2138953D01*
X527395Y2136128D01*
X528030Y2133319D01*
X528739Y2130528D01*
X529521Y2127756D01*
X530375Y2125005D01*
X531301Y2122278D01*
X532298Y2119576D01*
X533365Y2116901D01*
X534502Y2114255D01*
X535707Y2111640D01*
X536981Y2109057D01*
X538322Y2106508D01*
X539729Y2103995D01*
X541202Y2101520D01*
X542739Y2099085D01*
X544339Y2096690D01*
X546001Y2094338D01*
X547724Y2092031D01*
X549507Y2089769D01*
X551348Y2087555D01*
X553247Y2085390D01*
X555202Y2083275D01*
X557212Y2081212D01*
X559275Y2079202D01*
X561390Y2077247D01*
X563555Y2075348D01*
X565769Y2073507D01*
X568031Y2071724D01*
X570338Y2070001D01*
X572690Y2068339D01*
X575085Y2066739D01*
X577520Y2065202D01*
X579995Y2063729D01*
X582508Y2062322D01*
X585057Y2060981D01*
X587640Y2059707D01*
X590255Y2058502D01*
X592901Y2057365D01*
X595576Y2056298D01*
X598278Y2055301D01*
X601005Y2054375D01*
X603756Y2053521D01*
X604991Y2053173D01*
Y1587500D01*
X605027Y1586028D01*
X605135Y1584559D01*
X605316Y1583097D01*
X605567Y1581645D01*
X605890Y1580208D01*
X606283Y1578789D01*
X606745Y1577390D01*
X607275Y1576016D01*
X607872Y1574669D01*
X608534Y1573354D01*
X609260Y1572072D01*
X610048Y1570828D01*
X610896Y1569624D01*
X611803Y1568462D01*
X612765Y1567347D01*
X613780Y1566280D01*
X1366991Y813070D01*
Y-889000D01*
X1367027Y-890472D01*
X1367135Y-891941D01*
X1367316Y-893403D01*
X1367567Y-894855D01*
X1367890Y-896292D01*
X1368283Y-897711D01*
X1368745Y-899110D01*
X1369275Y-900484D01*
X1369872Y-901831D01*
X1370534Y-903146D01*
X1371260Y-904428D01*
X1372048Y-905672D01*
X1372896Y-906876D01*
X1373803Y-908038D01*
X1374765Y-909153D01*
X1375780Y-910220D01*
X1474501Y-1008940D01*
X1474337Y-1010122D01*
X1474145Y-1012076D01*
X1474029Y-1014037D01*
X1473990Y-1016000D01*
X1474029Y-1017963D01*
X1474145Y-1019924D01*
X1474337Y-1021878D01*
X1474606Y-1023823D01*
X1474951Y-1025756D01*
X1475372Y-1027675D01*
X1475868Y-1029575D01*
X1476438Y-1031454D01*
X1477081Y-1033309D01*
X1477797Y-1035138D01*
X1478584Y-1036937D01*
X1479441Y-1038704D01*
X1480367Y-1040436D01*
X1481360Y-1042130D01*
X1482419Y-1043784D01*
X1483541Y-1045395D01*
X1484727Y-1046961D01*
X1485972Y-1048479D01*
X1487277Y-1049947D01*
X1488638Y-1051362D01*
X1490053Y-1052723D01*
X1491521Y-1054028D01*
X1493039Y-1055273D01*
X1494605Y-1056459D01*
X1496216Y-1057581D01*
X1497870Y-1058640D01*
X1499564Y-1059633D01*
X1501296Y-1060559D01*
X1503063Y-1061416D01*
X1504862Y-1062203D01*
X1506691Y-1062919D01*
X1508546Y-1063562D01*
X1510425Y-1064132D01*
X1512325Y-1064628D01*
X1514244Y-1065049D01*
X1516177Y-1065394D01*
X1518122Y-1065663D01*
X1520076Y-1065855D01*
X1522037Y-1065971D01*
X1524000Y-1066010D01*
X1525963Y-1065971D01*
X1527924Y-1065855D01*
X1529878Y-1065663D01*
X1531823Y-1065394D01*
X1533756Y-1065049D01*
X1535675Y-1064628D01*
X1537575Y-1064132D01*
X1539454Y-1063562D01*
X1541309Y-1062919D01*
X1543138Y-1062203D01*
X1544937Y-1061416D01*
X1546704Y-1060559D01*
X1548436Y-1059633D01*
X1550130Y-1058640D01*
X1551784Y-1057581D01*
X1553395Y-1056459D01*
X1554961Y-1055273D01*
X1556479Y-1054028D01*
X1557947Y-1052723D01*
X1559362Y-1051362D01*
X1560723Y-1049947D01*
X1562028Y-1048479D01*
X1563273Y-1046961D01*
X1564459Y-1045395D01*
X1565581Y-1043784D01*
X1566640Y-1042130D01*
X1567633Y-1040436D01*
X1568559Y-1038704D01*
X1569416Y-1036937D01*
X1570203Y-1035138D01*
X1570919Y-1033309D01*
X1571562Y-1031454D01*
X1572132Y-1029575D01*
X1572628Y-1027675D01*
X1573049Y-1025756D01*
X1573394Y-1023823D01*
X1573663Y-1021878D01*
X1573855Y-1019924D01*
X1573971Y-1017963D01*
X1574010Y-1016000D01*
X1573971Y-1014037D01*
X1573855Y-1012076D01*
X1573663Y-1010122D01*
X1573394Y-1008177D01*
X1573049Y-1006244D01*
X1572628Y-1004325D01*
X1572132Y-1002425D01*
X1571562Y-1000546D01*
X1570919Y-998691D01*
X1570203Y-996862D01*
X1569416Y-995063D01*
X1568559Y-993296D01*
X1567633Y-991564D01*
X1566640Y-989870D01*
X1565581Y-988216D01*
X1564459Y-986605D01*
X1563273Y-985039D01*
X1562028Y-983521D01*
X1560723Y-982053D01*
X1559362Y-980638D01*
X1557947Y-979277D01*
X1556479Y-977972D01*
X1554961Y-976727D01*
X1553395Y-975541D01*
X1551784Y-974419D01*
X1550130Y-973360D01*
X1548436Y-972367D01*
X1546704Y-971441D01*
X1544937Y-970584D01*
X1543138Y-969797D01*
X1541309Y-969081D01*
X1539454Y-968438D01*
X1537575Y-967868D01*
X1535675Y-967372D01*
X1533756Y-966951D01*
X1531823Y-966606D01*
X1529878Y-966337D01*
X1527924Y-966145D01*
X1525963Y-966029D01*
X1524000Y-965990D01*
X1522037Y-966029D01*
X1520076Y-966145D01*
X1518122Y-966337D01*
X1516940Y-966501D01*
X1427009Y-876570D01*
Y825500D01*
X1426973Y826972D01*
X1426865Y828441D01*
X1426684Y829903D01*
X1426433Y831354D01*
X1426110Y832792D01*
X1425717Y834211D01*
X1425255Y835610D01*
X1424725Y836984D01*
X1424128Y838331D01*
X1423466Y839646D01*
X1422740Y840928D01*
X1421952Y842172D01*
X1421104Y843376D01*
X1420197Y844538D01*
X1419235Y845653D01*
X1418220Y846720D01*
X665009Y1599930D01*
Y2053173D01*
X666244Y2053521D01*
X668995Y2054375D01*
X671722Y2055301D01*
X674424Y2056298D01*
X677099Y2057365D01*
X679745Y2058502D01*
X682360Y2059707D01*
X684943Y2060981D01*
X687492Y2062322D01*
X688612Y2062949D01*
X985991Y1765570D01*
Y1563994D01*
X985039Y1563273D01*
X983521Y1562028D01*
X982053Y1560723D01*
X980638Y1559362D01*
X979277Y1557947D01*
X977972Y1556479D01*
X976727Y1554961D01*
X975541Y1553395D01*
X974419Y1551784D01*
X973360Y1550130D01*
X972367Y1548436D01*
X971441Y1546704D01*
X970584Y1544937D01*
X969797Y1543138D01*
X969081Y1541309D01*
X968438Y1539454D01*
X967868Y1537575D01*
X967372Y1535675D01*
X966951Y1533756D01*
X966606Y1531823D01*
X966337Y1529878D01*
X966145Y1527924D01*
X966029Y1525963D01*
X965990Y1524000D01*
X966029Y1522037D01*
X966145Y1520076D01*
X966337Y1518122D01*
X966606Y1516177D01*
X966951Y1514244D01*
X967372Y1512325D01*
X967868Y1510425D01*
X968438Y1508546D01*
X969081Y1506691D01*
X969797Y1504862D01*
X970584Y1503063D01*
X971441Y1501296D01*
X972367Y1499564D01*
X973360Y1497870D01*
X974419Y1496216D01*
X975541Y1494605D01*
X976727Y1493039D01*
X977972Y1491521D01*
X979277Y1490053D01*
X980638Y1488638D01*
X982053Y1487277D01*
X983521Y1485972D01*
X985039Y1484727D01*
X986605Y1483541D01*
X988216Y1482419D01*
X989870Y1481360D01*
X991564Y1480367D01*
X993296Y1479441D01*
X995063Y1478584D01*
X996862Y1477797D01*
X998691Y1477081D01*
X1000546Y1476438D01*
X1002425Y1475868D01*
X1004325Y1475372D01*
X1006244Y1474951D01*
X1008177Y1474606D01*
X1010122Y1474337D01*
X1012076Y1474145D01*
X1014037Y1474029D01*
X1016000Y1473990D01*
X1017963Y1474029D01*
X1019924Y1474145D01*
X1021878Y1474337D01*
X1023823Y1474606D01*
X1025756Y1474951D01*
X1027675Y1475372D01*
X1029575Y1475868D01*
X1031454Y1476438D01*
X1033309Y1477081D01*
X1035138Y1477797D01*
X1036937Y1478584D01*
X1038704Y1479441D01*
X1040436Y1480367D01*
X1042130Y1481360D01*
X1043784Y1482419D01*
X1045395Y1483541D01*
X1046961Y1484727D01*
X1048479Y1485972D01*
X1049947Y1487277D01*
X1051362Y1488638D01*
X1052723Y1490053D01*
X1054028Y1491521D01*
X1055273Y1493039D01*
X1056459Y1494605D01*
X1057581Y1496216D01*
X1058640Y1497870D01*
X1059633Y1499564D01*
X1060559Y1501296D01*
X1061416Y1503063D01*
X1062203Y1504862D01*
X1062919Y1506691D01*
X1063562Y1508546D01*
X1064132Y1510425D01*
X1064628Y1512325D01*
X1065049Y1514244D01*
X1065394Y1516177D01*
X1065663Y1518122D01*
X1065855Y1520076D01*
X1065971Y1522037D01*
X1066010Y1524000D01*
X1065971Y1525963D01*
X1065855Y1527924D01*
X1065663Y1529878D01*
X1065394Y1531823D01*
X1065049Y1533756D01*
X1064628Y1535675D01*
X1064132Y1537575D01*
X1063562Y1539454D01*
X1062919Y1541309D01*
X1062203Y1543138D01*
X1061416Y1544937D01*
X1060559Y1546704D01*
X1059633Y1548436D01*
X1058640Y1550130D01*
X1057581Y1551784D01*
X1056459Y1553395D01*
X1055273Y1554961D01*
X1054028Y1556479D01*
X1052723Y1557947D01*
X1051362Y1559362D01*
X1049947Y1560723D01*
X1048479Y1562028D01*
X1046961Y1563273D01*
X1046009Y1563994D01*
Y1778000D01*
X1045973Y1779472D01*
X1045865Y1780942D01*
X1045684Y1782403D01*
X1045433Y1783854D01*
X1045110Y1785292D01*
X1044717Y1786711D01*
X1044255Y1788110D01*
X1043725Y1789484D01*
X1043128Y1790831D01*
X1042466Y1792146D01*
X1041740Y1793428D01*
X1040952Y1794672D01*
X1040104Y1795876D01*
X1039197Y1797038D01*
X1038235Y1798153D01*
X1037220Y1799220D01*
X731051Y2105388D01*
X731678Y2106508D01*
X733019Y2109057D01*
X734293Y2111640D01*
X735498Y2114255D01*
X736635Y2116901D01*
X737702Y2119576D01*
X738699Y2122278D01*
X739625Y2125005D01*
X740479Y2127756D01*
X740827Y2128991D01*
X783173D01*
X783521Y2127756D01*
X784375Y2125005D01*
X785301Y2122278D01*
X786298Y2119576D01*
X787365Y2116901D01*
X788502Y2114255D01*
X789707Y2111640D01*
X790981Y2109057D01*
X792322Y2106508D01*
X793729Y2103995D01*
X795202Y2101520D01*
X796739Y2099085D01*
X798339Y2096690D01*
X800001Y2094338D01*
X801724Y2092031D01*
X803507Y2089769D01*
X805348Y2087555D01*
X807247Y2085390D01*
X809202Y2083275D01*
X811212Y2081212D01*
X813275Y2079202D01*
X815390Y2077247D01*
X817555Y2075348D01*
X819769Y2073507D01*
X822031Y2071724D01*
X824338Y2070001D01*
X826690Y2068339D01*
X829085Y2066739D01*
X831520Y2065202D01*
X833995Y2063729D01*
X836508Y2062322D01*
X839057Y2060981D01*
X841640Y2059707D01*
X844255Y2058502D01*
X846901Y2057365D01*
X849576Y2056298D01*
X852278Y2055301D01*
X855005Y2054375D01*
X857756Y2053521D01*
X860528Y2052739D01*
X863319Y2052030D01*
X866128Y2051395D01*
X868953Y2050833D01*
X871791Y2050345D01*
X874641Y2049932D01*
X877501Y2049594D01*
X880369Y2049330D01*
X883243Y2049142D01*
X886120Y2049028D01*
X889000Y2048991D01*
X891880Y2049028D01*
X894757Y2049142D01*
X897631Y2049330D01*
X900499Y2049594D01*
X903359Y2049932D01*
X906209Y2050345D01*
X909047Y2050833D01*
X911872Y2051395D01*
X914681Y2052030D01*
X917472Y2052739D01*
X920244Y2053521D01*
X922995Y2054375D01*
X925722Y2055301D01*
X928424Y2056298D01*
X931099Y2057365D01*
X933745Y2058502D01*
X936360Y2059707D01*
X938943Y2060981D01*
X941492Y2062322D01*
X944005Y2063729D01*
X946480Y2065202D01*
X948915Y2066739D01*
X951310Y2068339D01*
X953662Y2070001D01*
X955969Y2071724D01*
X958231Y2073507D01*
X960445Y2075348D01*
X962610Y2077247D01*
X964725Y2079202D01*
X966788Y2081212D01*
X968798Y2083275D01*
X970753Y2085390D01*
X972652Y2087555D01*
X974493Y2089769D01*
X976276Y2092031D01*
X977999Y2094338D01*
X979661Y2096690D01*
X981261Y2099085D01*
X982798Y2101520D01*
X984271Y2103995D01*
X985678Y2106508D01*
X987019Y2109057D01*
X988293Y2111640D01*
X989498Y2114255D01*
X990635Y2116901D01*
X991702Y2119576D01*
X992699Y2122278D01*
X993625Y2125005D01*
X994479Y2127756D01*
X995261Y2130528D01*
X995970Y2133319D01*
X996605Y2136128D01*
X997167Y2138953D01*
X997655Y2141791D01*
X998068Y2144641D01*
X998406Y2147501D01*
X998670Y2150369D01*
X998858Y2153243D01*
X998972Y2156120D01*
X999009Y2159000D01*
X998972Y2161880D01*
X998858Y2164757D01*
X998670Y2167631D01*
X998406Y2170499D01*
X998068Y2173359D01*
X997655Y2176209D01*
X997167Y2179047D01*
X996605Y2181872D01*
X995970Y2184681D01*
X995261Y2187472D01*
X994479Y2190244D01*
X993625Y2192995D01*
X992699Y2195722D01*
X991702Y2198424D01*
X990635Y2201099D01*
X989498Y2203745D01*
X988293Y2206360D01*
X987019Y2208943D01*
X985678Y2211492D01*
X984271Y2214005D01*
X982798Y2216480D01*
X981261Y2218915D01*
X979661Y2221310D01*
X977999Y2223662D01*
X976276Y2225969D01*
X974493Y2228231D01*
X972652Y2230445D01*
X970753Y2232610D01*
X968798Y2234725D01*
X966788Y2236788D01*
X964725Y2238798D01*
X962610Y2240753D01*
X960445Y2242652D01*
X958231Y2244493D01*
X955969Y2246276D01*
X953662Y2247999D01*
X951310Y2249661D01*
X948915Y2251261D01*
X946480Y2252798D01*
X944005Y2254271D01*
X941492Y2255678D01*
X938943Y2257019D01*
X936360Y2258293D01*
X933745Y2259498D01*
X931099Y2260635D01*
X928424Y2261702D01*
X925722Y2262699D01*
X922995Y2263625D01*
X920244Y2264479D01*
X917472Y2265261D01*
X914681Y2265970D01*
X911872Y2266605D01*
X909047Y2267167D01*
X906209Y2267655D01*
X903359Y2268068D01*
X900499Y2268406D01*
X897631Y2268670D01*
X894757Y2268858D01*
X891880Y2268972D01*
X889000Y2269009D01*
D02*
G37*
G36*
X381000D02*
X378121Y2268972D01*
X375243Y2268858D01*
X372369Y2268670D01*
X369501Y2268406D01*
X366641Y2268068D01*
X363791Y2267655D01*
X360953Y2267167D01*
X358128Y2266605D01*
X355319Y2265970D01*
X352528Y2265261D01*
X349756Y2264479D01*
X347006Y2263625D01*
X344278Y2262699D01*
X341576Y2261702D01*
X338902Y2260635D01*
X336256Y2259498D01*
X333640Y2258293D01*
X331057Y2257019D01*
X328508Y2255678D01*
X325996Y2254271D01*
X323521Y2252798D01*
X321085Y2251261D01*
X318690Y2249661D01*
X316338Y2247999D01*
X314031Y2246276D01*
X311769Y2244493D01*
X309555Y2242652D01*
X307390Y2240753D01*
X305275Y2238798D01*
X303212Y2236788D01*
X301202Y2234725D01*
X299248Y2232610D01*
X297349Y2230445D01*
X295507Y2228231D01*
X293724Y2225969D01*
X292001Y2223662D01*
X290339Y2221310D01*
X288739Y2218915D01*
X287202Y2216480D01*
X285729Y2214005D01*
X284322Y2211492D01*
X282981Y2208943D01*
X281708Y2206360D01*
X280502Y2203745D01*
X279365Y2201099D01*
X278298Y2198424D01*
X277301Y2195722D01*
X276375Y2192995D01*
X275521Y2190244D01*
X274740Y2187472D01*
X274031Y2184681D01*
X273395Y2181872D01*
X272833Y2179047D01*
X272345Y2176209D01*
X271932Y2173359D01*
X271594Y2170499D01*
X271330Y2167631D01*
X271142Y2164757D01*
X271029Y2161880D01*
X270991Y2159000D01*
X271029Y2156120D01*
X271142Y2153243D01*
X271330Y2150369D01*
X271594Y2147501D01*
X271932Y2144641D01*
X272345Y2141791D01*
X272833Y2138953D01*
X273395Y2136128D01*
X274031Y2133319D01*
X274740Y2130528D01*
X275521Y2127756D01*
X276375Y2125005D01*
X277301Y2122278D01*
X278298Y2119576D01*
X279365Y2116901D01*
X280502Y2114255D01*
X281708Y2111640D01*
X282981Y2109057D01*
X284322Y2106508D01*
X285729Y2103995D01*
X286238Y2103141D01*
X257106Y2074009D01*
X218660D01*
X215078Y2078125D01*
X213117Y2082303D01*
X211861Y2089009D01*
X212493Y2089769D01*
X214276Y2092031D01*
X215999Y2094338D01*
X217661Y2096690D01*
X219261Y2099085D01*
X220798Y2101520D01*
X222271Y2103995D01*
X223678Y2106508D01*
X225019Y2109057D01*
X226293Y2111640D01*
X227498Y2114255D01*
X228635Y2116901D01*
X229702Y2119576D01*
X230699Y2122278D01*
X231625Y2125005D01*
X232479Y2127756D01*
X233261Y2130528D01*
X233970Y2133319D01*
X234605Y2136128D01*
X235167Y2138953D01*
X235655Y2141791D01*
X236068Y2144641D01*
X236406Y2147501D01*
X236670Y2150369D01*
X236858Y2153243D01*
X236972Y2156120D01*
X237009Y2159000D01*
X236972Y2161880D01*
X236858Y2164757D01*
X236670Y2167631D01*
X236406Y2170499D01*
X236068Y2173359D01*
X235655Y2176209D01*
X235167Y2179047D01*
X234605Y2181872D01*
X233970Y2184681D01*
X233261Y2187472D01*
X232479Y2190244D01*
X231625Y2192995D01*
X230699Y2195722D01*
X229702Y2198424D01*
X228635Y2201099D01*
X227498Y2203745D01*
X226293Y2206360D01*
X225019Y2208943D01*
X223678Y2211492D01*
X222271Y2214005D01*
X220798Y2216480D01*
X219261Y2218915D01*
X217661Y2221310D01*
X215999Y2223662D01*
X214276Y2225969D01*
X212493Y2228231D01*
X210652Y2230445D01*
X208753Y2232610D01*
X206798Y2234725D01*
X204788Y2236788D01*
X202725Y2238798D01*
X200610Y2240753D01*
X198445Y2242652D01*
X196231Y2244493D01*
X193969Y2246276D01*
X191662Y2247999D01*
X189310Y2249661D01*
X186915Y2251261D01*
X184480Y2252798D01*
X182005Y2254271D01*
X179492Y2255678D01*
X176943Y2257019D01*
X174360Y2258293D01*
X171745Y2259498D01*
X169099Y2260635D01*
X166424Y2261702D01*
X163722Y2262699D01*
X160995Y2263625D01*
X158244Y2264479D01*
X155472Y2265261D01*
X152681Y2265970D01*
X149872Y2266605D01*
X147047Y2267167D01*
X144209Y2267655D01*
X141359Y2268068D01*
X138499Y2268406D01*
X135631Y2268670D01*
X132757Y2268858D01*
X129880Y2268972D01*
X127000Y2269009D01*
X124120Y2268972D01*
X121243Y2268858D01*
X118369Y2268670D01*
X115501Y2268406D01*
X112641Y2268068D01*
X109791Y2267655D01*
X106953Y2267167D01*
X104128Y2266605D01*
X101319Y2265970D01*
X98528Y2265261D01*
X95756Y2264479D01*
X93005Y2263625D01*
X90278Y2262699D01*
X87576Y2261702D01*
X84901Y2260635D01*
X82255Y2259498D01*
X79640Y2258293D01*
X77057Y2257019D01*
X74508Y2255678D01*
X71995Y2254271D01*
X69520Y2252798D01*
X67085Y2251261D01*
X64690Y2249661D01*
X62338Y2247999D01*
X60031Y2246276D01*
X57769Y2244493D01*
X55555Y2242652D01*
X53390Y2240753D01*
X51275Y2238798D01*
X49212Y2236788D01*
X47202Y2234725D01*
X45247Y2232610D01*
X43348Y2230445D01*
X41507Y2228231D01*
X39724Y2225969D01*
X38001Y2223662D01*
X36339Y2221310D01*
X34739Y2218915D01*
X33202Y2216480D01*
X31729Y2214005D01*
X30322Y2211492D01*
X28981Y2208943D01*
X27707Y2206360D01*
X26502Y2203745D01*
X25365Y2201099D01*
X24298Y2198424D01*
X23301Y2195722D01*
X22375Y2192995D01*
X21521Y2190244D01*
X20739Y2187472D01*
X20030Y2184681D01*
X19395Y2181872D01*
X18833Y2179047D01*
X18345Y2176209D01*
X17932Y2173359D01*
X17594Y2170499D01*
X17330Y2167631D01*
X17142Y2164757D01*
X17028Y2161880D01*
X16991Y2159000D01*
X17028Y2156120D01*
X17142Y2153243D01*
X17330Y2150369D01*
X17594Y2147501D01*
X17932Y2144641D01*
X18345Y2141791D01*
X18833Y2138953D01*
X19395Y2136128D01*
X20030Y2133319D01*
X20739Y2130528D01*
X21521Y2127756D01*
X22375Y2125005D01*
X23301Y2122278D01*
X24298Y2119576D01*
X25365Y2116901D01*
X26502Y2114255D01*
X27707Y2111640D01*
X28981Y2109057D01*
X30322Y2106508D01*
X31729Y2103995D01*
X33202Y2101520D01*
X34739Y2099085D01*
X36339Y2096690D01*
X38001Y2094338D01*
X39724Y2092031D01*
X41507Y2089769D01*
X42139Y2089009D01*
X40883Y2082303D01*
X38923Y2078125D01*
X35340Y2074009D01*
X-35340D01*
X-38923Y2078125D01*
X-40883Y2082303D01*
X-42139Y2089009D01*
X-41507Y2089769D01*
X-39724Y2092031D01*
X-38001Y2094338D01*
X-36339Y2096690D01*
X-34739Y2099085D01*
X-33202Y2101520D01*
X-31729Y2103995D01*
X-30322Y2106508D01*
X-28981Y2109057D01*
X-27707Y2111640D01*
X-26502Y2114255D01*
X-25365Y2116901D01*
X-24298Y2119576D01*
X-23301Y2122278D01*
X-22375Y2125005D01*
X-21521Y2127756D01*
X-20739Y2130528D01*
X-20030Y2133319D01*
X-19395Y2136128D01*
X-18833Y2138953D01*
X-18345Y2141791D01*
X-17932Y2144641D01*
X-17594Y2147501D01*
X-17330Y2150369D01*
X-17142Y2153243D01*
X-17028Y2156120D01*
X-16991Y2159000D01*
X-17028Y2161880D01*
X-17142Y2164757D01*
X-17330Y2167631D01*
X-17594Y2170499D01*
X-17932Y2173359D01*
X-18345Y2176209D01*
X-18833Y2179047D01*
X-19395Y2181872D01*
X-20030Y2184681D01*
X-20739Y2187472D01*
X-21521Y2190244D01*
X-22375Y2192995D01*
X-23301Y2195722D01*
X-24298Y2198424D01*
X-25365Y2201099D01*
X-26502Y2203745D01*
X-27707Y2206360D01*
X-28981Y2208943D01*
X-30322Y2211492D01*
X-31729Y2214005D01*
X-33202Y2216480D01*
X-34739Y2218915D01*
X-36339Y2221310D01*
X-38001Y2223662D01*
X-39724Y2225969D01*
X-41507Y2228231D01*
X-43348Y2230445D01*
X-45247Y2232610D01*
X-47202Y2234725D01*
X-49212Y2236788D01*
X-51275Y2238798D01*
X-53390Y2240753D01*
X-55555Y2242652D01*
X-57769Y2244493D01*
X-60031Y2246276D01*
X-62338Y2247999D01*
X-64690Y2249661D01*
X-67085Y2251261D01*
X-69520Y2252798D01*
X-71995Y2254271D01*
X-74508Y2255678D01*
X-77057Y2257019D01*
X-79640Y2258293D01*
X-82255Y2259498D01*
X-84901Y2260635D01*
X-87576Y2261702D01*
X-90278Y2262699D01*
X-93005Y2263625D01*
X-95756Y2264479D01*
X-98528Y2265261D01*
X-101319Y2265970D01*
X-104128Y2266605D01*
X-106953Y2267167D01*
X-109791Y2267655D01*
X-112641Y2268068D01*
X-115501Y2268406D01*
X-118369Y2268670D01*
X-121243Y2268858D01*
X-124120Y2268972D01*
X-127000Y2269009D01*
X-129880Y2268972D01*
X-132757Y2268858D01*
X-135631Y2268670D01*
X-138499Y2268406D01*
X-141359Y2268068D01*
X-144209Y2267655D01*
X-147047Y2267167D01*
X-149872Y2266605D01*
X-152681Y2265970D01*
X-155472Y2265261D01*
X-158244Y2264479D01*
X-160995Y2263625D01*
X-163722Y2262699D01*
X-166424Y2261702D01*
X-169099Y2260635D01*
X-171745Y2259498D01*
X-174360Y2258293D01*
X-176943Y2257019D01*
X-179492Y2255678D01*
X-182005Y2254271D01*
X-184480Y2252798D01*
X-186915Y2251261D01*
X-189310Y2249661D01*
X-191662Y2247999D01*
X-193969Y2246276D01*
X-196231Y2244493D01*
X-198445Y2242652D01*
X-200610Y2240753D01*
X-202725Y2238798D01*
X-204788Y2236788D01*
X-206798Y2234725D01*
X-208753Y2232610D01*
X-210652Y2230445D01*
X-212493Y2228231D01*
X-214276Y2225969D01*
X-215999Y2223662D01*
X-217661Y2221310D01*
X-219261Y2218915D01*
X-220798Y2216480D01*
X-222271Y2214005D01*
X-223678Y2211492D01*
X-225019Y2208943D01*
X-226293Y2206360D01*
X-227498Y2203745D01*
X-228635Y2201099D01*
X-229702Y2198424D01*
X-230699Y2195722D01*
X-231625Y2192995D01*
X-232479Y2190244D01*
X-233261Y2187472D01*
X-233970Y2184681D01*
X-234605Y2181872D01*
X-235167Y2179047D01*
X-235655Y2176209D01*
X-236068Y2173359D01*
X-236406Y2170499D01*
X-236670Y2167631D01*
X-236858Y2164757D01*
X-236972Y2161880D01*
X-237009Y2159000D01*
X-236972Y2156120D01*
X-236858Y2153243D01*
X-236670Y2150369D01*
X-236406Y2147501D01*
X-236068Y2144641D01*
X-235655Y2141791D01*
X-235167Y2138953D01*
X-234605Y2136128D01*
X-233970Y2133319D01*
X-233261Y2130528D01*
X-232479Y2127756D01*
X-231625Y2125005D01*
X-230699Y2122278D01*
X-229702Y2119576D01*
X-228635Y2116901D01*
X-227498Y2114255D01*
X-226293Y2111640D01*
X-225019Y2109057D01*
X-223678Y2106508D01*
X-222271Y2103995D01*
X-220798Y2101520D01*
X-219261Y2099085D01*
X-217661Y2096690D01*
X-215999Y2094338D01*
X-214276Y2092031D01*
X-212493Y2089769D01*
X-211861Y2089009D01*
X-213117Y2082303D01*
X-215077Y2078125D01*
X-218660Y2074009D01*
X-289340D01*
X-292923Y2078125D01*
X-294884Y2082303D01*
X-296139Y2089009D01*
X-295507Y2089769D01*
X-293724Y2092031D01*
X-292001Y2094338D01*
X-290339Y2096690D01*
X-288739Y2099085D01*
X-287202Y2101520D01*
X-285729Y2103995D01*
X-284322Y2106508D01*
X-282981Y2109057D01*
X-281708Y2111640D01*
X-280502Y2114255D01*
X-279365Y2116901D01*
X-278298Y2119576D01*
X-277301Y2122278D01*
X-276375Y2125005D01*
X-275521Y2127756D01*
X-274740Y2130528D01*
X-274031Y2133319D01*
X-273395Y2136128D01*
X-272833Y2138953D01*
X-272345Y2141791D01*
X-271932Y2144641D01*
X-271594Y2147501D01*
X-271330Y2150369D01*
X-271142Y2153243D01*
X-271029Y2156120D01*
X-270991Y2159000D01*
X-271029Y2161880D01*
X-271142Y2164757D01*
X-271330Y2167631D01*
X-271594Y2170499D01*
X-271932Y2173359D01*
X-272345Y2176209D01*
X-272833Y2179047D01*
X-273395Y2181872D01*
X-274031Y2184681D01*
X-274740Y2187472D01*
X-275521Y2190244D01*
X-276375Y2192995D01*
X-277301Y2195722D01*
X-278298Y2198424D01*
X-279365Y2201099D01*
X-280502Y2203745D01*
X-281708Y2206360D01*
X-282981Y2208943D01*
X-284322Y2211492D01*
X-285729Y2214005D01*
X-287202Y2216480D01*
X-288739Y2218915D01*
X-290339Y2221310D01*
X-292001Y2223662D01*
X-293724Y2225969D01*
X-295507Y2228231D01*
X-297349Y2230445D01*
X-299248Y2232610D01*
X-301202Y2234725D01*
X-303212Y2236788D01*
X-305275Y2238798D01*
X-307390Y2240753D01*
X-309555Y2242652D01*
X-311769Y2244493D01*
X-314031Y2246276D01*
X-316338Y2247999D01*
X-318690Y2249661D01*
X-321085Y2251261D01*
X-323521Y2252798D01*
X-325996Y2254271D01*
X-328508Y2255678D01*
X-331057Y2257019D01*
X-333640Y2258293D01*
X-336256Y2259498D01*
X-338902Y2260635D01*
X-341576Y2261702D01*
X-344278Y2262699D01*
X-347006Y2263625D01*
X-349756Y2264479D01*
X-352528Y2265261D01*
X-355319Y2265970D01*
X-358128Y2266605D01*
X-360953Y2267167D01*
X-363791Y2267655D01*
X-366641Y2268068D01*
X-369501Y2268406D01*
X-372369Y2268670D01*
X-375243Y2268858D01*
X-378121Y2268972D01*
X-381000Y2269009D01*
X-383880Y2268972D01*
X-386758Y2268858D01*
X-389631Y2268670D01*
X-392499Y2268406D01*
X-395359Y2268068D01*
X-398210Y2267655D01*
X-401048Y2267167D01*
X-403872Y2266605D01*
X-406681Y2265970D01*
X-409473Y2265261D01*
X-412245Y2264479D01*
X-414995Y2263625D01*
X-417722Y2262699D01*
X-420424Y2261702D01*
X-423099Y2260635D01*
X-425745Y2259498D01*
X-428360Y2258293D01*
X-430943Y2257019D01*
X-433492Y2255678D01*
X-436005Y2254271D01*
X-438480Y2252798D01*
X-440916Y2251261D01*
X-443310Y2249661D01*
X-445662Y2247999D01*
X-447970Y2246276D01*
X-450231Y2244493D01*
X-452445Y2242652D01*
X-454611Y2240753D01*
X-456726Y2238798D01*
X-458789Y2236788D01*
X-460798Y2234725D01*
X-462753Y2232610D01*
X-464652Y2230445D01*
X-466493Y2228231D01*
X-468276Y2225969D01*
X-470000Y2223662D01*
X-471662Y2221310D01*
X-473262Y2218915D01*
X-474798Y2216480D01*
X-476271Y2214005D01*
X-477678Y2211492D01*
X-479019Y2208943D01*
X-480293Y2206360D01*
X-481499Y2203745D01*
X-482636Y2201099D01*
X-483703Y2198424D01*
X-484700Y2195722D01*
X-485625Y2192995D01*
X-486479Y2190244D01*
X-487261Y2187472D01*
X-487970Y2184681D01*
X-488606Y2181872D01*
X-489167Y2179047D01*
X-489655Y2176209D01*
X-490068Y2173359D01*
X-490407Y2170499D01*
X-490670Y2167631D01*
X-490859Y2164757D01*
X-490972Y2161880D01*
X-491009Y2159000D01*
X-490972Y2156120D01*
X-490859Y2153243D01*
X-490670Y2150369D01*
X-490407Y2147501D01*
X-490068Y2144641D01*
X-489655Y2141791D01*
X-489167Y2138953D01*
X-488606Y2136128D01*
X-487970Y2133319D01*
X-487261Y2130528D01*
X-486479Y2127756D01*
X-485625Y2125005D01*
X-484700Y2122278D01*
X-483703Y2119576D01*
X-482636Y2116901D01*
X-481499Y2114255D01*
X-480293Y2111640D01*
X-479019Y2109057D01*
X-477678Y2106508D01*
X-476271Y2103995D01*
X-474798Y2101520D01*
X-473262Y2099085D01*
X-471662Y2096690D01*
X-470000Y2094338D01*
X-468276Y2092031D01*
X-466493Y2089769D01*
X-465861Y2089009D01*
X-467117Y2082303D01*
X-469078Y2078125D01*
X-472660Y2074009D01*
X-543340D01*
X-546922Y2078125D01*
X-548883Y2082303D01*
X-550139Y2089009D01*
X-549507Y2089769D01*
X-547724Y2092031D01*
X-546000Y2094338D01*
X-544338Y2096690D01*
X-542738Y2099085D01*
X-541202Y2101520D01*
X-539729Y2103995D01*
X-538322Y2106508D01*
X-536981Y2109057D01*
X-535707Y2111640D01*
X-534501Y2114255D01*
X-533364Y2116901D01*
X-532297Y2119576D01*
X-531300Y2122278D01*
X-530375Y2125005D01*
X-529521Y2127756D01*
X-528739Y2130528D01*
X-528030Y2133319D01*
X-527394Y2136128D01*
X-526833Y2138953D01*
X-526345Y2141791D01*
X-525932Y2144641D01*
X-525593Y2147501D01*
X-525330Y2150369D01*
X-525141Y2153243D01*
X-525028Y2156120D01*
X-524991Y2159000D01*
X-525028Y2161880D01*
X-525141Y2164757D01*
X-525330Y2167631D01*
X-525593Y2170499D01*
X-525932Y2173359D01*
X-526345Y2176209D01*
X-526833Y2179047D01*
X-527394Y2181872D01*
X-528030Y2184681D01*
X-528739Y2187472D01*
X-529521Y2190244D01*
X-530375Y2192995D01*
X-531300Y2195722D01*
X-532297Y2198424D01*
X-533364Y2201099D01*
X-534501Y2203745D01*
X-535707Y2206360D01*
X-536981Y2208943D01*
X-538322Y2211492D01*
X-539729Y2214005D01*
X-541202Y2216480D01*
X-542738Y2218915D01*
X-544338Y2221310D01*
X-546000Y2223662D01*
X-547724Y2225969D01*
X-549507Y2228231D01*
X-551348Y2230445D01*
X-553247Y2232610D01*
X-555202Y2234725D01*
X-557211Y2236788D01*
X-559274Y2238798D01*
X-561389Y2240753D01*
X-563555Y2242652D01*
X-565769Y2244493D01*
X-568030Y2246276D01*
X-570338Y2247999D01*
X-572690Y2249661D01*
X-575084Y2251261D01*
X-577520Y2252798D01*
X-579995Y2254271D01*
X-582508Y2255678D01*
X-585057Y2257019D01*
X-587640Y2258293D01*
X-590255Y2259498D01*
X-592901Y2260635D01*
X-595576Y2261702D01*
X-598278Y2262699D01*
X-601005Y2263625D01*
X-603755Y2264479D01*
X-606527Y2265261D01*
X-609319Y2265970D01*
X-612128Y2266605D01*
X-614952Y2267167D01*
X-617790Y2267655D01*
X-620641Y2268068D01*
X-623501Y2268406D01*
X-626369Y2268670D01*
X-629242Y2268858D01*
X-632120Y2268972D01*
X-635000Y2269009D01*
X-637879Y2268972D01*
X-640757Y2268858D01*
X-643631Y2268670D01*
X-646499Y2268406D01*
X-649359Y2268068D01*
X-652209Y2267655D01*
X-655047Y2267167D01*
X-657872Y2266605D01*
X-660681Y2265970D01*
X-663472Y2265261D01*
X-666244Y2264479D01*
X-668994Y2263625D01*
X-671722Y2262699D01*
X-674424Y2261702D01*
X-677098Y2260635D01*
X-679744Y2259498D01*
X-682360Y2258293D01*
X-684943Y2257019D01*
X-687492Y2255678D01*
X-690004Y2254271D01*
X-692479Y2252798D01*
X-694915Y2251261D01*
X-697310Y2249661D01*
X-699662Y2247999D01*
X-701969Y2246276D01*
X-704231Y2244493D01*
X-706445Y2242652D01*
X-708610Y2240753D01*
X-710725Y2238798D01*
X-712788Y2236788D01*
X-714798Y2234725D01*
X-716752Y2232610D01*
X-718651Y2230445D01*
X-720493Y2228231D01*
X-722276Y2225969D01*
X-723999Y2223662D01*
X-725661Y2221310D01*
X-727261Y2218915D01*
X-728798Y2216480D01*
X-730271Y2214005D01*
X-731678Y2211492D01*
X-733019Y2208943D01*
X-734292Y2206360D01*
X-735498Y2203745D01*
X-736635Y2201099D01*
X-737702Y2198424D01*
X-738699Y2195722D01*
X-739625Y2192995D01*
X-740479Y2190244D01*
X-741260Y2187472D01*
X-741969Y2184681D01*
X-742605Y2181872D01*
X-743167Y2179047D01*
X-743655Y2176209D01*
X-744068Y2173359D01*
X-744406Y2170499D01*
X-744670Y2167631D01*
X-744858Y2164757D01*
X-744971Y2161880D01*
X-745009Y2159000D01*
X-744971Y2156120D01*
X-744858Y2153243D01*
X-744670Y2150369D01*
X-744406Y2147501D01*
X-744068Y2144641D01*
X-743655Y2141791D01*
X-743167Y2138953D01*
X-742605Y2136128D01*
X-741969Y2133319D01*
X-741260Y2130528D01*
X-740479Y2127756D01*
X-739625Y2125005D01*
X-738699Y2122278D01*
X-737702Y2119576D01*
X-736635Y2116901D01*
X-735498Y2114255D01*
X-734292Y2111640D01*
X-733019Y2109057D01*
X-731678Y2106508D01*
X-730271Y2103995D01*
X-728798Y2101520D01*
X-727261Y2099085D01*
X-725661Y2096690D01*
X-723999Y2094338D01*
X-722276Y2092031D01*
X-720493Y2089769D01*
X-719861Y2089009D01*
X-721116Y2082303D01*
X-723077Y2078125D01*
X-726660Y2074009D01*
X-1527105D01*
X-1556237Y2103141D01*
X-1555729Y2103995D01*
X-1554322Y2106508D01*
X-1552981Y2109057D01*
X-1551707Y2111640D01*
X-1550501Y2114255D01*
X-1549364Y2116901D01*
X-1548297Y2119576D01*
X-1547300Y2122278D01*
X-1546375Y2125005D01*
X-1545521Y2127756D01*
X-1544739Y2130528D01*
X-1544030Y2133319D01*
X-1543394Y2136128D01*
X-1542833Y2138953D01*
X-1542345Y2141791D01*
X-1541932Y2144641D01*
X-1541593Y2147501D01*
X-1541330Y2150369D01*
X-1541141Y2153243D01*
X-1541028Y2156120D01*
X-1540991Y2159000D01*
X-1541028Y2161880D01*
X-1541141Y2164757D01*
X-1541330Y2167631D01*
X-1541593Y2170499D01*
X-1541932Y2173359D01*
X-1542345Y2176209D01*
X-1542833Y2179047D01*
X-1543394Y2181872D01*
X-1544030Y2184681D01*
X-1544739Y2187472D01*
X-1545521Y2190244D01*
X-1546375Y2192995D01*
X-1547300Y2195722D01*
X-1548297Y2198424D01*
X-1549364Y2201099D01*
X-1550501Y2203745D01*
X-1551707Y2206360D01*
X-1552981Y2208943D01*
X-1554322Y2211492D01*
X-1555729Y2214005D01*
X-1557202Y2216480D01*
X-1558738Y2218915D01*
X-1560338Y2221310D01*
X-1562000Y2223662D01*
X-1563724Y2225969D01*
X-1565507Y2228231D01*
X-1567348Y2230445D01*
X-1569247Y2232610D01*
X-1571202Y2234725D01*
X-1573211Y2236788D01*
X-1575274Y2238798D01*
X-1577389Y2240753D01*
X-1579555Y2242652D01*
X-1581769Y2244493D01*
X-1584030Y2246276D01*
X-1586338Y2247999D01*
X-1588690Y2249661D01*
X-1591084Y2251261D01*
X-1593520Y2252798D01*
X-1595995Y2254271D01*
X-1598508Y2255678D01*
X-1601057Y2257019D01*
X-1603640Y2258293D01*
X-1606255Y2259498D01*
X-1608901Y2260635D01*
X-1611576Y2261702D01*
X-1614278Y2262699D01*
X-1617005Y2263625D01*
X-1619755Y2264479D01*
X-1622527Y2265261D01*
X-1625319Y2265970D01*
X-1628128Y2266605D01*
X-1630952Y2267167D01*
X-1633790Y2267655D01*
X-1636641Y2268068D01*
X-1639501Y2268406D01*
X-1642369Y2268670D01*
X-1645242Y2268858D01*
X-1648120Y2268972D01*
X-1651000Y2269009D01*
X-1653879Y2268972D01*
X-1656757Y2268858D01*
X-1659631Y2268670D01*
X-1662499Y2268406D01*
X-1665359Y2268068D01*
X-1668209Y2267655D01*
X-1671047Y2267167D01*
X-1673872Y2266605D01*
X-1676681Y2265970D01*
X-1679472Y2265261D01*
X-1682244Y2264479D01*
X-1684994Y2263625D01*
X-1687722Y2262699D01*
X-1690424Y2261702D01*
X-1693098Y2260635D01*
X-1695744Y2259498D01*
X-1698360Y2258293D01*
X-1700943Y2257019D01*
X-1703492Y2255678D01*
X-1706004Y2254271D01*
X-1708479Y2252798D01*
X-1710915Y2251261D01*
X-1713310Y2249661D01*
X-1715662Y2247999D01*
X-1717969Y2246276D01*
X-1720231Y2244493D01*
X-1722445Y2242652D01*
X-1724610Y2240753D01*
X-1726725Y2238798D01*
X-1728788Y2236788D01*
X-1730798Y2234725D01*
X-1732752Y2232610D01*
X-1734651Y2230445D01*
X-1736493Y2228231D01*
X-1738276Y2225969D01*
X-1739999Y2223662D01*
X-1741661Y2221310D01*
X-1743261Y2218915D01*
X-1744798Y2216480D01*
X-1746271Y2214005D01*
X-1747678Y2211492D01*
X-1749019Y2208943D01*
X-1750292Y2206360D01*
X-1751498Y2203745D01*
X-1752635Y2201099D01*
X-1753702Y2198424D01*
X-1754699Y2195722D01*
X-1755625Y2192995D01*
X-1756479Y2190244D01*
X-1757260Y2187472D01*
X-1757505Y2186509D01*
X-1798495D01*
X-1798739Y2187472D01*
X-1799521Y2190244D01*
X-1800375Y2192994D01*
X-1801301Y2195722D01*
X-1802298Y2198424D01*
X-1803365Y2201098D01*
X-1804502Y2203744D01*
X-1805707Y2206360D01*
X-1806981Y2208943D01*
X-1808322Y2211492D01*
X-1809729Y2214004D01*
X-1811202Y2216479D01*
X-1812739Y2218915D01*
X-1814339Y2221310D01*
X-1816001Y2223662D01*
X-1817724Y2225969D01*
X-1819507Y2228231D01*
X-1821348Y2230445D01*
X-1823247Y2232610D01*
X-1825202Y2234725D01*
X-1827212Y2236788D01*
X-1829275Y2238798D01*
X-1831390Y2240752D01*
X-1833555Y2242651D01*
X-1835769Y2244493D01*
X-1838031Y2246276D01*
X-1840338Y2247999D01*
X-1842690Y2249661D01*
X-1845085Y2251261D01*
X-1847520Y2252798D01*
X-1849995Y2254271D01*
X-1852508Y2255678D01*
X-1855057Y2257019D01*
X-1857640Y2258292D01*
X-1860255Y2259498D01*
X-1862901Y2260635D01*
X-1865576Y2261702D01*
X-1868278Y2262699D01*
X-1871005Y2263625D01*
X-1873756Y2264479D01*
X-1876528Y2265260D01*
X-1879319Y2265969D01*
X-1882128Y2266605D01*
X-1884953Y2267167D01*
X-1887791Y2267655D01*
X-1890641Y2268068D01*
X-1893501Y2268406D01*
X-1896369Y2268670D01*
X-1899243Y2268858D01*
X-1902120Y2268971D01*
X-1905000Y2269009D01*
X-1907880Y2268971D01*
X-1910757Y2268858D01*
X-1913631Y2268670D01*
X-1916499Y2268406D01*
X-1919359Y2268068D01*
X-1922209Y2267655D01*
X-1925047Y2267167D01*
X-1927872Y2266605D01*
X-1930681Y2265969D01*
X-1933472Y2265260D01*
X-1936244Y2264479D01*
X-1938995Y2263625D01*
X-1941722Y2262699D01*
X-1944424Y2261702D01*
X-1947099Y2260635D01*
X-1949745Y2259498D01*
X-1952360Y2258292D01*
X-1954943Y2257019D01*
X-1957492Y2255678D01*
X-1960005Y2254271D01*
X-1962480Y2252798D01*
X-1964915Y2251261D01*
X-1967310Y2249661D01*
X-1969662Y2247999D01*
X-1971969Y2246276D01*
X-1974231Y2244493D01*
X-1976445Y2242651D01*
X-1978610Y2240752D01*
X-1980725Y2238798D01*
X-1982788Y2236788D01*
X-1984798Y2234725D01*
X-1986753Y2232610D01*
X-1988652Y2230445D01*
X-1990493Y2228231D01*
X-1992276Y2225969D01*
X-1993999Y2223662D01*
X-1995661Y2221310D01*
X-1997261Y2218915D01*
X-1998798Y2216479D01*
X-2000271Y2214004D01*
X-2001678Y2211492D01*
X-2003019Y2208943D01*
X-2004293Y2206360D01*
X-2005498Y2203744D01*
X-2006635Y2201098D01*
X-2007702Y2198424D01*
X-2008699Y2195722D01*
X-2009625Y2192994D01*
X-2010479Y2190244D01*
X-2011261Y2187472D01*
X-2011970Y2184681D01*
X-2012605Y2181872D01*
X-2013167Y2179047D01*
X-2013655Y2176209D01*
X-2014068Y2173359D01*
X-2014406Y2170499D01*
X-2014670Y2167631D01*
X-2014858Y2164757D01*
X-2014972Y2161879D01*
X-2015009Y2159000D01*
X-2014972Y2156120D01*
X-2014858Y2153242D01*
X-2014670Y2150369D01*
X-2014406Y2147501D01*
X-2014068Y2144641D01*
X-2013655Y2141790D01*
X-2013167Y2138952D01*
X-2012605Y2136128D01*
X-2011970Y2133319D01*
X-2011261Y2130527D01*
X-2010479Y2127755D01*
X-2009625Y2125005D01*
X-2008699Y2122278D01*
X-2007702Y2119576D01*
X-2006635Y2116901D01*
X-2005498Y2114255D01*
X-2004293Y2111640D01*
X-2003019Y2109057D01*
X-2001678Y2106508D01*
X-2000271Y2103995D01*
X-1998798Y2101520D01*
X-1997261Y2099084D01*
X-1995661Y2096690D01*
X-1993999Y2094338D01*
X-1992276Y2092030D01*
X-1990493Y2089769D01*
X-1988652Y2087555D01*
X-1986753Y2085389D01*
X-1984798Y2083274D01*
X-1982788Y2081211D01*
X-1980725Y2079202D01*
X-1978610Y2077247D01*
X-1976445Y2075348D01*
X-1974231Y2073507D01*
X-1971969Y2071724D01*
X-1969662Y2070000D01*
X-1967310Y2068338D01*
X-1964915Y2066738D01*
X-1962480Y2065202D01*
X-1960005Y2063729D01*
X-1957492Y2062322D01*
X-1954943Y2060981D01*
X-1952360Y2059707D01*
X-1949745Y2058501D01*
X-1947099Y2057364D01*
X-1944424Y2056297D01*
X-1941722Y2055300D01*
X-1938995Y2054375D01*
X-1936244Y2053521D01*
X-1933472Y2052739D01*
X-1930681Y2052030D01*
X-1927872Y2051394D01*
X-1925047Y2050833D01*
X-1922209Y2050345D01*
X-1919359Y2049932D01*
X-1916499Y2049593D01*
X-1913631Y2049330D01*
X-1910757Y2049141D01*
X-1907880Y2049028D01*
X-1905000Y2048991D01*
X-1902120Y2049028D01*
X-1899243Y2049141D01*
X-1896369Y2049330D01*
X-1893501Y2049593D01*
X-1890641Y2049932D01*
X-1887791Y2050345D01*
X-1884953Y2050833D01*
X-1882128Y2051394D01*
X-1879319Y2052030D01*
X-1876528Y2052739D01*
X-1873756Y2053521D01*
X-1871005Y2054375D01*
X-1868278Y2055300D01*
X-1865576Y2056297D01*
X-1862901Y2057364D01*
X-1860255Y2058501D01*
X-1857640Y2059707D01*
X-1855057Y2060981D01*
X-1852508Y2062322D01*
X-1849995Y2063729D01*
X-1847520Y2065202D01*
X-1845085Y2066738D01*
X-1842690Y2068338D01*
X-1840338Y2070000D01*
X-1838031Y2071724D01*
X-1835769Y2073507D01*
X-1833555Y2075348D01*
X-1831390Y2077247D01*
X-1829275Y2079202D01*
X-1827212Y2081211D01*
X-1825202Y2083274D01*
X-1823247Y2085389D01*
X-1821348Y2087555D01*
X-1819507Y2089769D01*
X-1817724Y2092030D01*
X-1816001Y2094338D01*
X-1814339Y2096690D01*
X-1812739Y2099084D01*
X-1811202Y2101520D01*
X-1809729Y2103995D01*
X-1808322Y2106508D01*
X-1806981Y2109057D01*
X-1805707Y2111640D01*
X-1804502Y2114255D01*
X-1803365Y2116901D01*
X-1802298Y2119576D01*
X-1801301Y2122278D01*
X-1800375Y2125005D01*
X-1799521Y2127755D01*
X-1798739Y2130527D01*
X-1798495Y2131491D01*
X-1757505D01*
X-1757260Y2130528D01*
X-1756479Y2127756D01*
X-1755625Y2125005D01*
X-1754699Y2122278D01*
X-1753702Y2119576D01*
X-1752635Y2116901D01*
X-1751498Y2114255D01*
X-1750292Y2111640D01*
X-1749019Y2109057D01*
X-1747678Y2106508D01*
X-1746271Y2103995D01*
X-1744798Y2101520D01*
X-1743261Y2099085D01*
X-1741661Y2096690D01*
X-1739999Y2094338D01*
X-1738276Y2092031D01*
X-1736493Y2089769D01*
X-1734651Y2087555D01*
X-1732752Y2085390D01*
X-1730798Y2083275D01*
X-1728788Y2081212D01*
X-1726725Y2079202D01*
X-1724610Y2077247D01*
X-1722445Y2075348D01*
X-1720231Y2073507D01*
X-1717969Y2071724D01*
X-1715662Y2070001D01*
X-1713310Y2068339D01*
X-1710915Y2066739D01*
X-1708479Y2065202D01*
X-1706004Y2063729D01*
X-1703492Y2062322D01*
X-1700943Y2060981D01*
X-1698360Y2059707D01*
X-1695744Y2058502D01*
X-1693098Y2057365D01*
X-1690424Y2056298D01*
X-1687722Y2055301D01*
X-1684994Y2054375D01*
X-1682244Y2053521D01*
X-1679472Y2052739D01*
X-1676681Y2052030D01*
X-1673872Y2051395D01*
X-1671047Y2050833D01*
X-1668209Y2050345D01*
X-1665359Y2049932D01*
X-1662499Y2049594D01*
X-1659631Y2049330D01*
X-1656757Y2049142D01*
X-1653879Y2049028D01*
X-1651000Y2048991D01*
X-1648120Y2049028D01*
X-1645242Y2049142D01*
X-1642369Y2049330D01*
X-1639501Y2049594D01*
X-1636641Y2049932D01*
X-1633790Y2050345D01*
X-1630952Y2050833D01*
X-1628128Y2051395D01*
X-1625319Y2052030D01*
X-1622527Y2052739D01*
X-1619755Y2053521D01*
X-1617005Y2054375D01*
X-1614278Y2055301D01*
X-1611576Y2056298D01*
X-1608901Y2057365D01*
X-1606255Y2058502D01*
X-1603640Y2059707D01*
X-1601057Y2060981D01*
X-1598508Y2062322D01*
X-1595995Y2063729D01*
X-1595141Y2064237D01*
X-1557951Y2027048D01*
X-1556907Y2026056D01*
X-1555812Y2025121D01*
X-1554669Y2024244D01*
X-1553482Y2023429D01*
X-1552254Y2022676D01*
X-1550989Y2021989D01*
X-1549689Y2021369D01*
X-1548358Y2020818D01*
X-1547000Y2020337D01*
X-1545619Y2019928D01*
X-1544219Y2019592D01*
X-1542803Y2019329D01*
X-1541375Y2019141D01*
X-1539939Y2019028D01*
X-1538500Y2018991D01*
X-1524000D01*
X182489Y2018991D01*
X188229Y2005133D01*
X-1087952Y728952D01*
X-1088943Y727907D01*
X-1089879Y726812D01*
X-1090756Y725669D01*
X-1091571Y724482D01*
X-1092324Y723254D01*
X-1093011Y721989D01*
X-1093631Y720689D01*
X-1094182Y719358D01*
X-1094663Y718001D01*
X-1095072Y716620D01*
X-1095408Y715219D01*
X-1095671Y713803D01*
X-1095859Y712375D01*
X-1095972Y710939D01*
X-1096009Y709500D01*
Y-549105D01*
X-1513925Y-967021D01*
X-1514244Y-966951D01*
X-1516177Y-966606D01*
X-1518122Y-966337D01*
X-1520076Y-966145D01*
X-1522037Y-966029D01*
X-1524000Y-965990D01*
X-1525963Y-966029D01*
X-1527924Y-966145D01*
X-1529878Y-966337D01*
X-1531823Y-966606D01*
X-1533756Y-966951D01*
X-1535675Y-967372D01*
X-1537575Y-967868D01*
X-1539454Y-968438D01*
X-1541309Y-969081D01*
X-1543138Y-969797D01*
X-1544937Y-970584D01*
X-1546704Y-971441D01*
X-1548436Y-972367D01*
X-1550130Y-973360D01*
X-1551784Y-974419D01*
X-1553395Y-975541D01*
X-1554961Y-976727D01*
X-1556479Y-977972D01*
X-1557947Y-979277D01*
X-1559362Y-980638D01*
X-1560723Y-982053D01*
X-1562028Y-983521D01*
X-1563273Y-985039D01*
X-1564459Y-986605D01*
X-1565581Y-988216D01*
X-1566640Y-989870D01*
X-1567633Y-991564D01*
X-1568559Y-993296D01*
X-1569416Y-995063D01*
X-1570203Y-996862D01*
X-1570919Y-998691D01*
X-1571562Y-1000546D01*
X-1572132Y-1002425D01*
X-1572628Y-1004325D01*
X-1573049Y-1006244D01*
X-1573394Y-1008177D01*
X-1573663Y-1010122D01*
X-1573855Y-1012076D01*
X-1573971Y-1014037D01*
X-1574010Y-1016000D01*
X-1573971Y-1017963D01*
X-1573855Y-1019924D01*
X-1573663Y-1021878D01*
X-1573394Y-1023823D01*
X-1573049Y-1025756D01*
X-1572628Y-1027675D01*
X-1572132Y-1029575D01*
X-1571562Y-1031454D01*
X-1570919Y-1033309D01*
X-1570203Y-1035138D01*
X-1569416Y-1036937D01*
X-1568559Y-1038704D01*
X-1567633Y-1040436D01*
X-1566640Y-1042130D01*
X-1565581Y-1043784D01*
X-1564459Y-1045395D01*
X-1563273Y-1046961D01*
X-1562028Y-1048479D01*
X-1560723Y-1049947D01*
X-1559362Y-1051362D01*
X-1557947Y-1052723D01*
X-1556479Y-1054028D01*
X-1554961Y-1055273D01*
X-1553395Y-1056459D01*
X-1551784Y-1057581D01*
X-1550130Y-1058640D01*
X-1548436Y-1059633D01*
X-1546704Y-1060559D01*
X-1544937Y-1061416D01*
X-1543138Y-1062203D01*
X-1541309Y-1062919D01*
X-1539454Y-1063562D01*
X-1537575Y-1064132D01*
X-1535675Y-1064628D01*
X-1533756Y-1065049D01*
X-1531823Y-1065394D01*
X-1529878Y-1065663D01*
X-1527924Y-1065855D01*
X-1525963Y-1065971D01*
X-1524000Y-1066010D01*
X-1522037Y-1065971D01*
X-1520076Y-1065855D01*
X-1518122Y-1065663D01*
X-1516177Y-1065394D01*
X-1514244Y-1065049D01*
X-1512325Y-1064628D01*
X-1510425Y-1064132D01*
X-1508546Y-1063562D01*
X-1506691Y-1062919D01*
X-1504862Y-1062203D01*
X-1503063Y-1061416D01*
X-1501296Y-1060559D01*
X-1499564Y-1059633D01*
X-1497870Y-1058640D01*
X-1496216Y-1057581D01*
X-1494605Y-1056459D01*
X-1493039Y-1055273D01*
X-1491521Y-1054028D01*
X-1490053Y-1052723D01*
X-1488638Y-1051362D01*
X-1487277Y-1049947D01*
X-1485972Y-1048479D01*
X-1484727Y-1046961D01*
X-1483541Y-1045395D01*
X-1482419Y-1043784D01*
X-1481360Y-1042130D01*
X-1480367Y-1040436D01*
X-1479441Y-1038704D01*
X-1478584Y-1036937D01*
X-1477797Y-1035138D01*
X-1477081Y-1033309D01*
X-1476438Y-1031454D01*
X-1475868Y-1029575D01*
X-1475372Y-1027675D01*
X-1474951Y-1025756D01*
X-1474606Y-1023823D01*
X-1474337Y-1021878D01*
X-1474145Y-1019924D01*
X-1474029Y-1017963D01*
X-1473990Y-1016000D01*
X-1474029Y-1014037D01*
X-1474145Y-1012076D01*
X-1474337Y-1010122D01*
X-1474606Y-1008177D01*
X-1474951Y-1006244D01*
X-1475021Y-1005925D01*
X-1049048Y-579952D01*
X-1048057Y-578907D01*
X-1047121Y-577812D01*
X-1046245Y-576670D01*
X-1045429Y-575483D01*
X-1044676Y-574255D01*
X-1043989Y-572989D01*
X-1043369Y-571689D01*
X-1042818Y-570359D01*
X-1042337Y-569001D01*
X-1041928Y-567620D01*
X-1041592Y-566220D01*
X-1041329Y-564803D01*
X-1041141Y-563376D01*
X-1041028Y-561940D01*
X-1040991Y-560500D01*
Y698105D01*
X287952Y2027048D01*
X287957Y2027053D01*
X325142Y2064237D01*
X325996Y2063729D01*
X328508Y2062322D01*
X331057Y2060981D01*
X333640Y2059707D01*
X336256Y2058502D01*
X338902Y2057365D01*
X341576Y2056298D01*
X344278Y2055301D01*
X347006Y2054375D01*
X349756Y2053521D01*
X352528Y2052739D01*
X355319Y2052030D01*
X358128Y2051395D01*
X360953Y2050833D01*
X363791Y2050345D01*
X366641Y2049932D01*
X369501Y2049594D01*
X372369Y2049330D01*
X375243Y2049142D01*
X378121Y2049028D01*
X381000Y2048991D01*
X383880Y2049028D01*
X386758Y2049142D01*
X389631Y2049330D01*
X392499Y2049594D01*
X395359Y2049932D01*
X398210Y2050345D01*
X401048Y2050833D01*
X403872Y2051395D01*
X406681Y2052030D01*
X409473Y2052739D01*
X412245Y2053521D01*
X414995Y2054375D01*
X417722Y2055301D01*
X420424Y2056298D01*
X423099Y2057365D01*
X425745Y2058502D01*
X428360Y2059707D01*
X430943Y2060981D01*
X433492Y2062322D01*
X436005Y2063729D01*
X438480Y2065202D01*
X440916Y2066739D01*
X443310Y2068339D01*
X445662Y2070001D01*
X447970Y2071724D01*
X450231Y2073507D01*
X452445Y2075348D01*
X454611Y2077247D01*
X456726Y2079202D01*
X458789Y2081212D01*
X460798Y2083275D01*
X462753Y2085390D01*
X464652Y2087555D01*
X466493Y2089769D01*
X468276Y2092031D01*
X470000Y2094338D01*
X471662Y2096690D01*
X473262Y2099085D01*
X474798Y2101520D01*
X476271Y2103995D01*
X477678Y2106508D01*
X479019Y2109057D01*
X480293Y2111640D01*
X481499Y2114255D01*
X482636Y2116901D01*
X483703Y2119576D01*
X484700Y2122278D01*
X485625Y2125005D01*
X486479Y2127756D01*
X487261Y2130528D01*
X487970Y2133319D01*
X488606Y2136128D01*
X489167Y2138953D01*
X489655Y2141791D01*
X490068Y2144641D01*
X490407Y2147501D01*
X490670Y2150369D01*
X490859Y2153243D01*
X490972Y2156120D01*
X491009Y2159000D01*
X490972Y2161880D01*
X490859Y2164757D01*
X490670Y2167631D01*
X490407Y2170499D01*
X490068Y2173359D01*
X489655Y2176209D01*
X489167Y2179047D01*
X488606Y2181872D01*
X487970Y2184681D01*
X487261Y2187472D01*
X486479Y2190244D01*
X485625Y2192995D01*
X484700Y2195722D01*
X483703Y2198424D01*
X482636Y2201099D01*
X481499Y2203745D01*
X480293Y2206360D01*
X479019Y2208943D01*
X477678Y2211492D01*
X476271Y2214005D01*
X474798Y2216480D01*
X473262Y2218915D01*
X471662Y2221310D01*
X470000Y2223662D01*
X468276Y2225969D01*
X466493Y2228231D01*
X464652Y2230445D01*
X462753Y2232610D01*
X460798Y2234725D01*
X458789Y2236788D01*
X456726Y2238798D01*
X454611Y2240753D01*
X452445Y2242652D01*
X450231Y2244493D01*
X447970Y2246276D01*
X445662Y2247999D01*
X443310Y2249661D01*
X440916Y2251261D01*
X438480Y2252798D01*
X436005Y2254271D01*
X433492Y2255678D01*
X430943Y2257019D01*
X428360Y2258293D01*
X425745Y2259498D01*
X423099Y2260635D01*
X420424Y2261702D01*
X417722Y2262699D01*
X414995Y2263625D01*
X412245Y2264479D01*
X409473Y2265261D01*
X406681Y2265970D01*
X403872Y2266605D01*
X401048Y2267167D01*
X398210Y2267655D01*
X395359Y2268068D01*
X392499Y2268406D01*
X389631Y2268670D01*
X386758Y2268858D01*
X383880Y2268972D01*
X381000Y2269009D01*
D02*
G37*
G36*
X1905000Y2269009D02*
X1902120Y2268972D01*
X1899243Y2268859D01*
X1896369Y2268670D01*
X1893501Y2268407D01*
X1890641Y2268068D01*
X1887791Y2267655D01*
X1884953Y2267167D01*
X1882128Y2266606D01*
X1879319Y2265970D01*
X1876528Y2265261D01*
X1873756Y2264479D01*
X1871005Y2263625D01*
X1868278Y2262700D01*
X1865576Y2261703D01*
X1862901Y2260636D01*
X1860255Y2259499D01*
X1857640Y2258293D01*
X1855057Y2257019D01*
X1852508Y2255678D01*
X1849995Y2254271D01*
X1847520Y2252798D01*
X1845085Y2251262D01*
X1842690Y2249662D01*
X1840338Y2248000D01*
X1838031Y2246276D01*
X1835769Y2244493D01*
X1833555Y2242652D01*
X1831390Y2240753D01*
X1829275Y2238798D01*
X1827212Y2236789D01*
X1825202Y2234726D01*
X1823247Y2232611D01*
X1821348Y2230445D01*
X1819507Y2228231D01*
X1817724Y2225970D01*
X1816001Y2223662D01*
X1814339Y2221310D01*
X1812739Y2218916D01*
X1811202Y2216480D01*
X1809729Y2214005D01*
X1808322Y2211492D01*
X1806981Y2208943D01*
X1805707Y2206360D01*
X1804502Y2203745D01*
X1803365Y2201099D01*
X1802298Y2198424D01*
X1801301Y2195722D01*
X1800375Y2192995D01*
X1799521Y2190245D01*
X1798739Y2187473D01*
X1798030Y2184681D01*
X1797395Y2181872D01*
X1796833Y2179048D01*
X1796345Y2176210D01*
X1795932Y2173359D01*
X1795594Y2170499D01*
X1795330Y2167631D01*
X1795142Y2164758D01*
X1795028Y2161880D01*
X1794991Y2159000D01*
X1795028Y2156121D01*
X1795142Y2153243D01*
X1795330Y2150369D01*
X1795594Y2147501D01*
X1795932Y2144641D01*
X1796345Y2141791D01*
X1796833Y2138953D01*
X1797395Y2136128D01*
X1798030Y2133319D01*
X1798739Y2130528D01*
X1799521Y2127756D01*
X1800375Y2125006D01*
X1801301Y2122278D01*
X1802298Y2119576D01*
X1803365Y2116902D01*
X1804502Y2114256D01*
X1805707Y2111640D01*
X1806981Y2109057D01*
X1808322Y2106508D01*
X1809729Y2103996D01*
X1811202Y2101521D01*
X1812739Y2099085D01*
X1814339Y2096690D01*
X1816001Y2094338D01*
X1817724Y2092031D01*
X1819507Y2089769D01*
X1821348Y2087555D01*
X1823247Y2085390D01*
X1825202Y2083275D01*
X1827212Y2081212D01*
X1829275Y2079202D01*
X1831390Y2077248D01*
X1833555Y2075349D01*
X1835769Y2073507D01*
X1838031Y2071724D01*
X1840338Y2070001D01*
X1842690Y2068339D01*
X1845085Y2066739D01*
X1847520Y2065202D01*
X1849995Y2063729D01*
X1852508Y2062322D01*
X1855057Y2060981D01*
X1857640Y2059708D01*
X1860255Y2058502D01*
X1862901Y2057365D01*
X1865576Y2056298D01*
X1868278Y2055301D01*
X1871005Y2054375D01*
X1873756Y2053521D01*
X1876528Y2052740D01*
X1879319Y2052031D01*
X1882128Y2051395D01*
X1884953Y2050833D01*
X1887791Y2050345D01*
X1890641Y2049932D01*
X1893501Y2049594D01*
X1896369Y2049330D01*
X1899243Y2049142D01*
X1902120Y2049029D01*
X1905000Y2048991D01*
X1907880Y2049029D01*
X1910757Y2049142D01*
X1913631Y2049330D01*
X1916499Y2049594D01*
X1919359Y2049932D01*
X1922209Y2050345D01*
X1925047Y2050833D01*
X1927872Y2051395D01*
X1930681Y2052031D01*
X1933472Y2052740D01*
X1936244Y2053521D01*
X1938995Y2054375D01*
X1941722Y2055301D01*
X1944424Y2056298D01*
X1947099Y2057365D01*
X1949745Y2058502D01*
X1952360Y2059708D01*
X1954943Y2060981D01*
X1957492Y2062322D01*
X1960005Y2063729D01*
X1962480Y2065202D01*
X1964915Y2066739D01*
X1967310Y2068339D01*
X1969662Y2070001D01*
X1971969Y2071724D01*
X1974231Y2073507D01*
X1976445Y2075349D01*
X1978610Y2077248D01*
X1980725Y2079202D01*
X1982788Y2081212D01*
X1984798Y2083275D01*
X1986753Y2085390D01*
X1988652Y2087555D01*
X1990493Y2089769D01*
X1992276Y2092031D01*
X1993999Y2094338D01*
X1995661Y2096690D01*
X1997261Y2099085D01*
X1998798Y2101521D01*
X2000271Y2103996D01*
X2001678Y2106508D01*
X2003019Y2109057D01*
X2004293Y2111640D01*
X2005498Y2114256D01*
X2006635Y2116902D01*
X2007702Y2119576D01*
X2008699Y2122278D01*
X2009625Y2125006D01*
X2010479Y2127756D01*
X2011261Y2130528D01*
X2011970Y2133319D01*
X2012605Y2136128D01*
X2013167Y2138953D01*
X2013655Y2141791D01*
X2014068Y2144641D01*
X2014406Y2147501D01*
X2014670Y2150369D01*
X2014858Y2153243D01*
X2014972Y2156121D01*
X2015009Y2159000D01*
X2014972Y2161880D01*
X2014858Y2164758D01*
X2014670Y2167631D01*
X2014406Y2170499D01*
X2014068Y2173359D01*
X2013655Y2176210D01*
X2013167Y2179048D01*
X2012605Y2181872D01*
X2011970Y2184681D01*
X2011261Y2187473D01*
X2010479Y2190245D01*
X2009625Y2192995D01*
X2008699Y2195722D01*
X2007702Y2198424D01*
X2006635Y2201099D01*
X2005498Y2203745D01*
X2004293Y2206360D01*
X2003019Y2208943D01*
X2001678Y2211492D01*
X2000271Y2214005D01*
X1998798Y2216480D01*
X1997261Y2218916D01*
X1995661Y2221310D01*
X1993999Y2223662D01*
X1992276Y2225970D01*
X1990493Y2228231D01*
X1988652Y2230445D01*
X1986753Y2232611D01*
X1984798Y2234726D01*
X1982788Y2236789D01*
X1980725Y2238798D01*
X1978610Y2240753D01*
X1976445Y2242652D01*
X1974231Y2244493D01*
X1971969Y2246276D01*
X1969662Y2248000D01*
X1967310Y2249662D01*
X1964915Y2251262D01*
X1962480Y2252798D01*
X1960005Y2254271D01*
X1957492Y2255678D01*
X1954943Y2257019D01*
X1952360Y2258293D01*
X1949745Y2259499D01*
X1947099Y2260636D01*
X1944424Y2261703D01*
X1941722Y2262700D01*
X1938995Y2263625D01*
X1936244Y2264479D01*
X1933472Y2265261D01*
X1930681Y2265970D01*
X1927872Y2266606D01*
X1925047Y2267167D01*
X1922209Y2267655D01*
X1919359Y2268068D01*
X1916499Y2268407D01*
X1913631Y2268670D01*
X1910757Y2268859D01*
X1907880Y2268972D01*
X1905000Y2269009D01*
D02*
G37*
G36*
X2158999Y2015009D02*
X2156120Y2014972D01*
X2153242Y2014859D01*
X2150368Y2014670D01*
X2147500Y2014407D01*
X2144640Y2014068D01*
X2141790Y2013655D01*
X2138952Y2013167D01*
X2136127Y2012606D01*
X2133318Y2011970D01*
X2130527Y2011261D01*
X2127755Y2010479D01*
X2125005Y2009625D01*
X2122278Y2008700D01*
X2119576Y2007703D01*
X2116901Y2006636D01*
X2114255Y2005499D01*
X2111639Y2004293D01*
X2109056Y2003019D01*
X2106508Y2001678D01*
X2103995Y2000271D01*
X2101520Y1998798D01*
X2099084Y1997262D01*
X2096689Y1995662D01*
X2094338Y1994000D01*
X2092030Y1992276D01*
X2089768Y1990493D01*
X2087554Y1988652D01*
X2085389Y1986753D01*
X2083274Y1984798D01*
X2081211Y1982789D01*
X2079202Y1980726D01*
X2077247Y1978611D01*
X2075348Y1976445D01*
X2073506Y1974231D01*
X2071723Y1971970D01*
X2070000Y1969662D01*
X2068338Y1967310D01*
X2066738Y1964916D01*
X2065201Y1962480D01*
X2063729Y1960005D01*
X2062322Y1957492D01*
X2060981Y1954943D01*
X2059707Y1952360D01*
X2058501Y1949745D01*
X2057364Y1947099D01*
X2056297Y1944424D01*
X2055300Y1941722D01*
X2054375Y1938995D01*
X2053520Y1936245D01*
X2052739Y1933473D01*
X2052030Y1930681D01*
X2051394Y1927872D01*
X2050832Y1925048D01*
X2050345Y1922210D01*
X2049931Y1919359D01*
X2049593Y1916499D01*
X2049329Y1913631D01*
X2049141Y1910758D01*
X2049028Y1907880D01*
X2048990Y1905000D01*
X2049028Y1902121D01*
X2049141Y1899243D01*
X2049329Y1896369D01*
X2049593Y1893501D01*
X2049931Y1890641D01*
X2050345Y1887791D01*
X2050832Y1884953D01*
X2051394Y1882128D01*
X2052030Y1879319D01*
X2052739Y1876528D01*
X2053520Y1873756D01*
X2054375Y1871006D01*
X2055300Y1868278D01*
X2056297Y1865576D01*
X2057364Y1862902D01*
X2058501Y1860256D01*
X2059707Y1857640D01*
X2060981Y1855057D01*
X2062322Y1852508D01*
X2063729Y1849996D01*
X2065201Y1847521D01*
X2066738Y1845085D01*
X2068338Y1842690D01*
X2070000Y1840338D01*
X2071723Y1838031D01*
X2073506Y1835769D01*
X2075348Y1833555D01*
X2077247Y1831390D01*
X2079202Y1829275D01*
X2081211Y1827212D01*
X2083274Y1825202D01*
X2085389Y1823248D01*
X2087554Y1821349D01*
X2089768Y1819507D01*
X2092030Y1817724D01*
X2094338Y1816001D01*
X2096689Y1814339D01*
X2099084Y1812739D01*
X2101520Y1811202D01*
X2103995Y1809729D01*
X2106508Y1808322D01*
X2109056Y1806981D01*
X2111639Y1805708D01*
X2114255Y1804502D01*
X2116901Y1803365D01*
X2119576Y1802298D01*
X2122278Y1801301D01*
X2125005Y1800375D01*
X2127755Y1799521D01*
X2130527Y1798740D01*
X2133318Y1798031D01*
X2136127Y1797395D01*
X2138952Y1796833D01*
X2141790Y1796345D01*
X2144640Y1795932D01*
X2147500Y1795594D01*
X2150368Y1795330D01*
X2153242Y1795142D01*
X2156120Y1795029D01*
X2158999Y1794991D01*
X2161879Y1795029D01*
X2164757Y1795142D01*
X2167631Y1795330D01*
X2170499Y1795594D01*
X2173359Y1795932D01*
X2176209Y1796345D01*
X2179047Y1796833D01*
X2181872Y1797395D01*
X2184681Y1798031D01*
X2187472Y1798740D01*
X2190244Y1799521D01*
X2192994Y1800375D01*
X2195721Y1801301D01*
X2198423Y1802298D01*
X2201098Y1803365D01*
X2203744Y1804502D01*
X2206360Y1805708D01*
X2208942Y1806981D01*
X2211491Y1808322D01*
X2214004Y1809729D01*
X2216479Y1811202D01*
X2218915Y1812739D01*
X2221310Y1814339D01*
X2223661Y1816001D01*
X2225969Y1817724D01*
X2228230Y1819507D01*
X2230445Y1821349D01*
X2232610Y1823248D01*
X2234725Y1825202D01*
X2236788Y1827212D01*
X2238797Y1829275D01*
X2240752Y1831390D01*
X2242651Y1833555D01*
X2244493Y1835769D01*
X2246276Y1838031D01*
X2247999Y1840338D01*
X2249661Y1842690D01*
X2251261Y1845085D01*
X2252798Y1847521D01*
X2254270Y1849996D01*
X2255677Y1852508D01*
X2257018Y1855057D01*
X2258292Y1857640D01*
X2259498Y1860256D01*
X2260635Y1862902D01*
X2261702Y1865576D01*
X2262699Y1868278D01*
X2263624Y1871006D01*
X2264479Y1873756D01*
X2265260Y1876528D01*
X2265969Y1879319D01*
X2266605Y1882128D01*
X2267167Y1884953D01*
X2267654Y1887791D01*
X2268068Y1890641D01*
X2268406Y1893501D01*
X2268670Y1896369D01*
X2268858Y1899243D01*
X2268971Y1902121D01*
X2269009Y1905000D01*
X2268971Y1907880D01*
X2268858Y1910758D01*
X2268670Y1913631D01*
X2268406Y1916499D01*
X2268068Y1919359D01*
X2267654Y1922210D01*
X2267167Y1925048D01*
X2266605Y1927872D01*
X2265969Y1930681D01*
X2265260Y1933473D01*
X2264479Y1936245D01*
X2263624Y1938995D01*
X2262699Y1941722D01*
X2261702Y1944424D01*
X2260635Y1947099D01*
X2259498Y1949745D01*
X2258292Y1952360D01*
X2257018Y1954943D01*
X2255677Y1957492D01*
X2254270Y1960005D01*
X2252798Y1962480D01*
X2251261Y1964916D01*
X2249661Y1967310D01*
X2247999Y1969662D01*
X2246276Y1971970D01*
X2244493Y1974231D01*
X2242651Y1976445D01*
X2240752Y1978611D01*
X2238797Y1980726D01*
X2236788Y1982789D01*
X2234725Y1984798D01*
X2232610Y1986753D01*
X2230445Y1988652D01*
X2228230Y1990493D01*
X2225969Y1992276D01*
X2223661Y1994000D01*
X2221310Y1995662D01*
X2218915Y1997262D01*
X2216479Y1998798D01*
X2214004Y2000271D01*
X2211491Y2001678D01*
X2208942Y2003019D01*
X2206360Y2004293D01*
X2203744Y2005499D01*
X2201098Y2006636D01*
X2198423Y2007703D01*
X2195721Y2008700D01*
X2192994Y2009625D01*
X2190244Y2010479D01*
X2187472Y2011261D01*
X2184681Y2011970D01*
X2181872Y2012606D01*
X2179047Y2013167D01*
X2176209Y2013655D01*
X2173359Y2014068D01*
X2170499Y2014407D01*
X2167631Y2014670D01*
X2164757Y2014859D01*
X2161879Y2014972D01*
X2158999Y2015009D01*
D02*
G37*
G36*
X2159000Y1761009D02*
X2156120Y1760971D01*
X2153243Y1760858D01*
X2150369Y1760670D01*
X2147501Y1760406D01*
X2144641Y1760068D01*
X2141791Y1759655D01*
X2138953Y1759167D01*
X2136128Y1758605D01*
X2133319Y1757969D01*
X2130528Y1757260D01*
X2127756Y1756479D01*
X2125005Y1755625D01*
X2122278Y1754699D01*
X2119576Y1753702D01*
X2116901Y1752635D01*
X2114255Y1751498D01*
X2111640Y1750292D01*
X2109057Y1749019D01*
X2106508Y1747678D01*
X2103995Y1746271D01*
X2101520Y1744798D01*
X2099085Y1743261D01*
X2096690Y1741661D01*
X2094338Y1739999D01*
X2092031Y1738276D01*
X2089769Y1736493D01*
X2087555Y1734651D01*
X2085390Y1732752D01*
X2083275Y1730798D01*
X2081212Y1728788D01*
X2079202Y1726725D01*
X2077247Y1724610D01*
X2075348Y1722445D01*
X2073507Y1720231D01*
X2071724Y1717969D01*
X2070001Y1715662D01*
X2068339Y1713310D01*
X2066739Y1710915D01*
X2065202Y1708479D01*
X2063729Y1706004D01*
X2062322Y1703492D01*
X2060981Y1700943D01*
X2059707Y1698360D01*
X2058502Y1695744D01*
X2057365Y1693098D01*
X2056298Y1690424D01*
X2055301Y1687722D01*
X2054375Y1684994D01*
X2053521Y1682244D01*
X2052739Y1679472D01*
X2052030Y1676681D01*
X2051395Y1673872D01*
X2050833Y1671047D01*
X2050345Y1668209D01*
X2049932Y1665359D01*
X2049594Y1662499D01*
X2049330Y1659631D01*
X2049142Y1656757D01*
X2049028Y1653879D01*
X2048991Y1651000D01*
X2049028Y1648120D01*
X2049142Y1645242D01*
X2049330Y1642369D01*
X2049594Y1639501D01*
X2049932Y1636641D01*
X2050345Y1633790D01*
X2050833Y1630952D01*
X2051395Y1628128D01*
X2052030Y1625319D01*
X2052739Y1622527D01*
X2053521Y1619755D01*
X2054375Y1617005D01*
X2055301Y1614278D01*
X2056298Y1611576D01*
X2057365Y1608901D01*
X2058502Y1606255D01*
X2059707Y1603640D01*
X2060981Y1601057D01*
X2062322Y1598508D01*
X2063729Y1595995D01*
X2065202Y1593520D01*
X2066739Y1591084D01*
X2068339Y1588690D01*
X2070001Y1586338D01*
X2071724Y1584030D01*
X2073507Y1581769D01*
X2075348Y1579555D01*
X2077247Y1577389D01*
X2079202Y1575274D01*
X2081212Y1573211D01*
X2083275Y1571202D01*
X2085390Y1569247D01*
X2087555Y1567348D01*
X2089769Y1565507D01*
X2092031Y1563724D01*
X2094338Y1562000D01*
X2096690Y1560338D01*
X2099085Y1558738D01*
X2101520Y1557202D01*
X2103995Y1555729D01*
X2106508Y1554322D01*
X2109057Y1552981D01*
X2111640Y1551707D01*
X2114255Y1550501D01*
X2116901Y1549364D01*
X2119576Y1548297D01*
X2122278Y1547300D01*
X2125005Y1546375D01*
X2127756Y1545521D01*
X2130528Y1544739D01*
X2133319Y1544030D01*
X2136128Y1543394D01*
X2138953Y1542833D01*
X2141791Y1542345D01*
X2144641Y1541932D01*
X2147501Y1541593D01*
X2150369Y1541330D01*
X2153243Y1541141D01*
X2156120Y1541028D01*
X2159000Y1540991D01*
X2161880Y1541028D01*
X2164757Y1541141D01*
X2167631Y1541330D01*
X2170499Y1541593D01*
X2173359Y1541932D01*
X2176209Y1542345D01*
X2179047Y1542833D01*
X2181872Y1543394D01*
X2184681Y1544030D01*
X2187472Y1544739D01*
X2190244Y1545521D01*
X2192995Y1546375D01*
X2195722Y1547300D01*
X2198424Y1548297D01*
X2201099Y1549364D01*
X2203745Y1550501D01*
X2206360Y1551707D01*
X2208943Y1552981D01*
X2211492Y1554322D01*
X2214005Y1555729D01*
X2216480Y1557202D01*
X2218915Y1558738D01*
X2221310Y1560338D01*
X2223662Y1562000D01*
X2225969Y1563724D01*
X2228231Y1565507D01*
X2230445Y1567348D01*
X2232610Y1569247D01*
X2234725Y1571202D01*
X2236788Y1573211D01*
X2238798Y1575274D01*
X2240753Y1577389D01*
X2242652Y1579555D01*
X2244493Y1581769D01*
X2246276Y1584030D01*
X2247999Y1586338D01*
X2249661Y1588690D01*
X2251261Y1591084D01*
X2252798Y1593520D01*
X2254271Y1595995D01*
X2255678Y1598508D01*
X2257019Y1601057D01*
X2258293Y1603640D01*
X2259498Y1606255D01*
X2260635Y1608901D01*
X2261702Y1611576D01*
X2262699Y1614278D01*
X2263625Y1617005D01*
X2264479Y1619755D01*
X2265261Y1622527D01*
X2265970Y1625319D01*
X2266605Y1628128D01*
X2267167Y1630952D01*
X2267655Y1633790D01*
X2268068Y1636641D01*
X2268406Y1639501D01*
X2268670Y1642369D01*
X2268858Y1645242D01*
X2268972Y1648120D01*
X2269009Y1651000D01*
X2268972Y1653879D01*
X2268858Y1656757D01*
X2268670Y1659631D01*
X2268406Y1662499D01*
X2268068Y1665359D01*
X2267655Y1668209D01*
X2267167Y1671047D01*
X2266605Y1673872D01*
X2265970Y1676681D01*
X2265261Y1679472D01*
X2264479Y1682244D01*
X2263625Y1684994D01*
X2262699Y1687722D01*
X2261702Y1690424D01*
X2260635Y1693098D01*
X2259498Y1695744D01*
X2258293Y1698360D01*
X2257019Y1700943D01*
X2255678Y1703492D01*
X2254271Y1706004D01*
X2252798Y1708479D01*
X2251261Y1710915D01*
X2249661Y1713310D01*
X2247999Y1715662D01*
X2246276Y1717969D01*
X2244493Y1720231D01*
X2242652Y1722445D01*
X2240753Y1724610D01*
X2238798Y1726725D01*
X2236788Y1728788D01*
X2234725Y1730798D01*
X2232610Y1732752D01*
X2230445Y1734651D01*
X2228231Y1736493D01*
X2225969Y1738276D01*
X2223662Y1739999D01*
X2221310Y1741661D01*
X2218915Y1743261D01*
X2216480Y1744798D01*
X2214005Y1746271D01*
X2211492Y1747678D01*
X2208943Y1749019D01*
X2206360Y1750292D01*
X2203745Y1751498D01*
X2201099Y1752635D01*
X2198424Y1753702D01*
X2195722Y1754699D01*
X2192995Y1755625D01*
X2190244Y1756479D01*
X2187472Y1757260D01*
X2184681Y1757969D01*
X2181872Y1758605D01*
X2179047Y1759167D01*
X2176209Y1759655D01*
X2173359Y1760068D01*
X2170499Y1760406D01*
X2167631Y1760670D01*
X2164757Y1760858D01*
X2161880Y1760971D01*
X2159000Y1761009D01*
D02*
G37*
G36*
Y1507009D02*
X2156120Y1506972D01*
X2153243Y1506859D01*
X2150369Y1506670D01*
X2147501Y1506407D01*
X2144641Y1506068D01*
X2141791Y1505655D01*
X2138953Y1505167D01*
X2136128Y1504606D01*
X2133319Y1503970D01*
X2130528Y1503261D01*
X2127756Y1502479D01*
X2125005Y1501625D01*
X2122278Y1500700D01*
X2119576Y1499703D01*
X2116901Y1498636D01*
X2114255Y1497499D01*
X2111640Y1496293D01*
X2109057Y1495019D01*
X2106508Y1493678D01*
X2103995Y1492271D01*
X2101520Y1490798D01*
X2099085Y1489262D01*
X2096690Y1487662D01*
X2094338Y1486000D01*
X2092031Y1484276D01*
X2089769Y1482493D01*
X2087555Y1480652D01*
X2085390Y1478753D01*
X2083275Y1476798D01*
X2081212Y1474789D01*
X2079202Y1472726D01*
X2077247Y1470611D01*
X2075348Y1468445D01*
X2073507Y1466231D01*
X2071724Y1463970D01*
X2070001Y1461662D01*
X2068339Y1459310D01*
X2066739Y1456916D01*
X2065202Y1454480D01*
X2063729Y1452005D01*
X2062322Y1449492D01*
X2060981Y1446943D01*
X2059707Y1444360D01*
X2058502Y1441745D01*
X2057365Y1439099D01*
X2056298Y1436424D01*
X2055301Y1433722D01*
X2054375Y1430995D01*
X2053521Y1428245D01*
X2052739Y1425473D01*
X2052030Y1422681D01*
X2051395Y1419872D01*
X2050833Y1417048D01*
X2050345Y1414210D01*
X2049932Y1411359D01*
X2049594Y1408499D01*
X2049330Y1405631D01*
X2049142Y1402758D01*
X2049028Y1399880D01*
X2048991Y1397000D01*
X2049028Y1394121D01*
X2049142Y1391243D01*
X2049330Y1388369D01*
X2049594Y1385501D01*
X2049932Y1382641D01*
X2050345Y1379791D01*
X2050833Y1376953D01*
X2051395Y1374128D01*
X2052030Y1371319D01*
X2052739Y1368528D01*
X2053521Y1365756D01*
X2054375Y1363006D01*
X2055301Y1360278D01*
X2056298Y1357576D01*
X2057365Y1354902D01*
X2058502Y1352256D01*
X2059707Y1349640D01*
X2060981Y1347057D01*
X2062322Y1344508D01*
X2063729Y1341996D01*
X2065202Y1339521D01*
X2066739Y1337085D01*
X2068339Y1334690D01*
X2070001Y1332338D01*
X2071724Y1330031D01*
X2073507Y1327769D01*
X2075348Y1325555D01*
X2077247Y1323390D01*
X2079202Y1321275D01*
X2081212Y1319212D01*
X2083275Y1317202D01*
X2085390Y1315248D01*
X2087555Y1313349D01*
X2089769Y1311507D01*
X2092031Y1309724D01*
X2094338Y1308001D01*
X2096690Y1306339D01*
X2099085Y1304739D01*
X2101520Y1303202D01*
X2103995Y1301729D01*
X2106508Y1300322D01*
X2109057Y1298981D01*
X2111640Y1297708D01*
X2114255Y1296502D01*
X2116901Y1295365D01*
X2119576Y1294298D01*
X2122278Y1293301D01*
X2125005Y1292375D01*
X2127756Y1291521D01*
X2130528Y1290740D01*
X2133319Y1290031D01*
X2136128Y1289395D01*
X2138953Y1288833D01*
X2141791Y1288345D01*
X2144641Y1287932D01*
X2147501Y1287594D01*
X2150369Y1287330D01*
X2153243Y1287142D01*
X2156120Y1287029D01*
X2159000Y1286991D01*
X2161880Y1287029D01*
X2164757Y1287142D01*
X2167631Y1287330D01*
X2170499Y1287594D01*
X2173359Y1287932D01*
X2176209Y1288345D01*
X2179047Y1288833D01*
X2181872Y1289395D01*
X2184681Y1290031D01*
X2187472Y1290740D01*
X2190244Y1291521D01*
X2192995Y1292375D01*
X2195722Y1293301D01*
X2198424Y1294298D01*
X2201099Y1295365D01*
X2203745Y1296502D01*
X2206360Y1297708D01*
X2208943Y1298981D01*
X2211492Y1300322D01*
X2214005Y1301729D01*
X2216480Y1303202D01*
X2218915Y1304739D01*
X2221310Y1306339D01*
X2223662Y1308001D01*
X2225969Y1309724D01*
X2228231Y1311507D01*
X2230445Y1313349D01*
X2232610Y1315248D01*
X2234725Y1317202D01*
X2236788Y1319212D01*
X2238798Y1321275D01*
X2240753Y1323390D01*
X2242652Y1325555D01*
X2244493Y1327769D01*
X2246276Y1330031D01*
X2247999Y1332338D01*
X2249661Y1334690D01*
X2251261Y1337085D01*
X2252798Y1339521D01*
X2254271Y1341996D01*
X2255678Y1344508D01*
X2257019Y1347057D01*
X2258293Y1349640D01*
X2259498Y1352256D01*
X2260635Y1354902D01*
X2261702Y1357576D01*
X2262699Y1360278D01*
X2263625Y1363006D01*
X2264479Y1365756D01*
X2265261Y1368528D01*
X2265970Y1371319D01*
X2266605Y1374128D01*
X2267167Y1376953D01*
X2267655Y1379791D01*
X2268068Y1382641D01*
X2268406Y1385501D01*
X2268670Y1388369D01*
X2268858Y1391243D01*
X2268972Y1394121D01*
X2269009Y1397000D01*
X2268972Y1399880D01*
X2268858Y1402758D01*
X2268670Y1405631D01*
X2268406Y1408499D01*
X2268068Y1411359D01*
X2267655Y1414210D01*
X2267167Y1417048D01*
X2266605Y1419872D01*
X2265970Y1422681D01*
X2265261Y1425473D01*
X2264479Y1428245D01*
X2263625Y1430995D01*
X2262699Y1433722D01*
X2261702Y1436424D01*
X2260635Y1439099D01*
X2259498Y1441745D01*
X2258293Y1444360D01*
X2257019Y1446943D01*
X2255678Y1449492D01*
X2254271Y1452005D01*
X2252798Y1454480D01*
X2251261Y1456916D01*
X2249661Y1459310D01*
X2247999Y1461662D01*
X2246276Y1463970D01*
X2244493Y1466231D01*
X2242652Y1468445D01*
X2240753Y1470611D01*
X2238798Y1472726D01*
X2236788Y1474789D01*
X2234725Y1476798D01*
X2232610Y1478753D01*
X2230445Y1480652D01*
X2228231Y1482493D01*
X2225969Y1484276D01*
X2223662Y1486000D01*
X2221310Y1487662D01*
X2218915Y1489262D01*
X2216480Y1490798D01*
X2214005Y1492271D01*
X2211492Y1493678D01*
X2208943Y1495019D01*
X2206360Y1496293D01*
X2203745Y1497499D01*
X2201099Y1498636D01*
X2198424Y1499703D01*
X2195722Y1500700D01*
X2192995Y1501625D01*
X2190244Y1502479D01*
X2187472Y1503261D01*
X2184681Y1503970D01*
X2181872Y1504606D01*
X2179047Y1505167D01*
X2176209Y1505655D01*
X2173359Y1506068D01*
X2170499Y1506407D01*
X2167631Y1506670D01*
X2164757Y1506859D01*
X2161880Y1506972D01*
X2159000Y1507009D01*
D02*
G37*
G36*
X1524000Y558010D02*
X1522037Y557971D01*
X1520076Y557855D01*
X1518122Y557663D01*
X1516177Y557394D01*
X1514244Y557049D01*
X1512325Y556628D01*
X1510425Y556132D01*
X1508546Y555562D01*
X1506691Y554919D01*
X1504862Y554203D01*
X1503063Y553416D01*
X1501296Y552559D01*
X1499564Y551633D01*
X1497870Y550640D01*
X1496216Y549581D01*
X1494605Y548459D01*
X1493039Y547273D01*
X1491521Y546028D01*
X1490053Y544723D01*
X1488638Y543362D01*
X1487277Y541947D01*
X1485972Y540479D01*
X1484727Y538961D01*
X1483541Y537395D01*
X1482419Y535784D01*
X1481360Y534130D01*
X1480367Y532436D01*
X1479441Y530704D01*
X1478584Y528937D01*
X1477797Y527138D01*
X1477081Y525309D01*
X1476438Y523454D01*
X1475868Y521575D01*
X1475372Y519675D01*
X1474951Y517756D01*
X1474606Y515823D01*
X1474337Y513878D01*
X1474145Y511924D01*
X1474029Y509963D01*
X1473990Y508000D01*
X1474029Y506037D01*
X1474145Y504076D01*
X1474337Y502122D01*
X1474606Y500177D01*
X1474951Y498244D01*
X1475372Y496325D01*
X1475868Y494425D01*
X1476438Y492546D01*
X1477081Y490691D01*
X1477797Y488862D01*
X1478584Y487063D01*
X1479441Y485296D01*
X1480367Y483564D01*
X1481360Y481870D01*
X1482419Y480216D01*
X1483541Y478605D01*
X1484727Y477039D01*
X1485972Y475521D01*
X1487277Y474053D01*
X1488638Y472638D01*
X1490053Y471277D01*
X1491521Y469972D01*
X1493039Y468727D01*
X1494605Y467541D01*
X1496216Y466419D01*
X1497870Y465360D01*
X1499564Y464367D01*
X1501296Y463441D01*
X1503063Y462584D01*
X1504862Y461797D01*
X1506691Y461081D01*
X1508546Y460438D01*
X1510425Y459868D01*
X1512325Y459372D01*
X1514244Y458951D01*
X1516177Y458606D01*
X1518122Y458337D01*
X1520076Y458145D01*
X1522037Y458029D01*
X1524000Y457990D01*
X1524489Y458000D01*
X1654091Y328399D01*
Y-1026899D01*
X1452439Y-1228550D01*
X768440D01*
X766823Y-1228588D01*
X765210Y-1228700D01*
X763604Y-1228886D01*
X762007Y-1229146D01*
X760425Y-1229480D01*
X758860Y-1229887D01*
X757315Y-1230365D01*
X755794Y-1230914D01*
X754299Y-1231533D01*
X752835Y-1232221D01*
X751405Y-1232975D01*
X750010Y-1233794D01*
X748655Y-1234677D01*
X747342Y-1235622D01*
X746075Y-1236626D01*
X744855Y-1237687D01*
X743685Y-1238804D01*
X508489Y-1474000D01*
X508000Y-1473990D01*
X506037Y-1474029D01*
X504076Y-1474145D01*
X502122Y-1474337D01*
X500177Y-1474606D01*
X498244Y-1474951D01*
X496325Y-1475372D01*
X494425Y-1475868D01*
X492546Y-1476438D01*
X490691Y-1477081D01*
X488862Y-1477797D01*
X487063Y-1478584D01*
X485296Y-1479441D01*
X483564Y-1480367D01*
X481870Y-1481360D01*
X480216Y-1482419D01*
X478605Y-1483541D01*
X477039Y-1484727D01*
X475521Y-1485972D01*
X474053Y-1487277D01*
X472638Y-1488638D01*
X471277Y-1490053D01*
X469972Y-1491521D01*
X468727Y-1493039D01*
X467541Y-1494605D01*
X466419Y-1496216D01*
X465360Y-1497870D01*
X464367Y-1499564D01*
X463441Y-1501296D01*
X462584Y-1503063D01*
X461797Y-1504862D01*
X461081Y-1506691D01*
X460438Y-1508546D01*
X459868Y-1510425D01*
X459372Y-1512325D01*
X458951Y-1514244D01*
X458606Y-1516177D01*
X458337Y-1518122D01*
X458145Y-1520076D01*
X458029Y-1522037D01*
X457990Y-1524000D01*
X458029Y-1525963D01*
X458145Y-1527924D01*
X458337Y-1529878D01*
X458606Y-1531823D01*
X458951Y-1533756D01*
X459372Y-1535675D01*
X459868Y-1537575D01*
X460438Y-1539454D01*
X461081Y-1541309D01*
X461797Y-1543138D01*
X462584Y-1544937D01*
X463441Y-1546704D01*
X464367Y-1548436D01*
X465360Y-1550130D01*
X466419Y-1551784D01*
X467541Y-1553395D01*
X468727Y-1554961D01*
X469972Y-1556479D01*
X471277Y-1557947D01*
X472638Y-1559362D01*
X474053Y-1560723D01*
X475521Y-1562028D01*
X477039Y-1563273D01*
X478605Y-1564459D01*
X480216Y-1565581D01*
X481870Y-1566640D01*
X483564Y-1567633D01*
X485296Y-1568559D01*
X487063Y-1569416D01*
X488862Y-1570203D01*
X490691Y-1570919D01*
X492546Y-1571562D01*
X494425Y-1572132D01*
X496325Y-1572628D01*
X498244Y-1573049D01*
X500177Y-1573394D01*
X502122Y-1573663D01*
X504076Y-1573855D01*
X506037Y-1573971D01*
X508000Y-1574010D01*
X509963Y-1573971D01*
X511924Y-1573855D01*
X513878Y-1573663D01*
X515823Y-1573394D01*
X517756Y-1573049D01*
X519675Y-1572628D01*
X521575Y-1572132D01*
X523454Y-1571562D01*
X525309Y-1570919D01*
X527138Y-1570203D01*
X528937Y-1569416D01*
X530704Y-1568559D01*
X532436Y-1567633D01*
X534130Y-1566640D01*
X535784Y-1565581D01*
X537395Y-1564459D01*
X538961Y-1563273D01*
X540479Y-1562028D01*
X541947Y-1560723D01*
X543362Y-1559362D01*
X544723Y-1557947D01*
X546028Y-1556479D01*
X547273Y-1554961D01*
X548459Y-1553395D01*
X549581Y-1551784D01*
X550640Y-1550130D01*
X551633Y-1548436D01*
X552559Y-1546704D01*
X553416Y-1544937D01*
X554203Y-1543138D01*
X554919Y-1541309D01*
X555562Y-1539454D01*
X556132Y-1537575D01*
X556628Y-1535675D01*
X557049Y-1533756D01*
X557394Y-1531823D01*
X557663Y-1529878D01*
X557855Y-1527924D01*
X557971Y-1525963D01*
X558010Y-1524000D01*
X558000Y-1523511D01*
X782942Y-1298569D01*
X1466940D01*
X1468557Y-1298532D01*
X1470171Y-1298420D01*
X1471777Y-1298233D01*
X1473373Y-1297973D01*
X1474956Y-1297639D01*
X1476521Y-1297233D01*
X1478066Y-1296754D01*
X1479587Y-1296205D01*
X1481081Y-1295586D01*
X1482545Y-1294899D01*
X1483976Y-1294144D01*
X1485370Y-1293325D01*
X1486725Y-1292442D01*
X1488038Y-1291498D01*
X1489306Y-1290493D01*
X1490526Y-1289432D01*
X1491696Y-1288315D01*
X1713855Y-1066155D01*
X1714972Y-1064986D01*
X1716034Y-1063766D01*
X1717038Y-1062498D01*
X1717983Y-1061185D01*
X1718865Y-1059830D01*
X1719685Y-1058436D01*
X1720439Y-1057005D01*
X1721126Y-1055541D01*
X1721745Y-1054047D01*
X1722294Y-1052526D01*
X1722773Y-1050981D01*
X1723179Y-1049415D01*
X1723513Y-1047833D01*
X1723774Y-1046237D01*
X1723960Y-1044630D01*
X1724072Y-1043017D01*
X1724109Y-1041400D01*
Y342900D01*
X1724072Y344517D01*
X1723960Y346130D01*
X1723774Y347737D01*
X1723513Y349333D01*
X1723179Y350915D01*
X1722773Y352481D01*
X1722294Y354026D01*
X1721745Y355547D01*
X1721127Y357041D01*
X1720439Y358505D01*
X1719685Y359936D01*
X1718866Y361330D01*
X1717983Y362685D01*
X1717038Y363998D01*
X1716034Y365266D01*
X1714972Y366485D01*
X1713855Y367655D01*
X1574000Y507511D01*
X1574010Y508000D01*
X1573971Y509963D01*
X1573855Y511924D01*
X1573663Y513878D01*
X1573394Y515823D01*
X1573049Y517756D01*
X1572628Y519675D01*
X1572132Y521575D01*
X1571562Y523454D01*
X1570919Y525309D01*
X1570203Y527138D01*
X1569416Y528937D01*
X1568559Y530704D01*
X1567633Y532436D01*
X1566640Y534130D01*
X1565581Y535784D01*
X1564459Y537395D01*
X1563273Y538961D01*
X1562028Y540479D01*
X1560723Y541947D01*
X1559362Y543362D01*
X1557947Y544723D01*
X1556479Y546028D01*
X1554961Y547273D01*
X1553395Y548459D01*
X1551784Y549581D01*
X1550130Y550640D01*
X1548436Y551633D01*
X1546704Y552559D01*
X1544937Y553416D01*
X1543138Y554203D01*
X1541309Y554919D01*
X1539454Y555562D01*
X1537575Y556132D01*
X1535675Y556628D01*
X1533756Y557049D01*
X1531823Y557394D01*
X1529878Y557663D01*
X1527924Y557855D01*
X1525963Y557971D01*
X1524000Y558010D01*
D02*
G37*
%LPD*%
D17*
X-1538500Y2046500D02*
X-1524000D01*
X-1651000Y2159000D02*
X-1538500Y2046500D01*
X-1524000D02*
X268500Y2046500D01*
X-1905000Y2159000D02*
X-1651000D01*
X-1651000Y2159000D01*
X-1068500Y709500D02*
X268500Y2046500D01*
X381000Y2159000D01*
X-1068500Y-560500D02*
Y709500D01*
X-1524000Y-1016000D02*
X-1068500Y-560500D01*
D18*
X1466940Y-1263560D02*
X1689100Y-1041400D01*
X1524000Y508000D02*
X1689100Y342900D01*
Y-1041400D02*
Y342900D01*
X768440Y-1263560D02*
X1466940D01*
X508000Y-1524000D02*
X768440Y-1263560D01*
D22*
X-381000Y2159000D02*
D03*
X-381000Y2413000D02*
D03*
X-2413000Y127000D02*
D03*
X2158999Y1905000D02*
D03*
X2413000Y1905000D02*
D03*
X2413000Y1651000D02*
D03*
X2159000Y1651000D02*
D03*
Y1397000D02*
D03*
X2413000Y1397000D02*
D03*
X2413000Y1143000D02*
D03*
X2159000Y1143000D02*
D03*
X2413000Y889000D02*
D03*
X2159000D02*
D03*
X2413000Y635000D02*
D03*
X2159000Y634999D02*
D03*
Y381000D02*
D03*
X2413000Y127000D02*
D03*
Y-381001D02*
D03*
Y-1142999D02*
D03*
Y-1651000D02*
D03*
Y-1905000D02*
D03*
Y-127000D02*
D03*
Y-635000D02*
D03*
Y-1397000D02*
D03*
Y-889000D02*
D03*
Y381000D02*
D03*
X2159001Y-1143000D02*
D03*
X2159000Y-1905000D02*
D03*
X2159000Y127000D02*
D03*
Y-1651000D02*
D03*
Y-889000D02*
D03*
Y-127000D02*
D03*
Y-635000D02*
D03*
Y-381001D02*
D03*
X2158999Y-1397000D02*
D03*
X-1905000Y2159000D02*
D03*
X1905000Y2413000D02*
D03*
X1651000D02*
D03*
X1905000Y2159000D02*
D03*
X1651000Y2159000D02*
D03*
X1397000D02*
D03*
X1397000Y2413000D02*
D03*
X1143000D02*
D03*
Y2159000D02*
D03*
X889000Y2413000D02*
D03*
Y2159000D02*
D03*
X635000Y2413000D02*
D03*
Y2159000D02*
D03*
X381000D02*
D03*
X381000Y2413000D02*
D03*
X127000Y2159000D02*
D03*
X-1905000Y2413000D02*
D03*
X127000Y2413000D02*
D03*
X-127000D02*
D03*
X-889000D02*
D03*
X-635000D02*
D03*
X-1143000D02*
D03*
X-1651000D02*
D03*
X-1397000Y2413000D02*
D03*
X-1143000Y2159000D02*
D03*
X-127000Y2159000D02*
D03*
X-635000D02*
D03*
X-889000D02*
D03*
X-1397000D02*
D03*
X-1651000D02*
D03*
X-2159000Y-889000D02*
D03*
X-2413000Y-1905000D02*
D03*
Y-1397000D02*
D03*
Y-1651000D02*
D03*
Y-1143000D02*
D03*
Y-889000D02*
D03*
Y-635000D02*
D03*
Y-381000D02*
D03*
X-2159000Y-1397000D02*
D03*
Y-1143000D02*
D03*
Y-1651000D02*
D03*
Y-381000D02*
D03*
Y-1905000D02*
D03*
Y-635000D02*
D03*
X-2413000Y1651000D02*
D03*
X-2159000Y1905000D02*
D03*
Y1651000D02*
D03*
X-2413000Y1905000D02*
D03*
X-2159000Y127000D02*
D03*
X-2413000Y635000D02*
D03*
X-2159000D02*
D03*
X-2413000Y1143000D02*
D03*
X-2159000Y1397000D02*
D03*
X-2413000Y381000D02*
D03*
Y1397000D02*
D03*
X-2159000Y381000D02*
D03*
X-2413000Y889000D02*
D03*
X-2159000D02*
D03*
Y1143000D02*
D03*
X-2413000Y-127000D02*
D03*
X-2159000D02*
D03*
D23*
X-2286000Y2286000D02*
D03*
X2286000D02*
D03*
X-2286000Y-2286000D02*
D03*
X2286000D02*
D03*
D24*
X-1524000Y0D02*
D03*
Y1016000D02*
D03*
Y-1016000D02*
D03*
Y-1524000D02*
D03*
Y-508000D02*
D03*
X-1016000Y-1524000D02*
D03*
Y-1016000D02*
D03*
Y-508000D02*
D03*
Y0D02*
D03*
X-508000Y-1524000D02*
D03*
Y-1016000D02*
D03*
Y-508000D02*
D03*
X0Y-1016000D02*
D03*
Y-1524000D02*
D03*
Y-508000D02*
D03*
Y0D02*
D03*
Y508000D02*
D03*
X-508000Y0D02*
D03*
X-1524000Y508000D02*
D03*
X-1016000D02*
D03*
X-508000D02*
D03*
X-1016000Y1016000D02*
D03*
X-508000D02*
D03*
X0D02*
D03*
X-1524000Y1524000D02*
D03*
X-1016000D02*
D03*
X-508000D02*
D03*
X508000Y-508000D02*
D03*
Y-1524000D02*
D03*
Y-1016000D02*
D03*
Y0D02*
D03*
X1016000Y-1524000D02*
D03*
Y-1016000D02*
D03*
Y0D02*
D03*
Y-508000D02*
D03*
X1524000Y-1016000D02*
D03*
Y-1524000D02*
D03*
Y0D02*
D03*
Y-508000D02*
D03*
X508000Y508000D02*
D03*
Y1016000D02*
D03*
Y1524000D02*
D03*
X1016000Y508000D02*
D03*
Y1524000D02*
D03*
Y1016000D02*
D03*
X1524000Y508000D02*
D03*
Y1016000D02*
D03*
Y1524000D02*
D03*
X0D02*
D03*
D25*
X635000Y1587500D02*
X1397000Y825500D01*
X635000Y1587500D02*
Y2159000D01*
X1397000Y-889000D02*
Y825500D01*
Y-889000D02*
X1524000Y-1016000D01*
X635000Y2159000D02*
X889000D01*
X635000D02*
X1016000Y1778000D01*
Y1524000D02*
Y1778000D01*
%TF.MD5,3365b17fbf54d4f560b41eda9d889182*%
M02*
