%TF.GenerationSoftware,Altium Limited,Altium Designer,21.6.4 (81)*%
G04 Layer_Color=0*
%FSLAX45Y45*%
%MOMM*%
%TF.SameCoordinates,9345792A-51CD-4EE4-BA55-F0C5EFB68DB6*%
%TF.FilePolarity,Positive*%
%TF.FileFunction,Plated,1,2,PTH,Drill*%
%TF.Part,Single*%
%TFFileComment,PewCB.BlankType,3x3Base*%
G01*
G75*
%TA.AperFunction,OtherDrill,Pad Free-1 (-3.81mm,21.59mm)*%
%ADD23C,1.00000*%
%TA.AperFunction,OtherDrill,Pad Free-1 (-3.81mm,24.13mm)*%
%ADD24C,1.00000*%
%TA.AperFunction,OtherDrill,Pad Free-1 (-24.13mm,1.27mm)*%
%ADD25C,1.00000*%
%TA.AperFunction,OtherDrill,Pad Free-1 (21.59mm,19.05mm)*%
%ADD26C,1.00000*%
%TA.AperFunction,OtherDrill,Pad Free-1 (24.13mm,19.05mm)*%
%ADD27C,1.00000*%
%TA.AperFunction,OtherDrill,Pad Free-1 (24.13mm,16.51mm)*%
%ADD28C,1.00000*%
%TA.AperFunction,OtherDrill,Pad Free-1 (21.59mm,16.51mm)*%
%ADD29C,1.00000*%
%TA.AperFunction,OtherDrill,Pad Free-1 (21.59mm,13.97mm)*%
%ADD30C,1.00000*%
%TA.AperFunction,OtherDrill,Pad Free-1 (24.13mm,13.97mm)*%
%ADD31C,1.00000*%
%TA.AperFunction,OtherDrill,Pad Free-1 (24.13mm,11.43mm)*%
%ADD32C,1.00000*%
%TA.AperFunction,OtherDrill,Pad Free-1 (21.59mm,11.43mm)*%
%ADD33C,1.00000*%
%TA.AperFunction,OtherDrill,Pad Free-1 (24.13mm,8.89mm)*%
%ADD34C,1.00000*%
%TA.AperFunction,OtherDrill,Pad Free-1 (21.59mm,8.89mm)*%
%ADD35C,1.00000*%
%TA.AperFunction,OtherDrill,Pad Free-1 (24.13mm,6.35mm)*%
%ADD36C,1.00000*%
%TA.AperFunction,OtherDrill,Pad Free-1 (21.59mm,6.35mm)*%
%ADD37C,1.00000*%
%TA.AperFunction,OtherDrill,Pad Free-1 (21.59mm,3.81mm)*%
%ADD38C,1.00000*%
%TA.AperFunction,OtherDrill,Pad Free-1 (24.13mm,1.27mm)*%
%ADD39C,1.00000*%
%TA.AperFunction,OtherDrill,Pad Free-1 (24.13mm,-3.81mm)*%
%ADD40C,1.00000*%
%TA.AperFunction,OtherDrill,Pad Free-1 (24.13mm,-11.43mm)*%
%ADD41C,1.00000*%
%TA.AperFunction,OtherDrill,Pad Free-1 (24.13mm,-16.51mm)*%
%ADD42C,1.00000*%
%TA.AperFunction,OtherDrill,Pad Free-1 (24.13mm,-19.05mm)*%
%ADD43C,1.00000*%
%TA.AperFunction,OtherDrill,Pad Free-1 (24.13mm,-1.27mm)*%
%ADD44C,1.00000*%
%TA.AperFunction,OtherDrill,Pad Free-1 (24.13mm,-6.35mm)*%
%ADD45C,1.00000*%
%TA.AperFunction,OtherDrill,Pad Free-1 (24.13mm,-13.97mm)*%
%ADD46C,1.00000*%
%TA.AperFunction,OtherDrill,Pad Free-1 (24.13mm,-8.89mm)*%
%ADD47C,1.00000*%
%TA.AperFunction,OtherDrill,Pad Free-1 (24.13mm,3.81mm)*%
%ADD48C,1.00000*%
%TA.AperFunction,OtherDrill,Pad Free-1 (21.59mm,-11.43mm)*%
%ADD49C,1.00000*%
%TA.AperFunction,OtherDrill,Pad Free-1 (21.59mm,-19.05mm)*%
%ADD50C,1.00000*%
%TA.AperFunction,OtherDrill,Pad Free-1 (21.59mm,1.27mm)*%
%ADD51C,1.00000*%
%TA.AperFunction,OtherDrill,Pad Free-1 (21.59mm,-16.51mm)*%
%ADD52C,1.00000*%
%TA.AperFunction,OtherDrill,Pad Free-1 (21.59mm,-8.89mm)*%
%ADD53C,1.00000*%
%TA.AperFunction,OtherDrill,Pad Free-1 (21.59mm,-1.27mm)*%
%ADD54C,1.00000*%
%TA.AperFunction,OtherDrill,Pad Free-1 (21.59mm,-6.35mm)*%
%ADD55C,1.00000*%
%TA.AperFunction,OtherDrill,Pad Free-1 (21.59mm,-3.81mm)*%
%ADD56C,1.00000*%
%TA.AperFunction,OtherDrill,Pad Free-1 (21.59mm,-13.97mm)*%
%ADD57C,1.00000*%
%TA.AperFunction,OtherDrill,Pad Free-1 (-19.05mm,21.59mm)*%
%ADD58C,1.00000*%
%TA.AperFunction,OtherDrill,Pad Free-1 (19.05mm,24.13mm)*%
%ADD59C,1.00000*%
%TA.AperFunction,OtherDrill,Pad Free-1 (16.51mm,24.13mm)*%
%ADD60C,1.00000*%
%TA.AperFunction,OtherDrill,Pad Free-1 (19.05mm,21.59mm)*%
%ADD61C,1.00000*%
%TA.AperFunction,OtherDrill,Pad Free-1 (16.51mm,21.59mm)*%
%ADD62C,1.00000*%
%TA.AperFunction,OtherDrill,Pad Free-1 (13.97mm,21.59mm)*%
%ADD63C,1.00000*%
%TA.AperFunction,OtherDrill,Pad Free-1 (13.97mm,24.13mm)*%
%ADD64C,1.00000*%
%TA.AperFunction,OtherDrill,Pad Free-1 (11.43mm,24.13mm)*%
%ADD65C,1.00000*%
%TA.AperFunction,OtherDrill,Pad Free-1 (11.43mm,21.59mm)*%
%ADD66C,1.00000*%
%TA.AperFunction,OtherDrill,Pad Free-1 (8.89mm,24.13mm)*%
%ADD67C,1.00000*%
%TA.AperFunction,OtherDrill,Pad Free-1 (8.89mm,21.59mm)*%
%ADD68C,1.00000*%
%TA.AperFunction,OtherDrill,Pad Free-1 (6.35mm,24.13mm)*%
%ADD69C,1.00000*%
%TA.AperFunction,OtherDrill,Pad Free-1 (6.35mm,21.59mm)*%
%ADD70C,1.00000*%
%TA.AperFunction,OtherDrill,Pad Free-1 (3.81mm,21.59mm)*%
%ADD71C,1.00000*%
%TA.AperFunction,OtherDrill,Pad Free-1 (3.81mm,24.13mm)*%
%ADD72C,1.00000*%
%TA.AperFunction,OtherDrill,Pad Free-1 (1.27mm,21.59mm)*%
%ADD73C,1.00000*%
%TA.AperFunction,OtherDrill,Pad Free-1 (-19.05mm,24.13mm)*%
%ADD74C,1.00000*%
%TA.AperFunction,OtherDrill,Pad Free-1 (1.27mm,24.13mm)*%
%ADD75C,1.00000*%
%TA.AperFunction,OtherDrill,Pad Free-1 (-1.27mm,24.13mm)*%
%ADD76C,1.00000*%
%TA.AperFunction,OtherDrill,Pad Free-1 (-8.89mm,24.13mm)*%
%ADD77C,1.00000*%
%TA.AperFunction,OtherDrill,Pad Free-1 (-6.35mm,24.13mm)*%
%ADD78C,1.00000*%
%TA.AperFunction,OtherDrill,Pad Free-1 (-11.43mm,24.13mm)*%
%ADD79C,1.00000*%
%TA.AperFunction,OtherDrill,Pad Free-1 (-16.51mm,24.13mm)*%
%ADD80C,1.00000*%
%TA.AperFunction,OtherDrill,Pad Free-1 (-13.97mm,24.13mm)*%
%ADD81C,1.00000*%
%TA.AperFunction,OtherDrill,Pad Free-1 (-11.43mm,21.59mm)*%
%ADD82C,1.00000*%
%TA.AperFunction,OtherDrill,Pad Free-1 (-1.27mm,21.59mm)*%
%ADD83C,1.00000*%
%TA.AperFunction,OtherDrill,Pad Free-1 (-6.35mm,21.59mm)*%
%ADD84C,1.00000*%
%TA.AperFunction,OtherDrill,Pad Free-1 (-8.89mm,21.59mm)*%
%ADD85C,1.00000*%
%TA.AperFunction,OtherDrill,Pad Free-1 (-13.97mm,21.59mm)*%
%ADD86C,1.00000*%
%TA.AperFunction,OtherDrill,Pad Free-1 (-16.51mm,21.59mm)*%
%ADD87C,1.00000*%
%TA.AperFunction,OtherDrill,Pad Free-1 (-21.59mm,-8.89mm)*%
%ADD88C,1.00000*%
%TA.AperFunction,OtherDrill,Pad Free-1 (-24.13mm,-19.05mm)*%
%ADD89C,1.00000*%
%TA.AperFunction,OtherDrill,Pad Free-1 (-24.13mm,-13.97mm)*%
%ADD90C,1.00000*%
%TA.AperFunction,OtherDrill,Pad Free-1 (-24.13mm,-16.51mm)*%
%ADD91C,1.00000*%
%TA.AperFunction,OtherDrill,Pad Free-1 (-24.13mm,-11.43mm)*%
%ADD92C,1.00000*%
%TA.AperFunction,OtherDrill,Pad Free-1 (-24.13mm,-8.89mm)*%
%ADD93C,1.00000*%
%TA.AperFunction,OtherDrill,Pad Free-1 (-24.13mm,-6.35mm)*%
%ADD94C,1.00000*%
%TA.AperFunction,OtherDrill,Pad Free-1 (-24.13mm,-3.81mm)*%
%ADD95C,1.00000*%
%TA.AperFunction,OtherDrill,Pad Free-1 (-21.59mm,-13.97mm)*%
%ADD96C,1.00000*%
%TA.AperFunction,OtherDrill,Pad Free-1 (-21.59mm,-11.43mm)*%
%ADD97C,1.00000*%
%TA.AperFunction,OtherDrill,Pad Free-1 (-21.59mm,-16.51mm)*%
%ADD98C,1.00000*%
%TA.AperFunction,OtherDrill,Pad Free-1 (-21.59mm,-3.81mm)*%
%ADD99C,1.00000*%
%TA.AperFunction,OtherDrill,Pad Free-1 (-21.59mm,-19.05mm)*%
%ADD100C,1.00000*%
%TA.AperFunction,OtherDrill,Pad Free-1 (-21.59mm,-6.35mm)*%
%ADD101C,1.00000*%
%TA.AperFunction,OtherDrill,Pad Free-1 (-24.13mm,16.51mm)*%
%ADD102C,1.00000*%
%TA.AperFunction,OtherDrill,Pad Free-1 (-21.59mm,19.05mm)*%
%ADD103C,1.00000*%
%TA.AperFunction,OtherDrill,Pad Free-1 (-21.59mm,16.51mm)*%
%ADD104C,1.00000*%
%TA.AperFunction,OtherDrill,Pad Free-1 (-24.13mm,19.05mm)*%
%ADD105C,1.00000*%
%TA.AperFunction,OtherDrill,Pad Free-1 (-21.59mm,1.27mm)*%
%ADD106C,1.00000*%
%TA.AperFunction,OtherDrill,Pad Free-1 (-24.13mm,6.35mm)*%
%ADD107C,1.00000*%
%TA.AperFunction,OtherDrill,Pad Free-1 (-21.59mm,6.35mm)*%
%ADD108C,1.00000*%
%TA.AperFunction,OtherDrill,Pad Free-1 (-24.13mm,11.43mm)*%
%ADD109C,1.00000*%
%TA.AperFunction,OtherDrill,Pad Free-1 (-21.59mm,13.97mm)*%
%ADD110C,1.00000*%
%TA.AperFunction,OtherDrill,Pad Free-1 (-24.13mm,3.81mm)*%
%ADD111C,1.00000*%
%TA.AperFunction,OtherDrill,Pad Free-1 (-24.13mm,13.97mm)*%
%ADD112C,1.00000*%
%TA.AperFunction,OtherDrill,Pad Free-1 (-21.59mm,3.81mm)*%
%ADD113C,1.00000*%
%TA.AperFunction,OtherDrill,Pad Free-1 (-24.13mm,8.89mm)*%
%ADD114C,1.00000*%
%TA.AperFunction,OtherDrill,Pad Free-1 (-21.59mm,8.89mm)*%
%ADD115C,1.00000*%
%TA.AperFunction,OtherDrill,Pad Free-1 (-21.59mm,11.43mm)*%
%ADD116C,1.00000*%
%TA.AperFunction,OtherDrill,Pad Free-1 (-24.13mm,-1.27mm)*%
%ADD117C,1.00000*%
%TA.AperFunction,OtherDrill,Pad Free-1 (-21.59mm,-1.27mm)*%
%ADD118C,1.00000*%
%TA.AperFunction,OtherDrill,Pad Free-1 (-22.86mm,22.86mm)*%
G04:AMPARAMS|DCode=119|XSize=2.8mm|YSize=2.6mm|CornerRadius=0mm|HoleSize=0mm|Usage=FLASHONLY|Rotation=-45.000|XOffset=0mm|YOffset=0mm|HoleType=Round|Shape=Round|*
%AMOVALD119*
21,1,0.20000,2.60000,0.00000,0.00000,-45.0*
1,1,2.60000,-0.07071,0.07071*
1,1,2.60000,0.07071,-0.07071*
%
%ADD119OVALD119*%

%TA.AperFunction,OtherDrill,Pad Free-2 (22.86mm,22.86mm)*%
G04:AMPARAMS|DCode=120|XSize=2.8mm|YSize=2.6mm|CornerRadius=0mm|HoleSize=0mm|Usage=FLASHONLY|Rotation=45.000|XOffset=0mm|YOffset=0mm|HoleType=Round|Shape=Round|*
%AMOVALD120*
21,1,0.20000,2.60000,0.00000,0.00000,45.0*
1,1,2.60000,-0.07071,-0.07071*
1,1,2.60000,0.07071,0.07071*
%
%ADD120OVALD120*%

%TA.AperFunction,OtherDrill,Pad Free-4 (-22.86mm,-22.86mm)*%
G04:AMPARAMS|DCode=121|XSize=2.8mm|YSize=2.6mm|CornerRadius=0mm|HoleSize=0mm|Usage=FLASHONLY|Rotation=45.000|XOffset=0mm|YOffset=0mm|HoleType=Round|Shape=Round|*
%AMOVALD121*
21,1,0.20000,2.60000,0.00000,0.00000,45.0*
1,1,2.60000,-0.07071,-0.07071*
1,1,2.60000,0.07071,0.07071*
%
%ADD121OVALD121*%

%TA.AperFunction,OtherDrill,Pad Free-3 (22.86mm,-22.86mm)*%
G04:AMPARAMS|DCode=122|XSize=2.8mm|YSize=2.6mm|CornerRadius=0mm|HoleSize=0mm|Usage=FLASHONLY|Rotation=-45.000|XOffset=0mm|YOffset=0mm|HoleType=Round|Shape=Round|*
%AMOVALD122*
21,1,0.20000,2.60000,0.00000,0.00000,-45.0*
1,1,2.60000,-0.07071,0.07071*
1,1,2.60000,0.07071,-0.07071*
%
%ADD122OVALD122*%

%TA.AperFunction,ViaDrill,NotFilled*%
%ADD123C,0.30000*%
D23*
X-381000Y2159000D02*
D03*
D24*
X-381000Y2413000D02*
D03*
D25*
X-2413000Y127000D02*
D03*
D26*
X2158999Y1905000D02*
D03*
D27*
X2413000Y1905000D02*
D03*
D28*
X2413000Y1651000D02*
D03*
D29*
X2159000Y1651000D02*
D03*
D30*
Y1397000D02*
D03*
D31*
X2413000Y1397000D02*
D03*
D32*
X2413000Y1143000D02*
D03*
D33*
X2159000Y1143000D02*
D03*
D34*
X2413000Y889000D02*
D03*
D35*
X2159000D02*
D03*
D36*
X2413000Y635000D02*
D03*
D37*
X2159000Y634999D02*
D03*
D38*
Y381000D02*
D03*
D39*
X2413000Y127000D02*
D03*
D40*
Y-381001D02*
D03*
D41*
Y-1142999D02*
D03*
D42*
Y-1651000D02*
D03*
D43*
Y-1905000D02*
D03*
D44*
Y-127000D02*
D03*
D45*
Y-635000D02*
D03*
D46*
Y-1397000D02*
D03*
D47*
Y-889000D02*
D03*
D48*
Y381000D02*
D03*
D49*
X2159001Y-1143000D02*
D03*
D50*
X2159000Y-1905000D02*
D03*
D51*
X2159000Y127000D02*
D03*
D52*
Y-1651000D02*
D03*
D53*
Y-889000D02*
D03*
D54*
Y-127000D02*
D03*
D55*
Y-635000D02*
D03*
D56*
Y-381001D02*
D03*
D57*
X2158999Y-1397000D02*
D03*
D58*
X-1905000Y2159000D02*
D03*
D59*
X1905000Y2413000D02*
D03*
D60*
X1651000D02*
D03*
D61*
X1905000Y2159000D02*
D03*
D62*
X1651000Y2159000D02*
D03*
D63*
X1397000D02*
D03*
D64*
X1397000Y2413000D02*
D03*
D65*
X1143000D02*
D03*
D66*
Y2159000D02*
D03*
D67*
X889000Y2413000D02*
D03*
D68*
Y2159000D02*
D03*
D69*
X635000Y2413000D02*
D03*
D70*
Y2159000D02*
D03*
D71*
X381000D02*
D03*
D72*
X381000Y2413000D02*
D03*
D73*
X127000Y2159000D02*
D03*
D74*
X-1905000Y2413000D02*
D03*
D75*
X127000Y2413000D02*
D03*
D76*
X-127000D02*
D03*
D77*
X-889000D02*
D03*
D78*
X-635000D02*
D03*
D79*
X-1143000D02*
D03*
D80*
X-1651000D02*
D03*
D81*
X-1397000Y2413000D02*
D03*
D82*
X-1143000Y2159000D02*
D03*
D83*
X-127000Y2159000D02*
D03*
D84*
X-635000D02*
D03*
D85*
X-889000D02*
D03*
D86*
X-1397000D02*
D03*
D87*
X-1651000D02*
D03*
D88*
X-2159000Y-889000D02*
D03*
D89*
X-2413000Y-1905000D02*
D03*
D90*
Y-1397000D02*
D03*
D91*
Y-1651000D02*
D03*
D92*
Y-1143000D02*
D03*
D93*
Y-889000D02*
D03*
D94*
Y-635000D02*
D03*
D95*
Y-381000D02*
D03*
D96*
X-2159000Y-1397000D02*
D03*
D97*
Y-1143000D02*
D03*
D98*
Y-1651000D02*
D03*
D99*
Y-381000D02*
D03*
D100*
Y-1905000D02*
D03*
D101*
Y-635000D02*
D03*
D102*
X-2413000Y1651000D02*
D03*
D103*
X-2159000Y1905000D02*
D03*
D104*
Y1651000D02*
D03*
D105*
X-2413000Y1905000D02*
D03*
D106*
X-2159000Y127000D02*
D03*
D107*
X-2413000Y635000D02*
D03*
D108*
X-2159000D02*
D03*
D109*
X-2413000Y1143000D02*
D03*
D110*
X-2159000Y1397000D02*
D03*
D111*
X-2413000Y381000D02*
D03*
D112*
Y1397000D02*
D03*
D113*
X-2159000Y381000D02*
D03*
D114*
X-2413000Y889000D02*
D03*
D115*
X-2159000D02*
D03*
D116*
Y1143000D02*
D03*
D117*
X-2413000Y-127000D02*
D03*
D118*
X-2159000D02*
D03*
D119*
X-2286000Y2286000D02*
D03*
D120*
X2286000D02*
D03*
D121*
X-2286000Y-2286000D02*
D03*
D122*
X2286000D02*
D03*
D123*
X-1524000Y0D02*
D03*
Y1016000D02*
D03*
Y-1016000D02*
D03*
Y-1524000D02*
D03*
Y-508000D02*
D03*
X-1016000Y-1524000D02*
D03*
Y-1016000D02*
D03*
Y-508000D02*
D03*
Y0D02*
D03*
X-508000Y-1524000D02*
D03*
Y-1016000D02*
D03*
Y-508000D02*
D03*
X0Y-1016000D02*
D03*
Y-1524000D02*
D03*
Y-508000D02*
D03*
Y0D02*
D03*
Y508000D02*
D03*
X-508000Y0D02*
D03*
X-1524000Y508000D02*
D03*
X-1016000D02*
D03*
X-508000D02*
D03*
X-1016000Y1016000D02*
D03*
X-508000D02*
D03*
X0D02*
D03*
X-1524000Y1524000D02*
D03*
X-1016000D02*
D03*
X-508000D02*
D03*
X508000Y-508000D02*
D03*
Y-1524000D02*
D03*
Y-1016000D02*
D03*
Y0D02*
D03*
X1016000Y-1524000D02*
D03*
Y-1016000D02*
D03*
Y0D02*
D03*
Y-508000D02*
D03*
X1524000Y-1016000D02*
D03*
Y-1524000D02*
D03*
Y0D02*
D03*
Y-508000D02*
D03*
X508000Y508000D02*
D03*
Y1016000D02*
D03*
Y1524000D02*
D03*
X1016000Y508000D02*
D03*
Y1524000D02*
D03*
Y1016000D02*
D03*
X1524000Y508000D02*
D03*
Y1016000D02*
D03*
Y1524000D02*
D03*
X0D02*
D03*
%TF.MD5,46a06c37a62c81ccdde30ec84341ca2f*%
M02*
