%TF.GenerationSoftware,Altium Limited,Altium Designer,21.6.4 (81)*%
G04 Layer_Color=8388736*
%FSLAX45Y45*%
%MOMM*%
%TF.SameCoordinates,CE7E344D-0350-4870-A94A-7B3C8A625D11*%
%TF.FilePolarity,Negative*%
%TF.FileFunction,Soldermask,Top*%
%TF.Part,Single*%
%TFFileComment,PewCB.BlankType,3x3Base*%
G01*
G75*
%TA.AperFunction,SMDPad,CuDef*%
G04:AMPARAMS|DCode=10|XSize=0.55mm|YSize=0.55mm|CornerRadius=0.1375mm|HoleSize=0mm|Usage=FLASHONLY|Rotation=0.000|XOffset=0mm|YOffset=0mm|HoleType=Round|Shape=RoundedRectangle|*
%AMROUNDEDRECTD10*
21,1,0.55000,0.27500,0,0,0.0*
21,1,0.27500,0.55000,0,0,0.0*
1,1,0.27500,0.13750,-0.13750*
1,1,0.27500,-0.13750,-0.13750*
1,1,0.27500,-0.13750,0.13750*
1,1,0.27500,0.13750,0.13750*
%
%ADD10ROUNDEDRECTD10*%
G04:AMPARAMS|DCode=11|XSize=0.55mm|YSize=0.55mm|CornerRadius=0.1375mm|HoleSize=0mm|Usage=FLASHONLY|Rotation=270.000|XOffset=0mm|YOffset=0mm|HoleType=Round|Shape=RoundedRectangle|*
%AMROUNDEDRECTD11*
21,1,0.55000,0.27500,0,0,270.0*
21,1,0.27500,0.55000,0,0,270.0*
1,1,0.27500,-0.13750,-0.13750*
1,1,0.27500,-0.13750,0.13750*
1,1,0.27500,0.13750,0.13750*
1,1,0.27500,0.13750,-0.13750*
%
%ADD11ROUNDEDRECTD11*%
G04:AMPARAMS|DCode=12|XSize=0.55mm|YSize=0.55mm|CornerRadius=0.1375mm|HoleSize=0mm|Usage=FLASHONLY|Rotation=315.000|XOffset=0mm|YOffset=0mm|HoleType=Round|Shape=RoundedRectangle|*
%AMROUNDEDRECTD12*
21,1,0.55000,0.27500,0,0,315.0*
21,1,0.27500,0.55000,0,0,315.0*
1,1,0.27500,0.00000,-0.19445*
1,1,0.27500,-0.19445,0.00000*
1,1,0.27500,0.00000,0.19445*
1,1,0.27500,0.19445,0.00000*
%
%ADD12ROUNDEDRECTD12*%
%ADD13R,0.35560X1.29540*%
%ADD15R,0.93980X0.40640*%
G04:AMPARAMS|DCode=16|XSize=1mm|YSize=0.8mm|CornerRadius=0.2mm|HoleSize=0mm|Usage=FLASHONLY|Rotation=90.000|XOffset=0mm|YOffset=0mm|HoleType=Round|Shape=RoundedRectangle|*
%AMROUNDEDRECTD16*
21,1,1.00000,0.40000,0,0,90.0*
21,1,0.60000,0.80000,0,0,90.0*
1,1,0.40000,0.20000,0.30000*
1,1,0.40000,0.20000,-0.30000*
1,1,0.40000,-0.20000,-0.30000*
1,1,0.40000,-0.20000,0.30000*
%
%ADD16ROUNDEDRECTD16*%
%TA.AperFunction,ViaPad*%
%ADD22C,1.80000*%
%ADD23C,4.40000*%
G36*
X-1817780Y-2000000D02*
D01*
D01*
D01*
D01*
D01*
D01*
D01*
D01*
D02*
G37*
G36*
X-1782220D02*
D01*
D01*
D01*
D01*
D01*
D01*
D01*
D01*
D02*
G37*
G36*
X-1817780Y1600000D02*
D01*
D01*
D01*
D01*
D01*
D01*
D01*
D01*
D02*
G37*
G36*
X-1782220D02*
D01*
D01*
D01*
D01*
D01*
D01*
D01*
D01*
D02*
G37*
G36*
X1782220Y-2000000D02*
D01*
D01*
D01*
D01*
D01*
D01*
D01*
D01*
D02*
G37*
G36*
X1817780D02*
D01*
D01*
D01*
D01*
D01*
D01*
D01*
D01*
D02*
G37*
G36*
X1782220Y1600000D02*
D01*
D01*
D01*
D01*
D01*
D01*
D01*
D01*
D02*
G37*
G36*
X1817780D02*
D01*
D01*
D01*
D01*
D01*
D01*
D01*
D01*
D02*
G37*
D10*
X-1930400Y1968515D02*
D03*
Y1878515D02*
D03*
X-1898655Y-1453329D02*
D03*
Y-1543329D02*
D03*
X1435100Y-1275800D02*
D03*
Y-1365800D02*
D03*
X1651000Y-1377400D02*
D03*
Y-1467400D02*
D03*
D11*
X-1212300Y1828800D02*
D03*
X-1302300D02*
D03*
X1284099Y1688145D02*
D03*
X1374099D02*
D03*
X1199600Y1917700D02*
D03*
X1289600D02*
D03*
D12*
X-1411388Y-1656081D02*
D03*
X-1475028Y-1719721D02*
D03*
D13*
X-1627280Y-2000000D02*
D03*
X-1972720D02*
D03*
X1627280D02*
D03*
X1972720D02*
D03*
X-1972720Y1600000D02*
D03*
X-1627280D02*
D03*
X1972720D02*
D03*
X1627280D02*
D03*
D15*
X-1867627Y-1954915D02*
D03*
X-1732372D02*
D03*
Y-2045085D02*
D03*
X-1867627D02*
D03*
X1732372D02*
D03*
X1867627D02*
D03*
Y-1954915D02*
D03*
X1732372D02*
D03*
X-1867627Y1554915D02*
D03*
X-1732372D02*
D03*
Y1645085D02*
D03*
X-1867627D02*
D03*
X1732372D02*
D03*
X1867627D02*
D03*
Y1554915D02*
D03*
X1732372D02*
D03*
D16*
X-1880000Y-2273100D02*
D03*
X-1720000D02*
D03*
X-1880000Y-2423100D02*
D03*
X-1720000D02*
D03*
X1874100Y-2413200D02*
D03*
X1714100D02*
D03*
X1874100Y-2263200D02*
D03*
X1714100D02*
D03*
X-1720000Y1350000D02*
D03*
X-1880000D02*
D03*
X-1720000Y1200000D02*
D03*
X-1880000D02*
D03*
X1720000Y1190490D02*
D03*
X1880000D02*
D03*
Y1324283D02*
D03*
X1720000D02*
D03*
D22*
X-381000Y2159000D02*
D03*
X-381000Y2413000D02*
D03*
X-2413000Y127000D02*
D03*
X2158999Y1905000D02*
D03*
X2413000Y1905000D02*
D03*
X2413000Y1651000D02*
D03*
X2159000Y1651000D02*
D03*
Y1397000D02*
D03*
X2413000Y1397000D02*
D03*
X2413000Y1143000D02*
D03*
X2159000Y1143000D02*
D03*
X2413000Y889000D02*
D03*
X2159000D02*
D03*
X2413000Y635000D02*
D03*
X2159000Y634999D02*
D03*
Y381000D02*
D03*
X2413000Y127000D02*
D03*
Y-381001D02*
D03*
Y-1142999D02*
D03*
Y-1651000D02*
D03*
Y-1905000D02*
D03*
Y-127000D02*
D03*
Y-635000D02*
D03*
Y-1397000D02*
D03*
Y-889000D02*
D03*
Y381000D02*
D03*
X2159001Y-1143000D02*
D03*
X2159000Y-1905000D02*
D03*
X2159000Y127000D02*
D03*
Y-1651000D02*
D03*
Y-889000D02*
D03*
Y-127000D02*
D03*
Y-635000D02*
D03*
Y-381001D02*
D03*
X2158999Y-1397000D02*
D03*
X-1905000Y2159000D02*
D03*
X1905000Y2413000D02*
D03*
X1651000D02*
D03*
X1905000Y2159000D02*
D03*
X1651000Y2159000D02*
D03*
X1397000D02*
D03*
X1397000Y2413000D02*
D03*
X1143000D02*
D03*
Y2159000D02*
D03*
X889000Y2413000D02*
D03*
Y2159000D02*
D03*
X635000Y2413000D02*
D03*
Y2159000D02*
D03*
X381000D02*
D03*
X381000Y2413000D02*
D03*
X127000Y2159000D02*
D03*
X-1905000Y2413000D02*
D03*
X127000Y2413000D02*
D03*
X-127000D02*
D03*
X-889000D02*
D03*
X-635000D02*
D03*
X-1143000D02*
D03*
X-1651000D02*
D03*
X-1397000Y2413000D02*
D03*
X-1143000Y2159000D02*
D03*
X-127000Y2159000D02*
D03*
X-635000D02*
D03*
X-889000D02*
D03*
X-1397000D02*
D03*
X-1651000D02*
D03*
X-2159000Y-889000D02*
D03*
X-2413000Y-1905000D02*
D03*
Y-1397000D02*
D03*
Y-1651000D02*
D03*
Y-1143000D02*
D03*
Y-889000D02*
D03*
Y-635000D02*
D03*
Y-381000D02*
D03*
X-2159000Y-1397000D02*
D03*
Y-1143000D02*
D03*
Y-1651000D02*
D03*
Y-381000D02*
D03*
Y-1905000D02*
D03*
Y-635000D02*
D03*
X-2413000Y1651000D02*
D03*
X-2159000Y1905000D02*
D03*
Y1651000D02*
D03*
X-2413000Y1905000D02*
D03*
X-2159000Y127000D02*
D03*
X-2413000Y635000D02*
D03*
X-2159000D02*
D03*
X-2413000Y1143000D02*
D03*
X-2159000Y1397000D02*
D03*
X-2413000Y381000D02*
D03*
Y1397000D02*
D03*
X-2159000Y381000D02*
D03*
X-2413000Y889000D02*
D03*
X-2159000D02*
D03*
Y1143000D02*
D03*
X-2413000Y-127000D02*
D03*
X-2159000D02*
D03*
D23*
X-2286000Y2286000D02*
D03*
X2286000D02*
D03*
X-2286000Y-2286000D02*
D03*
X2286000D02*
D03*
%TF.MD5,362c6f71941793867b0b2c8be046836f*%
M02*
